/* XPM */
static char *explosion_7[] = {
/* columns rows colors chars-per-pixel */
"50 60 9 1 ",
"  c #211D17",
". c #3E362A",
"X c #600000",
"o c #504636",
"O c #9B2500",
"+ c #D1601A",
"@ c #EF9200",
"# c #FFD76C",
"$ c None",
/* pixels */
"$$$$$$$$$$$$$$$$$$$$$$$$$$$$$$$$$$$$$$$$$$$$$$$$$$",
"$$$$$$$$$$$$$$$$$$$$$$$$$$$$$$$$$$$$$$$$$$$$$$$$$$",
"$$$$$$$$$$$$$$$$$$$++++++++$$$$$$$$$$$$$$$$$$$$$$$",
"$$$$$$$$$$$$$$$$$$$@@@@@@@@+++@$$$$$$$$$$$$$$$$$$$",
"$$$$$$$$$$$$$$$$$O+@@@@##@@++++$$$$$$$$$$$$$$$$$$$",
"$$$$$$$$$$$$$$$$O+@@###@@@@+++O+@@$$$$$$$$$$$$$$$$",
"$$$$$$$$$$$$$$$++++@##@@@@+++O+@####@$$$$$$$$$$$$$",
"$$$$$$$$$$$$$$@@@@+@@@@@@+++++@####@@$$$$$$$$$$$$$",
"$$$$$$$$$$$$$$####@@@@@++++#@####@@@@+$$$$$$$$$$$$",
"$$$$$$$$$$$$$$##@@#@+@@#@@##@@@@@@@@@++$$$$$$$$$$$",
"$$$$$$$$$$$$$$#@@@+++O++@#@+@@@@@@@+++++$$$$$$$$$$",
"$$$$$$$$$$$$$$@@+++...@##@@@+@@@@@@@++O@$$$$$$$$$$",
"$$$$$$$$$$$$$$$++++O.@###@@@++##@@@@++OO$$$$$$$$$$",
"$$$$$$$$$$$$$+++++O@@####@@@@+@@@+@@+++O$$$$$$$$$$",
"$$$$$$$$$$$$+@+@###@@###@@@@+++#++#+++OO$$$$$$$$$$",
"$$$$$$$$$$$$+@#@@@@@#@##@@@@+++#.+++++OO$$$$$$$$$$",
"$$$$$$$$$$$++#@@@O+@#@#@@@+@++O++++++OO+$$$$$$$$$$",
"$$$$$$$$$$$@###@+O+@@@@@@@+@++O#@+++OOO$$$$$$$$$$$",
"$$$$$$$$$$$@#@@@+OO@+@@@+@+++OO@@+++OO$$$$$$$$$$$$",
"$$$$$$$$$$$$#@@@+OO++@@@+++++OO@@++OO@@$$$$$$$$$$$",
"$$$$$$$$$$$$@@@++OO++++@+@+++OOOO@OOO@++$$$$$$$$$$",
"$$$$$$$$$$$$@@@++OOOO@+@+++OOOOOOOO@@@++$$$$$$$$$$",
"$$$$$$$$$$$@@@+++O  +++@++OOOOOOOX#@@@++$$$$$$$$$$",
"$$$$$$$$$$$@@++OOO  +++@++OOOOO@XX@#@@+O$$$$$$$$$$",
"$$$$$$$$$$$@@+++O+++@+++++OOO O++@#@#@+O$$$$$$$$$$",
"$$$$$$$$$$$@@++++O@###++OOOO   +@##@#++O$$$$$$$$$$",
"$$$$$$$$$$$$+++OOO####OOOOOO ..O@@@@#++O$$$$$$$$$$",
"$$$$$$$$$$$$+@OOOO@@  OOO+O  ..O++@@@++O$$$$$$$$$$",
"$$$$$$$$$$$$$+OOO@@O  @+OOOOO+OOO+@@++OO$$$$$$$$$$",
"$$$$$$$$$$$$$#@O@@@O@  @@@+++OO++++@OOO$$$$$$$$$$$",
"$$$$$$$$$$$$$#++O@###  +OO+OOO+++OO+OOO$$$$$$$$$$$",
"$$$$$$$$$$$$$$+OO#@@@#++@++O+O+++OOOOOO$$$$$$$$$$$",
"$$$$$$$$$$$$$$#OO+@@@@@@@+++OO++OOOOOOO$$$$$$$$$$$",
"$$$$$$$$$$$$$$.OO++++ +@++++O+++OXOOO $$$$$$$$$$$$",
"$$$$$$$$$$$$$$ XO++++  ++++O++@OOXOO  $$$$$$$$$$$$",
"$$$$$$$$$$$$$$  OOOOO+O+++++OOOXX@O+  $$$$$$$$$$$$",
"$$$$$$$$$$$$$$ X@+OOO#@@@@+@@O@@OXO+$.$$$$$$$$$$$$",
"$$$$$$$$$$$$$$ .+@@+@+#@+@@@@@@OOXO+$$$$$$$$$$$$$$",
"$$$$$$$$$$$$$$  +@#OO+#@+@@@+O@#@O+O$$.$$$$$$$$$$$",
"$$$$$$$$$$$$$$$.@++O++##+#@#++@@@O+O$$$$$$$$$$$$$$",
"$$$$$$$$$$$$$$$$O@+O++@@+@++++@@@+  $$$.$$$$$$$$$$",
"$$$$$$$$$$$$$$$$O@+++@@@@@+++O@@@+O o$$$$$$$$$$$$$",
"$$$$$$$$$$$$$$$$o@+++@+@++++OO@@@+  o$$$$$$$$$$$$$",
"$$$$$$$$$$$$$$$$o@++@O++++OOOO@.... $$$$$$$$$$$$$$",
"$$$$$$$$$$$$.$$$$. ++..O++OOOO.....$$$$$$$$$$$$$$$",
"$$$$$$$$$$$$.$$$$. @+.o.OOOO.....$o$$ $$$$$$$$$$$$",
"$$$$$$$$$$$$$.$$$o.O+.  .....  .O$$$$$$$$$$$$$$$$$",
"$$$$$$$$$$$$$$$$$$$O+.O       .X+$.$$$$$$$$$$$$$$$",
"$$$$$$$$$$$$$$$$$$$OO+..     .XXO$.$$.$$$$$$$$$$$$",
"$$$$$$$$$$$$$$$.$$$OXXX.  ....XX$$.$$$$$$$$$$$$$$$",
"$$$$$$$$$$$$$$$..$$..XXX..XXXXXX$$o$$$$$.$$$$$$$$$",
"$$$$$$$$$$$$$$$$.$$....XXXXXXX.$$$$$$$$$$$$$$$$$$$",
"$$$$$$$$$$$$$$$$$$$$.. .......X$$$$$$$$$$$$$$$$$$$",
"$$$$$$$$$$$$$$$$$$$$...       .$$$ $$$$$$$$$$$$$$$",
"$$$$$$$$$$$$$$$$$$.$$......  .. $$$$$$$$$$$$$$$$$$",
"$$$$$$$$$$$$$$$$$$$$..  o.   ..$$$$$$$$$$$$$$$$$$$",
"$$$$$$$$$$$$$$$$$$$$$.$ o.$$.. $$$$$$$$$$$$$$$$$$$",
"$$$$$$$$$$$$$$$$$$$$$$$$o.$$.. $$$$$$$$$$$$$$$$$$$",
"$$$$$$$$$$$$$$$$$$$$$$$$..$$$  $$$$$$$$$$$$$$$$$$$",
"$$$$$$$$$$$$$$$$$$$$$$$$..$$$$ $$$$$$$$$$$$$$$$$$$"
};
