/* XPM */
static char *explosion_5[] = {
/* columns rows colors chars-per-pixel */
"50 60 7 1 ",
"  c #600000",
". c #9B2500",
"X c #D1601A",
"o c #EF9200",
"O c #FFD76C",
"+ c white",
"@ c None",
/* pixels */
"@@@@@@@@@@@@@@@@@@@@@@@@@@@@@@@@@@@@@@@@@@@@@@@@@@",
"@@@@@@@@@@@@@@@@@@@@@@@@@@@@@@@@@@@@@@@@@@@@@@@@@@",
"@@@@@@@@@@@@@@@@@@@@@@@@@@@@@@@@@@@@@@@@@@@@@@@@@@",
"@@@@@@@@@@@@@@@@@@@XXXXXXXX@@@@@@@@@@@@@@@@@@@@@@@",
"@@@@@@@@@@@@@@@@@@.ooooooooXXXooo@@@@@@@@@@@@@@@@@",
"@@@@@@@@@@@@@@@@@.OO+O+OOooXXXX..XX@@@@@@@@@@@@@@@",
"@@@@@@@@@@@@@@@..oOO+OOOOOoXXX.Xoooooo@@@@@@@@@@@@",
"@@@@@@@@@@@@@@XooOOOOOOOOOooX.XoOOOOooo@@@@@@@@@@@",
"@@@@@@@@@@@XXXooooooooOOOoooXXoOOOOOOoo@@@@@@@@@@@",
"@@@@@@@@@@@XoOOOOOooo+OOOooOoOOOOOOOOOo@@@@@@@@@@@",
"@@@@@@@@@@XoOOOOOOOo+OOOOOOOOoOOOOOOOoo@@@@@@@@@@@",
"@@@@@@@@@@ooOOOOoOo+OOXXOOOOoooOOOOOoooo@@@@@@@@@@",
"@@@@@@@@@@ooO+OOOOOOOX..oOOOooooOOooooo@@@@@@@@@@@",
"@@@@@@@@@@oOOOOOOOOOX..OoooooXXooooooo.@@@@@@@@@@@",
"@@@@@@@@@@@oOOOOoOO...OOOoXXXXXXXooXX..@@@@@@@@@@@",
"@@@@@@@@@@@..oooOOOoXXoOOoooO+OOOoXooooX@@@@@@@@@@",
"@@@@@@@@@@@....oooooXXooOoOOO++OOooooooX@@@@@@@@@@",
"@@@@@@@@@@XXXooooooooXXoOOO++OOOOOooOOoX@@@@@@@@@@",
"@@@@@@@@@@X.XoXoOOOOoooooOOOOOOOOoOOOooX@@@@@@@@@@",
"@@@@@@@@@@..XoOO+OOOOoooooOOOOOOooOOooXX@@@@@@@@@@",
"@@@@@@@@@@.XXOOO++O+OOoXX.OoooOoOOOOooX@@@@@@@@@@@",
"@@@@@@@@@@.oOO++OOOOoooX..oXXXoOOOOooo@@@@@@@@@@@@",
"@@@@@@@@@@.oOOOOOOOOooXX..o....ooOooo.@@@@@@@@@@@@",
"@@@@@@@@@@X.OO+OOOoooXXXXXXooo.Xooo..@@@@@@@@@@@@@",
"@@@@@@@@@@@@ooOOOoooXXOOOOXXXoo..o..@@@@@@@@@@@@@@",
"@@@@@@@@@@@@@OOooooX.OOOOO+OOXX....@@@@@@@@@@@@@@@",
"@@@@@@@@@@@@@@oooo..XOOO+O++OOXX. Oo@@@@@@@@@@@@@@",
"@@@@@@@@@@@@@@@....XoOo+++OOOOoo  oOoo@@@@@@@@@@@@",
"@@@@@@@@@@@@@@@..XXXoOOOO+OOOOOXXoOoOooX@@@@@@@@@@",
"@@@@@@@@@@@@@XXXXXoOOOoOOOOOOOOooOOoOooX@@@@@@@@@@",
"@@@@@@@@@@@@XXXoooOOOOOOOOOOOOOoooooOOoXX@@@@@@@@@",
"@@@@@@@@@@@@XoOOOOooO.OOOXoOOOOooXoOOOooX@@@@@@@@@",
"@@@@@@@@@@@@XoOOOoo..OOOXX.oOOoooXoOOOooX@@@@@@@@@",
"@@@@@@@@@@@@oOOOooo.oOOXXX..OooooXXoOOooX@@@@@@@@@",
"@@@@@@@@@@@@oOOO.oOOOOXX..XXooooXX.XOOoX@@@@@@@@@@",
"@@@@@@@@@@@@oOO..OOOOOXXoXX.ooooXX.oOooX@@@@@@@@@@",
"@@@@@@@@@@@@@O...XOOoooOoo.oOXoXX..XooX@@@@@@@@@@@",
"@@@@@@@@@@@@@@ ..XXXXoXOOOOXXXXX. .Xoo@@@@@@@@@@@@",
"@@@@@@@@@@@@@@  .XXXXX.XoXXXXXo.. ooo@@@@@@@@@@@@@",
"@@@@@@@@@@@@@@@ ..XooX.XXXXX...  o.Oo@@@@@@@@@@@@@",
"@@@@@@@@@@@@@@@XoXoooOooooXoo.oo. .OX@@@@@@@@@@@@@",
"@@@@@@@@@@@@@@@.XooOoOOooooOOoo.. .OX@@@@@@@@@@@@@",
"@@@@@@@@@@@@@@@.XoOOoOOoOooOO.oOo.oOX@@@@@@@@@@@@@",
"@@@@@@@@@@@@@@@.oXooOOOOOOoOOoooo.OOo@@@@@@@@@@@@@",
"@@@@@@@@@@@@@@@..oOOoOOOOOoOOooOOoOOo@@@@@@@@@@@@@",
"@@@@@@@@@@@@@@@ .oOOoOOOOOOOOOoOoooO@@@@@@@@@@@@@@",
"@@@@@@@@@@@@@@@ .oOOOO+OOOO++OoOoooO@@@@@@@@@@@@@@",
"@@@@@@@@@@@@@@@X oOOOOO++++++OOOOoOO@@@@@@@@@@@@@@",
"@@@@@@@@@@@@@@@@XoooooOOOOOOOOoooOO@@@@@@@@@@@@@@@",
"@@@@@@@@@@@@@@@@oooooooooOOoooooOOO@@@@@@@@@@@@@@@",
"@@@@@@@@@@@@@@@@@oooooooooooooooooO@@@@@@@@@@@@@@@",
"@@@@@@@@@@@@@@@@@ooOoXXXXXXXXoooooO@@@@@@@@@@@@@@@",
"@@@@@@@@@@@@@@@@@@oOOXX......oooX.@@@@@@@@@@@@@@@@",
"@@@@@@@@@@@@@@@@@@..oXX.    XXXXX.@@@@@@@@@@@@@@@@",
"@@@@@@@@@@@@@@@@@@...ooXXXXXXXX...@@@@@@@@@@@@@@@@",
"@@@@@@@@@@@@@@@@@@@..oooXXoXXXX.. @@@@@@@@@@@@@@@@",
"@@@@@@@@@@@@@@@@@@@ ..XXXXXX.... @@@@@@@@@@@@@@@@@",
"@@@@@@@@@@@@@@@@@@@  ..XXXX..    @@@@@@@@@@@@@@@@@",
"@@@@@@@@@@@@@@@@@@@@  ......   @@@@@@@@@@@@@@@@@@@",
"@@@@@@@@@@@@@@@@@@@@@@      @@@@@@@@@@@@@@@@@@@@@@"
};
