/* XPM */
static char *explosion_6[] = {
/* columns rows colors chars-per-pixel */
"50 60 10 1 ",
"  c #211D17",
". c #3E362A",
"X c #600000",
"o c #504636",
"O c #9B2500",
"+ c #D1601A",
"@ c #EF9200",
"# c #FFD76C",
"$ c white",
"% c None",
/* pixels */
"%%%%%%%%%%%%%%%%%%%%%%%%%%%%%%%%%%%%%%%%%%%%%%%%%%",
"%%%%%%%%%%%%%%%%%%%%%%%%%%%%%%%%%%%%%%%%%%%%%%%%%%",
"%%%%%%%%%%%%%%%%%%%++++++++%%%%%%%%%%%%%%%%%%%%%%%",
"%%%%%%%%%%%%%%%%%%O@@@@@@@@+++@@@%%%%%%%%%%%%%%%%%",
"%%%%%%%%%%%%%%%%%O+@@@@##@@++++OO++%%%%%%%%%%%%%%%",
"%%%%%%%%%%%%%%%OO+@@$####@@+++O+@@@@%%%%%%%%%%%%%%",
"%%%%%%%%%%%%%%+++++@####@@+++O+@####@%%%%%%%%%%%%%",
"%%%%%%%%%%%%++@@@@+@@@@@@+++++@######@%%%%%%%%%%%%",
"%%%%%%%%%%%%@#####@@@@@++++#@#######@+%%%%%%%%%%%%",
"%%%%%%%%%%%@#######@$@@#@###@@#####@@+%%%%%%%%%%%%",
"%%%%%%%%%%%@####@#@@@@++@##+@@@#@@@@++%%%%%%%%%%%%",
"%%%%%%%%%%%@#$####@@@+OO@##++@@@@@@@++%%%%%%%%%%%%",
"%%%%%%%%%%%%@##@@@+@+OO#@@@OO++@++++++%%%%%%%%%%%%",
"%%%%%%%%%%%%%@@+++@OOO@@OOOO+++++++++OO%%%%%%%%%%%",
"%%%%%%%%%%%OO+++++#@+++++++O+++##+++@@@+%%%%%%%%%%",
"%%%%%%%%%%%OOOO+@@@@+@+@@@@@++$#@@@@@@@+%%%%%%%%%%",
"%%%%%%%%%%%+++++@@@@@@+@@@@@@+@@@+@@##@+%%%%%%%%%%",
"%%%%%%%%%%%O+@+@###@@@@@@###@+@#++###@@+%%%%%%%%%%",
"%%%%%%%%%%%O+@##$#@@#@###@###@@#++##@@++%%%%%%%%%%",
"%%%%%%%%%%%++###$@#@#########@@++###@@++%%%%%%%%%%",
"%%%%%%%%%%%@##$$@@@@@#######@@@####@@@+%%%%%%%%%%%",
"%%%%%%%%%%%@#@@@@++@+########@O@@#@@@O%%%%%%%%%%%%",
"%%%%%%%%%%%%#@@@@+@++@@#####@@O@@@@OOO%%%%%%%%%%%%",
"%%%%%%%%%%%%@@@++++++@@##@##@+OOO@OOO%%%%%%%%%%%%%",
"%%%%%%%%%%%%%%@+++OOO@@@###@@++OOOOO%%%%%%%%%%%%%%",
"%%%%%%%%%%%%%%@++OOO+++@@@@@@++OOX#@%%%%%%%%%%%%%%",
"%%%%%%%%%%%%%%%OOOO++@+@@@+@@+O@XX@#@@%%%%%%%%%%%%",
"%%%%%%%%%%%%%%%OO+++@#@@+@@+++O++@#@#@@%%%%%%%%%%%",
"%%%%%%%%%%%%%+@@@+@###@@@+@++OO+@##@#@@%%%%%%%%%%%",
"%%%%%%%%%%%%%+@@@@####@@@+++OOOO@@@@##@%%%%%%%%%%%",
"%%%%%%%%%%%%%@@@@#@@@@++++OOOOOO++@##++%%%%%%%%%%%",
"%%%%%%%%%%%%%@@@@@@OO@@+OOOOO+OOO+@##++%%%%%%%%%%%",
"%%%%%%%%%%%%%#@@@@@O@##@@@+++OO++++@#+O%%%%%%%%%%%",
"%%%%%%%%%%%%%###O@####++OO+OOO+++OO+@+O%%%%%%%%%%%",
"%%%%%%%%%%%%%%#OO#####++@++O@O+++OO@@+O%%%%%%%%%%%",
"%%%%%%%%%%%%%%#OO+##@@@#@@O@OO++OOO++OO%%%%%%%%%%%",
"%%%%%%%%%%%%%%.OO++++@+####+O+++OXO+OO%%%%%%%%%%%%",
"%%%%%%%%%%%%%%%XO+++++O+@++O++@OOX@+OO%%%%%%%%%%%%",
"%%%%%%%%%%%%%%%XOO+@@+O+++++OOOXX@O+O%%%%%%%%%%%%%",
"%%%%%%%%%%%%%%%X@+@@@#@@@@+@@O@@OXO+%%%%%%%%%%%%%%",
"%%%%%%%%%%%%%%%.+@@+@+#@+@@##@@OOXO+%%%%%%%%%%%%%%",
"%%%%%%%%%%%%%%%.+@#OO+#@+@@#+O@#@O+O%%%%%%%%%%%%%%",
"%%%%%%%%%%%%%%%.@++O++##+#@#+@@@@O+O%%%%%%%%%%%%%%",
"%%%%%%%%%%%%%%%%O@+O++@@+@@@+@@@@++O%%%%%%%%%%%%%%",
"%%%%%%%%%%%%%%%%O@+++@@@@@@+++@@@+OOo%%%%%%%%%%%%%",
"%%%%%%%%%%%%%%%%o@+++@+@@+++++@@@+  o%%%%%%%%%%%%%",
"%%%%%%%%%%%%%%%%o@++@O+++++++O@@@O. %%%%%%%%%%%%%%",
"%%%%%%%%%%%%%%%%%. ++OOO++++OO@@+O.%%%%%%%%%%%%%%%",
"%%%%%%%%%%%%%%%%%. @++OOOOOOOO@@+Oo%%%%%%%%%%%%%%%",
"%%%%%%%%%%%%%%%%%o.@++XOOOOOOX@@OO%%%%%%%%%%%%%%%%",
"%%%%%%%%%%%%%%%%%%%+++OXXXXXXO@++ .%%%%%%%%%%%%%%%",
"%%%%%%%%%%%%%%%%%%%O+++OXXXXO++OO%.%%%%%%%%%%%%%%%",
"%%%%%%%%%%%%%%%%%%%OOO+++OO++++O %.%%%%%%%%%%%%%%%",
"%%%%%%%%%%%%%%%%.%%OOOOO+++++++O %o%%%%%%%%%%%%%%%",
"%%%%%%%%%%%%%%%%%%%XXOOOOOOOOOOO %%%%%%%%%%%%%%%%%",
"%%%%%%%%%%%%%%%%%%%XXXOOOOOXXXXX %%%%%%%%%%%%%%%%%",
"%%%%%%%%%%%%%%%%%%%%XXXXXXXXXXX%%% %%%%%%%%%%%%%%%",
"%%%%%%%%%%%%%%%%%%.%%%XXXXXXX . %%%%%%%%%%%%%%%%%%",
"%%%%%%%%%%%%%%%%%%%%%%%%   .%..%%%%%%%%%%%%%%%%%%%",
"%%%%%%%%%%%%%%%%%%%%%%%%. %.%%%%%%%%%%%%%%%%%%%%%%"
};
