/* XPM */
static char *explosion_12[] = {
/* columns rows colors chars-per-pixel */
"50 60 5 1 ",
"  c #211D17",
". c #3E362A",
"X c #504636",
"o c #685B46",
"O c None",
/* pixels */
"OOOOOOOOOOOOOOOOOOOOOOOOOOOOOOOOOOOOOOOOOOOOOOOOOO",
"OOOOOOOOOOOOOOOOOOOOOOOOOOOOOOOOOOOOOOOOOOOOOOOOOO",
"OOOOOOOOOOOOOOOOOOOOOOOOOOOOOOOOOOOOOOOOOOOOOOOOOO",
"OOOOOOOOOOOOOOOOOOOOOOOOOOOOOOOOOOOOOOOOOOOOOOOOOO",
"OOOOOOOOOOOOOOOOOOOOOOOOOOOOOOOOOOOOOOOOOOOOOOOOOO",
"OOOOOOOOOOOOOOOOOOOOOOOOOOOOOOOOOOOOOOOOOOOOOOOOOO",
"OOOOOOOOOOOOOOOOOOOOOOOOOOOOOOOOO..OOOOOOOOOOOOOOO",
"OOOOOOOOOOOOOOOOOOOOOOOOOOOOOO......OOOOOOOOOOOOOO",
"OOOOOOOOOOOOOOOOOOX..   ooXOOO.......OOOOOOOOOOOOO",
"OOOOOOOOOOOOOOOOOOXXX  oXoXOX     ....OOOOOOOOOOOO",
"OOOOOOOOOOOOOOOOOOo. ooooXXXO    XX..OOOOOOOOOOOOO",
"OOOOOOOOOOOOOOOooXX  XXXoXX..  XoXXXoOOOOOOOOOOOOO",
"OOOOOOOOOOOOOOOoXX . XoXXXX.. XXooXX. OOOOOOOOOOOO",
"OOOOOOOOOOOOOO..X    XXXX.... .oXXX.. OOOOOOOOOOOO",
"OOOOOOOOOOOOOO.   ..........  ...  XoXX.OOOOOOOOOO",
"OOOOOOOOOOOOOO.   . .   . .     .OOoXoXXOOOOOOOOOO",
"OOOOOOOOOOOOOOX..       .  ...  OOOXXXXOOOOOOOOOOO",
"OOOOOOOOOOOOOooooX.O    .  ...  ..OO..XOOOOOOOOOOO",
"OOOOOOOOOOOOOooXX..O.... ........  O....OOOOOOOOOO",
"OOOOOOOOOOOOOoX. ..OOOXXX.. OXXXX...OOOOOOOOOOOOOO",
"OOOOOOOOOOOOOOO....OOXXX.. OXXo.X ..OO OOOOOOOOOOO",
"OOOOOOOOOOOOOOO....OO..... OooXXX  . O.OOOOOOOOOOO",
"OOOOOOOOOOOOOOOOOOOOX..... OO..X.. . OOOOOOOOOOOOO",
"OOOOOOOOOOOOOOOOOO    .....OOO.X..   OOOOOOOOOOOOO",
"OOOOOOOOOOOOOOOOOOOO .X. OOOOOO.OO.. OOOOOOOOOOOOO",
"OOOOOOOOOOOOOOOOO. O OX.OO oXXO.OOO.OOOOOOOOOOOOOO",
"OOOOOOOOOOOOOOOOOO.OO O ...XXOOOXOOOOOOOOOOOOOOOOO",
"OOOOOOOOOOOOOOOOOO.OO OO...XXOXOXOOOOOOOOOOOOOOOOO",
"OOOOOOOOOOOOOOOOOOOOO     .  OOOXXOOOOOOOOOOOOOOOO",
"OOOOOOOOOOOOOOOOOOOOOOO.  . .OOXXOOOOOOOOOOOOOOOOO",
"OOOOOOOOOOOOOOOOOOOO  OO  .OO.OXXOOO.OOOOOOOOOOOOO",
"OOOOOOOOOOOOOOO.OOOOOO OOO..OOO..OOOOOOOOOOOOOOOOO",
"OOOOOOOOOOOOOOOOOOOOOOOOOOO OOOOOOOOOOOOOOOOOOOOOO",
"OOOOOOOOOOOOOOOOOOOOOOO O.O.OO.OOOOOOOOOOOOOOOOOOO",
"OOOOOOOOOOOOOOOOOOOOOO.OOOOOOOOOOOOOOOOOOOOOOOOOOO",
"OOOOOOOOOOOOOOOOOOOOOOOOO.OOOOOOOOOOOOOOOOOOOOOOOO",
"OOOOOOOOOOOOOOOOOOOO.OOOOOOOOOOOOOOOOOOOOOOOOOOOOO",
"OOOOOOOOOOOOOOOOOOOOOOOOOOOOOOOOOOOOOOOOOOOOOOOOOO",
"OOOOOOOOOOOOOOOOOOOOOOOOOOOOO.OOOOOOOOOOOOOOOOOOOO",
"OOOOOOOOOOOOOOOOOOOOOOOO.OOOOOOOOOOOOOOOOOOOOOOOOO",
"OOOOOOOOOOOOOOOOOOOOOOOOOOOOOOOOOOOOOOOOOOOOOOOOOO",
"OOOOOOOOOOOOOOOOOOOOOOOOOOOOOOOOOOOOOOOOOOOOOOOOOO",
"OOOOOOOOOOOOOOOOOOOOOOOOOOOOOOOOOOOOOOOOOOOOOOOOOO",
"OOOOOOOOOOOOOOOOOOOOOOOOOOOOOOOOOOOOOOOOOOOOOOOOOO",
"OOOOOOOOOOOOOOOOOOOOOOOOOOOOOOOOOOOOOOOOOOOOOOOOOO",
"OOOOOOOOOOOOOOOOOOOOOOOOOOOOOOOOOOOOOOOOOOOOOOOOOO",
"OOOOOOOOOOOOOOOOOOOOOOOOOOOOOOOOO.OOOOOOOOOOOOOOOO",
"OOOOOOOOOOOOOOOOOOOOOOOOOOOOOOOOOOOOOOOOOOOOOOOOOO",
"OOOOOOOOOOOOOOOOOOOOOOOOOOOOOOOOOOOOOOOOOOOOOOOOOO",
"OOOOOOOOOOOOOOOOOOOOOOOOOOOOOOOOOOOOOOOOOOOOOOOOOO",
"OOOOOOOOOOOOOOOOOOOOOOOOOOOOOOOOOOOOOOOOOOOOOOOOOO",
"OOOOOOOOOOOOOOOOOOOOOOOOOOOOOOOOOOOOOOOOOOOOOOOOOO",
"OOOOOOOOOOOOOOOOOOOOOOOOOOOOOOOOOOOOOOOOOOOOOOOOOO",
"OOOOOOOOOOOOOOOOOOOOOOOOOOOOOOOOOOOOOOOOOOOOOOOOOO",
"OOOOOOOOOOOOOOOOOOOOOOOOOOOOOOOOOOOOOOOOOOOOOOOOOO",
"OOOOOOOOOOOOOOOOOOOOOOOOOOOOOOOOOOOOOOOOOOOOOOOOOO",
"OOOOOOOOOOOOOOOOOOOOOOOOOOOOOOOOOOOOOOOOOOOOOOOOOO",
"OOOOOOOOOOOOOOOOOOOOOOOOOOOOOOOOOOOOOOOOOOOOOOOOOO",
"OOOOOOOOOOOOOOOOOOOOOOOOOOOOOOOOOOOOOOOOOOOOOOOOOO",
"OOOOOOOOOOOOOOOOOOOOOOOOOOOOOOOOOOOOOOOOOOOOOOOOOO"
};
