/* XPM */
static char *explosion_2[] = {
/* columns rows colors chars-per-pixel */
"50 60 5 1 ",
"  c #D1601A",
". c #EF9200",
"X c #FFD76C",
"o c white",
"O c None",
/* pixels */
"OOOOOOOOOOOOOOOOOOOOOOOOOOOOOOOOOOOOOOOOOOOOOOOOOO",
"OOOOOOOOOOOOOOOOOOOOOOOOOOOOOOOOOOOOOOOOOOOOOOOOOO",
"OOOOOOOOOOOOOOOOOOOOOOOOOOOOOOOOOOOOOOOOOOOOOOOOOO",
"OOOOOOOOOOOOOOOOOOOOOOOOOOOOOOOOOOOOOOOOOOOOOOOOOO",
"OOOOOOOOOOOOOOOOOOOOOO OOOOOOOOOOOOOOOOOOOOOOOOOOO",
"OOOOOOOOOOOOOOOOOOOOOOOOOOOOOOOOOOOOOOOOOOOOOOOOOO",
"OOOOOOOOOOOOOOO..OOOOOOOOOOO OOO.OOOOOOOOOOOOOOOOO",
"OOOOOOOOOOOOOOOOOOOO.......OOOOOO.OOOOOOOOOOOOOOOO",
"OOOOOOOOOOOOOOOOOO..XXooXXX..OOO.OOOO OOOOOOOOOOOO",
"OOOOOOOOOOOOOOO.O.XXXooooooXX.OOOOO.OOOOOOOOOOOOOO",
"OOOOOOOOOOOOOOOO.XXooooooooXX. O....OOOOOOOOOOOOOO",
"OOOOOOOOOOOO.OOO.XooooXXoooXXX..XXXX.OOOOOOOOOOOOO",
"OOOOOOOOOOOOO........ooXXooooX.XooooX.OOOOOOOOOOOO",
"OOOOOOOOOOOO.XXXXXX...XooooooXXoooooXX.OOOOOOOOOOO",
"OOOOOOOOOO..XoXooXXXX.XoooooX.ooooooXX.OOOOOOOOOOO",
"OOOOOOOOOO.Xoooo.XXXXXXoooooooooXooooXX.OOOOOOOOOO",
"OOOOOOOOOO.XooooXXoXXXoooooooooooooooX.OOOOOOOOOOO",
"OOOOOOOOOO.XoooXXoooXXoooooXooooooooo..OOOOOOOOOOO",
"OOOOOOOOOO.XoooXooooXoooooooooooooooX..OOOOOOOOOOO",
"OOOOOOOOOO..ooooooooooooooooooXXXoooXX. OOOOOOOOOO",
"OOOOOOOOOOO...XoooooooooooooooooXXooooX OOOOOOOOOO",
"OOOOOOOOOOO. ..XoooooooooooooooooXXoooX OOOOOOOOOO",
"OOOOOOOOOOOO  .XXXXoooooooooooooooXooXX OOOOOOOOOO",
"OOOOOOOOOOOOO.XXXXXXXooooooXXXXooooooX OOOOOOOOOOO",
"OOOOOOOOOOOOO.XoooooooooooXX.  XooooX  OOOOOOOOOOO",
"OOOOOOOOOOOO .ooo   .oooooXX... XooX OOOOOOOOOOOOO",
"OOOOOOOOOOOO .oo ... oooXXooXo...Xo.....OOOOOOOOOO",
"OOOOOOOOOOOO..oX ..XXXoXXoXoooXX.XooXXXX..OOOOOOOO",
"OOOOOOOOOOO...oX..XXo XXoooooooXXXooooooX.OOOOOOOO",
"OOOOOOOOOOO..XoX.Xo  XoXoooooooooooo.oooX.OOOOOOOO",
"OOOOOOOOOOOO.XoXXoo XXXXXXXXo   .oo. oooX.OOOOOOOO",
"OOOOOOOOOOOO.XooXoooXo   XXXXX. XX..  XX.OOOOOOOOO",
"OOOOOOOOOOOOO.oooooXX.XXXXo... . XX.. ..OOOOOOOOOO",
"OOOOOOOOOOOOOO.ooooXXXXXXooooXXX XX.  .OOOOOOOOOOO",
"OOOOOOOOOOOOOOO.ooXX .XXoooooXXX.oX. .OOOOOOOOOOOO",
"OOOOOOOOOOOOOO...oXX XXXXooooXXX.oo. .OOOOOOOOOOOO",
"OOOOOOOOOOOOO....XXoooooXXXXXXXXXooX.OOOOOOOOOOOOO",
"OOOOOOOOOOOOO..X..XXooXX....XXXXo o..OOOOOOOOOOOOO",
"OOOOOOOOOOOOO.......XXXX.   .XoX  o...OOOOOOOOOOOO",
"OOOOOOOOOOOOOO.XoXo...oooX...XXXooo...OOOOOOOOOOOO",
"OOOOOOOOOOOOOO.oooo.XXXooX.....XXoo...OOOOOOOOOOOO",
"OOOOOOOOOOOOO.XoX.XXXXooooXXXooXoooX..OOOOOOOOOOOO",
"OOOOOOOOOOOO.XXX..XXo..oooXooooXXooo..OOOOOOOOOOOO",
"OOOOOOOOOOOO.XXX..oooo..ooXoooooX.oo..OOOOOOOOOOOO",
"OOOOOOOOOOOOO.XooXXoXXoooooooooXX.ooX.OOOOOOOOOOOO",
"OOOOOOOOOOOOO.XoX.XoXXoooooooooX...o...OOOOOOOOOOO",
"OOOOOOOOOOOOOXXoX.XooooooooooooX...oX.OOOOOOOOOOOO",
"OOOOOOOOOOOOOOXoXXoXXooXooooooooX.XoX.OOOOOOOOOOOO",
"OOOOOOOOOOOOOOXooXoooooooooooooX.Xoo.OOOOOOOOOOOOO",
"OOOOOOOOOOOOOOXoooooooooooooooooXoo..OOOOOOOOOOOOO",
"OOOOOOOOOOOOOOXoooooooooooooooooooo..OOOOOOOOOOOOO",
"OOOOOOOOOOOOOOOXooooooooooooooXoXXX.OOOOOOOOOOOOOO",
"OOOOOOOOOOOOOOOXXoooooooooooooooXX.OOOOOOOOOOOOOOO",
"OOOOOOOOOOOOOOOOXooooooooooooooooX.OOOOOOOOOOOOOOO",
"OOOOOOOOOOOOOOOOXXooooooooooooooXOOOOOOOOOOOOOOOOO",
"OOOOOOOOOOOOOOOOOO.oooooooooooooXOOOOOOOOOOOOOOOOO",
"OOOOOOOOOOOOOOOOOO.XooooooooooXX.OOOOOOOOOOOOOOOOO",
"OOOOOOOOOOOOOOOOOOO.XoooooooXX..OOOOOOOOOOOOOOOOOO",
"OOOOOOOOOOOOOOOOOOOO..XXXXXX...OOOOOOOOOOOOOOOOOOO",
"OOOOOOOOOOOOOOOOOOOOOO......OOOOOOOOOOOOOOOOOOOOOO"
};
