/* XPM */
static char *explosion_10[] = {
/* columns rows colors chars-per-pixel */
"50 60 8 1 ",
"  c #211D17",
". c #3E362A",
"X c #600000",
"o c #504636",
"O c #685B46",
"+ c #9B2500",
"@ c #D1601A",
"# c None",
/* pixels */
"##################################################",
"##################################################",
"##################################################",
"##################################################",
"##################################################",
"####################..O.O.########################",
"##################...OOOO....  ....###############",
"#################....OOOooooo........#############",
"###############..oo..OOoooo.o.........############",
"###############..OOo.oooooooo. ++@++...###########",
"################OOooo.. ++++ .  ++++...###########",
"###############oOoOoo  @@@@+    ++++...###########",
"##############oOOoo.  @@@@+@@         .###########",
"#############.oOooo. @@@@+++++@  oOOoo  ##########",
"#############...oo   @@+++++X+@ OoooOo+###########",
"#############....  @@+@+++oOXXXoOOoooo+###########",
"##############...++@@+++oOoOoX.Oooooo ...#########",
"##############...++@+++.Ooooo..oooo   ...#########",
"#############....+..++XOOoo....ooo  ..o.. ########",
"#############..+.+...++...   X.... oOoOo. ########",
"############.oo.......... .++.. ..oOOooo. ########",
"############oOOOOo. .   .XX.... .oOOoOoo.#########",
"############oOOooo.    XX.....  ...oooo. #########",
"############oOoo............. ++........##########",
"#############oo.. ....OOO....++@@.     @##########",
"##############...  . .oOooo... +++     .##########",
"##############...    ..ooOoo.  ++.    +.##########",
"###############.  . . ..oooo.   @.  .+..##########",
"###############. ...........   ..... ...##########",
"###############...++ooooo... oooo... +############",
"###############....oOOOooo..ooO.o  . #############",
"################...oOOOoOo .OOooo  . #############",
"################ ..ooOoooo .oOooo..  #############",
"#################..ooooooo .ooooo.. ##############",
"#################@..ooooo. ....o..  ##############",
"############.#####    .....OOo..  ..###.##########",
"############.##### + .o.++XOooo.  .###############",
"#############.####.#    ...oooooo.################",
"####################  +   .   .ooo################",
"####################+@..  . ..ooo.################",
"###############.###+XXX.  .....oo.################",
"###############..##.##X.  ........################",
"################.##.##.. ..X##..##################",
"######################  .. .##.#########.#########",
"######################. . #### ### ###############",
"#########################.########################",
"####################.#.# ##.######################",
"######################## ##.######################",
"##################################################",
"#########################.########################",
"#########################.########################",
"###########################.######################",
"###########################.####.#################",
"########################.#######.#################",
"########################.#####.###################",
"##################################################",
"##################################################",
"################################.#################",
"##############################.###################",
"##################################################"
};
