/* XPM */
static char *explosion_4[] = {
/* columns rows colors chars-per-pixel */
"50 60 6 1 ",
"  c #9B2500",
". c #D1601A",
"X c #EF9200",
"o c #FFD76C",
"O c white",
"+ c None",
/* pixels */
"+++++++++++++++++X++++++++++++++++++++++++++++++++",
"+++++++++++++++++++++++++++.++++++++++++++++++++++",
"++++++++++++++++++++++++++++++++X+++++++++++++++++",
"++++++++++++++++++++XXXXXXX+++++++++++++++++++++++",
"++++++++++++++X+++XXoooooooXXXXXX+++++++++++++++++",
"+++++++++++++++++XoooOOOOOoooXXXXX++++++++++++++++",
"++++++++++++++XXXXooooOOOOooXX.XXXXXXX++++++++++++",
"++++++++++++++XXXoooooooOoooXXXXooooXXX+++++++++++",
"+++++++++++XXXXXXXXXXooooooXXXXoOOOooXX+++++++++++",
"+++++++++++XXoooooXXXXooooXoXooOOOOOooX+++++++++++",
"++++++++++XXoooooooooXXooooooXOOOOOoooX+++++++++++",
"++++++++++XoooOOXOOOoooooooooooooOoooooX++++++++++",
"++++++++++XooOOOOOOOOoooXoooooooooooooX+++++++++++",
"++++++++++XooOOooOOOooooXXXXXXXXoooXXXX+++++++++++",
"+++++++++++ooOOoOOoooooooXXXXXXXXXX..XX+++++++++++",
"+++++++++++XooooooooooXooXXXXooooX.XXXX.++++++++++",
"+++++++++++XXXoooooooXXXoXoooOOooXXXXOo.++++++++++",
"+++++++++++X.XXXXXX..XXXoooOOOOOooXXOOo.++++++++++",
"++++++++++++XX.     ..XXXooOOOoooXXXOoo.++++++++++",
"++++++++++++XXo.....XoooXXooooooXXooOOo.++++++++++",
"+++++++++++.XooOoooooooX.XoXXXoXooOOOOoX.+++++++++",
"++++++++++.XooooOOOOooX..XX...XooOOOOOoXX.++++++++",
"++++++++++.XooOOOOOoooXX.XXXX..XXoOOoooXX.++++++++",
"++++++++++.XooOoOoooooX.XXXXXXX.XoOooooX.+++++++++",
"++++++++++.XXXooooooX.X..XoXXXXXXXXoXoX..+++++++++",
"+++++++++++.XooooooXXX.ooXXXX..  XXoXXX.++++++++++",
"++++++++++++.XXXXXXXXX .XXXXX..  XoX.XX+++++++++++",
"+++++++++++++.XXXXXXXX  .XoooXXX..XX...+++++++++++",
"+++++++++++++.XXXXXXXXXXXooXXX...XoXX+++++++++++++",
"+++++++++++++++XXXXooXXXoooooXXXXooX.+++++++++++++",
"+++++++++++++++XXooooXXXoooooooXXooO.X++++++++++++",
"+++++++++++++++XXooo.oXooOOOOooXXoooOXXX++++++++++",
"+++++++++++++XXXXOOoooooOOOOOoooXXooOOooX+++++++++",
"+++++++++++++XoooOooooooOOOOOOooXXXXooooX+++++++++",
"++++++++++++XXooOOXXooooooOOooooXXXoooooX+++++++++",
"++++++++++++XoooOXXXooooooooooooOXXooXXoX+++++++++",
"++++++++++++XoooXXXXXooooooooooooXXXooXoX+++++++++",
"++++++++++++XXooXXooooooooooXoXOOXXXoXXoX+++++++++",
"+++++++++++++XXXXoooooXXXXoXXXXXXX.XoXoXX+++++++++",
"+++++++++++++X..XXooXXX.XXXX..XXX...XXXX++++++++++",
"++++++++++++++...XoXo   XXX. ...    ...X++++++++++",
"++++++++++++++Xo..XXX .XoXX.X.X  .XX..++++++++++++",
"++++++++++++++XoX..XXXXXoX.XXXoX.XoO.+++++++++++++",
"+++++++++++++++oX.XXooXXooXoOXXXXXooX+++++++++++++",
"+++++++++++++++oXXooXooXooXooXXXoXooX+++++++++++++",
"+++++++++++++++oXXooXooXooXoOXXoXXXoX+++++++++++++",
"+++++++++++++++ooXoOooOOooooOXXoXXXoo+++++++++++++",
"+++++++++++++++ooXOoooOooooOOXoOoXooo+++++++++++++",
"+++++++++++++++oooOOOOOOoOoOOoooXoOoX+++++++++++++",
"+++++++++++++++XoOOOOOOOoOoOOooXoOOX++++++++++++++",
"+++++++++++++++XooooOOOOOOOOOoOOOOOX++++++++++++++",
"++++++++++++++++XXoOooOOOOOOOOoOoOoX++++++++++++++",
"++++++++++++++++++XooooooOooooooooX+++++++++++++++",
"++++++++++++++++++XoXXooooooXXXooXX+++++++++++++++",
"++++++++++++++++++XooXXXXXXXXXXooX++++++++++++++++",
"+++++++++++++++++++XoXX....XXoooX+++++++++++++++++",
"+++++++++++++++++++XoooXXXXXoOXXX+++++++++++++++++",
"+++++++++++++++++++..XXXXooooX..++++++++++++++++++",
"++++++++++++++++++++....XXXXX..+++++++++++++++++++",
"++++++++++++++++++++++......++++++++++++++++++++++"
};
