/* XPM */
static char *explosion_8[] = {
/* columns rows colors chars-per-pixel */
"50 60 8 1 ",
"  c #211D17",
". c #3E362A",
"X c #600000",
"o c #504636",
"O c #9B2500",
"+ c #D1601A",
"@ c #EF9200",
"# c None",
/* pixels */
"##################################################",
"##################################################",
"##################################################",
"###################@@@@+++########################",
"#################O+@@@@@@++OOX####################",
"################O+@@@@@@@+OOOXO+@@################",
"#################++@@@@++OOOXXO@@@@@+#############",
"################@@+@@+++++OOXOO@@@@@+#############",
"###############..@@@+OOOOOOOOO@@@@@@@+############",
"###############..@+++O+OOOO+@@@@@++++++###########",
"################.@+...@@++@@+@@++++++++###########",
"###############..++O+++@@@@@+OO+++++++O###########",
"##############..++O++@@@@+@@@+OO@++++OO###########",
"##############..++++@@@@@+@@+OOOO+++OOO###########",
"##############..@@++@@@+@+@++OOOO++OOOO###########",
"##############.@@@++@@@+@++++OOOOOOOOO@###########",
"##############@@@O+@@@@++++++OOOOOOOOX@+@#########",
"###############@+OO@+@++++++OOOOOOOOOX@++#########",
"###############@+O.++@++++OOOOO.OOOXXX@+O#########",
"############++@@+O.++++++OOOOX..XOXXX@@+O#########",
"###########+++@++O.OO@OOOOOOXX..XXXXXX+OO#########",
"###########+++@++.. OOOOOOOXX...XXXXX@OO##########",
"###########+++++... OOXXXXXXX...XXX@@@++##########",
"###########++++OX.++@OOXXXXXX..+XX@@@O+###########",
"############.++XX.@@@.OXXXXXX..++@@@@OO+##########",
"############..XX..@@..OXXXX....O@@.@@OO.##########",
"############..+O.O@@..O@@@+ ...O@...OOO.##########",
"############..O..O@O. @@@O+O.+OO+...OO..##########",
"#############.O.O@@O.. @@@OOOOO+O....+..##########",
"#############..O.@@O.. @@OOOOOO++...OO.###########",
"##############.O.@@@@. ++OOOOO+++O...O.###########",
"###############O..@@@..+OOOOOO+++OOXO..###########",
"###############O..@@@@++OOO+...+OOXX..O###########",
"################..+++ ++OOO..+++OXXXX ############",
"################.++++ @+++...+@OOXOXX ############",
"###############..@@OOO@@+@..+O@@@O+O  .###########",
"###############..++OOO@@+@..++@OOO+O#.############",
"###############...+OOO@@+@+.OO@@O+  ###.##########",
"################..++O@@@@OOOOOXOO+O o#############",
"#################.+O+@+@+++OOXXOO+  o#############",
"#################@++@O+OOOOOOXX.... ##############",
"############.####. ++..OOOOXXX..... ##############",
"############.####. @+.o.OOXX........# ############",
"#############.###o.O+.  .....  oo...##############",
"###################O+.O   .   .ooo..##############",
"###################OO+..  . ..ooo..##.############",
"###############.###OXXX.  .....oo..###############",
"###############..##.##X.  ........o#####.#########",
"################.##.##.. ..X##..##################",
"######################  ....##.###################",
"######################. . ####.### ###############",
"#######################...####.###################",
"####################.###.#####.###################",
"########################.#########################",
"#########################.####.###################",
"##################################################",
"########################.#####.###################",
"##################################################",
"##################################################",
"##################################################"
};
