/* XPM */
static char *explosion_13[] = {
/* columns rows colors chars-per-pixel */
"50 60 5 1 ",
"  c #211D17",
". c #3E362A",
"X c #504636",
"o c #685B46",
"O c None",
/* pixels */
"OOOOOOOOOOOOOOOOOOOOOOOOOOOOOOOOOOOOOOOOOOOOOOOOOO",
"OOOOOOOOOOOOOOOOOOOOOOOOOOOOOOOOOOOOOOOOOOOOOOOOOO",
"OOOOOOOOOOOOOOOOOOOOOOOOOOOOOOOOOOOOOOOOOOOOOOOOOO",
"OOOOOOOOOOOOOOOOOOOOOOOOOOOOOOOOOOOOOOOOOOOOOOOOOO",
"OOOOOOOOOOOOOOOOOOOOOOOOOOOOOOOOOOOOOOOOOOOOOOOOOO",
"OOOOOOOOOOOOOOOOOOOOOOOOOOOOOOOOOOOOOOOOOOOOOOOOOO",
"OOOOOOOOOOOOOOOOOOOOOOOOOOOOOOOOO..OOOOOOOOOOOOOOO",
"OOOOOOOOOOOOOOOOOOOOOOOOOOOOOO......OOOOOOOOOOOOOO",
"OOOOOOOOOOOOOOOOOOOOOOOOOOOOOO.......OOOOOOOOOOOOO",
"OOOOOOOOOOOOOOOOOOOOOO oXoOOX     ....OOOOOOOOOOOO",
"OOOOOOOOOOOOOOOOOOOOOooooXXXO OOOXX..OOOOOOOOOOOOO",
"OOOOOOOOOOOOOOOooXXOOXXXoXX. OOXoXXXoOOOOOOOOOOOOO",
"OOOOOOOOOOOOOOOoXX OOXoXXXX. OXXooXXOOOOOOOOOOOOOO",
"OOOOOOOOOOOOOO..X OO XXXX...  .oXXOOO OOOOOOOOOOOO",
"OOOOOOOOOOOOOO.  OO........   ... OXoXX.OOOOOOOOOO",
"OOOOOOOOOOOOOO.OOO. .   . .  OOOOOOoXoXXOOOOOOOOOO",
"OOOOOOOOOOOOOOOOOOO         .. OOOOXXXXOOOOOOOOOOO",
"OOOOOOOOOOOOOooooOOO    .  ...  ..OO..XOOOOOOOOOOO",
"OOOOOOOOOOOOOooXXOOO.... OO......  O....OOOOOOOOOO",
"OOOOOOOOOOOOOoOO ..OOOXXX.O OXXOO..OOOOOOOOOOOOOOO",
"OOOOOOOOOOOOOOO....OOXXXOOOOXXoOOOOOOO OOOOOOOOOOO",
"OOOOOOOOOOOOOOO....OO..OO. OooXXOOOO O.OOOOOOOOOOO",
"OOOOOOOOOOOOOOOOOOOOOOOO.. OO..X.OO. OOOOOOOOOOOOO",
"OOOOOOOOOOOOOOOOOO  OOOO...OOO.X.OO  OOOOOOOOOOOOO",
"OOOOOOOOOOOOOOOOOOOOOO.O OOOOOO.OO.. OOOOOOOOOOOOO",
"OOOOOOOOOOOOOOOOO. OOOOOOO oXOOOOOO.OOOOOOOOOOOOOO",
"OOOOOOOOOOOOOOOOOO.OO..OOOOOOOOOOOOOOOOOOOOOOOOOOO",
"OOOOOOOOOOOOOOOOOO.OOOOOOOOOOOOOOOOOOOOOOOOOOOOOOO",
"OOOOOOOOOOOOOOOOOOOOOOOO OOO OOOOXOOOOOOOOOOOOOOOO",
"OOOOOOOOOOOOOOOOOOOOOOOOOOOOOOOOOOOOOOOOOOOOOOOOOO",
"OOOOOOOOOOOOOOOOOOOOOOOOOOOOOOOOOOOO.OOOOOOOOOOOOO",
"OOOOOOOOOOOOOOO.OOOOOOOOOOO.OOOOOOOOOOOOOOOOOOOOOO",
"OOOOOOOOOOOOOOOOOOOOOO.OOOOOOOOO.OOOOOOOOOOOOOOOOO",
"OOOOOOOOOOOOOOOOOOOOOO.OOOOOOOOOOOOOOOOOOOOOOOOOOO",
"OOOOOOOOOOOOOOOOOOOOOOOOOOOOOOOOOOOOOOOOOOOOOOOOOO",
"OOOOOOOOOOOOOOOOOOOOOOOOOOOOOOOOOOOOOOOOOOOOOOOOOO",
"OOOOOOOOOOOOOOOOOOOOOOOOOOOOOOOOOOOOOOOOOOOOOOOOOO",
"OOOOOOOOOOOOOOOOOOOOOOOOOOOOOOOOOOOOOOOOOOOOOOOOOO",
"OOOOOOOOOOOOOOOOOOOOOOOOOOOO.OOOOOOOOOOOOOOOOOOOOO",
"OOOOOOOOOOOOOOOOOOOOOOOOOOOOOOOOOOOOOOOOOOOOOOOOOO",
"OOOOOOOOOOOOOOOOOOOOOOOOOOOOOOOOOOOOOOOOOOOOOOOOOO",
"OOOOOOOOOOOOOOOOOOOOOOOOOOOOOOOOOOOOOOOOOOOOOOOOOO",
"OOOOOOOOOOOOOOOOOOOOOOOOOOOOOOOOOOOOOOOOOOOOOOOOOO",
"OOOOOOOOOOOOOOOOOOOOOOOOOOOOOOOOOO.OOOOOOOOOOOOOOO",
"OOOOOOOOOOOOOOOOOOOOOOOOOOOOOOOOOOOOOOOOOOOOOOOOOO",
"OOOOOOOOOOOOOOOOOOOOOOOOOOOOOOOOOOOOOOOOOOOOOOOOOO",
"OOOOOOOOOOOOOOOOOOOOOOOOOOOOOOOOOOOOOOOOOOOOOOOOOO",
"OOOOOOOOOOOOOOOOOOOOOOOOOOOOOOOOOOOOOOOOOOOOOOOOOO",
"OOOOOOOOOOOOOOOOOOOOOOOOOOOOOOOOOOOOOOOOOOOOOOOOOO",
"OOOOOOOOOOOOOOOOOOOOOOOOOOOOOOOOOOOOOOOOOOOOOOOOOO",
"OOOOOOOOOOOOOOOOOOOOOOOOOOOOOOOOOOOOOOOOOOOOOOOOOO",
"OOOOOOOOOOOOOOOOOOOOOOOOOOOOOOOOOOOOOOOOOOOOOOOOOO",
"OOOOOOOOOOOOOOOOOOOOOOOOOOOOOOOOOOOOOOOOOOOOOOOOOO",
"OOOOOOOOOOOOOOOOOOOOOOOOOOOOOOOOOOOOOOOOOOOOOOOOOO",
"OOOOOOOOOOOOOOOOOOOOOOOOOOOOOOOOOOOOOOOOOOOOOOOOOO",
"OOOOOOOOOOOOOOOOOOOOOOOOOOOOOOOOOOOOOOOOOOOOOOOOOO",
"OOOOOOOOOOOOOOOOOOOOOOOOOOOOOOOOOOOOOOOOOOOOOOOOOO",
"OOOOOOOOOOOOOOOOOOOOOOOOOOOOOOOOOOOOOOOOOOOOOOOOOO",
"OOOOOOOOOOOOOOOOOOOOOOOOOOOOOOOOOOOOOOOOOOOOOOOOOO",
"OOOOOOOOOOOOOOOOOOOOOOOOOOOOOOOOOOOOOOOOOOOOOOOOOO"
};
