/* XPM */
static char *explosion_3[] = {
/* columns rows colors chars-per-pixel */
"50 60 5 1 ",
"  c #D1601A",
". c #EF9200",
"X c #FFD76C",
"o c white",
"O c None",
/* pixels */
"OOOOOOOOOOOOOOOOO.OOOOOOOOOOOOOOOOOOOOOOOOOOOOOOOO",
"OOOOOOOOOOOOOOOOOOOOOOOOOOO OOOOOOOOOOOOOOOOOOOOOO",
"OOOOOOOOOOOOOOOOOOOOOOOOOOOOOOOO.OOOOOOOOOOOOOOOOO",
"OOOOOOOOOOOOOOOOOOOO.......OOOOOOOOOOOOOOOOOOOOOOO",
"OOOOOOOOOOOOOO.OOO..XXooXXX..OOOOOOOOOOOOOOOOOOOOO",
"OOOOOOOOOOOOOOOOO.XXXooooooXX.OOOOOOOOOOOOOOOOOOOO",
"OOOOOOOOOOOOOOOO.XXooooooooX.. O....OOOOOOOOOOOOOO",
"OOOOOOOOOOOOOOOO.XooooXXooXX....XXXX.OOOOOOOOOOOOO",
"OOOOOOOOOOOOO........ooXXXX....XoooXX.OOOOOOOOOOOO",
"OOOOOOOOOOOO.XXXXXXXX.XXXX.X.XXoooooXX.OOOOOOOOOOO",
"OOOOOOOOOO..XXXXXXXXXXXXXXooX.oooooXXX.OOOOOOOOOOO",
"OOOOOOOOOO.XXXoo.ooooXXXXoooooooXooXXXX.OOOOOOOOOO",
"OOOOOOOOOO.XXooooooooooXXXooooooooXXXX.OOOOOOOOOOO",
"OOOOOOOOOO.XXooXXooooXoooXXXoXXXXXX..X.OOOOOOOOOOO",
"OOOOOOOOOO.XXooXoooooooooXXXXX.....  X.OOOOOOOOOOO",
"OOOOOOOOOO..XXXooooooooXXXXXXXXXX. .XX. OOOOOOOOOO",
"OOOOOOOOOOO...XXXXXoXXXXXXoooooXX..oooX OOOOOOOOOO",
"OOOOOOOOOOO. ..XXXXXXXXXXoooooooXX.oooX OOOOOOOOOO",
"OOOOOOOOOOOO   ........XXoooooXXX..XoXX OOOOOOOOOO",
"OOOOOOOOOOOOO.X    ..XXXoooXXXXX..XXXX OOOOOOOOOOO",
"OOOOOOOOOOOOO.XoXXXXXXX. .XXXXX.XXooX  OOOOOOOOOOO",
"OOOOOOOOOOOO .oooooooX. ..XXXXXXXooX OOOOOOOOOOOOO",
"OOOOOOOOOOOO .oooooooo..XXoXXo...Xo.....OOOOOOOOOO",
"OOOOOOOOOOOO..oXooooXXX.XoXoooXX.XooXXXX..OOOOOOOO",
"OOOOOOOOOOO ..Xoooooo XXoooooooXXXXXooooX.OOOOOOOO",
"OOOOOOOOOOO .XXXoXoXXXoXooooooXXXX.X.oooX.OOOOOOOO",
"OOOOOOOOOOO ..XXXoo X   ...XXXXX..X. oooX.OOOOOOOO",
"OOOOOOOOOOOO ..XXXooX    .XXX...  ..  XX.OOOOOOOOO",
"OOOOOOOOOOOO ...XXXXX....Xo...   .X.. ..OOOOOOOOOO",
"OOOOOOOOOOOOO .....XXXXXXXX....X.XX.  .OOOOOOOOOOO",
"OOOOOOOOOOOOO  ..XXXX.XXXX..XXXX.oX. .OOOOOOOOOOOO",
"OOOOOOOOOOOOOOO ..XX XXXXXXXXXXX.oo. .OOOOOOOOOOOO",
"OOOOOOOOOOOOOOOO.XXoooXXXoooXXXXXooX.OOOOOOOOOOOOO",
"OOOOOOOOOOOOOOOO..XXooXXooooooXXo o.OOOOOOOOOOOOOO",
"OOOOOOOOOOOOOO   ...XXoXooXXXXXX  XX..OOOOOOOOOOOO",
"OOOOOOOOOOOOOO  ....XXoXooXXXXXXoXXXX..OOOOOOOOOOO",
"OOOOOOOOOOOOO  ...X..XXXXoXXXXXXXoXXXX. OOOOOOOOOO",
"OOOOOOOOOOOOO ...XXXXXoXXoXXXXXoooXXX.. OOOOOOOOOO",
"OOOOOOOOOOOOO ..XXXXXXXXoXXXXXXX.XXXX. OOOOOOOOOOO",
"OOOOOOOOOOOOOO..XXXX..oXXX...XXX..XX.. OOOOOOOOOOO",
"OOOOOOOOOOOOOO.XXXX.XXXXXX.....X..X...OOOOOOOOOOOO",
"OOOOOOOOOOOOO.XXX.XXXX..XXXXXXXX..X...OOOOOOOOOOOO",
"OOOOOOOOOOOO.XXX..XXX...XXXXXXX...Xo..OOOOOOOOOOOO",
"OOOOOOOOOOOO.XXX..oXXo..XXXXoXX...XX..OOOOOOOOOOOO",
"OOOOOOOOOOOOO.XXoXXXXXo.XXXooo..X.XX..OOOOOOOOOOOO",
"OOOOOOOOOOOOO.XXX.XXXXo.Xooooo.X...X...OOOOOOOOOOO",
"OOOOOOOOOOOOO.XXX.XoXXooXooooo.X...XX.OOOOOOOOOOOO",
"OOOOOOOOOOOOOO.XXXoXXXoXXooooXXoX.XXX.OOOOOOOOOOOO",
"OOOOOOOOOOOOOO.XXXooooooXooooXXX.XoX.OOOOOOOOOOOOO",
"OOOOOOOOOOOOOOO.XoooooooXooooXX.Xoo..OOOOOOOOOOOOO",
"OOOOOOOOOOOOOOO.XXXXoooooooooXooooo..OOOOOOOOOOOOO",
"OOOOOOOOOOOOOOOO.XXoooooooooooXoXoX.OOOOOOOOOOOOOO",
"OOOOOOOOOOOOOOOO.XXoooooooooooooXXOOOOOOOOOOOOOOOO",
"OOOOOOOOOOOOOOOOO.XXXoXooooooXXXX.OOOOOOOOOOOOOOOO",
"OOOOOOOOOOOOOOOOOO.XXXXXXXXXXXXXX.OOOOOOOOOOOOOOOO",
"OOOOOOOOOOOOOOOOOO.XXXXXXXXXXXXX. OOOOOOOOOOOOOOOO",
"OOOOOOOOOOOOOOOOOO .oXXXXXXXXoXX. OOOOOOOOOOOOOOOO",
"OOOOOOOOOOOOOOOOOOO XoooooooXX.. OOOOOOOOOOOOOOOOO",
"OOOOOOOOOOOOOOOOOOOO..XXXXXX...OOOOOOOOOOOOOOOOOOO",
"OOOOOOOOOOOOOOOOOOOOOO......OOOOOOOOOOOOOOOOOOOOOO"
};
