/* XPM */
static char *explosion_0[] = {
/* columns rows colors chars-per-pixel */
"50 60 7 1 ",
"  c #600000",
". c #9B2500",
"X c #D1601A",
"o c #EF9200",
"O c #FFD76C",
"+ c white",
"@ c None",
/* pixels */
"@@@@@@@@@@@@@@@@@@@@@@@@@@@@@@@@@@@@@@@@@@@@@@@@@@",
"@@@@@@@@@@@@@@@@@@@@@@@@@@@@@@@@@@@@@@@@@@@@@@@@@@",
"@@@@@@@@@@@@@@@@@@@@@@@@@@@@@@@@@@@@@@@@@@@@@@@@@@",
"@@@@@@@@@@@@@@@@@@@@@@@@@@@@@@@@@@@@@@@@@@@@@@@@@@",
"@@@@@@@@@@@@@@@@@@@@@@@@@@@@@@@@@@@@@@@@@@@@@@@@@@",
"@@@@@@@@@@@@@@@@@@@@@@@@@@@@@@@@@@@@@@@@@@@@@@@@@@",
"@@@@@@@@@@@@@@@@@@@@@@@@@@@@@@@@@@@@@@@@@@@@@@@@@@",
"@@@@@@@@@@@@@@@@@@@@@@@@@@@@@@@@@@@@@@@@@@@@@@@@@@",
"@@@@@@@@@@@@@@@@@@@@@@@@@@@@@@@@@@@@@@@@@@@@@@@@@@",
"@@@@@@@@@@@@@@@@@@@@@@@@@@@@@@@@@@@@@@@@@@@@@@@@@@",
"@@@@@@@@@@@@@@@@@@@@@@@@@@@@@@@@@@@@@@@@@@@@@@@@@@",
"@@@@@@@@@@@@@@@@@@@@@@@@@@@@@@@@@@@@@@@@@@@@@@@@@@",
"@@@@@@@@@@@@@@@@@@@@@@@@@@@@@@@@@@@@@@@@@@@@@@@@@@",
"@@@@@@@@@@@@@@@@@@@@@@@@@@@@@@@@@@@@@@@@@@@@@@@@@@",
"@@@@@@@@@@@@@@@@@@@@@@@@@@@.@@@@@@@@@@@@@@@@@@@@@@",
"@@@@@@@@@@@@@@@@@@@@@@.@@@@@@@@@@@@@@@@@@@@@@@@@@@",
"@@@@@@@@@@@@@@@@@@@@@@X@@@@.@@@@@@@@@@@@@@@@@@@@@@",
"@@@@@@@@@@@@@@@@@@@@@@.@@@@.@@@@@@@@@@@@@@@@@@@@@@",
"@@@@@@@@@@@@@@@@@@@@@@X@@@@X@@@@@@@@@@@@@@@@@@@@@@",
"@@@@@@@@@@@@@@@@@@@@@@X@@.@X@@@@@@@@@@@@@@@@@@@@@@",
"@@@@@@@@@@@@@@@@@@@@@@X@@.@X@@@@@@@@@@@@@@@@@@@@@@",
"@@@@@@@@@@@@@@@@@@@@@@X@@X@X@@.@@@@@@@@@@@@@@@@@@@",
"@@@@@@@@@@@@@@@@@@@@@Xo@.X@X@@.@@@@@@@@@@@@@@@@@@@",
"@@@@@@@@@@@@@@@@@@@@@Xo.XX@X@@.@@@@@@@@@@@@@@@@@@@",
"@@@@@@@@@@@@@@@@@@@.@XoXXo@oo@X@@@@@@@@@@@@@@@@@@@",
"@@@@@@@@@@@@@@@@@@@X@XooXoOoo@X@@@@@@@@@@@@@@@@@@@",
"@@@@@@@@@@@@@@@@@@@X@XooXO+Oo@X@@@@@@@@@@@@@@@@@@@",
"@@@@@@@@@@@@@@@@@@@X@XoOOO+Oo@X@@@@@@@@@@@@@@@@@@@",
"@@@@@@@@@@@@@@@@@@@o@XOO+O+OO@o.@@@@@@@@@@@@@@@@@@",
"@@@@@@@@@@@@@@@@@@@o@XO++++O+OoX@@@@@@@@@@@@@@@@@@",
"@@@@@@@@@@@@@@@@@@@o@XO++++++OoX@@@@@@@@@@@@@@@@@@",
"@@@@@@@@@@@@@@@@@@@oXoO++++++OoX@@@@@@@@@@@@@@@@@@",
"@@@@@@@@@@@@@@@@@@@oOoO++++++OoX@@@@@@@@@@@@@@@@@@",
"@@@@@@@@@@@@@@@@@XXoOO+++++++OoX@@@@@@@@@@@@@@@@@@",
"@@@@@@@@@@@@@@@@@OXO++++++++++Oo@@@@@@@@@@@@@@@@@@",
"@@@@@@@@@@@@@@@@@OOO++++++++++OoX@@@@@@@@@@@@@@@@@",
"@@@@@@@@@@@@@@@@@@++++++++++++OoX@@@@@@@@@@@@@@@@@",
"@@@@@@@@@@@@@@@@@Xo+++++++++++OX@X@@@@@@@@@@@@@@@@",
"@@@@@@@@@@@@@@@@@XoO++++++++++OXXo@@@@@@@@@@@@@@@@",
"@@@@@@@@@@@@@@@@@XoO++++++++++Ooo@@@@@@@@@@@@@@@@@",
"@@@@@@@@@@@@@@@@@@XoO++++++++++OoX@@@@@@@@@@@@@@@@",
"@@@@@@@@@@@@@@@@@@XoO+++++++++++OX@@@@@@@@@@@@@@@@",
"@@@@@@@@@@@@@@@@@@XoO++++++++++OoX@@@@@@@@@@@@@@@@",
"@@@@@@@@@@@@@@@@@XXoO+++++++++OoX@@@@@@@@@@@@@@@@@",
"@@@@@@@@@@@@@@@@XooO++++++++++OooX@@@@@@@@@@@@@@@@",
"@@@@@@@@@@@@@@@XoOOO+++++++++++++oX@@@@@@@@@@@@@@@",
"@@@@@@@@@@@@@@@XoO++++++++++++++OoX@@@@@@@@@@@@@@@",
"@@@@@@@@@@@@@@@@O+++++++++++++++OoX@@@@@@@@@@@@@@@",
"@@@@@@@@@@@@@@@@oOOOO++++++++OOOoo@@@@@@@@@@@@@@@@",
"@@@@@@@@@@@@@@@@ooooOOOOOOOOOooooo@@@@@@@@@@@@@@@@",
"@@@@@@@@@@@@@@@@XXXXXooooooooXXXXX@@@@@@@@@@@@@@@@",
"@@@@@@@@@@@@@@@@XXXXXXXXXXXXXXXXXX@@@@@@@@@@@@@@@@",
"@@@@@@@@@@@@@@@@X..XXXXXXXXXXXX..X@@@@@@@@@@@@@@@@",
"@@@@@@@@@@@@@@@@@................@@@@@@@@@@@@@@@@@",
"@@@@@@@@@@@@@@@@@......XXXX......@@@@@@@@@@@@@@@@@",
"@@@@@@@@@@@@@@@@@@...XXO++OXX...@@@@@@@@@@@@@@@@@@",
"@@@@@@@@@@@@@@@@@@...XXoOOoXX...@@@@@@@@@@@@@@@@@@",
"@@@@@@@@@@@@@@@@@@@..  XXXX  ..@@@@@@@@@@@@@@@@@@@",
"@@@@@@@@@@@@@@@@@@@@...    ...@@@@@@@@@@@@@@@@@@@@",
"@@@@@@@@@@@@@@@@@@@@@@......@@@@@@@@@@@@@@@@@@@@@@"
};
