/* XPM */
static char *explosion_11[] = {
/* columns rows colors chars-per-pixel */
"50 60 7 1 ",
"  c #211D17",
". c #3E362A",
"X c #600000",
"o c #504636",
"O c #685B46",
"+ c #9B2500",
"@ c None",
/* pixels */
"@@@@@@@@@@@@@@@@@@@@@@@@@@@@@@@@@@@@@@@@@@@@@@@@@@",
"@@@@@@@@@@@@@@@@@@@@@@@@@@@@@@@@@@@@@@@@@@@@@@@@@@",
"@@@@@@@@@@@@@@@@@@@@@@@@@@@@@@@@@@@@@@@@@@@@@@@@@@",
"@@@@@@@@@@@@@@@@@@@@@@@@@@@@@@@@@@@@@@@@@@@@@@@@@@",
"@@@@@@@@@@@@@@@@@@@@@@@@@@@@@@@@@@@@@@@@@@@@@@@@@@",
"@@@@@@@@@@@@@@@@@@@@..O.O.@@@@@@@@@@@@@@@@@@@@@@@@",
"@@@@@@@@@@@@@@@@@@...OOOO....  ....@@@@@@@@@@@@@@@",
"@@@@@@@@@@@@@@@@@....OOOooooo........@@@@@@@@@@@@@",
"@@@@@@@@@@@@@@@..oo..OOOOoo.o.........@@@@@@@@@@@@",
"@@@@@@@@@@@@@@@..OOo.ooOoOooo. XXXXX...@@@@@@@@@@@",
"@@@@@@@@@@@@@@@@OOooo.oooooo .  +++X...@@@@@@@@@@@",
"@@@@@@@@@@@@@@@oOoOoo  oooo      ooo  .@@@@@@@@@@@",
"@@@@@@@@@@@@@@oOOoo. X      XXXoooOOoo  @@@@@@@@@@",
"@@@@@@@@@@@@@.oOooo. X++OOooXXXoOoooOo+ @@@@@@@@@@",
"@@@@@@@@@@@@@...oo  XX+OoOooooXoOOoooo+@@@@@@@@@@@",
"@@@@@@@@@@@@@....  .+OOOooooo..Oooooo ..@@@@@@@@@@",
"@@@@@@@@@@@@@@....+XoooooOoO...oooo   ...@@@@@@@@@",
"@@@@@@@@@@@@@....X...o..Oo.....ooo  ..o.. @@@@@@@@",
"@@@@@@@@@@@@@..+.X................ oOoOo. @@@@@@@@",
"@@@@@@@@@@@@.oo...........   X. ..oOOooo. @@@@@@@@",
"@@@@@@@@@@@@oOOOOo. .   . .++.. .oOOoOoo.@@@@@@@@@",
"@@@@@@@@@@@@oOOooo.    X.XX...  ...oooo. @@@@@@@@@",
"@@@@@@@@@@@@oOoo........X..... +........@@@@@@@@@@",
"@@@@@@@@@@@@@oo.. ....OO..... ...      .@@@@@@@@@@",
"@@@@@@@@@@@@@@...  . .oOO....X.  .     .@@@@@@@@@@",
"@@@@@@@@@@@@@@...    ..oooo... X+      .@@@@@@@@@@",
"@@@@@@@@@@@@@@@.  ......oOoo.   X    ...@@@@@@@@@@",
"@@@@@@@@@@@@@@@.    oooo....   ...  ... @@@@@@@@@@",
"@@@@@@@@@@@@@@@. .  ooooo... oooo... .  @@@@@@@@@@",
"@@@@@@@@@@@@@@@....oOOOooo..ooO.o ..  @@@@@@@@@@@@",
"@@@@@@@@@@@@@@@....oOOOoOo .OOooo  . @@@@@@@@@@@@@",
"@@@@@@@@@@@@@@@@....ooooo. ....o.. . @@@@@@@@@@@@@",
"@@@@@@@@@@@@@@@@  ..ooooo. ....o..   @@@@@@@@@@@@@",
"@@@@@@@@@@@@@@@@@.    .....OOo..  ..@@@@@@@@@@@@@@",
"@@@@@@@@@@@@@@@@@@   .o.   Oooo.  .@@@@@@@@@@@@@@@",
"@@@@@@@@@@@@@@@@@@..    ...oooooo.@@@@@@@@@@@@@@@@",
"@@@@@@@@@@@@@@@@@@@@      .   .ooo@@@@@@@@@@@@@@@@",
"@@@@@@@@@@@@@@@@@@.@  ..  . ..ooo.@@@@@@@@@@@@@@@@",
"@@@@@@@@@@@@@@@@@@@@   .  .....oo.@@@@@@@@@@@@@@@@",
"@@@@@@@@@@@@@@@@@@@@.@ .  ........@@@@@.@@@@@@@@@@",
"@@@@@@@@@@@@@@@@@@@@@@.. .. @@..@.@@@@@@@@@@@@@@@@",
"@@@@@@@@@@@@@@@@@@@@.@  .. .@@.@@.@@@@@@@@@@@@@@@@",
"@@@@@@@@@@@@@@@@.@@@@@. . @.@@ @@@@@@@@@@@@@@@@@@@",
"@@@@@@@@@@@@@@@@@@@@@@@. .@.@@@@@@@@@@@@@@@@@@@@@@",
"@@@@@@@@@@@@@@@@@@@@@@@@ .@@@@.@@@@@@@@@@@@@@@@@@@",
"@@@@@@@@@@@@@@@@@@@@@.@@ .@@@@@@@@@@@@@@@@@@@@@@@@",
"@@@@@@@@@@@@@@@@@@@@@@@@@@@@@@@@@@@@@@@@@@@@@@@@@@",
"@@@@@@@@@@@@@@@@@@@@@@@@@@@.@@@@@@@@@@@@@@@@@@@@@@",
"@@@@@@@@@@@@@@@@@@@@@@@@@.@@@@@@@@@@@@@@@@@@@@@@@@",
"@@@@@@@@@@@@@@@@@@@@@@@@@@@@@@@@@@@@@@@@@@@@@@@@@@",
"@@@@@@@@@@@@@@@@@@@@@@@@@@@@@@@@@@@@@.@@@@@@@@@@@@",
"@@@@@@@@@@@@@@@@@@@@@.@@@@@@@@@@@@@@@@@@@@@@@@@@@@",
"@@@@@@@@@@@@@@@@@@@@@@@@@@@@@@@@@@@@@@@@@@@@@@@@@@",
"@@@@@@@@@@@@@@@@@@@@@@@@@.@@@@@@@@@@@@@@@@@@@@@@@@",
"@@@@@@@@@@@@@@@@@@@@@.@@@@@@@@@@@@@@@@@@@@@@@@@@@@",
"@@@@@@@@@@@@@@@@@@@@@@@@@@@@@@@@@@@@@@@@@@@@@@@@@@",
"@@@@@@@@@@@@@@@@@@@@@@@@@@@@@@@.@@@@@@@@@@@@@@@@@@",
"@@@@@@@@@@@@@@@@@@@@@@@@@@@@@@@@@@@@@@@@@@@@@@@@@@",
"@@@@@@@@@@@@@@@@@@@@@@@@@@@@@@@@@@@@@@@@@@@@@@@@@@",
"@@@@@@@@@@@@@@@@@@@@@@@@@@@@@@@@@@@@@@@@@@@@@@@@@@"
};
