/* XPM */
static char *explosion_1[] = {
/* columns rows colors chars-per-pixel */
"50 60 6 1 ",
"  c #D1601A",
". c #EF9200",
"X c #FF9600",
"o c #FFD76C",
"O c white",
"+ c None",
/* pixels */
"++++++++++++++++++++++++++++++++++++++++++++++++++",
"++++++++++++++++++++++++++++++++++++++++++++++++++",
"++++++++++++++++++++++++++++++++++++++++++++++++++",
"++++++++++++++++++++++++++++++++++++++++++++++++++",
"++++++++++++++++++++++++++++++++++++++++++++++++++",
"++++++++++++++++++++++++++++++++++++++++++++++++++",
"++++++++++++++++++++++++ +++++++++++++++++++++++++",
"++++++++++++++++++++++++++++++++++++++.+++++++++++",
"++++++++++++++  ++++++++++++.+++++++++++++++++++++",
"+++++++++++++ +++++ ++++++++++++++  ++++++++++++++",
"++++++++++++++++++++++++   +++ +++++++++++++++++++",
"++++++++++++++++++      ...  +++++++++++++++++++++",
"+++++++++++++++++ ........oo. ++++++++++++++++++++",
"+++++++++++.+++++ ..ooooooooo     ++++++++++++++++",
"++++++++++++++    ..ooooOOOOo  .   ++++ ++++++++++",
"+++++++++++++  ......oOOOOOOo .... +++++++++++++++",
"++++++++++++ ...ooo..oOOOOOo..oo... ++++++++++++++",
"++++++++++++ ...ooo..oOOOOOo..Ooo... +++++++++++++",
"+++++++++++ ..oooOo.oOOOOOo.ooOOoo... ++++++++++++",
"+++++++++++ ..ooOOOooOOOOOoOOOOOOOo.. ++++++++++++",
"+++++++++++ ..oOOOOoOOOOOOOOOOOOOOOo. ++++++++++++",
"+++++++++++ .oOOOOOOOOOOOOOOOOOOOOOooo +++++++++++",
"+++++++++++ .oOOOOOOOOOOOOOOOOOOOOOOOo +++++++++++",
"++++++++++++ .oOOOOOOOOOOOOOOOOOOOOOOo +++++++++++",
"++++++++++++  oOOOOOOOOOOOOOOOOOOOOOoo +++++++++++",
"++++++++++++ oOOOOOOOOOOOOooooOOOOOOo ++++++++++++",
"++++++++++++ OOOOOOOOOOOOoo..ooOOOOo  ++++++++++++",
"+++++++++++ oOOOOoO OOOOOoo. ..oOOo ++++++++++++++",
"+++++++++++ oOOo   OOOOOOOOoO  .oOo ++++++++++++++",
"+++++++++++ oOo ..oooOooooOOOoo.oOOo.+++++++++++++",
"+++++++++++ oOo..ooO ooooooOOOoooOOo.+++++++++++++",
"+++++++++++.oOo.oO  oOoooooOOOOOOOO...++++++++++++",
"+++++++++++.oOooOO ooooooooOOOO.OO.  .++++++++++++",
"+++++++++++.oOOoOOOoOoooooooo..oo..  .++++++++++++",
"+++++++++++.oOOOOOoo...XoO... .ooo.. .++++++++++++",
"++++++++++++.oOOOOoo    .ooOo. .oo.  ..+++++++++++",
"++++++++++++.oOOOoo .....oooo. .Oo. ...+++++++++++",
"++++++++++++. ooOoo ooooo.oOoo..OO. .o.+++++++++++",
"++++++++++++. ..ooOOOOOooooooo.oOOo.oo.+++++++++++",
"++++++++++++.  ..ooOOoo....ooooO OOoOo.+++++++++++",
"+++++++++++++.  ...oooo.   .oOo  OOOOo.+++++++++++",
"+++++++++++++..  ..ooOO  ..ooOOOOOOOoo.+++++++++++",
"++++++++++++.o.   ..ooOo..oOOOOOOooooo.+++++++++++",
"++++++++++++.ooOOOOOOOoOOOooooOoooOOo.++++++++++++",
"+++++++++++++.oOOOOOooOOOOOOOOOOooOOo.++++++++++++",
"+++++++++++++.oOOOOOooOOOOOOOOOOoOOO...+++++++++++",
"++++++++++++++.OooOOOOOOOOOOOOOOOOoOo  +++++++++++",
"+++++++++++++.oOoOOooOOOOOOOOOOOOOoOo  +++++++++++",
"+++++++++++++.oOOOOOOOOOOOOOOOOOOOOOo .+++++++++++",
"++++++++++++.ooOOOOOOOOOOOOOOOOOOOOOo.++++++++++++",
"++++++++++++.ooOOOOOOOOOOOOOOOOOOOOo.+++++++++++++",
"+++++++++++++.ooOOOOOOOOOOOOOOOOOOoo.+++++++++++++",
"+++++++++++++...oOOOOOOOOOOOOOOOOo..++++++++++++++",
"+++++++++++++++.oOOOOOOOOOOOOOOOOo.+++++++++++++++",
"+++++++++++++++.oOOOOOOOOOOOOOOOoo.+++++++++++++++",
"++++++++++++++++.oOOOOOOOOOOOOOOo.++++++++++++++++",
"++++++++++++++++..ooOOOOOOOOOOoo..++++++++++++++++",
"+++++++++++++++++...oOOOOOOOoo..++++++++++++++++++",
"++++++++++++++++++++..oooooo...+++++++++++++++++++",
"++++++++++++++++++++++......++++++++++++++++++++++"
};
