/* XPM */
static char *explosion_9[] = {
/* columns rows colors chars-per-pixel */
"50 60 8 1 ",
"  c #211D17",
". c #3E362A",
"X c #600000",
"o c #504636",
"O c #9B2500",
"+ c #D1601A",
"@ c #EF9200",
"# c None",
/* pixels */
"##################################################",
"##################################################",
"##################################################",
"##################################################",
"##################++++++++########################",
"#################+++++++++OO######################",
"#################++@@@@++OOOXX+++++###############",
"################@++@@+++++OOX++@@@+++#############",
"###############..++++OOOOOOOO+@@@++OOO############",
"###############..++++O+OOOO+@+++++OOOOO###########",
"################.++...@@+++++++++OOOOOO###########",
"###############..++O+++++++++OOOOOOOOOX###########",
"##############..++O+++++++O+++..@XXXXXX###########",
"##############..+++++++++OOOOO+...XXXXX###########",
"##############..@@+++++OOOOOOO+  ..OO.O###########",
"##############.@+@+++O+OOOOOXXXXO ...OO###########",
"##############+++O+++OOOOOXXXXXXOO  .XO..#########",
"###############++OO+OOOOOOOXXXXXOOOOOXO..#########",
"##############+++O..OOXXXXXXXXX+OOOXXXO+. ########",
"#############++@+O.+.OOXXXXOOX..XOXXXOO+. ########",
"#############+@++O.....  XOOOX. XXXXXX+O. ########",
"############++@++.. ... XXXXX.. XXXXXOO..#########",
"############++++...    XXXXXX.  XXXOOO+. #########",
"############+++OX.. OOOXOOXXX  +XXOOOO..##########",
"#############++.. . O.OXXOO.. @++OOOOO.+##########",
"##############X..  O..OOOO.... OOO.OO...##########",
"##############+..  O...OO....  OO.....O.##########",
"###############.   O. .......  O+....O..##########",
"###############. OOO.....O.    + ... +#.##########",
"###############..OOO.. OOOO.   +   . O############",
"###############..OO... .+O.. O+++  . #############",
"################..+......OO. +++O    #############",
"################ +++...  ... +O.. .  #############",
"################# OOO.. +O. +O..... ##############",
"#################+ .OO.  O. ++. ..  ##############",
"################## .OO.. O+.OOO    .###.##########",
"################## ..OO. OOOOOOOO  ###############",
"################## .. +O ++OO..O.  ###############",
"##################  . +OOOOOOXX..  ###############",
"############.######   .OOOOXXX. . .###############",
"############.######@ .o.OOXX.... o.###############",
"#############.####.#    .....  oooo###############",
"####################  O   .   .oooo###############",
"####################O+..  . ..o###################",
"###############.###OXXX.  ...#.o##o###############",
"###############.###.##X.  ...##.#.################",
"################.##.##..#..X###.##################",
"######################  #. .##.#########.#########",
"######################. # .####### ###############",
"#######################.#..### #o#################",
"####################.####..### #o#################",
"#########################.######o#################",
"##################################################",
"#########################.########################",
"########################..########################",
"##################################################",
"#########################.####.###################",
"##################################################",
"##############################.###################",
"##################################################"
};
