/* XPM */
static char *play[] = {
/* columns rows colors chars-per-pixel */
"50 13 2 1 ",
"  c white",
". c None",
/* pixels */
"..................................................",
"..................................................",
"         ....    .........        ....    ..    ..",
"          ...    ........          ...    ..    ..",
"    ..    ...    ........    ..    ...    ..    ..",
"    ..    ...    ........    ..    ...    ..    ..",
"          ...    ........          ...          ..",
"         ....    ........          ...         ...",
"    .........    ........    ..    ......    .....",
"    .........    ........    ..    ......    .....",
"    .........          ..    ..    ......    .....",
"    .........          ..    ..    ......    .....",
".................................................."
};
