/* XPM */
static char *quit[] = {
/* columns rows colors chars-per-pixel */
"50 15 2 1 ",
"  c white",
". c None",
/* pixels */
"..................................................",
"..................................................",
"..................................................",
".          ...     ..     ...    ...            ..",
"            ..     ..     ...    ...            ..",
"     ..     ..     ..     ...    ......     ......",
"     ..     ..     ..     ...    ......     ......",
"     ..     ..     ..     ...    ......     ......",
"     ..     ..     ..     ...    ......     ......",
"     ..     ..     ..     ...    ......     ......",
"     ..     ..     ..     ...    ......     ......",
"     ..     ..     ..     ...    ......     ......",
"            ..            ...    ......     ......",
".          ....          ....    ......     ......",
"..        ......         ....    .......    ......"
};
