/* XPM */
static char *seta[] = {
/* columns rows colors chars-per-pixel */
"50 50 210 2 ",
"   c #366607",
".  c #396618",
"X  c #3C6021",
"o  c #435818",
"O  c #455E07",
"+  c #4A6B0C",
"@  c #476709",
"#  c #516B0B",
"$  c #467305",
"%  c #4A7406",
"&  c #457A09",
"*  c #587A09",
"=  c #4C6912",
"-  c #45631A",
";  c #4A651A",
":  c #496717",
">  c #516C18",
",  c #447415",
"<  c #517E1A",
"1  c #476721",
"2  c #53662A",
"3  c #596C3E",
"4  c #50703C",
"5  c #5B7A46",
"6  c #597551",
"7  c #667A4A",
"8  c #676E5C",
"9  c #6C7B5E",
"0  c #667459",
"q  c #727D59",
"w  c #6E7B63",
"e  c #737F62",
"r  c #757E71",
"t  c #398607",
"y  c #359309",
"u  c #2EAF03",
"i  c #31A505",
"p  c #39B60B",
"a  c #548100",
"s  c #57860D",
"d  c #4E910E",
"f  c #4D8F10",
"g  c #598C15",
"h  c #57961A",
"j  c #649415",
"k  c #59A910",
"l  c #6CA60F",
"z  c #66AA13",
"x  c #79A20B",
"c  c #4C882E",
"v  c #779D29",
"b  c #63A621",
"n  c #7BB724",
"m  c #31C309",
"M  c #3EDB13",
"N  c #3DFB08",
"B  c #4FD60F",
"V  c #51D613",
"C  c #52DA13",
"Z  c #7ECB07",
"A  c #75DC03",
"S  c #7CDB03",
"D  c #7BDD0A",
"F  c #76DB0C",
"G  c #70C316",
"H  c #7DDC13",
"J  c #7DDB18",
"K  c #7CD116",
"L  c #46F809",
"P  c #4DE214",
"I  c #57E61A",
"U  c #4EFF12",
"Y  c #57FB16",
"T  c #5AED0A",
"R  c #7EE00C",
"E  c #75E009",
"W  c #7CE018",
"Q  c #74FC1D",
"!  c #68F713",
"~  c #49DC22",
"^  c #71CC20",
"/  c #78DE2F",
"(  c #75D433",
")  c #76CA37",
"_  c #4CEE20",
"`  c #79FB22",
"'  c #79E925",
"]  c #559442",
"[  c #5C8248",
"{  c #6E8A59",
"}  c #7F9053",
"|  c #66904D",
" . c #57B744",
".. c #7FAE5E",
"X. c #65B443",
"o. c #6C8E66",
"O. c #698464",
"+. c #788766",
"@. c #7CAF65",
"#. c #8BBB05",
"$. c #8BB408",
"%. c #82A518",
"&. c #8BD901",
"*. c #84D407",
"=. c #93DD03",
"-. c #81CF11",
";. c #93CE1F",
":. c #84D610",
">. c #86CA07",
",. c #A5D70A",
"<. c #B7DB0E",
"1. c #8BE106",
"2. c #9AE104",
"3. c #88E91D",
"4. c #9BEB19",
"5. c #9DF31D",
"6. c #88F51E",
"7. c #A9E806",
"8. c #B7EF05",
"9. c #A8F308",
"0. c #B0F604",
"q. c #B7F904",
"w. c #A7E710",
"e. c #B4E812",
"r. c #B4F710",
"t. c #92CF21",
"y. c #99D82A",
"u. c #84C734",
"i. c #80D735",
"p. c #96DB31",
"a. c #86DA28",
"s. c #B5D825",
"d. c #B6D838",
"f. c #84EB24",
"g. c #8AEE21",
"h. c #80E528",
"j. c #9DEA23",
"k. c #9FE92B",
"l. c #83FD22",
"z. c #8CFB2A",
"x. c #87F727",
"c. c #92F021",
"v. c #9CFB26",
"b. c #9DF62A",
"n. c #94FB2C",
"m. c #9CFC2A",
"M. c #9CED30",
"N. c #8BFC34",
"B. c #84F936",
"V. c #95FA31",
"C. c #8BE33B",
"Z. c #A5EB28",
"A. c #A2F521",
"S. c #A5F329",
"D. c #AAF32B",
"F. c #A4FC2C",
"G. c #AAFB2D",
"H. c #A5F925",
"J. c #B0FB2C",
"K. c #A9F434",
"L. c #A2FD32",
"P. c #ABFD32",
"I. c #ABF73A",
"U. c #B1FB30",
"Y. c #B9FF39",
"T. c #CAFD01",
"R. c #CAFD0A",
"E. c #C5F708",
"W. c #C6F712",
"Q. c #879659",
"!. c #8DA359",
"~. c #87B254",
"^. c #848B71",
"/. c #92BF78",
"(. c #8BBD7B",
"). c #88DA4A",
"_. c #91EE40",
"`. c #94C061",
"'. c #7F9386",
"]. c #899986",
"[. c #999F97",
"{. c #95A288",
"}. c #93B28E",
"|. c #9FA89D",
" X c #9EB19E",
".X c #8AA285",
"XX c #A1AB9E",
"oX c #A0A79E",
"OX c #A5B898",
"+X c #AAB488",
"@X c #A1AAA1",
"#X c #ACAEAB",
"$X c #ABB5A8",
"%X c #B8B8B5",
"&X c #B4B6AD",
"*X c #ADC39E",
"=X c #AEC485",
"-X c #BCC8B8",
";X c #AAC7B4",
":X c #C4CAB2",
">X c #C9D0B4",
",X c #D5DCBE",
"<X c #C1CAA8",
"1X c #B9C7C4",
"2X c #BFDDC3",
"3X c #C3C6C6",
"4X c #CCD5C0",
"5X c #D4D8C8",
"6X c #DDEBD4",
"7X c None",
/* pixels */
"7X7X7X7X7X7X7X7X7X7X7X7X7X7X7X7X7X7X7X7X7X7X7X7X7X7X7X7X7X7X7X7X7X7X7X7X7X7X7X7X7X7X7X7X7X7X7X7X7X7X",
"7X7X7X7X7X7X7X7X7X7X7X7X7X7X7X7X7X7X7X7X7X7X7X7X7X7X7X7X7X7X7X7X7X7X7X7X7X7X7X7X7X7X7X7X7X7X7X7X7X7X",
"7X7X7X7X7X7X7X7X7X7X7X7X7X7X7X7X7X7X7X7X7X7X7X7X7X7X7X7X7X7X7X7X7X7X7X7X7X7X7X7X7X7X7X7X7X7X7X7X7X7X",
"7X7X7X7X7X7X7X7X7X7X7X7X7X7X7X7X7X7X7X7X7X7X7X7X7X7X7X7X7X7X7X7X7X7X7X7X7X7X7X7X7X7X7X7X7X7X7X7X7X7X",
"7X7X7X7X7X7X7X7X7X7X7X7X7X7X7X7X7X7X7X7X7X7X7X7X7X7X7X7X7X7X7X7X7X7X7X7X7X7X7X7X7X7X7X7X7X7X7X7X7X7X",
"7X7X7X7X7X7X7X7X7X7X7X7X7X7X7X7X7X7X7X7X7X7X7X7X7X7X7X7X7X7X7X7X7X7X7X7X7X7X7X7X7X7X7X7X7X7X7X7X7X7X",
"7X7X7X7X7X7X7X7X7X7X7X7X7X7X7X7X7X7X7X7X7X7X7X7X7X7X7X7X7X7X7X7X7X7X7X7X7X7X7X7X7X7X7X7X7X7X7X7X7X7X",
"7X7X7X7X7X7X7X7X7X7X7X7X7X7X7X7X7X7X7X7X7X7X7X7X7X7X7X7X7X7X7X7X7X7X7X7X7X7X7X7X7X7X7X7X7X7X7X7X7X7X",
"7X7X7X7X7X7X7X7X7X7X7X7X7X7X7X7X7X7X7X7X7X7X7X7X7X7X7X7X7X7X7X7X7X7X7X7X7X7X7X7X7X7X7X7X7X7X7X7X7X7X",
"7X7X7X7X7X7X7X7X7X@X[.@X@X@X@X|.|.XXoX|.#X7X7X7X7X7X7X7X7X7X7X7X7X7X7X7X7X7X7X7X7X7X7X7X7X7X7X7X7X7X",
"7X7X7X7X7X7X7X7X7Xw o ; - - - - - - . . 6 5X7X7X7X7X7X7X7X7X7X7X7X7X7X7X7X7X7X7X7X7X7X7X7X7X7X7X7X7X",
"7X7X7X7X7X7X7X7X7X9 O * s g g g g g f y ] -X4X7X7X7X7X7X7X7X7X7X7X7X7X7X7X7X7X7X7X7X7X7X7X7X7X7X7X7X",
"7X7X7X7X7X7X7X7X7Xe + l Z.Z.D.I.I.I.z.L I c 4 :X7X7X7X7X7X7X7X7X7X7X7X7X7X7X7X7X7X7X7X7X7X7X7X7X7X7X",
"7X7X7X7X7X7X7X7X7X+.1 b 4.c.H.D.P.P.z.U T t : -X7X7X7X7X7X7X7X7X7X7X7X7X7X7X7X7X7X7X7X7X7X7X7X7X7X7X",
"7X7X7X7X7X7X7X7X7X7X7XOXg j A.A.G.G.P.F.z.I P X.} +.7X7X7X7X7X7X7X7X7X7X7X7X7X7X7X7X7X7X7X7X7X7X7X7X",
"7X7X7X7X7X7X7X7X7X7X7X%Xo # y.Z.D.G.G.U.V.U L i ; { 7X7X7X7X7X7X7X7X7X7X7X7X7X7X7X7X7X7X7X7X7X7X7X7X",
"7X7X7X7X7X7X7X7X7X7X7X7X{.{.~.n y.D.H.J.G.` ` V m  .|.&X7X7X7X7X7X7X7X7X7X7X7X7X7X7X7X7X7X7X7X7X7X7X",
"7X7X7X7X7X7X7X7X7X7X7X7X7X7X6   u.Z.H.H.P.m.P.Q N ~ 2 8 7X7X7X7X7X7X7X7X7X7X7X7X7X7X7X7X7X7X7X7X7X7X",
"7X7X7X7X7X7X7X7X7X7X7X7X7X7X].o.~.y.4.H.v.v.m.l.! C y ] *X7X7X7X7X7X7X7X7X7X7X7X7X7X7X7X7X7X7X7X7X7X",
"7X7X7X7X7X7X7X7X7X7X7X7X7X7X7X7X+.$ l 4.b.L.L.m.V.n.L _ c 3 1X7X7X7X7X7X7X7X7X7X7X7X7X7X7X7X7X7X7X7X",
"7X7X7X7X7X7X7X7X7X7X7X7X7X7X7X7X^.2 v 5.5.G.G.P.P.n.N N y , ;X7X7X7X7X7X7X7X7X7X7X7X7X7X7X7X7X7X7X7X",
"7X7X7X7X7X7X7X7X7X7X7X7X7X7X7X7X7X7X*Xd k b.S.G.P.F.z.x.I P  .Q.+X7X7X7X7X7X7X7X7X7X7X7X7X7X7X7X7X7X",
"7X7X7X7X7X7X7X7X7X7X7X7X7X7X7X7X7X7X>XX , p.j.Z.U.P.Y.G.Y N u > q 7X7X7X7X7X7X7X7X7X7X7X7X7X7X7X7X7X",
"7X7X7X7X7X7X7X7X7X7X7X7X7X7X7X7X7X7X7X.X}.~.n j.D.U.U.G.6.Q B p  .OX$X7X7X7X7X7X7X7X7X7X7X7X7X7X7X7X",
"7X7X7X7X7X7X7X7X7X7X7X7X7X7X7X7X7X7X7X7X6X7   t.Z.S.G.P.G.F.` N M . 7 7X7X7X7X7X7X7X7X7X7X7X7X7X7X7X",
"7X7X7X7X7X7X7X7X7X7X7X7X7X7X7X7X7X7X7X7X7Xw @ ;.D.Z.b.F.S.m.` Y P % 5 7X7X7X7X7X7X7X7X7X7X7X7X7X7X7X",
"7X7X7X7X7X7X7X7X7X7X7X7X7X7X7X7X7X7X7X7X7X0 @ ,.W.r.*.D R :.6.z./ $ 5 7X7X7X7X7X7X7X7X7X7X7X7X7X7X7X",
"7X7X7X7X7X7X7X7X7X7X7X7X7X7X7X7X7X7X7X7X7X7 + ,.T.0.S D R D 3.B.( 1 7 7X7X7X7X7X7X7X7X7X7X7X7X7X7X7X",
"7X7X7X7X7X7X7X7X7X7X7X7X7X7X7X7X7X7X>XQ.!.s.<.,.2.1.A A 5.c.G h @.7X7X7X7X7X7X7X7X7X7X7X7X7X7X7X7X7X",
"7X7X7X7X7X7X7X7X7X7X7X7X7X7X7X7X7X7X<X# * E.R.4.A E D D n.b.k . [ 7X7X7X7X7X7X7X7X7X7X7X7X7X7X7X7X7X",
"7X7X7X7X7X7X7X7X7X7X7X7X7X7X7X7X:XXX+X$.>.7.0.1.S E 6.3./ ) `..X{.7X7X7X7X7X7X7X7X7X7X7X7X7X7X7X7X7X",
"7X7X7X7X7X7X7X7X7X7X7X7X7X7X7X7X^.> %.R.q.&.*.S Z J B.M.t X 1X7X7X7X7X7X7X7X7X7X7X7X7X7X7X7X7X7X7X7X",
"7X7X7X7X7X7X7X7X7X7X7X7X7X7X7X7XQ.* #.q.9.S E D K a.C.).o.O.1X7X7X7X7X7X7X7X7X7X7X7X7X7X7X7X7X7X7X7X",
"7X7X7X7X7X7X7X7X7X7X7X7X7X7Xr 5 d.E.r.=.S A E f.B.i.& [ 2X7X7X7X7X7X7X7X7X7X7X7X7X7X7X7X7X7X7X7X7X7X",
"7X7X7X7X7X7X7X7X7X7X7X7X7X7Xw ; ,.T.0.A A A S g.B.( 2 0 7X7X7X7X7X7X7X7X7X7X7X7X7X7X7X7X7X7X7X7X7X7X",
"7X7X7X7X7X7X7X7X7X7X7X3X+.!.s.<.,.2.&.D A 6.g.G h ~.7X5X7X7X7X7X7X7X7X7X7X7X7X7X7X7X7X7X7X7X7X7X7X7X",
"7X7X7X7X7X7X7X7X7X7X7X1XX * E.T.2.D S F H B.` b 1 o.7X7X7X7X7X7X7X7X7X7X7X7X7X7X7X7X7X7X7X7X7X7X7X7X",
"7X7X7X7X7X7X7X7X7X%X#X=X$.#.7.7.=.:.J ' ' ( ) `.]. X7X7X7X7X7X7X7X7X7X7X7X7X7X7X7X7X7X7X7X7X7X7X7X7X",
"7X7X7X7X7X7X7X7X7Xw o %.R.W.=.>.*.:.3.N._.< - -X7X7X7X7X7X7X7X7X7X7X7X7X7X7X7X7X7X7X7X7X7X7X7X7X7X7X",
"7X7X7X7X7X7X7X7X7X+.= x 8.w.>.>.K K J ' ).{ 9 3X7X7X7X7X7X7X7X7X7X7X7X7X7X7X7X7X7X7X7X7X7X7X7X7X7X7X",
"7X7X7X7X7X7X7X7X7Xe O @ * a $ $ $ & & $ | 7X7X7X7X7X7X7X7X7X7X7X7X7X7X7X7X7X7X7X7X7X7X7X7X7X7X7X7X7X",
"7X7X7X7X7X7X7X7X7X+.= + # + = = ; > ; + 7 7X7X7X7X7X7X7X7X7X7X7X7X7X7X7X7X7X7X7X7X7X7X7X7X7X7X7X7X7X",
"7X7X7X7X7X7X7X7X7X7X7X>X7X7X7X7X7X7X7X,X7X7X7X7X7X7X7X7X7X7X7X7X7X7X7X7X7X7X7X7X7X7X7X7X7X7X7X7X7X7X",
"7X7X7X7X7X7X7X7X7X7X7X7X7X7X7X7X7X7X7X7X7X7X7X7X7X7X7X7X7X7X7X7X7X7X7X7X7X7X7X7X7X7X7X7X7X7X7X7X7X7X",
"7X7X7X7X7X7X7X7X7X7X7X7X7X7X7X7X7X7X7X7X7X7X7X7X7X7X7X7X7X7X7X7X7X7X7X7X7X7X7X7X7X7X7X7X7X7X7X7X7X7X",
"7X7X7X7X7X7X7X7X7X7X7X7X7X7X7X7X7X7X7X7X7X7X7X7X7X7X7X7X7X7X7X7X7X7X7X7X7X7X7X7X7X7X7X7X7X7X7X7X7X7X",
"7X7X7X7X7X7X7X7X7X7X7X7X7X7X7X7X7X7X7X7X7X7X7X7X7X7X7X7X7X7X7X7X7X7X7X7X7X7X7X7X7X7X7X7X7X7X7X7X7X7X",
"7X7X7X7X7X7X7X7X7X7X7X7X7X7X7X7X7X7X7X7X7X7X7X7X7X7X7X7X7X7X7X7X7X7X7X7X7X7X7X7X7X7X7X7X7X7X7X7X7X7X",
"7X7X7X7X7X7X7X7X7X7X7X7X7X7X7X7X7X7X7X7X7X7X7X7X7X7X7X7X7X7X7X7X7X7X7X7X7X7X7X7X7X7X7X7X7X7X7X7X7X7X",
"7X7X7X7X7X7X7X7X7X7X7X7X7X7X7X7X7X7X7X7X7X7X7X7X7X7X7X7X7X7X7X7X7X7X7X7X7X7X7X7X7X7X7X7X7X7X7X7X7X7X"
};
