/* XPM */
static char *title[] = {
/* columns rows colors chars-per-pixel */
"50 18 2 1 ",
"  c white",
". c None",
/* pixels */
"..................................................",
"..      ..      ....     ...      ...      .......",
".       ..       ..       .       ..       .......",
".   ......   .   .   ..   .   ......   ...........",
".      ...       .        .   ......     .........",
"..      ..      ..        .   ......     .........",
".....   ..   .....   ..   .   ......   ...........",
".       ..   .....   ..   .       ..       .......",
".      ...  .......  ..  ...      ...      .......",
"..................................................",
".....   ..   .   ..      ..       ..       .......",
".....   ..   .   .        .   .   ..   ...........",
".....   ..   .   .    .   .   .   ..   ...........",
".....   ..   .   .        .       ..       .......",
".....   ..   .   .    .   .   .   ......   .......",
".....        .   .   ..   .   ..  ......   .......",
".....           ..   ..   .   ..  ..       .......",
".................................................."
};
