/* XPM */
static char *projetil1___7[] = {
/* columns rows colors chars-per-pixel */
"50 50 63 1 ",
"  c #009EE3",
". c #009DE7",
"X c #009EE7",
"o c #009FE7",
"O c #009FE8",
"+ c #02A0E4",
"@ c #00A0E8",
"# c #00A1E8",
"$ c #00A2E8",
"% c #01A2E8",
"& c #07A4E8",
"* c #07A5E8",
"= c #09A5E8",
"- c #0FA8E8",
"; c #1EADE7",
": c #1FADE7",
"> c #10A8E8",
", c #11A8E8",
"< c #10A8E9",
"1 c #12A8E9",
"2 c #13A9E9",
"3 c #16AAE8",
"4 c #17AAE8",
"5 c #26B0E8",
"6 c #28B0E9",
"7 c #30B3E7",
"8 c #31B4E8",
"9 c #37B6EB",
"0 c #38B7EC",
"q c #45BBE8",
"w c #45BBE9",
"e c #50BFEA",
"r c #5EC4EB",
"t c #60C5EB",
"y c #61C5EB",
"u c #65C7EE",
"i c #66C7EE",
"p c #68C7EA",
"a c #6FCAE9",
"s c #7ECFE9",
"d c #85D2F0",
"f c #87D3F0",
"g c #95D8F1",
"h c #ABE0ED",
"j c #B0E2F5",
"k c #B1E2F5",
"l c #BDE7F3",
"z c #BEE7F3",
"x c #C4E9F1",
"c c #C6EAF6",
"v c #D4EFF5",
"b c #D9F1F6",
"n c #DAF1F6",
"m c #D8F1FA",
"M c #EBF7F9",
"N c #EBF8F9",
"B c #F6FBFC",
"V c #F6FCFE",
"C c #F7FCFE",
"Z c #F8FCFB",
"A c #FFFFFE",
"S c white",
"D c None",
/* pixels */
"DDDDDDDDDDDDDDDDDDDDDDDDDDDDDDDDDDDDDDDDDDDDDDDDDD",
"DDDDDDDDDDDDDDDDDDDDDDDDDDDDDDDDDDDDDDDDDDDDDDDDDD",
"DDDDDDDDDDDDDDDDDDDDDDDDDDDDDDDDDDDDDDDDDDDDDDDDDD",
"DDDDDDDDDDDDDDDDDDDDDDDDDDDDDDDDDDDDDDDDDDDDDDDDDD",
"DDDDDDDDDDDDDDDDDDDDDDDDDDDDDDDDDDDDDDDDDDDDDDDDDD",
"DDDDDDDDDDDDDDDDDDDDDDDDDDDDDDDDDDDDDDDDDDDDDDDDDD",
"DDDDDDDDDDDDDDDDDDDDDDDDDDDDDDDDDDDDDDDDDDDDDDDDDD",
"DDDDDDDDDDDDDDDDDDDDDDDDDDDDDDDDDDDDDDDDDDDDDDDDDD",
"DDDDDDDDDDDDDDDDDDDDDDDDDDDDDDDDDDDDDDDDDDDDDDDDDD",
"DDDDDDDDDDDDDDDDDDDDDDDDDDDDDDDDDDDDDDDDDDDDDDDDDD",
"DDDDDDDDDDDDDDDDDDDDDDDDDDDDDDDDDDDDDDDDDDDDDDDDDD",
"DDDDDDDDDDDDDDDDDDDDDDDDDDDDDDDDDDDDDDDDDDDDDDDDDD",
"DDDDDDDDDDDDDDDDDDDDDDDDDDDDDDDDDDDDDDDDDDDDDDDDDD",
"DDDDDDDDDDDDDDDDDDDDDDDDDDDDDDDDDDDDDDDDDDDDDDDDDD",
"DDDDDDDDDDDDDDDDDDDDDDDDDDDDDDDDDDDDDDDDDDDDDDDDDD",
"DDDDDDDDDDDDDDDDDDDDDDDDDDDDDDDDDDDDDDDDDDDDDDDDDD",
"DDDDDDDDDDDDDDDDDDDDDDDDDDDDDDDDDDDDDDDDDDDDDDDDDD",
"DDDDDDDDDDDDDDDDDDDDDDDDDDDDDDDDDDDDDDDDDDDDDDDDDD",
"DDDDDDDDDDDDDDDDDDDDDDDDDDDDDDDDDDDDDDDDDDDDDDDDDD",
"DDDDDDDDDDDDDDDDDDDDDDDDDDDDDDDDDDDDDDDDDDDDDDDDDD",
"DDDDDDDDDDDDDDDDDDDDDDDDDDDDDDDDDDDDDDDDDDDDDDDDDD",
"DDDDDDDDDDDDDDDDDDDDDDDDDDDO@$==ODDDDDDDDDDDDDDDDD",
"DDDDDDDDDDDDDDDDDDDDDDO@$&>;7qre5@DDDDDDDDDDDDDDDD",
"DDDDDDDDDDDDDDDDDD@$*,:7qtdjmVBhw#DDDDDDDDDDDDDDDD",
"DDDDDDDDDDDDDDDDD48wyfkmCSAZNnza3$DDDDDDDDDDDDDDDD",
"DDDDDDDDDDDDDDDD-pcCSAZMbzgi02#XDDDDDDDDDDDDDDDDDD",
"DDDDDDDDDDDDDDD%3sxvlgu91@. +$DDDDDDDDDDDDDDDDDDDD",
"DDDDDDDDDDDDDDDD@56<@..o$DDDDDDDDDDDDDDDDDDDDDDDDD",
"DDDDDDDDDDDDDDDDDDD$DDDDDDDDDDDDDDDDDDDDDDDDDDDDDD",
"DDDDDDDDDDDDDDDDDDDDDDDDDDDDDDDDDDDDDDDDDDDDDDDDDD",
"DDDDDDDDDDDDDDDDDDDDDDDDDDDDDDDDDDDDDDDDDDDDDDDDDD",
"DDDDDDDDDDDDDDDDDDDDDDDDDDDDDDDDDDDDDDDDDDDDDDDDDD",
"DDDDDDDDDDDDDDDDDDDDDDDDDDDDDDDDDDDDDDDDDDDDDDDDDD",
"DDDDDDDDDDDDDDDDDDDDDDDDDDDDDDDDDDDDDDDDDDDDDDDDDD",
"DDDDDDDDDDDDDDDDDDDDDDDDDDDDDDDDDDDDDDDDDDDDDDDDDD",
"DDDDDDDDDDDDDDDDDDDDDDDDDDDDDDDDDDDDDDDDDDDDDDDDDD",
"DDDDDDDDDDDDDDDDDDDDDDDDDDDDDDDDDDDDDDDDDDDDDDDDDD",
"DDDDDDDDDDDDDDDDDDDDDDDDDDDDDDDDDDDDDDDDDDDDDDDDDD",
"DDDDDDDDDDDDDDDDDDDDDDDDDDDDDDDDDDDDDDDDDDDDDDDDDD",
"DDDDDDDDDDDDDDDDDDDDDDDDDDDDDDDDDDDDDDDDDDDDDDDDDD",
"DDDDDDDDDDDDDDDDDDDDDDDDDDDDDDDDDDDDDDDDDDDDDDDDDD",
"DDDDDDDDDDDDDDDDDDDDDDDDDDDDDDDDDDDDDDDDDDDDDDDDDD",
"DDDDDDDDDDDDDDDDDDDDDDDDDDDDDDDDDDDDDDDDDDDDDDDDDD",
"DDDDDDDDDDDDDDDDDDDDDDDDDDDDDDDDDDDDDDDDDDDDDDDDDD",
"DDDDDDDDDDDDDDDDDDDDDDDDDDDDDDDDDDDDDDDDDDDDDDDDDD",
"DDDDDDDDDDDDDDDDDDDDDDDDDDDDDDDDDDDDDDDDDDDDDDDDDD",
"DDDDDDDDDDDDDDDDDDDDDDDDDDDDDDDDDDDDDDDDDDDDDDDDDD",
"DDDDDDDDDDDDDDDDDDDDDDDDDDDDDDDDDDDDDDDDDDDDDDDDDD",
"DDDDDDDDDDDDDDDDDDDDDDDDDDDDDDDDDDDDDDDDDDDDDDDDDD",
"DDDDDDDDDDDDDDDDDDDDDDDDDDDDDDDDDDDDDDDDDDDDDDDDDD"
};
