/* XPM */
static char *projetil1___8[] = {
/* columns rows colors chars-per-pixel */
"50 50 34 1 ",
"  c #25A4DB",
". c #009FE8",
"X c #02A2E7",
"o c #03A2E7",
"O c #00A0E8",
"+ c #00A1E8",
"@ c #00A2E8",
"# c #01A2E8",
"$ c #02A3E8",
"% c #03A3E8",
"& c #05A4E8",
"* c #06A4E8",
"= c #07A4E8",
"- c #25AFE8",
"; c #27B0E8",
": c #2CB2E8",
"> c #47BBE9",
", c #4BBDE9",
"< c #4DBEE9",
"1 c #4EBEEA",
"2 c #6AC8EA",
"3 c #6FCAE9",
"4 c #93D7EA",
"5 c #98D9EB",
"6 c #B2E2F0",
"7 c #B8E4F0",
"8 c #CBECF4",
"9 c #CCECF4",
"0 c #CCECF5",
"q c #E5F5F9",
"w c #FCFEFE",
"e c #FEFFFF",
"r c #FFFFFF",
"t c None",
/* pixels */
"tttttttttttttttttttttttttttttttttttttttttttttttttt",
"tttttttttttttttttttttttttttttttttttttttttttttttttt",
"tttttttttttttttttttttttttttttttttttttttttttttttttt",
"tttttttttttttttttttttttttttttttttttttttttttttttttt",
"tttttttttttttttttttttttttttttttttttttttttttttttttt",
"tttttttttttttttttttttttttttttttttttttttttttttttttt",
"tttttttttttttttttttttttttttttttttttttttttttttttttt",
"tttttttttttttttttttttttttttttttttttttttttttttttttt",
"tttttttttttttttttttttttttttttttttttttttttttttttttt",
"tttttttttttttttttttttttttttttttttttttttttttttttttt",
"tttttttttttttttttttttttttttttttttttttttttttttttttt",
"tttttttttttttttttttttttttttttttttttttttttttttttttt",
"tttttttttttttttttttttttttttttttttttttttttttttttttt",
"tttttttttttttttttttttttttttttttttttttttttttttttttt",
"tttttttttttttttttttttttttttttttttttttttttttttttttt",
"tttttttttttttttttttttttttttttttttttttttttttttttttt",
"tttttttttttttttttttttttttttttttttttttttttttttttttt",
"tttttttttttttttttttttttttttttttttttttttttttttttttt",
"tttttttttttttttttttttttttttttttttttttttttttttttttt",
"tttttttttttttttttttttttttttttttttttttttttttttttttt",
"tttttttttttttttttttttttttttttttttttttttttttttttttt",
"tttttttttttttttttttttttttttttttttttttttttttttttttt",
"tttttttttttttttttt#@@@@@@@@@@@@%tttttttttttttttttt",
"tttttttttttttttt@;,<<<<<<<<<<<1>=Otttttttttttttttt",
"ttttttttttttttt%-5qerrrrrrrrrrw72*tttttttttttttttt",
"ttttttttttttttt+&368000000000984:@tttttttttttttttt",
"tttttttttttttttt.$##@@@@@@@X@@$$+ttttttttttttttttt",
"tttttttttttttttttttttttt@to ottttttttttttttttttttt",
"tttttttttttttttttttttttttttttttttttttttttttttttttt",
"tttttttttttttttttttttttttttttttttttttttttttttttttt",
"tttttttttttttttttttttttttttttttttttttttttttttttttt",
"tttttttttttttttttttttttttttttttttttttttttttttttttt",
"tttttttttttttttttttttttttttttttttttttttttttttttttt",
"tttttttttttttttttttttttttttttttttttttttttttttttttt",
"tttttttttttttttttttttttttttttttttttttttttttttttttt",
"tttttttttttttttttttttttttttttttttttttttttttttttttt",
"tttttttttttttttttttttttttttttttttttttttttttttttttt",
"tttttttttttttttttttttttttttttttttttttttttttttttttt",
"tttttttttttttttttttttttttttttttttttttttttttttttttt",
"tttttttttttttttttttttttttttttttttttttttttttttttttt",
"tttttttttttttttttttttttttttttttttttttttttttttttttt",
"tttttttttttttttttttttttttttttttttttttttttttttttttt",
"tttttttttttttttttttttttttttttttttttttttttttttttttt",
"tttttttttttttttttttttttttttttttttttttttttttttttttt",
"tttttttttttttttttttttttttttttttttttttttttttttttttt",
"tttttttttttttttttttttttttttttttttttttttttttttttttt",
"tttttttttttttttttttttttttttttttttttttttttttttttttt",
"tttttttttttttttttttttttttttttttttttttttttttttttttt",
"tttttttttttttttttttttttttttttttttttttttttttttttttt",
"tttttttttttttttttttttttttttttttttttttttttttttttttt"
};
