/* XPM */
static char *projetil1___24[] = {
/* columns rows colors chars-per-pixel */
"50 50 34 1 ",
"  c #24A4DB",
". c #009FE8",
"X c #02A2E7",
"o c #03A2E7",
"O c #00A0E8",
"+ c #00A1E8",
"@ c #00A2E8",
"# c #01A2E8",
"$ c #02A3E8",
"% c #03A3E8",
"& c #05A4E8",
"* c #06A4E8",
"= c #07A4E8",
"- c #25AFE8",
"; c #27B0E8",
": c #2CB2E8",
"> c #47BBE9",
", c #4ABDE9",
"< c #4CBDE9",
"1 c #4DBEE9",
"2 c #4EBEE9",
"3 c #6AC8EA",
"4 c #6FCAE9",
"5 c #93D7EA",
"6 c #98D9EB",
"7 c #B2E2F0",
"8 c #B8E4F0",
"9 c #CBECF4",
"0 c #CCECF5",
"q c #E5F5F9",
"w c #FCFEFE",
"e c #FEFFFF",
"r c #FFFFFF",
"t c None",
/* pixels */
"tttttttttttttttttttttttttttttttttttttttttttttttttt",
"tttttttttttttttttttttttttttttttttttttttttttttttttt",
"tttttttttttttttttttttttttttttttttttttttttttttttttt",
"tttttttttttttttttttttttttttttttttttttttttttttttttt",
"tttttttttttttttttttttttttttttttttttttttttttttttttt",
"tttttttttttttttttttttttttttttttttttttttttttttttttt",
"tttttttttttttttttttttttttttttttttttttttttttttttttt",
"tttttttttttttttttttttttttttttttttttttttttttttttttt",
"tttttttttttttttttttttttttttttttttttttttttttttttttt",
"tttttttttttttttttttttttttttttttttttttttttttttttttt",
"tttttttttttttttttttttttttttttttttttttttttttttttttt",
"tttttttttttttttttttttttttttttttttttttttttttttttttt",
"tttttttttttttttttttttttttttttttttttttttttttttttttt",
"tttttttttttttttttttttttttttttttttttttttttttttttttt",
"tttttttttttttttttttttttttttttttttttttttttttttttttt",
"tttttttttttttttttttttttttttttttttttttttttttttttttt",
"tttttttttttttttttttttttttttttttttttttttttttttttttt",
"tttttttttttttttttttttttttttttttttttttttttttttttttt",
"tttttttttttttttttttttttttttttttttttttttttttttttttt",
"tttttttttttttttttttttttttttttttttttttttttttttttttt",
"tttttttttttttttttttttttttttttttttttttttttttttttttt",
"tttttttttttttttttttttttttttttttttttttttttttttttttt",
"tttttttttttttttttttt@o o@@@@@@@ttttttttttttttttttt",
"ttttttttttttttttt+$$@@X@@@@@@@##$.tttttttttttttttt",
"tttttttttttttttt+:590000000000974&+ttttttttttttttt",
"tttttttttttttttt*38wrrrrrrrrrreq6-%ttttttttttttttt",
"ttttttttttttttttO=>2<<<<<<<<<<1,;@tttttttttttttttt",
"tttttttttttttttttt%@@@@@@@@@@@@#tttttttttttttttttt",
"tttttttttttttttttttttttttttttttttttttttttttttttttt",
"tttttttttttttttttttttttttttttttttttttttttttttttttt",
"tttttttttttttttttttttttttttttttttttttttttttttttttt",
"tttttttttttttttttttttttttttttttttttttttttttttttttt",
"tttttttttttttttttttttttttttttttttttttttttttttttttt",
"tttttttttttttttttttttttttttttttttttttttttttttttttt",
"tttttttttttttttttttttttttttttttttttttttttttttttttt",
"tttttttttttttttttttttttttttttttttttttttttttttttttt",
"tttttttttttttttttttttttttttttttttttttttttttttttttt",
"tttttttttttttttttttttttttttttttttttttttttttttttttt",
"tttttttttttttttttttttttttttttttttttttttttttttttttt",
"tttttttttttttttttttttttttttttttttttttttttttttttttt",
"tttttttttttttttttttttttttttttttttttttttttttttttttt",
"tttttttttttttttttttttttttttttttttttttttttttttttttt",
"tttttttttttttttttttttttttttttttttttttttttttttttttt",
"tttttttttttttttttttttttttttttttttttttttttttttttttt",
"tttttttttttttttttttttttttttttttttttttttttttttttttt",
"tttttttttttttttttttttttttttttttttttttttttttttttttt",
"tttttttttttttttttttttttttttttttttttttttttttttttttt",
"tttttttttttttttttttttttttttttttttttttttttttttttttt",
"tttttttttttttttttttttttttttttttttttttttttttttttttt",
"tttttttttttttttttttttttttttttttttttttttttttttttttt"
};
