/* XPM */
static char * planeta_xpm[] = {
"100 100 75 1",
" 	c None",
".	c #000000",
"+	c #0B4D08",
"@	c #117B0D",
"#	c #10730D",
"$	c #12840E",
"%	c #138A0F",
"&	c #0B5309",
"*	c #149410",
"=	c #169E11",
"-	c #15910F",
";	c #19AD12",
">	c #18A611",
",	c #17A311",
"'	c #0D5C0A",
")	c #0F6B0C",
"!	c #0E630B",
"~	c #106F0C",
"{	c #128D11",
"]	c #1B3D19",
"^	c #4D8B4B",
"/	c #95D393",
"(	c #5DC259",
"_	c #266A23",
":	c #97DA94",
"<	c #82D37E",
"[	c #7C7C7C",
"}	c #FFFFFF",
"|	c #313131",
"1	c #DAF2D9",
"2	c #073306",
"3	c #083706",
"4	c #11AA1B",
"5	c #3C3C3C",
"6	c #4F924C",
"7	c #181818",
"8	c #6B7E6A",
"9	c #108612",
"0	c #09B525",
"a	c #16AA15",
"b	c #021102",
"c	c #0F9216",
"d	c #0B941B",
"e	c #599553",
"f	c #878482",
"g	c #476843",
"h	c #094107",
"i	c #857A81",
"j	c #836A7F",
"k	c #786A74",
"l	c #9E8599",
"m	c #FF69FA",
"n	c #366B32",
"o	c #E86CE3",
"p	c #9C7F97",
"q	c #61775D",
"r	c #996A95",
"s	c #547A50",
"t	c #083B06",
"u	c #0C8115",
"v	c #0D7A12",
"w	c #0B8D1A",
"x	c #967F9E",
"y	c #8F828A",
"z	c #022909",
"A	c #089E21",
"B	c #08A924",
"C	c #0B9C1D",
"D	c #041E03",
"E	c #0CA71E",
"F	c #109E18",
"G	c #04390B",
"H	c #0E8915",
"I	c #0D7711",
"J	c #0E720F",
"                                                                                                    ",
"                                                                                                    ",
"                                                                                                    ",
"                                                                                                    ",
"                                           ............                                             ",
"                                           .............                                            ",
"                                           .............                                            ",
"                                  .........+@@#@@#@@$%%&.........                                   ",
"                                  .........&%%%%%%%%*==&.........                                   ",
"                                  .........+%%%%%%%%-==&.........                                   ",
"                            ......&###@###@$%%*;>;>>;;;,=----%$%'......                             ",
"                            ......'%%%%%%%%%%%=;;;;;;;;;;;;;;;==)......                             ",
"                            ......!%%%%%%%%%%%=;;;;;;;;;;;;;;>==!......                             ",
"                      ......)$@%%-%%%=;>-%%%%%=;;>,=;;;;;;;;;;;;=--%-%)......                       ",
"                      ......#==>;;-%%,;;-%%%%%=;;>,=>;;;;;;;;;;;;;;;;;@......                       ",
"                      ......#==;;;-%%,;;-%%%%%=;;>=,,;;;;;;;;;;;;;;;;;@......                       ",
"                   ...#%%#))%%%---,,,>;;;>>>,,%@@@###@@##@@#@#@#%,,,;;,%%$@@!...                    ",
"                   ...%;;*%%%%%%%%,;;;;;;;;;;;%)))))~)))~)))~~))@==,;;;;;;==@...                    ",
"                   ...%;;-%%%%%%%%,;;;;;;;;;;;%)))))~)))~)))))~~@==,;;;;;;=,@...                    ",
"                ...)@#%--%%%=,>,;;;;;;;;-@@@@@#)))))$======---==,>;;;;;;;;;;=##)...                 ",
"                ...%==-%%%%%,;;;;;;;;;;;%)))))))))))%;;;;;>==,;;;;;;;;;;;;;;;==$...                 ",
"                ...%==-%%%%%>;;;;;;;;;;;$)))))))))))%;;;;;>==>;;;;;;;;;;;;;;;==@...                 ",
"             ...)##-=,%%%=,>;;;;;;;;;;;;,,-=*======->;;;;;>===,,>;;;;;;;;;;;;>;=##)...              ",
"             ...%=====%%%>;;;;;;;;;;;;;;;;;;;;;;;;;;;;;;;;;=====,;;;;;;;;;;;;;;;==$...              ",
"             ...%==,==-%%>;;;;;;;;;;;;;;;;;;;;;;;;;;;;;;;;>=====,;;;;;;;;;;;;;;;==$...              ",
"             ...-;;*-%%%%>;;;;;;;;;;;;;;,,,;;;;;;;,,;;;;;;>==,>;=@@-,,;;;;;;;;;;>;-...              ",
"             ...-;;%%%%%%>;;;;;;;;;;;;;;,=,,;;;;;>==>;;;;;>==,;;-)~@==,;;;;;;;;;;;-...              ",
"             ...=;;-%%%%%>;;;;;;;;;;;;;;;,=,;;;;;>,,>;;;;;>==>;;-~)@==,;;;;;;;;;;;-...              ",
"          ...'~)---%%%###@$@>;;;;;;;;,--$@@@$$@$$@@@@@$-;;>,=>;;>--,>;;;;;;;;;;;;;,)~!...           ",
"          ...-==-$%%%%~~~)))=;;;;;;;;=%%@))))))))))))))%;;>==,;;;;;;;;;;;;;;;;;;;;;,=%...           ",
"          ...-==-%%%%%#)))))=;;;;;;;;-%%@))))))))))))))%;;>==,;;;;;;;;;;;;;;;;;;;;;>=$...           ",
"          ...%%-@#####~~))))@$$$@$$@@@@#)))))))))))))))#$$->>;;;;>>,>,>;;;;;;;;;;;;;;-...           ",
"          ...@%%~!~~~~~!))))~~))))~~))))))))))))))))))))))%;;;;;;=====,;;;;;;;;;;;;;;*...           ",
"          ...@%%~~))))~))))))))))))))))))))))))))))))))))~%;;;;;>=====>;;;;;;;;;;;;;;*...           ",
"       ...'!'%%%~))))))))))))))))))))%---%%@)))))))))))@--,;;;;;>=====>;;;;;;;;;;;;;;>!''...        ",
"       ...*==%%%~))))))))))))))))))))-;;,==@~))))))))))%;;;;;;;;>=====,;;;;;;;;;;;;;;;==-...        ",
"       ...*==%%%~))))))~))))~~)))))~)-;;,==@)))))))))))%;;;;;;;;>,====,;;;;;;;;;;;;;;;==-...        ",
"       ...%---%%@@@$$$------$@@%%%%%--;,,=,-$%---%$$%$$=;;;;;,%%-,=====,>=$$-;;;;;;;;;==-...        ",
"       ...$%$%%%%%-===;;;;;;-%%,;;,,===,=====,,;;>,===,;;;;;;-))@========-~~$;;;;;;;;;==-...        ",
"       ...$%%%%%%-$===;;;;;;-%%,;;,===========>;;,>,==,,;;;;;-))@====,==={~!@;;;;;;;;;==-...        ",
"       ...@%$===-**,>>;;;;;;,,=;;;,==,;,,====,,,>#+]^//(;;;;;=---;,,==-%$@~~)++_::<;;;>>*...        ",
"       ...$%%;;;,==;;;;;;;;;;;;;;;,==,;;,=======,+..[}}:;;;;;;;;;;;;==%)~)!~&..|}}1;;;;;=...        ",
"       ...$%%;;;===;;;;;;;;;;;;;;;,==;;;,========+..[}}:;;;;;;;;;;;;==%)))~~&..|}}1;;;;;=...        ",
"    ...223%%%>;;444;;;;;;;;;;;;;;;;,>;;;>>;======+..5[[6;;;>>>>>>>>=$$@))~@@'..7[[89%%%9$222..      ",
"    ...~))%%%;;;000a;;;;;;;;;;;;;;;;;;;;;;;>=====+.....+;;>========%))~))#%%~.....b)~~~~~~~!...     ",
"    ...!))%%%;;;000a;;;;;;;;;;;;;;;;;;;;;;;>==,==+.....+;;,====,===-)))))#9%~.....b!))'!!~)!...     ",
"    ...~))#@#%%%cdd;;;;;;;;,;;;;;;;;;;;;;;;efffffg+&h22'%%%9$$$$$$$@)))))~@@~22222]ijjjik~~!...     ",
"    ...)))))))))))),;;;;;===;;;;;;;;;;;;;;;lmmmmmf>=%~!~~!~~)))~~)))))))))))))!~~!nmmmmmo))!...     ",
"    ...)))))))))))),;;;;;,==;;;;;;;;;;;;;;;lmmmmmf==$)))~~!~))))~)))))))))))))~~~~nmmmmmo))!...     ",
"    ...))))))))))))=,,;;;;>,;;;;;,;;;;;;;>>lmmmmmf--@~))!!~~))))))))))))))))))!!!!nmmmmmo$$@...     ",
"    ...))))))))))~~*==;;;;;;;;;,==;;;;;;===lmmmmmj%%@~))~~~!))))))))))))))))))~~~~nmmmmmo==*...     ",
"    ...!!~~~))!~~~!*==;;;;;;;;;,==;;;;;;;==pmmmmmj%%@~~~))))))~~~~))~))~~)~)))))))nmmmmmo==*...     ",
"    ...@$@~!~!~~!~~*==,>>;;;;;;,==>;;;;;=%%qrrrrrs%%@###))))~&tt+@##@@!t3+uuuuuvuw_xxxppy==*...     ",
"    ...===~~~~!!~!~*,====;;;;;;,==>;;;;;@)~~))~~~@%%%%%@))~))h..2%%%%%!..zAAAAAABAAAAC=====*...     ",
"    ...*==~~!~~~~~~*=====;;;;;;,==;;;;;;%))))))~~@%%%%%#))~~)t..2%%%%9!..zAAAAAAAAAAAC=====*...     ",
"    ...'!'#######@#======>;;;;;>==>>,;;;%@$@$@$@@%--*=*-9$$@@+..D&&&&&t..zAAAAAAAAAAAE===!''...     ",
"       ...9%%%-%99$======;;;;;;,=====;;;,==,====,===>;;;;;>=,!...........zAAAAAAAAAAAC==%...        ",
"       ...@%%%%%%%%=,====;;;;;;,====,,;;,===========>;;;;;>==!...........zAAAAAAAAAAAC==%...        ",
"       ...{FF{%%%%%***===,a>;>>,=====;;;,===========>;;;;;;==#ttGGGtt3ttG&AAAAAAAAAAAA==*...        ",
"       ...B00{9%%%%%%%*==CAAF======,=>;;>===========>;;;;;>======AAA=====FAAAAAAAAAAAC==%...        ",
"       ...B00*%%%%%%%%===CAAF,=======>;;,===========>;;;;;;=====FAAF=====FAAAAAAAAABAA==*...        ",
"       ...FBE9%%%%%%%%==FCAA==========*--%%%%%-=====,>;>;>,===,==FAFFF===FcwwwwwAcCcdc==-...        ",
"       ...$9%%%%%%%%%9AAAAAAF========@~)~~~)~~%,=================,=FAAF==-!~)))#9%9%{-==%...        ",
"       ...$%%%%%%%%9%%CAAAEC======,==@~)))))))%====================FAAA==-~~!~~#%%%%9-==-...        ",
"       ...'!'%%%%%%*cHdCCCCCCFF*%--%%#~~#@@#))@%---%{*{*==F=FF====FFAFF==cvII~!)$$@@$@~~)...        ",
"          ...@%%%%9CAA{%%===CEAv))))))))%==$))))))))~~~vAAAAAF==FAAA==FAAAAAw~~~~!~~~'...           ",
"          ...@%%%%9CAA{9%-==CAC@)))))))~%==@))))))))~!~uAAAAAF==FAAF==FAAAAAd~!!~~!~~'...           ",
"          ...@-%%%%CAC*%%-=-CAAv))))))))$%*@))))))))~~!uAAAAAC==FAAF*=FAAAAAA###~###~)...           ",
"          ...@%%%%%dABH%%%%%dAAv)))))))))~))))))))))!~~uAAAAAC==FAAd%%{AAAAAd9%%%%%%%@...           ",
"          ...@%%%%9CAA%%%%%%CAAv))))))))))))))))))))))~vAAAAAC,=FAAA%9{AAAAAd%%%%%%%%#...           ",
"          ...'))%%%wwwu$$$$$cCCI)))))))))))))))))))))))vwdwAwc**cwwc$9@AwdCdd%%%%%$~~'...           ",
"             ...@%%#))))))))$%%#))))))))))))))))))))))))))))~~!~~!))~))))~%%%%%%%%#...              ",
"             ...#%%#))))))))$%%#))))))))))))))))))))))))))))~!~~~~))))))~#%%%%%%%%#...              ",
"             ...@%%#JJJJ)##J$%%##JJ)#)))))))))))))))))))))))~~!!!!)))))))#%%%%%9--#...              ",
"             ...#%%%%%%%%%%%%%%%%%%%%@))))))))))))))))))))))!~~~~~)))))))~%%%%%-==$...              ",
"             ...#%%%%%%%%%%%%%%%%%%%%#)))))))))))))))))))))))))))))))~)~~#%%%%%-==%...              ",
"             ...)#)%%%%%%%%%%%%%-%%%%@J#)))))))))))))##)~~#J)##)~J))~~~~##%%%-%%$@~...              ",
"                ...#%%%%%%%%%%%-==-%%%%%#)))))))))))@%%%%%%%%%%%%%%%%%%%%%%%{==@...                 ",
"                ...J%%%%%%%%%%%-==-%%%%%@)))))))))))@%%%%%%%%%%%%%%%%%%%%%%%%=,@...                 ",
"                ...)JJ%%%%%%%%%*=={H{9%%v)IJ~~~~#~#)@{{H9{{%%%%%%%%%%%%%%%%%%%%~...                 ",
"                   ...)%%%%%%%%%%%dEAc%%CAAc%%%%%%%%cACBAAd%%%%%%%%%%%%%%-,=@...                    ",
"                   ...)%%%%%%%%%%%dAAc%%dCAc%%%%%%%%dAAAAAd%%%%%%%%%%%%$%%==@...                    ",
"                   ...)@J@@#9%%%%%dCCc{{dAA*%%{{9%%%cCACACc$$%$%%$%%%%%#@@%%~...                    ",
"                      ......!%%%%%%%%CCAAAAC==CAAc%$*==-%%@))))))))#%%!......                       ",
"                      ......!%%%%%%%%dAAAAAC==FAAc%%-==*%%$))))))))#%%!......                       ",
"                      ......!@$@@@%%%dAAACA===CCAc%%-==%%%@)J))))!!)@@'......                       ",
"                            ......'%9dAAc%%%%%%%%9%%@)))))@%%%%%'......                             ",
"                            ......'%%dAAc%%%%%%%%%%%@)))))J%%%%%'......                             ",
"                            ......'$$wdAH$@%%%%%%%%%@)))!!J$$$@$&......                             ",
"                                  .........&%%#~)))))))t.........                                   ",
"                                  .........+%%#~)))))))3.........                                   ",
"                                  .........+%%#))))))))3.........                                   ",
"                                           .............                                            ",
"                                           .............                                            ",
"                                           .............                                            ",
"                                                                                                    ",
"                                                                                                    ",
"                                                                                                    ",
"                                                                                                    ",
"                                                                                                    "};
