/* XPM */
static char *planeta[] = {
/* columns rows colors chars-per-pixel */
"94 100 79 1 ",
"  c black",
". c #021102",
"X c #041E03",
"o c #181818",
"O c #022909",
"+ c #073306",
"@ c #083706",
"# c #083B06",
"$ c #04390B",
"% c #1B3D19",
"& c #313131",
"* c #3C3C3C",
"= c #094107",
"- c #0B4D08",
"; c #0B5309",
": c #0D5C0A",
"> c #0E630B",
", c #0F6B0C",
"< c #106F0C",
"1 c #0E720F",
"2 c #10730D",
"3 c #117B0D",
"4 c #0D7711",
"5 c #0D7A12",
"6 c #266A23",
"7 c #366B32",
"8 c #476843",
"9 c #547A50",
"0 c #61775D",
"q c #6B7E6A",
"w c #786A74",
"e c #7C7C7C",
"r c #836A7F",
"t c #12840E",
"y c #138A0F",
"u c #15910F",
"i c #0C8115",
"p c #0E8915",
"a c #0B8D1A",
"s c #108612",
"d c #128D11",
"f c #0F9216",
"g c #0F9A17",
"h c #0B941B",
"j c #0B9C1D",
"k c #149410",
"l c #169E11",
"z c #109E18",
"x c #0CA71E",
"c c #0FAA1C",
"v c #17A311",
"b c #18A611",
"n c #16AA15",
"m c #19AD12",
"M c #11AA1B",
"N c #089E21",
"B c #22802B",
"V c #08A924",
"C c #09B525",
"Z c #4D8B4B",
"A c #4F924C",
"S c #599553",
"D c #5DC259",
"F c #82D37E",
"G c #857A81",
"H c #996A95",
"J c #9C7F97",
"K c #967F9E",
"L c #9D7F98",
"P c #E86CE3",
"I c #FF69FA",
"U c #878482",
"Y c #8F828A",
"T c #9E8599",
"R c #95D393",
"E c #97DA94",
"W c #DAF2D9",
"Q c white",
"! c None",
/* pixels */
"!!!!!!!!!!!!!!!!!!!!!!!!!!!!!!!!!!!!!!!!!!!!!!!!!!!!!!!!!!!!!!!!!!!!!!!!!!!!!!!!!!!!!!!!!!!!!!",
"!!!!!!!!!!!!!!!!!!!!!!!!!!!!!!!!!!!!!!!!!!!!!!!!!!!!!!!!!!!!!!!!!!!!!!!!!!!!!!!!!!!!!!!!!!!!!!",
"!!!!!!!!!!!!!!!!!!!!!!!!!!!!!!!!!!!!!!!!!!!!!!!!!!!!!!!!!!!!!!!!!!!!!!!!!!!!!!!!!!!!!!!!!!!!!!",
"!!!!!!!!!!!!!!!!!!!!!!!!!!!!!!!!!!!!!!!!!!!!!!!!!!!!!!!!!!!!!!!!!!!!!!!!!!!!!!!!!!!!!!!!!!!!!!",
"!!!!!!!!!!!!!!!!!!!!!!!!!!!!!!!!!!!!!!!!!!!!!!!!!!!!!!!!!!!!!!!!!!!!!!!!!!!!!!!!!!!!!!!!!!!!!!",
"!!!!!!!!!!!!!!!!!!!!!!!!!!!!!!!!!!!!!!!!!!!!!!!!!!!!!!!!!!!!!!!!!!!!!!!!!!!!!!!!!!!!!!!!!!!!!!",
"!!!!!!!!!!!!!!!!!!!!!!!!!!!!!!!!!!!!!!!!!!!!!!!!!!!!!!!!!!!!!!!!!!!!!!!!!!!!!!!!!!!!!!!!!!!!!!",
"!!!!!!!!!!!!!!!!!!!!!!!!!!!!!!!!!!!!!!!!!!!!!!!!!!!!!!!!!!!!!!!!!!!!!!!!!!!!!!!!!!!!!!!!!!!!!!",
"!!!!!!!!!!!!!!!!!!!!!!!!!!!!!!!!!!!!!!!!!!!!!!!!!!!!!!!!!!!!!!!!!!!!!!!!!!!!!!!!!!!!!!!!!!!!!!",
"!!!!!!!!!!!!!!!!!!!!!!!!!!!!!!!!!!!!!!!            !!!!!!!!!!!!!!!!!!!!!!!!!!!!!!!!!!!!!!!!!!!",
"!!!!!!!!!!!!!!!!!!!!!!!!!!!!!!!!!!!!!!!             !!!!!!!!!!!!!!!!!!!!!!!!!!!!!!!!!!!!!!!!!!",
"!!!!!!!!!!!!!!!!!!!!!!!!!!!!!!!!!!!!!!!             !!!!!!!!!!!!!!!!!!!!!!!!!!!!!!!!!!!!!!!!!!",
"!!!!!!!!!!!!!!!!!!!!!!!!!!!!!!         -33233233tyy;         !!!!!!!!!!!!!!!!!!!!!!!!!!!!!!!!!",
"!!!!!!!!!!!!!!!!!!!!!!!!!!!!!!         ;yyyyyyyykll;         !!!!!!!!!!!!!!!!!!!!!!!!!!!!!!!!!",
"!!!!!!!!!!!!!!!!!!!!!!!!!!!!!!         -yyyyyyyyull;         !!!!!!!!!!!!!!!!!!!!!!!!!!!!!!!!!",
"!!!!!!!!!!!!!!!!!!!!!!!!      ;22232223tyykmbmbbmmmvluuuuyty:      !!!!!!!!!!!!!!!!!!!!!!!!!!!",
"!!!!!!!!!!!!!!!!!!!!!!!!      :yyyyyyyyyyylmmmmmmmmmmmmmmmll,      !!!!!!!!!!!!!!!!!!!!!!!!!!!",
"!!!!!!!!!!!!!!!!!!!!!!!!      >yyyyyyyyyyylmmmmmmmmmmmmmmbll>      !!!!!!!!!!!!!!!!!!!!!!!!!!!",
"!!!!!!!!!!!!!!!!!!      ,t3yyuyyylmbuyyyyylmmbvlmmmmmmmmmmmmluuyuy,      !!!!!!!!!!!!!!!!!!!!!",
"!!!!!!!!!!!!!!!!!!      2llbmmuyyvmmuyyyyylmmbvlbmmmmmmmmmmmmmmmmm3      !!!!!!!!!!!!!!!!!!!!!",
"!!!!!!!!!!!!!!!!!!      2llmmmuyyvmmuyyyyylmmblvvmmmmmmmmmmmmmmmmm3      !!!!!!!!!!!!!!!!!!!!!",
"!!!!!!!!!!!!!!!   2yy2,,yyyuuuvvvbmmmbbbvvy33322233223323232yvvvmmvyyt33>   !!!!!!!!!!!!!!!!!!",
"!!!!!!!!!!!!!!!   ymmkyyyyyyyyvmmmmmmmmmmmy,,,,,<,,,<,,,<<,,3llvmmmmmmll3   !!!!!!!!!!!!!!!!!!",
"!!!!!!!!!!!!!!!   ymmuyyyyyyyyvmmmmmmmmmmmy,,,,,<,,,<,,,,,<<3llvmmmmmmlv3   !!!!!!!!!!!!!!!!!!",
"!!!!!!!!!!!!   ,32yuuyyylvbvmmmmmmmmu333332,,,,,tlllllluuullvbmmmmmmmmmml22,   !!!!!!!!!!!!!!!",
"!!!!!!!!!!!!   ylluyyyyyvmmmmmmmmmmmy,,,,,,,,,,,ymmmmmbllvmmmmmmmmmmmmmmmllt   !!!!!!!!!!!!!!!",
"!!!!!!!!!!!!   ylluyyyyybmmmmmmmmmmmt,,,,,,,,,,,ymmmmmbllbmmmmmmmmmmmmmmmll3   !!!!!!!!!!!!!!!",
"!!!!!!!!!   ,22ulvyyylvbmmmmmmmmmmmmvvulkllllllubmmmmmblllvvbmmmmmmmmmmmmbml22,   !!!!!!!!!!!!",
"!!!!!!!!!   ylllllyyybmmmmmmmmmmmmmmmmmmmmmmmmmmmmmmmmmlllllvmmmmmmmmmmmmmmmllt   !!!!!!!!!!!!",
"!!!!!!!!!   yllvlluyybmmmmmmmmmmmmmmmmmmmmmmmmmmmmmmmmblllllvmmmmmmmmmmmmmmmllt   !!!!!!!!!!!!",
"!!!!!!!!!   ummkuyyyybmmmmmmmmmmmmmmvvvmmmmmmmvvmmmmmmbllvbml33uvvmmmmmmmmmmbmu   !!!!!!!!!!!!",
"!!!!!!!!!   ummyyyyyybmmmmmmmmmmmmmmvlvvmmmmmbllbmmmmmbllvmmu,<3llvmmmmmmmmmmmu   !!!!!!!!!!!!",
"!!!!!!!!!   lmmuyyyyybmmmmmmmmmmmmmmmvlvmmmmmbvvbmmmmmbllbmmu<,3llvmmmmmmmmmmmu   !!!!!!!!!!!!",
"!!!!!!   :<,uuuyyy2223t3bmmmmmmmmvuut333tt3tt33333tummbvlbmmbuuvbmmmmmmmmmmmmmv,<>   !!!!!!!!!",
"!!!!!!   ullutyyyy<<<,,,lmmmmmmmmlyy3,,,,,,,,,,,,,,ymmbllvmmmmmmmmmmmmmmmmmmmmmvly   !!!!!!!!!",
"!!!!!!   ulluyyyyy2,,,,,lmmmmmmmmuyy3,,,,,,,,,,,,,,ymmbllvmmmmmmmmmmmmmmmmmmmmmblt   !!!!!!!!!",
"!!!!!!   yyu322222<<,,,,3ttt3tt33332,,,,,,,,,,,,,,,2ttubbmmmmbbvbvbmmmmmmmmmmmmmmu   !!!!!!!!!",
"!!!!!!   3yy<><<<<<>,,,,<<,,,,<<,,,,,,,,,,,,,,,,,,,,,,ymmmmmmlllllvmmmmmmmmmmmmmmk   !!!!!!!!!",
"!!!!!!   3yy<<,,,,<,,,,,,,,,,,,,,,,,,,,,,,,,,,,,,,,,,<ymmmmmblllllbmmmmmmmmmmmmmmk   !!!!!!!!!",
"!!!   :>:yyy<,,,,,,,,,,,,,,,,,,,,yuuuyy3,,,,,,,,,,,3uuvmmmmmblllllbmmmmmmmmmmmmmmb>::   !!!!!!",
"!!!   kllyyy<,,,,,,,,,,,,,,,,,,,,ummvll3<,,,,,,,,,,ymmmmmmmmblllllvmmmmmmmmmmmmmmmllu   !!!!!!",
"!!!   kllyyy<,,,,,,<,,,,<<,,,,,<,ummvll3,,,,,,,,,,,ymmmmmmmmbvllllvmmmmmmmmmmmmmmmllu   !!!!!!",
"!!!   yuuuyy333tttuuuuuut33yyyyyuumvvlvutyuuuyttyttlmmmmmvyyuvlllllvblttummmmmmmmmllu   !!!!!!",
"!!!   tytyyyyyulllmmmmmmuyyvmmvvlllvlllllvvmmbvlllvmmmmmmu,,3llllllllu<<tmmmmmmmmmllu   !!!!!!",
"!!!   tyyyyyyutlllmmmmmmuyyvmmvlllllllllllbmmvbvllvvmmmmmu,,3llllvllld<>3mmmmmmmmmllu   !!!!!!",
"!!!   3ytlllukkvbbmmmmmmvvlmmmvllvmvvllllvvvb2-%ZRRDmmmmmluuumvvlluyt3<<,--6EEFmmmbbk   !!!!!!",
"!!!   tyymmmvllmmmmmmmmmmmmmmmvllvmmvlllllllv-  eQQEmmmmmmmmmmmmlly,<,><;  &QQWmmmmml   !!!!!!",
"!!!   tyymmmlllmmmmmmmmmmmmmmmvllmmmvllllllll-  eQQEmmmmmmmmmmmmlly,,,<<;  &QQWmmmmml   !!!!!!",
"   ++@yyybmmMMMmmmmmmmmmmmmmmmmvbmmmbbmllllll-  *eeAmmmbbbbbbbbltt3,,<33:  oeeqsyyyst+++  !!!!",
"   <,,yyymmmCCCnmmmmmmmmmmmmmmmmmmmmmmmblllll-     -mmblllllllly,,<,,2yy<     .,<<<<<<<>   !!!",
"   >,,yyymmmCCCnmmmmmmmmmmmmmmmmmmmmmmmbllvll-     -mmvllllvlllu,,,,,2sy<     .>,,:>><,>   !!!",
"   <,,232yyyfhhmmmmmmmmvmmmmmmmmmmmmmmmSUUUUU8-;=++:yyysttttttt3,,,,,<33<+++++%GrrrGw<<>   !!!",
"   ,,,,,,,,,,,,vmmmmmlllmmmmmmmmmmmmmmmTIIIIIUbly<><<><<,,,<<,,,,,,,,,,,,,><<>7IIIIIP,,>   !!!",
"   ,,,,,,,,,,,,vmmmmmvllmmmmmmmmmmmmmmmTIIIIIUllt,,,<<><,,,,<,,,,,,,,,,,,,<<<<7IIIIIP,,>   !!!",
"   ,,,,,,,,,,,,lvvmmmmbvmmmmmvmmmmmmmbbTIIIIIUuu3<,,>><<,,,,,,,,,,,,,,,,,,>>>>7IIIIIPtt3   !!!",
"   ,,,,,,,,,,<<kllmmmmmmmmmvllmmmmmmlllTIIIIIryy3<,,<<<>,,,,,,,,,,,,,,,,,,<<<<7IIIIIPllk   !!!",
"   >><<<,,><<<>kllmmmmmmmmmvllmmmmmmmllJIIIIIryy3<<<,,,,,,<<<<,,<,,<<,<,,,,,,,7IIIIIPllk   !!!",
"   3t3<><><<><<kllvbbmmmmmmvllbmmmmmlyy0HHHHH9yy3222,,,,<;##-32233>#@-iiiii5ia6KKKJJYllk   !!!",
"   lll<<<<>><><kvllllmmmmmmvllbmmmmm3,<<,,<<<3yyyyy3,,<,,=  +yyyyy>  ONNNNNNVNNNNjlllllk   !!!",
"   kll<<><<<<<<klllllmmmmmmvllmmmmmmy,,,,,,<<3yyyyy2,,<<,#  +yyyys>  ONNNNNNNNNNNjlllllk   !!!",
"   :>:222222232llllllbmmmmmbllbbvmmmy3t3t3t33yuuklkustt33-  X;;;;;#  ONNNNNNNNNNNxlll>::   !!!",
"!!!   syyyuysstllllllmmmmmmvlllllmmmvllvllllvlllbmmmmmblv>           ONNNNNNNNNNNjlly   !!!!!!",
"!!!   3yyyyyyyylvllllmmmmmmvllllvvmmvlllllllllllbmmmmmbll>           ONNNNNNNNNNNjlly   !!!!!!",
"!!!   dzzdyyyyykkklllvnbmbbvlllllmmmvlllllllllllbmmmmmmll2##$$$##@##$;NNNNNNNNNNNNllk   !!!!!!",
"!!!   VCCdsyyyyyyyklljNNzllllllvlbmmblllllllllllbmmmmmbllllllNNNlllllzNNNNNNNNNNNjlly   !!!!!!",
"!!!   VCCkyyyyyyyyllljNNzvlllllllbmmvlllllllllllbmmmmmmlllllzNNzlllllzNNNNNNNNNVNNllk   !!!!!!",
"!!!   zVxsyyyyyyyyllzjNNllllllllllkuuyyyyyulllllvbmbmbvlllvllzNzzzlllzfaaaaaNfjfhfllu   !!!!!!",
"!!!   tsyyyyyyyyysNNNNNNzllllllll3<,<<<,<<yvlllllllllllllllllvlzNNzllu><,,,2sysydully   !!!!!!",
"!!!   tyyyyyyyysyyjNNNxjllllllvll3<,,,,,,,yllllllllllllllllllllzNNNllu<<><<2yyyysullu   !!!!!!",
"!!!   :>:yyyyyykfphjjjjjjzzkyuuyy2<<2332,,3yuuuydkdkllzlzzllllzzNzzllf544<>,tt33t3<<,   !!!!!!",
"!!!!!!   3yyyysjNNdyyllljxN5,,,,,,,,yllt,,,,,,,,<<<5NNNNNzllzNNNllzNNNNNa<<<<><<<:   !!!!!!!!!",
"!!!!!!   3yyyysjNNdsyulljNj3,,,,,,,<yll3,,,,,,,,<><iNNNNNzllzNNzllzNNNNNh<>><<><<:   !!!!!!!!!",
"!!!!!!   3uyyyyjNjkyyulujNN5,,,,,,,,tyk3,,,,,,,,<<>iNNNNNjllzNNzklzNNNNNN222<222<,   !!!!!!!!!",
"!!!!!!   3yyyyyhNVpyyyyyhNN5,,,,,,,,,<,,,,,,,,,,><<iNNNNNjllzNNhyydNNNNNhsyyyyyyy3   !!!!!!!!!",
"!!!!!!   3yyyysjNNyyyyyyjNN5,,,,,,,,,,,,,,,,,,,,,,<5NNNNNjvlzNNNysdNNNNNhyyyyyyyy2   !!!!!!!!!",
"!!!!!!   :,,yyyaaaitttttfjj4,,,,,,,,,,,,,,,,,,,,,,,5ahaNafkkfaafts3Nahjhhyyyyyt<<:   !!!!!!!!!",
"!!!!!!!!!   3yy2,,,,,,,,tyy2,,,,,,,,,,,,,,,,,,,,,,,,,,,,<<><<>,,<,,,,<yyyyyyyy2   !!!!!!!!!!!!",
"!!!!!!!!!   2yy2,,,,,,,,tyy2,,,,,,,,,,,,,,,,,,,,,,,,,,,,<><<<<,,,,,,<2yyyyyyyy2   !!!!!!!!!!!!",
"!!!!!!!!!   3yy21111,221tyy2211,2,,,,,,,,,,,,,,,,,,,,,,,<<>>>>,,,,,,,2yyyyysuu2   !!!!!!!!!!!!",
"!!!!!!!!!   2yyyyyyyyyyyyyyyyyyyy3,,,,,,,,,,,,,,,,,,,,,,><<<<<,,,,,,,<yyyyyullt   !!!!!!!!!!!!",
"!!!!!!!!!   2yyyyyyyyyyyyyyyyyyyy2,,,,,,,,,,,,,,,,,,,,,,,,,,,,,,,<,<<2yyyyyully   !!!!!!!!!!!!",
"!!!!!!!!!   ,2,yyyyyyyyyyyyyuyyyy312,,,,,,,,,,,,,22,<<21,22,<1,,<<<<22yyyuyyt3<   !!!!!!!!!!!!",
"!!!!!!!!!!!!   2yyyyyyyyyyyulluyyyyy2,,,,,,,,,,,3yyyyyyyyyyyyyyyyyyyyyyydll3   !!!!!!!!!!!!!!!",
"!!!!!!!!!!!!   1yyyyyyyyyyyulluyyyyy3,,,,,,,,,,,3yyyyyyyyyyyyyyyyyyyyyyyylv3   !!!!!!!!!!!!!!!",
"!!!!!!!!!!!!   ,11yyyyyyyyyklldpdsyy5,41<<<<2<2,3ddpsddyyyyyyyyyyyyyyyyyyyy<   !!!!!!!!!!!!!!!",
"!!!!!!!!!!!!!!!   ,yyyyyyyyyyyhxNfyyjNNfyyyyyyyyfNjVNNhyyyyyyyyyyyyyyuvl3   !!!!!!!!!!!!!!!!!!",
"!!!!!!!!!!!!!!!   ,yyyyyyyyyyyhNNfyyhjNfyyyyyyyyhNNNNNhyyyyyyyyyyyytyyll3   !!!!!!!!!!!!!!!!!!",
"!!!!!!!!!!!!!!!   ,31332syyyyyhjjfddhNNkyyddsyyyfjNjNjfttytyytyyyyy233yy<   !!!!!!!!!!!!!!!!!!",
"!!!!!!!!!!!!!!!!!!      >yyyyyyyyjjNNNNjlljNNfytklluyy3,,,,,,,,2yy>      !!!!!!!!!!!!!!!!!!!!!",
"!!!!!!!!!!!!!!!!!!      >yyyyyyyyhNNNNNjllzNNfyyullkyyt,,,,,,,,2yy>      !!!!!!!!!!!!!!!!!!!!!",
"!!!!!!!!!!!!!!!!!!      >3t333yyyhNNNjNllljjNfyyullyyy3,1,,,,>>,33:      !!!!!!!!!!!!!!!!!!!!!",
"!!!!!!!!!!!!!!!!!!!!!!!!      :yshNNfyyyyyyyysyy3,,,,,3yyyyy:      !!!!!!!!!!!!!!!!!!!!!!!!!!!",
"!!!!!!!!!!!!!!!!!!!!!!!!      :yyhNNfyyyyyyyyyyy3,,,,,1yyyyy:      !!!!!!!!!!!!!!!!!!!!!!!!!!!",
"!!!!!!!!!!!!!!!!!!!!!!!!      :ttahNpt3yyyyyyyyy3,,,>>1ttt3t;      !!!!!!!!!!!!!!!!!!!!!!!!!!!",
"!!!!!!!!!!!!!!!!!!!!!!!!!!!!!!         ;yy2<,,,,,,,#         !!!!!!!!!!!!!!!!!!!!!!!!!!!!!!!!!",
"!!!!!!!!!!!!!!!!!!!!!!!!!!!!!!         -yy2<,,,,,,,@         !!!!!!!!!!!!!!!!!!!!!!!!!!!!!!!!!",
"!!!!!!!!!!!!!!!!!!!!!!!!!!!!!!         -yy2,,,,,,,,@         !!!!!!!!!!!!!!!!!!!!!!!!!!!!!!!!!",
"!!!!!!!!!!!!!!!!!!!!!!!!!!!!!!!!!!!!!!!             !!!!!!!!!!!!!!!!!!!!!!!!!!!!!!!!!!!!!!!!!!",
"!!!!!!!!!!!!!!!!!!!!!!!!!!!!!!!!!!!!!!!             !!!!!!!!!!!!!!!!!!!!!!!!!!!!!!!!!!!!!!!!!!",
"!!!!!!!!!!!!!!!!!!!!!!!!!!!!!!!!!!!!!!!             !!!!!!!!!!!!!!!!!!!!!!!!!!!!!!!!!!!!!!!!!!"
};
