/* XPM */
static char *nave2___0[] = {
/* columns rows colors chars-per-pixel */
"50 50 187 2 ",
"   c #0D0C0D",
".  c #100C0E",
"X  c #0A0718",
"o  c #1F0411",
"O  c #130D10",
"+  c #1D0C14",
"@  c #0D111C",
"#  c #15161D",
"$  c #1A1A1A",
"%  c #1D1921",
"&  c #340D22",
"*  c #251E21",
"=  c #3D152D",
"-  c #242529",
";  c #2B2529",
":  c #232124",
">  c #31292A",
",  c #312F32",
"<  c #3B2933",
"1  c #2E3135",
"2  c #333333",
"3  c #32343A",
"4  c #33383D",
"5  c #460A16",
"6  c #520C18",
"7  c #680B1A",
"8  c #7F0717",
"9  c #470B2C",
"0  c #500F2E",
"q  c #4B0530",
"w  c #58133B",
"e  c #630D3A",
"r  c #6B0838",
"t  c #78083E",
"y  c #462739",
"u  c #5C1C43",
"i  c #7C0740",
"p  c #6B1244",
"a  c #661846",
"s  c #731449",
"d  c #7B154B",
"f  c #7A1949",
"g  c #781A51",
"h  c #5A2D47",
"j  c #54334A",
"k  c #77345F",
"l  c #722B55",
"z  c #47444B",
"x  c #585557",
"c  c #5F485A",
"v  c #6D4160",
"b  c #684C61",
"n  c #635D66",
"m  c #7B5670",
"M  c #7A4565",
"N  c #7A6677",
"B  c #6F6A71",
"V  c #830318",
"C  c #A7071C",
"Z  c #890D21",
"A  c #AE0620",
"S  c #AE1A37",
"D  c #D51622",
"F  c #DB1925",
"G  c #ED1C2D",
"H  c #FF2129",
"J  c #FA243B",
"K  c #87114B",
"L  c #89154E",
"P  c #8E1859",
"I  c #94145B",
"U  c #9B145A",
"Y  c #830D46",
"T  c #AF0858",
"R  c #B10859",
"E  c #84235C",
"W  c #94255F",
"Q  c #B80D60",
"!  c #A31566",
"~  c #B21D6F",
"^  c #BC1373",
"/  c #BC1C73",
"(  c #9C2264",
")  c #8B2D64",
"_  c #A6276B",
"`  c #A1376E",
"'  c #A63273",
"]  c #D0086D",
"[  c #C11B6E",
"{  c #DA0570",
"}  c #C31E70",
"|  c #C8287A",
" . c #F93968",
".. c #824D6D",
"X. c #8F4D75",
"o. c #9B4E7D",
"O. c #825877",
"+. c #875779",
"@. c #94537B",
"#. c #FE5875",
"$. c #FE6B7F",
"%. c #FE647B",
"&. c #D51683",
"*. c #E21A8E",
"=. c #EF1792",
"-. c #FF179C",
";. c #D93C9C",
":. c #C93890",
">. c #FF269F",
",. c #F7279D",
"<. c #FE23A5",
"1. c #FF26A9",
"2. c #FF29AA",
"3. c #F631A2",
"4. c #FA33AB",
"5. c #FF38B2",
"6. c #8D5E81",
"7. c #945D83",
"8. c #A55788",
"9. c #AB5F90",
"0. c #8D6683",
"q. c #956287",
"w. c #897987",
"e. c #A0648E",
"r. c #AF6E9D",
"t. c #B36D9E",
"y. c #AA739C",
"u. c #B07CA5",
"i. c #C9598F",
"p. c #C65B90",
"a. c #C96495",
"s. c #DB51A5",
"d. c #E947A9",
"f. c #F44CB5",
"g. c #F945B4",
"h. c #E958B4",
"j. c #F457BB",
"k. c #C578AD",
"l. c #C276AC",
"z. c #CC7AB4",
"x. c #EE63BD",
"c. c #EB6DBC",
"v. c #E263B3",
"b. c #E971BA",
"n. c #DF7DC0",
"m. c #EC7CC5",
"M. c #E677C1",
"N. c #858488",
"B. c #A49FA3",
"V. c #A398AD",
"C. c #BD88B4",
"Z. c #AB83A8",
"A. c #BEB4BD",
"S. c #B3A6BD",
"D. c #FE968D",
"F. c #C582A9",
"G. c #C799AF",
"H. c #CA82B6",
"J. c #C785B7",
"K. c #D388B8",
"L. c #CE96B3",
"P. c #CF99B6",
"I. c #D894B6",
"U. c #C9A0B4",
"Y. c #CBB3BF",
"T. c #FDE7A2",
"R. c #DD8AC6",
"E. c #D989C3",
"W. c #CA9BC6",
"Q. c #DC93C7",
"!. c #DF93CB",
"~. c #D09FCB",
"^. c #D996C5",
"/. c #E288C7",
"(. c #E293CC",
"). c #D9A7C6",
"_. c #CBB4C5",
"`. c #D9B5D4",
"'. c #D6B0CE",
"]. c #E4BDD2",
"[. c #CCC1C6",
"{. c #D6C9DB",
"}. c #D9DBDB",
"|. c #E3C1D3",
" X c #D2E3E3",
".X c #E3E3E6",
"XX c None",
/* pixels */
"XXXXXXXXXXXXXXXXXXXXXXXXXXXXXXXXXXXXXXXXXXXXXXXXXXXXXXXXXXXXXXXXXXXXXXXXXXXXXXXXXXXXXXXXXXXXXXXXXXXX",
"XXXXXXXXXXXXXXXXXXXXXXXXXXXXXXXXXXXXXXXXXXXXXXXXXXXXXXXXXXXXXXXXXXXXXXXXXXXXXXXXXXXXXXXXXXXXXXXXXXXX",
"XXXXXXXXXXXXXXXXXXXXXXXXXXXXXXXXXXXXXXXXXXXXXXXXXXXXXXXXXXXXXXXXXXXXXXXXXXXXXXXXXXXXXXXXXXXXXXXXXXXX",
"XXXXXXXXXXXXXXXXXXXXXXXXXXXXXXXXXXXXXXXXXXXXXXXXXXXXXXXXXXXXXXXXXXXXXXXXXXXXXXXXXXXXXXXXXXXXXXXXXXXX",
"XXXXXXXXXXXXXXXXXXXXXXXXXXXXXXXXXXXXXXXXXXXXXXXXXXXXXXXXXXXXXXXXXXXXXXXXXXXXXXXXXXXXXXXXXXXXXXXXXXXX",
"XXXXXXXXXXXXXXXXXXXXXXXXXXXXXXXXXXXXXXXXXXXXXXXXXXXXXXXXXXXXXXXXXXXXXXXXXXXXXXXXXXXXXXXXXXXXXXXXXXXX",
"XXXXXXXXXXXXXXXXXXXXXXXXXXXXXXXXXXXXXXXXXXXXXXXXXXXXXXXXXXXXXXXXXXXXXXXXXXXXXXXXXXXXXXXXXXXXXXXXXXXX",
"XXXXXXXXXXXXXXXXXXXXXXXXXXXXXXXXXXXXXXXXXXXXXXXXXXXXXXXXXXXXXXXXXXXXXXXXXXXXXXXXXXXXXXXXXXXXXXXXXXXX",
"XXXXXXXXXXXXXXXXXXXXXXXXXXXXXXXXXXXXXXXXXXXXXXXXXXXXXXXXXXXXXXXXXXXXXXXXXXXXXXXXXXXXXXXXXXXXXXXXXXXX",
"XXXXXXXXXXXXXXXXXXXXXXXXXXXXXXXXXXXXXXXXXXXXXXXXXXXXXXXXXXXXXXXXXXXXXXXXXXXXXXXXXXXXXXXXXXXXXXXXXXXX",
"XXXXXXXXXXXXXXXXXXXXXXXXXXXXXXXXXXXXXXXXXXXXXXXXXXXXXXXXXXXXXXXXXXXXXXXXXXXXXXXXXXXXXXXXXXXXXXXXXXXX",
"XXXXXXXXXXXXXXXXXXXXXXXXXXXXXXXXXXXXXXXXXXXXXXXXXXXXXXXXXXXXXXXXXXXXXXXXXXXXXXXXXXXXXXXXXXXXXXXXXXXX",
"XXXXXXXXXXXXXXXXXXXXXXXXXXXXXXXXXXXXXXXXXXXXXXXXXXXXXXXXXXXXXXXXXXXXXXXXXXXXXXXXXXXXXXXXXXXXXXXXXXXX",
"XXXXXXXXXXXXXXXXXXXXXXXXXXXXXXXXXXXXXXXXXXXXXXXX. . XXXXXXXXXXXXXXXXXXXXXXXXXXXXXXXXXXXXXXXXXXXXXXXX",
"XXXXXXXXXXXXXXXXXXXXXXXXXXXXXXXXXXXXXXXXXXXXXX+ t t + XXXXXXXXXXXXXXXXXXXXXXXXXXXXXXXXXXXXXXXXXXXXXX",
"XXXXXXXXXXXXXXXXXXXXXXXXXXXXXXXXXXXXXXXXXXXXo t R R Y o XXXXXXXXXXXXXXXXXXXXXXXXXXXXXXXXXXXXXXXXXXXX",
"XXXXXXXXXXXXXXXXXXXXXXXXXXXXXXXXXXXXXXXXXXXXr L..X.XY.t + XXXXXXXXXXXXXXXXXXXXXXXXXXXXXXXXXXXXXXXXXX",
"XXXXXXXXXXXXXXXXXXXXXXXXXXXXXXXXXXXXXXXXXXXXr F.}.}.G.t . XXXXXXXXXXXXXXXXXXXXXXXXXXXXXXXXXXXXXXXXXX",
"XXXXXXXXXXXXXXXXXXXXXXXXXXXXXXXXXXXXXXXXXXy ` p.Y.[.a.' h XXXXXXXXXXXXXXXXXXXXXXXXXXXXXXXXXXXXXXXXXX",
"XXXXXXXXXXXXXXXXXXXXXXXXXXXXXXXXXXXXXXXX$ M b.| U.Y.} b.X.$ XXXXXXXXXXXXXXXXXXXXXXXXXXXXXXXXXXXXXXXX",
"XXXXXXXXXXXXXXXXXXXXXXXXXXXXXXXXXXXXXXXX* m b.| U.Y.[ b.@.: XXXXXXXXXXXXXXXXXXXXXXXXXXXXXXXXXXXXXXXX",
"XXXXXXXXXXXXXXXXXXXXXXXXXXXXXXXXXXXXXXy r.7.( R s.v.R _ +.y.j XXXXXXXXXXXXXXXXXXXXXXXXXXXXXXXXXXXXXX",
"XXXXXXXXXXXXXXXXXXXXXXXXXXXXXXXXXXXX= ;.!.q.f I./.m.).L +.(.s.w XXXXXXXXXXXXXXXXXXXXXXXXXXXXXXXXXXXX",
"XXXXXXXXXXXXXXXXXXXXXXXXXXXXXXXX< y ;.j.!.7.f ).m.x.|.K O.(.j.;.y < XXXXXXXXXXXXXXXXXXXXXXXXXXXXXXXX",
"XXXXXXXXXXXXXXXXXXXXXXXXXXXXXX0 e.E.(.!.^.q.L ).m.c.|.L O.Q.(.(.^.t.0 XXXXXXXXXXXXXXXXXXXXXXXXXXXXXX",
"XXXXXXXXXXXXXXXXXXXXXXXXg v k ~ d.j.M.K.+.b f i.8.o.a.K c +.z.c.x.f./ k v g & XXXXXXXXXXXXXXXXXXXXXX",
"XXXXXXXXXXXXXXXXXXXXXXI h.R.M.f.5.5.5.k.2 x ` T w y T _ n 2 t.g.5.5.g.M.R.v.! XXXXXXXXXXXXXXXXXXXXXX",
"XXXXXXXXXXXXXXXXXXXXI =.!.{.`.h.1.1.2.k.2 m K.L.B.B.G.I.+.2 t.4.1.2.f.`.{.!.,.! O XXXXXXXXXXXXXXXXXX",
"XXXXXXXXXXXXXXXXXX. ^ -.(. X{.h.1.<.1.l.4 N ).'.n x _.^.N.2 t.4.1.1.f.`. X!.<.&.  XXXXXXXXXXXXXXXXXX",
"XXXXXXXXXXXXXXXXXX  ^ <./.H.z.z.z.R./.u.z B A.F.l h k.Y.N.z u././.z.z.z.J.E.2.&.  XXXXXXXXXXXXXXXXXX",
"XXXXXXXXXXXXXXXXXX  / b.J.4 3 3 4 Z.~.~.W.0.2 < &.*.< 2 N W.~.~.C.4 3 3 4 u.R.&.  XXXXXXXXXXXXXXXXXX",
"XXXXXXXXXXXXXXXXXX  / ~.S.1 - - - :.<.1.3.` ; > ( _ > * ) 3.>.,.;.- - - 1 V._.&.  XXXXXXXXXXXXXXXXXX",
"XXXXXXXXXXXXXXXXXX  I 8.B % @     g P { P a O $ > > $   u P ] U E .     % n e.!   XXXXXXXXXXXXXXXXXX",
"XXXXXXXXXXXXXXXXXX  e d % XXXXXXXXXX% q % XXXXXX$ $ XXXXXX$ 9 % XXXXXXXXXX$ g p   XXXXXXXXXXXXXXXXXX",
"XXXXXXXXXXXXXXXXXX  w d # XXXXXXXXXX@ X @ XXXXXXXXXXXXXXXX# X @ XXXXXXXXXX  p p   XXXXXXXXXXXXXXXXXX",
"XXXXXXXXXXXXXXXXXX. w d O XXXXXXXXA 6 5 7 XXXXXXXXXXXXXXXX7 5 5 C XXXXXXXXO p p   XXXXXXXXXXXXXXXXXX",
"XXXXXXXXXXXXXXXXXX    O XXXXXXXXXX .Z V C J XXXXXXXXXXXXXXS V 8 J XXXXXXXXXXO .   XXXXXXXXXXXXXXXXXX",
"XXXXXXXXXXXXXXXXXXXXXXXXXXXXXXXXXXH F D F XXXXXXXXXXXXXXXXF D D H XXXXXXXXXXXXXXXXXXXXXXXXXXXXXXXXXX",
"XXXXXXXXXXXXXXXXXXXXXXXXXXXXXXXXXXXX$.#.$.XXXXXXXXXXXXXXXX$.%.%.XXXXXXXXXXXXXXXXXXXXXXXXXXXXXXXXXXXX",
"XXXXXXXXXXXXXXXXXXXXXXXXXXXXXXXXXXXXXXD.XXXXXXXXXXXXXXXXXXXXD.D.XXXXXXXXXXXXXXXXXXXXXXXXXXXXXXXXXXXX",
"XXXXXXXXXXXXXXXXXXXXXXXXXXXXXXXXXXXXXXT.XXXXXXXXXXXXXXXXXXXXT.XXXXXXXXXXXXXXXXXXXXXXXXXXXXXXXXXXXXXX",
"XXXXXXXXXXXXXXXXXXXXXXXXXXXXXXXXXXXXXXXXXXXXXXXXXXXXXXXXXXXXXXXXXXXXXXXXXXXXXXXXXXXXXXXXXXXXXXXXXXXX",
"XXXXXXXXXXXXXXXXXXXXXXXXXXXXXXXXXXXXXXXXXXXXXXXXXXXXXXXXXXXXXXXXXXXXXXXXXXXXXXXXXXXXXXXXXXXXXXXXXXXX",
"XXXXXXXXXXXXXXXXXXXXXXXXXXXXXXXXXXXXXXXXXXXXXXXXXXXXXXXXXXXXXXXXXXXXXXXXXXXXXXXXXXXXXXXXXXXXXXXXXXXX",
"XXXXXXXXXXXXXXXXXXXXXXXXXXXXXXXXXXXXXXXXXXXXXXXXXXXXXXXXXXXXXXXXXXXXXXXXXXXXXXXXXXXXXXXXXXXXXXXXXXXX",
"XXXXXXXXXXXXXXXXXXXXXXXXXXXXXXXXXXXXXXXXXXXXXXXXXXXXXXXXXXXXXXXXXXXXXXXXXXXXXXXXXXXXXXXXXXXXXXXXXXXX",
"XXXXXXXXXXXXXXXXXXXXXXXXXXXXXXXXXXXXXXXXXXXXXXXXXXXXXXXXXXXXXXXXXXXXXXXXXXXXXXXXXXXXXXXXXXXXXXXXXXXX",
"XXXXXXXXXXXXXXXXXXXXXXXXXXXXXXXXXXXXXXXXXXXXXXXXXXXXXXXXXXXXXXXXXXXXXXXXXXXXXXXXXXXXXXXXXXXXXXXXXXXX",
"XXXXXXXXXXXXXXXXXXXXXXXXXXXXXXXXXXXXXXXXXXXXXXXXXXXXXXXXXXXXXXXXXXXXXXXXXXXXXXXXXXXXXXXXXXXXXXXXXXXX",
"XXXXXXXXXXXXXXXXXXXXXXXXXXXXXXXXXXXXXXXXXXXXXXXXXXXXXXXXXXXXXXXXXXXXXXXXXXXXXXXXXXXXXXXXXXXXXXXXXXXX"
};
