/* XPM */
static char *nave2___9[] = {
/* columns rows colors chars-per-pixel */
"50 50 206 2 ",
"   c #0B0C0C",
".  c #030C05",
"X  c #100C0F",
"o  c #120B13",
"O  c #190E18",
"+  c #041418",
"@  c #141414",
"#  c #1C1C1B",
"$  c #151A17",
"%  c #0C0817",
"&  c #270A19",
"*  c #35091A",
"=  c #21201D",
"-  c #240D23",
";  c #340D24",
":  c #3B0F28",
">  c #2C1224",
",  c #3A1A2E",
"<  c #192724",
"1  c #232629",
"2  c #252C2D",
"3  c #252525",
"4  c #39262E",
"5  c #2E2830",
"6  c #3B2330",
"7  c #313439",
"8  c #35393B",
"9  c #3D363D",
"0  c #4A0B17",
"q  c #570716",
"w  c #690B1A",
"e  c #7F0315",
"r  c #470C29",
"t  c #510126",
"y  c #530B2D",
"u  c #43102D",
"i  c #4F0D32",
"p  c #5F0F3D",
"a  c #4A1735",
"s  c #5F173C",
"d  c #790D20",
"f  c #650737",
"g  c #601039",
"h  c #422C34",
"j  c #591D41",
"k  c #671141",
"l  c #731346",
"z  c #731249",
"x  c #7A124C",
"c  c #781C4B",
"v  c #58354B",
"b  c #513345",
"n  c #792757",
"m  c #76375C",
"M  c #692B52",
"N  c #7B3963",
"B  c #49464D",
"V  c #504D4C",
"C  c #4E4C50",
"Z  c #594958",
"A  c #5A535E",
"S  c #62495B",
"D  c #5E5561",
"F  c #634C61",
"G  c #7D4A6B",
"H  c #7B4466",
"J  c #7A5772",
"K  c #6D586C",
"L  c #696869",
"P  c #636467",
"I  c #7E6C77",
"U  c #9C0518",
"Y  c #A80B1B",
"T  c #9E0E20",
"R  c #AF0E20",
"E  c #AE1128",
"W  c #D61926",
"Q  c #E71A25",
"!  c #F21932",
"~  c #E52331",
"^  c #F8253B",
"/  c #F3353F",
"(  c #85124A",
")  c #850E52",
"_  c #931B5B",
"`  c #8C1255",
"'  c #A20049",
"]  c #AC0758",
"[  c #862959",
"{  c #942359",
"}  c #86325E",
"|  c #9B1662",
" . c #B80B63",
".. c #BD0E71",
"X. c #AE1467",
"o. c #8F2563",
"O. c #972768",
"+. c #8D396C",
"@. c #AC2573",
"#. c #AC3977",
"$. c #BF3E7D",
"%. c #A42A6B",
"&. c #C11D41",
"*. c #DF2B55",
"=. c #E92F46",
"-. c #C51775",
";. c #C8297A",
":. c #C33D7F",
">. c #964C76",
",. c #8B5D7F",
"<. c #925B7E",
"1. c #884A72",
"2. c #A14571",
"3. c #90627F",
"4. c #85617D",
"5. c #F84452",
"6. c #FF657D",
"7. c #D81685",
"8. c #E7168A",
"9. c #FE1D98",
"0. c #D83A9A",
"q. c #D8218B",
"w. c #FA279D",
"e. c #EC339E",
"r. c #FF1CA7",
"t. c #FF2CAD",
"y. c #FC22A0",
"u. c #EE3CA7",
"i. c #FA37AC",
"p. c #FD3DB2",
"a. c #9A5884",
"s. c #A04D85",
"d. c #AA5785",
"f. c #B64E8E",
"g. c #926285",
"h. c #97658A",
"j. c #857988",
"k. c #8B6383",
"l. c #A86386",
"z. c #A36C95",
"x. c #AB759C",
"c. c #AF77A1",
"v. c #B275A3",
"b. c #CB4A95",
"n. c #C8579B",
"m. c #CB4F93",
"M. c #C7669D",
"N. c #FF6D82",
"B. c #FF7284",
"V. c #F444AE",
"C. c #E155AD",
"Z. c #ED4AB0",
"A. c #F44AB4",
"S. c #F846B4",
"D. c #EF50B4",
"F. c #F355B8",
"G. c #ED47AB",
"H. c #DF69B6",
"J. c #CD7DB6",
"K. c #D979BB",
"L. c #CB6CAA",
"P. c #E865BA",
"I. c #F063BE",
"U. c #EE6DC1",
"Y. c #EC77C2",
"T. c #E47CC2",
"R. c #EB7DC5",
"E. c #EC7DC8",
"W. c #F465C1",
"Q. c #968A95",
"!. c #B387A6",
"~. c #A397A5",
"^. c #BD89B4",
"/. c #B3A1AD",
"(. c #FE9C8E",
"). c #FEA592",
"_. c #FEB696",
"`. c #C887B8",
"'. c #D288B8",
"]. c #CD92AF",
"[. c #E581BD",
"{. c #CAABBA",
"}. c #C5A6B8",
"|. c #FDF2A6",
" X c #D986C1",
".X c #C39CC2",
"XX c #DC93CB",
"oX c #D29DCB",
"OX c #D997C8",
"+X c #E68AC9",
"@X c #E192CB",
"#X c #E994C8",
"$X c #E49CD2",
"%X c #C8A6CA",
"&X c #D8B6CA",
"*X c #DAADD2",
"=X c #D8B3D4",
"-X c #D5B0C6",
";X c #E2A5D2",
":X c #E7ABD1",
">X c #D6D3DC",
",X c #D3C6D2",
"<X c #E0D5DD",
"1X c #EBC5DB",
"2X c #D8E6E4",
"3X c None",
/* pixels */
"3X3X3X3X3X3X3X3X3X3X3X3X3X3X3X3X3X3X3X3X3X3X3X3X3X3X3X3X3X3X3X3X3X3X3X3X3X3X3X3X3X3X3X3X3X3X3X3X3X3X",
"3X3X3X3X3X3X3X3X3X3X3X3X3X3X3X3X3X3X3X3X3X3X3X3X3X3X3X3X3X3X3X3X3X3X3X3X3X3X3X3X3X3X3X3X3X3X3X3X3X3X",
"3X3X3X3X3X3X3X3X3X3X3X3X3X3X3X3X3X3X3X3X3X3X3X3X3X3X3X3X3X3X3X3X3X3X3X3X3X3X3X3X3X3X3X3X3X3X3X3X3X3X",
"3X3X3X3X3X3X3X3X3X3X3X3X3X3X3X3X3X3X3X3X3X3X3X3X3X3X3X3X3X3X3X3X3X3X3X3X3X3X3X3X3X3X3X3X3X3X3X3X3X3X",
"3X3X3X3X3X3X3X3X3X3X3X3X3X3X3X3X3X3X3X3X3X3X3X3X3X3X3X3X3X3X3X3X3X3X3X3X3X3X3X3X3X3X3X3X3X3X3X3X3X3X",
"3X3X3X3X3X3X3X3X3X3X3X3X3X3X3X3X3X3X3X3X3X3X3X3X3X3X3X3X3X3X3X3X3X3X3X3X3X3X3X3X3X3X3X3X3X3X3X3X3X3X",
"3X3X3X3X3X3X3X3X3X3X3X3X3X3X3X3X3X3X3X3X3X3X3X3X3X3X3X3X3X3X3X3X3X3X3X3X3X3X3X3X3X3X3X3X3X3X3X3X3X3X",
"3X3X3X3X3X3X3X3X3X3X3X3X3X3X3X3X  3X3X3X3X3X3X3X3X3X3X3X3X3X3X3X3X3X3X3X3X3X3X3X3X3X3X3X3X3X3X3X3X3X",
"3X3X3X3X3X3X3X3X3X3X3X3X3X3X3X3X  i u > & + 3X3X3X3X3X3X3X3X3X3X3X3X3X3X3X3X3X3X3X3X3X3X3X3X3X3X3X3X",
"3X3X3X3X3X3X3X3X3X3X3X3X3X3X3X3XO x z z | ..X.) p ; 3X3X3X3X3X3X3X3X3X3X3X3X3X3X3X3X3X3X3X3X3X3X3X3X",
"3X3X3X3X3X3X3X3X3X3X3X3X3X3X3X3X3X> a M c.oXC.8.7._ 3X3X3X3X3X3X3X3X3X3X3X3X3X3X3X3X3X3X3X3X3X3X3X3X",
"3X3X3X3X3X3X3X3X3X3X3X3X3X3X3X3X3X3X3X8 j.%XK.D.i.q.z 3X3X3X3X3X3X3X3X3X3X3X3X3X3X3X3X3X3X3X3X3X3X3X",
"3X3X3X3X3X3X3X3X3X3X3X3X3X3X3X3X3X3X3X@ 1 7 z.*X=XE.#.i 3X3X3X3X3X3X3X3X3X3X3X3X3X3X3X3X3X3X3X3X3X3X",
"3X3X3X3X3X3X3X3X3X3X3X3X3X3X3X3X3X3X3X3X1 2 v.>X>X$X,.4 3X3X3X3X3X3X3X3X3X3X3X3X3X3X3X3X3X3X3X3X3X3X",
"3X3X3X3X3X3X3X3X3X3X3X3X3X3X3X3X3X3X3X  1 7 J.+XXXT.} 3X3X3X3X3X3X3X3X3X3X3X3X3X3X3X3X3X3X3X3X3X3X3X",
"3X3X3X3X3X3X3X3X3X3X3X3X3X5.^ *.3X3X3X, 5 B H.i.A.A.| 3X3X3X3X3X3X3X3X3X3X3X3X3X3X3X3X3X3X3X3X3X3X3X",
"3X3X3X3X3X3X3X3X3X3X|._.B.=.Y w * + a @.n.^.P.r.t.p.b.H 3X3X3X3X3X3X3X3X3X3X3X3X3X3X3X3X3X3X3X3X3X3X",
"3X3X3X3X3X3X3X3X3X3X3X3XB.~ U q o - ` 8.K.oXA.r.t.A.T.,.3X3X3X3X3X3X3X3X3X3X3X3X3X3X3X3X3X3X3X3X3X3X",
"3X3X3X3X3X3X3X3X3X3X3X3X3XQ R w o -  .w.XX`.P.G.V.F.+Xf.a 3X3X3X3X3X3X3X3X3X3X3X3X3X3X3X3X3X3X3X3X3X",
"3X3X3X3X3X3X3X3X3X3X3X3X3X3X^ 3X3X3X[ e..XZ Z 4.z.'.@XF.O.3X3X3X3X3X3X3X3X3X3X3X3X3X3X3X3X3X3X3X3X3X",
"3X3X3X3X3X3X3X3X3X3X3X3X3X3X3X3X3X3Xj +.j.P V 9 8 h.#X+XP.v 3X3X3X3X3X3X3X3X3X3X3X3X3X3X3X3X3X3X3X3X",
"3X3X3X3X3X3X3X3X3X3X3X3X3X3X3X3X3X3X$ = L }.!.3.S G x.v.^.g.$ 3X3X3X3X3X3X3X3X3X3X3X3X3X3X3X3X3X3X3X",
"3X3X3X3X3X3X3X3X3X3X3X3X3X3X3X3X@ = 6 4 g.;X*Xm.{ l l n 1.a.G v 3X3X3X3X3X3X3X3X3X3X3X3X3X3X3X3X3X3X",
"3X3X3X3X3X3X3X3X3X3X3X3X3X3X3X3X# 3 O.7.} I /.{ :.].].l._ b.Y.f.g * 3X3X3X3X3X3X3X3X3X3X3X3X3X3X3X3X",
"3X3X3X3X3X3X3X3X3X3X3X3X3X3X3X3X@ 4 _ ;.h V ~.h >.+X#X#X;.;.;.m.2.} y 3X3X3X3X3X3X3X3X3X3X3X3X3X3X3X",
"3X3X3X3X3X3X3X3X3X3X3X3X3X3X3X3X3X$ 3 B J././.g d.I.I.I.P.{.].}.&X&X( & 3X3X3X3X3X3X3X3X3X3X3X3X3X3X",
"3X3X3X3X3X3X3X3X3X3X3X=.=.&.3X3X3X, 4 L &X$XM.X.'.1X:X[.m.{.{.,X2X<X] f X 3X3X3X3X3X3X3X3X3X3X3X3X3X",
"3X3X3X3X3X3X3X3X|.).6.~ E e > + s @.l.4.Q.x.l.n ( ` 2.2. .;.$.].<X].' f . 3X3X3X3X3X3X3X3X3X3X3X3X3X",
"3X3X3X3X3X3X3X3X3X(.N.W e 0 % ; X.w.XXA 8 b B D J G m } M.[.m.%.d.>.t 3X3X3X3X3X3X3X3X3X3X3X3X3X3X3X",
"3X3X3X3X3X3X3X3X3X3X3XQ T 0 % >  .w.oXc.h.J Z k. X'.`.z.1.1.m 0 t & 3X3X3X3X3X3X3X3X3X3X3X3X3X3X3X3X",
"3X3X3X3X3X3X3X3X3X3X3X3X! 3X3X, %.V.%XT.u.C.H.J.XXW.P.4.# # 3X3X3X3X3X3X3X3X3X3X3X3X3X3X3X3X3X3X3X3X",
"3X3X3X3X3X3X3X3X3X3X3X3X3X3X3X3XM s.^.I.r.t.S.Y.+X0.n 3X3X3X3X3X3X3X3X3X3X3X3X3X3X3X3X3X3X3X3X3X3X3X",
"3X3X3X3X3X3X3X3X3X3X3X3X3X3X3X3X$ < k.Z.r.t.S.E.g.j 3X3X3X3X3X3X3X3X3X3X3X3X3X3X3X3X3X3X3X3X3X3X3X3X",
"3X3X3X3X3X3X3X3X3X3X3X3X3X3X3X3X= 2 v.D.i.p.u.M.m 3X3X3X3X3X3X3X3X3X3X3X3X3X3X3X3X3X3X3X3X3X3X3X3X3X",
"3X3X3X3X3X3X3X3X3X3X3X3X3X3X3X$ 1 7 `.*XXXW.@.i 3X3X3X3X3X3X3X3X3X3X3X3X3X3X3X3X3X3X3X3X3X3X3X3X3X3X",
"3X3X3X3X3X3X3X3X3X3X3X3X- X 1 D P D '.2X,XK.M 3X3X3X3X3X3X3X3X3X3X3X3X3X3X3X3X3X3X3X3X3X3X3X3X3X3X3X",
"3X3X3X3X3X3X3X3X3X3X3Xu c l N ~.%XJ.XX*X$XL.v 3X3X3X3X3X3X3X3X3X3X3X3X3X3X3X3X3X3X3X3X3X3X3X3X3X3X3X",
"3X3X3X3X3X3X3X3X3X3X  : p k _ b.H.u.r.t.0.%.i 3X3X3X3X3X3X3X3X3X3X3X3X3X3X3X3X3X3X3X3X3X3X3X3X3X3X3X",
"3X3X3X3X3X3X3X3X3X3X3X3X.   & k ` -.7.-.x 3X3X3X3X3X3X3X3X3X3X3X3X3X3X3X3X3X3X3X3X3X3X3X3X3X3X3X3X3X",
"3X3X3X3X3X3X3X3X3X3X3X3X3X3X3X3X3X. o ; 3X3X3X3X3X3X3X3X3X3X3X3X3X3X3X3X3X3X3X3X3X3X3X3X3X3X3X3X3X3X",
"3X3X3X3X3X3X3X3X3X3X3X3X3X3X3X3X3X3X3X3X3X3X3X3X3X3X3X3X3X3X3X3X3X3X3X3X3X3X3X3X3X3X3X3X3X3X3X3X3X3X",
"3X3X3X3X3X3X3X3X3X3X3X3X3X3X3X3X3X3X3X3X3X3X3X3X3X3X3X3X3X3X3X3X3X3X3X3X3X3X3X3X3X3X3X3X3X3X3X3X3X3X",
"3X3X3X3X3X3X3X3X3X3X3X3X3X3X3X3X3X3X3X3X3X3X3X3X3X3X3X3X3X3X3X3X3X3X3X3X3X3X3X3X3X3X3X3X3X3X3X3X3X3X",
"3X3X3X3X3X3X3X3X3X3X3X3X3X3X3X3X3X3X3X3X3X3X3X3X3X3X3X3X3X3X3X3X3X3X3X3X3X3X3X3X3X3X3X3X3X3X3X3X3X3X",
"3X3X3X3X3X3X3X3X3X3X3X3X3X3X3X3X3X3X3X3X3X3X3X3X3X3X3X3X3X3X3X3X3X3X3X3X3X3X3X3X3X3X3X3X3X3X3X3X3X3X",
"3X3X3X3X3X3X3X3X3X3X3X3X3X3X3X3X3X3X3X3X3X3X3X3X3X3X3X3X3X3X3X3X3X3X3X3X3X3X3X3X3X3X3X3X3X3X3X3X3X3X",
"3X3X3X3X3X3X3X3X3X3X3X3X3X3X3X3X3X3X3X3X3X3X3X3X3X3X3X3X3X3X3X3X3X3X3X3X3X3X3X3X3X3X3X3X3X3X3X3X3X3X",
"3X3X3X3X3X3X3X3X3X3X3X3X3X3X3X3X3X3X3X3X3X3X3X3X3X3X3X3X3X3X3X3X3X3X3X3X3X3X3X3X3X3X3X3X3X3X3X3X3X3X",
"3X3X3X3X3X3X3X3X3X3X3X3X3X3X3X3X3X3X3X3X3X3X3X3X3X3X3X3X3X3X3X3X3X3X3X3X3X3X3X3X3X3X3X3X3X3X3X3X3X3X",
"3X3X3X3X3X3X3X3X3X3X3X3X3X3X3X3X3X3X3X3X3X3X3X3X3X3X3X3X3X3X3X3X3X3X3X3X3X3X3X3X3X3X3X3X3X3X3X3X3X3X"
};
