/* XPM */
static char *nave2___15[] = {
/* columns rows colors chars-per-pixel */
"50 50 212 2 ",
"   c #010C04",
".  c #0B0C0C",
"X  c #040C09",
"o  c #110C0F",
"O  c #180D18",
"+  c #081417",
"@  c #131414",
"#  c #161B1A",
"$  c #1A191B",
"%  c #161816",
"&  c #0B0616",
"*  c #260E1B",
"=  c #2C0E1B",
"-  c #260716",
";  c #360118",
":  c #2A111F",
">  c #1F201D",
",  c #22201E",
"<  c #220E22",
"1  c #350F24",
"2  c #3B0B29",
"3  c #38192E",
"4  c #281426",
"5  c #1A2725",
"6  c #212424",
"7  c #232628",
"8  c #282A2A",
"9  c #3D2731",
"0  c #362831",
"q  c #2E3235",
"w  c #35363A",
"e  c #550A17",
"r  c #4A0916",
"t  c #670917",
"y  c #730C1C",
"u  c #480928",
"i  c #590A34",
"p  c #491835",
"a  c #55143A",
"s  c #6C0F3C",
"d  c #412533",
"f  c #5C1B41",
"g  c #640F40",
"h  c #6F1E4F",
"j  c #76134B",
"k  c #781349",
"l  c #720D46",
"z  c #5D284A",
"x  c #5F3B53",
"c  c #4B3A45",
"v  c #65304D",
"b  c #7C2D57",
"n  c #7A2151",
"m  c #6A3857",
"M  c #6E2E55",
"N  c #7B3864",
"B  c #3F4243",
"V  c #584756",
"C  c #595458",
"Z  c #49424D",
"A  c #63465B",
"S  c #62505E",
"D  c #5E5461",
"F  c #6A4B63",
"G  c #605E68",
"H  c #794F6C",
"J  c #696869",
"K  c #70636A",
"L  c #7F6C7D",
"P  c #717275",
"I  c #6C6674",
"U  c #91061A",
"Y  c #A30718",
"T  c #AE1C39",
"R  c #DB182A",
"E  c #C21228",
"W  c #E71C29",
"Q  c #F21C29",
"!  c #E52331",
"~  c #9C0046",
"^  c #82124A",
"/  c #821552",
"(  c #801F56",
")  c #971855",
"_  c #8D0C53",
"`  c #B00052",
"'  c #A01D5D",
"]  c #812355",
"[  c #97255B",
"{  c #AA0D62",
"}  c #B60D63",
"|  c #AA1568",
" . c #B71368",
".. c #BC0C70",
"X. c #AC1F70",
"o. c #BC1273",
"O. c #982767",
"+. c #833663",
"@. c #923E67",
"#. c #9C3A6A",
"$. c #BF206F",
"%. c #B8267B",
"&. c #A73273",
"*. c #EF3545",
"=. c #C71D7F",
"-. c #C4196F",
";. c #CB287C",
":. c #F43262",
">. c #83476C",
",. c #984B75",
"<. c #8C537A",
"1. c #845A79",
"2. c #95527B",
"3. c #92597D",
"4. c #8F4879",
"5. c #AA517C",
"6. c #84607C",
"7. c #F84454",
"8. c #FF677E",
"9. c #7C7481",
"0. c #BC3E8A",
"q. c #D41683",
"w. c #E8168A",
"e. c #FD1B9A",
"r. c #F41996",
"t. c #EB1993",
"y. c #C93489",
"u. c #D33291",
"i. c #EB2B99",
"p. c #FF1BA6",
"a. c #FE2BAC",
"s. c #FE26A4",
"d. c #EA3AA2",
"f. c #FA31AC",
"g. c #F83EB1",
"h. c #B6548E",
"j. c #8D6283",
"k. c #976488",
"l. c #9F6892",
"z. c #867C86",
"x. c #AA6896",
"c. c #A67499",
"v. c #B97495",
"b. c #A57FA0",
"n. c #B271A1",
"m. c #C14884",
"M. c #C74184",
"N. c #C15089",
"B. c #D04D96",
"V. c #C25799",
"C. c #C64E92",
"Z. c #CC6E9D",
"A. c #FF6E83",
"S. c #FF7283",
"D. c #D959AA",
"F. c #EA48AB",
"G. c #F540AF",
"H. c #EB4EB1",
"J. c #FD40B4",
"K. c #F54BB4",
"L. c #F746B4",
"P. c #EE5EB9",
"I. c #EA5CB7",
"U. c #F95ABF",
"Y. c #D261AB",
"T. c #CA7CB3",
"R. c #D37EBA",
"E. c #DB72B9",
"W. c #C960A4",
"Q. c #E26BB7",
"!. c #E965BB",
"~. c #E276BA",
"^. c #ED6FC1",
"/. c #EB75C2",
"(. c #EB7DC6",
"). c #E27AC2",
"_. c #F078C2",
"`. c #B488AA",
"'. c #A19FA2",
"]. c #B69EAF",
"[. c #BE84B2",
"{. c #BC8EB6",
"}. c #B093B2",
"|. c #B3A1AC",
" X c #FEA592",
".X c #FEB696",
"XX c #C686AB",
"oX c #C784B4",
"OX c #CC9AB3",
"+X c #CAAABA",
"@X c #CAA7BC",
"#X c #FDF2A6",
"$X c #D788C1",
"%X c #DB92CA",
"&X c #D798C9",
"*X c #C598C2",
"=X c #E483C5",
"-X c #EA86CA",
";X c #E292CC",
":X c #EC98CD",
">X c #E49BD1",
",X c #D8A4C8",
"<X c #D4A9D1",
"1X c #D8B8D6",
"2X c #D0B0C9",
"3X c #E5A7CC",
"4X c #E3ABD3",
"5X c #D9C8D7",
"6X c #D2C9D1",
"7X c #E0D5DD",
"8X c #D7E6E4",
"9X c None",
/* pixels */
"9X9X9X9X9X9X9X9X9X9X9X9X9X9X9X9X9X9X9X9X9X9X9X9X9X9X9X9X9X9X9X9X9X9X9X9X9X9X9X9X9X9X9X9X9X9X9X9X9X9X",
"9X9X9X9X9X9X9X9X9X9X9X9X9X9X9X9X9X9X9X9X9X9X9X9X9X9X9X9X9X9X9X9X9X9X9X9X9X9X9X9X9X9X9X9X9X9X9X9X9X9X",
"9X9X9X9X9X9X9X9X9X9X9X9X9X9X9X9X9X9X9X9X9X9X9X9X9X9X9X9X9X9X9X9X9X9X9X9X9X9X9X9X9X9X9X9X9X9X9X9X9X9X",
"9X9X9X9X9X9X9X9X9X9X9X9X9X9X9X9X9X9X9X9X9X9X9X9X9X9X9X9X9X9X9X9X9X9X9X9X9X9X9X9X9X9X9X9X9X9X9X9X9X9X",
"9X9X9X9X9X9X9X9X9X9X9X9X9X9X9X9X9X9X9X9X9X9X9X9X9X9X9X9X9X9X9X9X9X9X9X9X9X9X9X9X9X9X9X9X9X9X9X9X9X9X",
"9X9X9X9X9X9X9X9X9X9X9X9X9X9X9X9X9X9X9X9X9X9X9X9X9X9X9X9X9X9X9X9X9X9X9X9X9X9X9X9X9X9X9X9X9X9X9X9X9X9X",
"9X9X9X9X9X9X9X9X9X9X9X9X9X9X9X9X9X9X9X9X9X9X9X9X9X9X9X9X9X9X9X9X9X9X9X9X9X9X9X9X9X9X9X9X9X9X9X9X9X9X",
"9X9X9X9X9X9X9X9X9X9X9X9X9X9X9X9X9X9X9X9X9X9X9X9X9X9X9X9X9X9X9X9X9X9X9X9X9X9X9X9X9X9X9X9X9X9X9X9X9X9X",
"9X9X9X9X9X9X9X9X9X9X9X9X9X9X9X9X9X9X9X9X9X9X9X9X9X9X9X#X9X9X9X9X9X9X9X9X9X9X9X9X9X9X9X9X9X9X9X9X9X9X",
"9X9X9X9X9X9X9X9X9X9X9X9X9X9X9X9X9X9X9X9X9X9X9X9X9X9X9X X9X9X9X9X9X9X9X9X9X9X9X9X9X9X9X9X9X9X9X9X9X9X",
"9X9X9X9X9X9X9X9X9X9X9X9X9X9X9X9X#X9X9X9X9X9X9X9X9X9X9X8.8.9X9X9X9X9X9X9XX . 9X9X9X9X9X9X9X9X9X9X9X9X",
"9X9X9X9X9X9X9X9X9X9X9X9X9X9X9X9X.X9X9X9X9X9X9X9X9X9X*.! R W 9X9X9X9X9X* u 1 9X9X9X9X9X9X9X9X9X9X9X9X",
"9X9X9X9X9X9X9X9X9X9X9X9X9X9X9X9XS.A.9X9X9X9X9X9X9X9XW Y U T :.9X9X9X9X: / a 9X9X9X9X9X9X9X9X9X9X9X9X",
"9X9X9X9X9X9X9X9X9X9X9X9X9X9X9X7.*.! W 9X9X9X9X9X9X9XT y r r 9X9X9X9X9X$ k i o 9X9X9X9X9X9X9X9X9X9X9X",
"9X9X9X9X9X9X9X9X9X9X9X9X9X9X9XQ Y Y T 9X9X9X9X9X9X9X9X= & + 9X9X9X9X9X0 +._ < 9X9X9X9X9X9X9X9X9X9X9X",
"9X9X9X9X9X9X9X9X9X9X9X9X9X9X9XR t e y 9X9X9X9X9X9X9X9X+ 2 4 3 9X9X9X@ G `.h.i 9X9X9X9X9X9X9X9X9X9X9X",
"9X9X9X9X9X9X9X. o O 9X9X9X9X9X9X= O O 9X9X9X% $ 9X9X9Xa } } O.z # 5 7 I <XY._ 9X9X9X9X9X9X9X9X9X9X9X",
"9X9X9X9X9X9X9X. a j < 9X9X9X9X9X+ < < 9X9X9X$ 8 6 % d %.s.s.F.,.5 8 q F $Xd.{ 9X9X9X9X9X9X9X9X9X9X9X",
"9X9X9X9X9X9X9X9Xu j 2 9X9X9X9X9Xa _ { ( p % d O.] 8 d x.%X&X*X`.j.n.T.%X$Xp.o.o 9X9X9X9X9X9X9X9X9X9X",
"9X9X9X9X9X9X9X9X1 j v q @ 9X& 3 %.w.e.d.N , 9 t.=.c J 6.D XX).!.K.I.1X8X<Xp...1 9X9X9X9X9X9X9X9X9X9X",
"9X9X9X9X9X9X9X9X: X.`.P 7 5 7 q Y.~.%X*X9.I 3.b v oX2Xz.w c.f.p.p.L.&X5X>Xu.j 9X9X9X9X9X9X9X9X9X9X9X",
"9X9X9X9X9X9X9X9Xo q.<X}.w 8 w c {.&X[.V P @X4XK C ].3Xl.w j.F.a.a.J.^.R.W.O.9X9X9X9X9X9X9X9X9X9X9X9X",
"9X9X9X9X9X9X9X9X  ..Q.T.l.n.T.E.!.K.Y.V C [.,X|.'.`.Z.k.B F Q.g.L.d.X.m z p 9X9X9X9X9X9X9X9X9X9X9X9X",
"9X9X9X9X9X9X9X9X9X_ r.P.1X5X=Xa.p.s.H.K c k.N.[ 0 s  .b S j.$X/.-Xh.u 9X9X9X9X9X9X9X9X9X9X9X9X9X9X9X",
"9X9X9X9X9X9X9X9X9Xg t.F.1X7X%Xg.a.f.F.k.d S ' M.,.x.Z.^ 6.OX-X-Xj.m 9X9X9X9X9X9X9X9X9X9X9X9X9X9X9X9X",
"9X9X9X9X9X9X9X9X9X1 | i.-X>X).G.g.K.P.T.k.F ^ @X~.~.3X] 3.OXU.u.p 9X9X9X9X9X9X9X9X9X9X9X9X9X9X9X9X9X",
"9X9X9X9X9X9X9X9X9X9X9X/ 0.<.N | D.(.:X;X>Xk.^ +X-X_.3X@.>.oX!.h 9X9X9X9X9X9X9X9X9X9X9X9X9X9X9X9X9X9X",
"9X9X9X9X9X9X9X9X9X9X9X9X2 0 9X; >.1.V.U.-Xc.n v.:X!.~.&.+.c.1.9X9X9X9X9X9X9X9X9X9X9X9X9X9X9X9X9X9X9X",
"9X9X9X9X9X9X9X9X9X9X9X9X9X9X9X9X9X$ f O.Q.[.+.' ;.~.C.$.V.F % 9X9X9X9X9X9X9X9X9X9X9X9X9X9X9X9X9X9X9X",
"9X9X9X9X9X9X9X9X9X9X9X9X9X9X9X9X9X9X9X9XA k.3.B.$.2XOX;./.H $ 9X9X9X9X9X9X9X9X9X9X9X9X9X9X9X9X9X9X9X",
"9X9X9X9X9X9X9X9X9X9X9X9X9X9X9X9X9X9X9X9X9X* 2.~.-.+X+X;.C.m 9X9X9X9X9X9X9X9X9X9X9X9X9X9X9X9X9X9X9X9X",
"9X9X9X9X9X9X9X9X9X9X9X9X9X9X9X9X9X9X9X9X9Xo F h.N.+X6XXX[ u 9X9X9X9X9X9X9X9X9X9X9X9X9X9X9X9X9X9X9X9X",
"9X9X9X9X9X9X9X9X9X9X9X9X9X9X9X9X9X9X9X9X9X9X9Xg 5.1X8X5X,.e 9X9X9X9X9X9X9X9X9X9X9X9X9X9X9X9X9X9X9X9X",
"9X9X9X9X9X9X9X9X9X9X9X9X9X9X9X9X9X9X9X9X9X9X9X; #.7X7XOX@.- 9X9X9X9X9X9X9X9X9X9X9X9X9X9X9X9X9X9X9X9X",
"9X9X9X9X9X9X9X9X9X9X9X9X9X9X9X9X9X9X9X9X9X9X9X9Xu _ ` T u 9X9X9X9X9X9X9X9X9X9X9X9X9X9X9X9X9X9X9X9X9X",
"9X9X9X9X9X9X9X9X9X9X9X9X9X9X9X9X9X9X9X9X9X9X9X9X9X- s i 9X9X9X9X9X9X9X9X9X9X9X9X9X9X9X9X9X9X9X9X9X9X",
"9X9X9X9X9X9X9X9X9X9X9X9X9X9X9X9X9X9X9X9X9X9X9X9X9X9Xo X 9X9X9X9X9X9X9X9X9X9X9X9X9X9X9X9X9X9X9X9X9X9X",
"9X9X9X9X9X9X9X9X9X9X9X9X9X9X9X9X9X9X9X9X9X9X9X9X9X9X9X9X9X9X9X9X9X9X9X9X9X9X9X9X9X9X9X9X9X9X9X9X9X9X",
"9X9X9X9X9X9X9X9X9X9X9X9X9X9X9X9X9X9X9X9X9X9X9X9X9X9X9X9X9X9X9X9X9X9X9X9X9X9X9X9X9X9X9X9X9X9X9X9X9X9X",
"9X9X9X9X9X9X9X9X9X9X9X9X9X9X9X9X9X9X9X9X9X9X9X9X9X9X9X9X9X9X9X9X9X9X9X9X9X9X9X9X9X9X9X9X9X9X9X9X9X9X",
"9X9X9X9X9X9X9X9X9X9X9X9X9X9X9X9X9X9X9X9X9X9X9X9X9X9X9X9X9X9X9X9X9X9X9X9X9X9X9X9X9X9X9X9X9X9X9X9X9X9X",
"9X9X9X9X9X9X9X9X9X9X9X9X9X9X9X9X9X9X9X9X9X9X9X9X9X9X9X9X9X9X9X9X9X9X9X9X9X9X9X9X9X9X9X9X9X9X9X9X9X9X",
"9X9X9X9X9X9X9X9X9X9X9X9X9X9X9X9X9X9X9X9X9X9X9X9X9X9X9X9X9X9X9X9X9X9X9X9X9X9X9X9X9X9X9X9X9X9X9X9X9X9X",
"9X9X9X9X9X9X9X9X9X9X9X9X9X9X9X9X9X9X9X9X9X9X9X9X9X9X9X9X9X9X9X9X9X9X9X9X9X9X9X9X9X9X9X9X9X9X9X9X9X9X",
"9X9X9X9X9X9X9X9X9X9X9X9X9X9X9X9X9X9X9X9X9X9X9X9X9X9X9X9X9X9X9X9X9X9X9X9X9X9X9X9X9X9X9X9X9X9X9X9X9X9X",
"9X9X9X9X9X9X9X9X9X9X9X9X9X9X9X9X9X9X9X9X9X9X9X9X9X9X9X9X9X9X9X9X9X9X9X9X9X9X9X9X9X9X9X9X9X9X9X9X9X9X",
"9X9X9X9X9X9X9X9X9X9X9X9X9X9X9X9X9X9X9X9X9X9X9X9X9X9X9X9X9X9X9X9X9X9X9X9X9X9X9X9X9X9X9X9X9X9X9X9X9X9X",
"9X9X9X9X9X9X9X9X9X9X9X9X9X9X9X9X9X9X9X9X9X9X9X9X9X9X9X9X9X9X9X9X9X9X9X9X9X9X9X9X9X9X9X9X9X9X9X9X9X9X",
"9X9X9X9X9X9X9X9X9X9X9X9X9X9X9X9X9X9X9X9X9X9X9X9X9X9X9X9X9X9X9X9X9X9X9X9X9X9X9X9X9X9X9X9X9X9X9X9X9X9X",
"9X9X9X9X9X9X9X9X9X9X9X9X9X9X9X9X9X9X9X9X9X9X9X9X9X9X9X9X9X9X9X9X9X9X9X9X9X9X9X9X9X9X9X9X9X9X9X9X9X9X"
};
