/* XPM */
static char *nave2___12[] = {
/* columns rows colors chars-per-pixel */
"50 50 198 2 ",
"   c #070C09",
".  c #0A0C0B",
"X  c #190B17",
"o  c #081717",
"O  c #151A15",
"+  c #141A19",
"@  c #19191A",
"#  c #131415",
"$  c #230E1A",
"%  c #260A18",
"&  c #300319",
"*  c #20251E",
"=  c #1E1522",
"-  c #320F28",
";  c #281824",
":  c #36192B",
">  c #2B252C",
",  c #252C2E",
"<  c #242727",
"1  c #33282E",
"2  c #34262D",
"3  c #262E30",
"4  c #3D2C38",
"5  c #333235",
"6  c #373B3B",
"7  c #4A0916",
"8  c #7B0A1D",
"9  c #760A19",
"0  c #6C0515",
"q  c #570026",
"w  c #4A0E30",
"e  c #520F35",
"r  c #481634",
"t  c #521A38",
"y  c #62163D",
"u  c #77053C",
"i  c #452839",
"p  c #51233D",
"a  c #571C40",
"s  c #6C1245",
"d  c #6C1A49",
"f  c #661B46",
"g  c #78174C",
"h  c #4E2640",
"j  c #592741",
"k  c #76234E",
"l  c #782353",
"z  c #524E4E",
"x  c #5E4C5D",
"c  c #55535A",
"v  c #73415F",
"b  c #674156",
"n  c #5D5B62",
"m  c #664E62",
"M  c #6B5066",
"N  c #6E5269",
"B  c #6B566B",
"V  c #71516A",
"C  c #77526A",
"Z  c #7A697C",
"A  c #747377",
"S  c #860A1D",
"D  c #850518",
"F  c #AD0817",
"G  c #8E0E27",
"H  c #CD1220",
"J  c #D81A2C",
"K  c #EC1F36",
"L  c #FB1D35",
"P  c #DD2239",
"I  c #E6232F",
"U  c #E32634",
"Y  c #80094C",
"T  c #950044",
"R  c #960C5A",
"E  c #851555",
"W  c #91135A",
"Q  c #8E0954",
"!  c #A7085D",
"~  c #B4045D",
"^  c #85245D",
"/  c #BB0F63",
"(  c #A11565",
")  c #B01962",
"_  c #B51D74",
"`  c #892460",
"'  c #982467",
"]  c #8D3861",
"[  c #963567",
"{  c #9E3770",
"}  c #A72568",
"|  c #A43B6E",
" . c #A4376C",
".. c #B52578",
"X. c #A82D75",
"o. c #C01F6F",
"O. c #C91A7C",
"+. c #D11678",
"@. c #C72B7A",
"#. c #FD396B",
"$. c #86486E",
"%. c #9B436E",
"&. c #854D72",
"*. c #845A7A",
"=. c #855474",
"-. c #905479",
";. c #A84E79",
":. c #807D7F",
">. c #FD5571",
",. c #FD697B",
"<. c #DB1581",
"1. c #EC1590",
"2. c #FB1C9C",
"3. c #D42289",
"4. c #E23C9E",
"5. c #E82797",
"6. c #FE23A5",
"7. c #FF21A8",
"8. c #FE2CAC",
"9. c #FC2AA4",
"0. c #E73CA2",
"q. c #F938AA",
"w. c #FD3BB1",
"e. c #895E80",
"r. c #985A82",
"t. c #BE5F8E",
"y. c #8A6583",
"u. c #876281",
"i. c #966589",
"p. c #9A7094",
"a. c #A2658F",
"s. c #AE6C92",
"d. c #A9719A",
"f. c #B36B94",
"g. c #BB75A7",
"h. c #C44482",
"j. c #D84897",
"k. c #C65C90",
"l. c #C84A8F",
"z. c #DF53A2",
"x. c #DE4AA4",
"c. c #E346A8",
"v. c #F742B2",
"b. c #F24AB2",
"n. c #F25BBC",
"m. c #F243AB",
"M. c #C669A5",
"N. c #D16AAF",
"B. c #CC76A8",
"V. c #D271B3",
"C. c #DE74BC",
"Z. c #D879B9",
"A. c #CD78B4",
"S. c #E46DB9",
"D. c #E36DB6",
"F. c #E372BC",
"G. c #DE7DC0",
"H. c #EE6CC1",
"J. c #F16FC4",
"K. c #E678C1",
"L. c #EB7AC5",
"P. c #818183",
"I. c #9C969B",
"U. c #B08CAD",
"Y. c #A39AA0",
"T. c #B6A6BF",
"R. c #FF8389",
"E. c #FF888A",
"W. c #FEB195",
"Q. c #C38DB2",
"!. c #CD86BA",
"~. c #CC8AB6",
"^. c #D18BBF",
"/. c #C898B5",
"(. c #C88DAA",
"). c #D0AEBF",
"_. c #CB98C5",
"`. c #D391C5",
"'. c #D997CB",
"]. c #D699C9",
"[. c #DC8AC5",
"{. c #E483C5",
"}. c #E688C8",
"|. c #CAACC8",
" X c #DDA4C9",
".X c #CAB7C3",
"XX c #D1BFC8",
"oX c #DCB4D5",
"OX c #D7BDD7",
"+X c #E1A9C7",
"@X c #E5BED4",
"#X c #D6C4D9",
"$X c #CFC4CA",
"%X c #E1D9DF",
"&X c #E9C5DA",
"*X c #E2DEE3",
"=X c #D6E5E4",
"-X c None",
/* pixels */
"-X-X-X-X-X-X-X-X-X-X-X-X-X-X-X-X-X-X-X-X-X-X-X-X-X-X-X-X-X-X-X-X-X-X-X-X-X-X-X-X-X-X-X-X-X-X-X-X-X-X",
"-X-X-X-X-X-X-X-X-X-X-X-X-X-X-X-X-X-X-X-X-X-X-X-X-X-X-X-X-X-X-X-X-X-X-X-X-X-X-X-X-X-X-X-X-X-X-X-X-X-X",
"-X-X-X-X-X-X-X-X-X-X-X-X-X-X-X-X-X-X-X-X-X-X-X-X-X-X-X-X-X-X-X-X-X-X-X-X-X-X-X-X-X-X-X-X-X-X-X-X-X-X",
"-X-X-X-X-X-X-X-X-X-X-X-X-X-X-X-X-X-X-X-X-X-X-X-X-X-X-X-X-X-X-X-X-X-X-X-X-X-X-X-X-X-X-X-X-X-X-X-X-X-X",
"-X-X-X-X-X-X-X-X-X-X-X-X-X-X-X-X-X-X-X-X-X-X-X-X-X-X-X-X-X-X-X-X-X-X-X-X-X-X-X-X-X-X-X-X-X-X-X-X-X-X",
"-X-X-X-X-X-X-X-X-X-X-X-X-X-X-X-X-X-X-X-X-X-X-X-X-X-X-X. -X-X-X-X-X-X-X-X-X-X-X-X-X-X-X-X-X-X-X-X-X-X",
"-X-X-X-X-X-X-X-X-X-X-X-X-X-X-X-X-X-X-X-X-X-X-X-X-X-X-XX . -X-X-X-X-X-X-X-X-X-X-X-X-X-X-X-X-X-X-X-X-X",
"-X-X-X-X-X-X-X-X-X-X-X-X-X-X-X-X-X-X-X-X-X-X-X-X-X-X$ s w . -X-X-X-X-X-X-X-X-X-X-X-X-X-X-X-X-X-X-X-X",
"-X-X-X-X-X-X-X-X-X-X-X-X-X-X-X-X-X-X-X-X-X-X-X-X-X-X; g s w   -X-X-X-X-X-X-X-X-X-X-X-X-X-X-X-X-X-X-X",
"-X-X-X-X-X-X-X-X-X-X-X-X-X-X-X-X-X-X-X-X-X-X-X-X-X-X-X; g ' Y   -X-X-X-X-X-X-X-X-X-X-X-X-X-X-X-X-X-X",
"-X-X-X-X-X-X-X-X-X-X-X-X-X-X-X-X-X-XW.E.-X-X-X-X-X-X-X+ M U.4.Y . -X-X-X-X-X-X-X-X-X-X-X-X-X-X-X-X-X",
"-X-X-X-X-X-X-X-X-X-X-X-X-X-X-X-X-X-XR.>.U P #.-X-X-X-X# n |.[.3.W . -X-X-X-X-X-X-X-X-X-X-X-X-X-X-X-X",
"-X-X-X-X-X-X-X-X-X-X-X-X-X-X-X-X-X-X,.U F 9 G -X-X-X-X+ , Z C.2.<.g -X-X-X-X-X-X-X-X-X-X-X-X-X-X-X-X",
"-X-X-X-X-X-X-X-X-X-X-X-X-X-X-X-X-X-X-XH D 7 $ -X-X-X+ , 3 *.'.K.2.R -X-X-X-X-X-X-X-X-X-X-X-X-X-X-X-X",
"-X-X-X-X-X-X-X-X-X-X-X-X-X-X-X-X-X-X-XK 9 $ X = d ` > 3 e.].=XOXS.W -X-X-X-X-X-X-X-X-X-X-X-X-X-X-X-X",
"-X-X-X-X-X-X-X-X-X-X-X-X-X-X-X-X-X-X-X-X-Xo - ~ O.c.y.e.G.K.#XoXD.^ -X-X-X-X-X-X-X-X-X-X-X-X-X-X-X-X",
"-X-X-X-X-X-X-X-X-X-X-X-X-X-X-X-X-X-X-X-X-X-Xf +.q.[._.K.6.v.L.C.&.t -X-X-X-X-X-X-X-X-X-X-X-X-X-X-X-X",
"-X-X-X-X-X-X-X-X-X-X-X-X-X-X-X-X-X-X-X-X-X-X^ m.'._.F.6.7.8.v.X.h -X-X-X-X-X-X-X-X-X-X-X-X-X-X-X-X-X",
"-X-X-X-X-X-X-X-X-X-XW.R.-X-X-X-X-X-X-X@ @ O i i.Z N V.9.8.w.m.' -X-X-X-X-X-X-X-X-X-X-X-X-X-X-X-X-X-X",
"-X-X-X-X-X-X-X-X-X-XE.>.U J -X-X-X-X@ < p 2 * A A 6 M A.v.n.K.r.-X-X-X-X-X-X-X-X-X-X-X-X-X-X-X-X-X-X",
"-X-X-X-X-X-X-X-X-X-X-XU F G S -X-X-X@ p o._ -.oXU.C 5 V Z.{.!.4 -X-X-X-X-X-X-X-X-X-X-X-X-X-X-X-X-X-X",
"-X-X-X-X-X-X-X-X-X-X-XJ 0 7 % -X-X-XO 2 3.} M |.+Xs.c M !.}.c.r -X-X-X-X-X-X-X-X-X-X-X-X-X-X-X-X-X-X",
"-X-X-X-X-X-X-X-X-X-X-XL S X X - f l i * $.b z Y.k.} k *.`.L.0.: -X-X-X-X-X-X-X-X-X-X-X-X-X-X-X-X-X-X",
"-X-X-X-X-X-X-X-X-X-X-X-X-X-X= ! <.4.Z :. X|.I.P.y h.[ l i._.N.: -X-X-X-X-X-X-X-X-X-X-X-X-X-X-X-X-X-X",
"-X-X-X-X-X-X-X-X-X-X-X-X-X-Xk O.q.'.A y.~.).t.p $.B.+X%.^ i.s.2 -X-X-X-X-X-X-X-X-X-X-X-X-X-X-X-X-X-X",
"-X-X-X-X-X-X-X-X-X-X-X-X-X-X' q.]./.m 6 -.f.) l.N.J.}.+X[ ] &.< -X-X-X-X-X-X-X-X-X-X-X-X-X-X-X-X-X-X",
"-X-X-X-X-X-X-X$ $ -X-X-X-X+ > p.].G.g.x 6 n k | &XL.S.S./ j.V.v -X-X-X-X-X-X-X-X-X-X-X-X-X-X-X-X-X-X",
"-X-X-X-X-X. X s s $ o # = , , u.K.8.q.M.m N C g ;.@XS.S.B.@.z.[ -X-X-X-X-X-X-X-X-X-X-X-X-X-X-X-X-X-X",
"-X-X-X-X-X-X. e g d x c , 3 e.S.7.7.8.b.A.~.!.*.Y  ./ (..X(.k.] q -X-X-X-X-X-X-X-X-X-X-X-X-X-X-X-X-X",
"-X-X-X-X-X-X-X. e ' U.T.B *.`.K.q.8.w.n.}.}.{.^.*.[ j.o./.$XXX/.] -X-X-X-X-X-X-X-X-X-X-X-X-X-X-X-X-X",
"-X-X-X-X-X-X-X-X. Q x.].G.].=XOXH.w.b.L.~.b.c.A.s.-.F.z.k.$X*X*X[ -X-X-X-X-X-X-X-X-X-X-X-X-X-X-X-X-X",
"-X-X-X-X-X-X-X-X-X. R 5.9.{.#XoXG...' a.i p r i 1 1 $.| %.XX*X@.T -X-X-X-X-X-X-X-X-X-X-X-X-X-X-X-X-X",
"-X-X-X-X-X-X-X-X-X-X. ( 1.6.F.F.&.h -X-X-X-X-X-X-X-X-X; q %.| T u X -X-X-X-X-X-X-X-X-X-X-X-X-X-X-X-X",
"-X-X-X-X-X-X-X-X-X-X-X. E ( ( ^ p -X-X-X-X-X-X-X-X-X-X-X-X& & % %   -X-X-X-X-X-X-X-X-X-X-X-X-X-X-X-X",
"-X-X-X-X-X-X-X-X-X-X-X-X-X-X-X-X-X-X-X-X-X-X-X-X-X-X-X-X-X-X-X-X-X-X-X-X-X-X-X-X-X-X-X-X-X-X-X-X-X-X",
"-X-X-X-X-X-X-X-X-X-X-X-X-X-X-X-X-X-X-X-X-X-X-X-X-X-X-X-X-X-X-X-X-X-X-X-X-X-X-X-X-X-X-X-X-X-X-X-X-X-X",
"-X-X-X-X-X-X-X-X-X-X-X-X-X-X-X-X-X-X-X-X-X-X-X-X-X-X-X-X-X-X-X-X-X-X-X-X-X-X-X-X-X-X-X-X-X-X-X-X-X-X",
"-X-X-X-X-X-X-X-X-X-X-X-X-X-X-X-X-X-X-X-X-X-X-X-X-X-X-X-X-X-X-X-X-X-X-X-X-X-X-X-X-X-X-X-X-X-X-X-X-X-X",
"-X-X-X-X-X-X-X-X-X-X-X-X-X-X-X-X-X-X-X-X-X-X-X-X-X-X-X-X-X-X-X-X-X-X-X-X-X-X-X-X-X-X-X-X-X-X-X-X-X-X",
"-X-X-X-X-X-X-X-X-X-X-X-X-X-X-X-X-X-X-X-X-X-X-X-X-X-X-X-X-X-X-X-X-X-X-X-X-X-X-X-X-X-X-X-X-X-X-X-X-X-X",
"-X-X-X-X-X-X-X-X-X-X-X-X-X-X-X-X-X-X-X-X-X-X-X-X-X-X-X-X-X-X-X-X-X-X-X-X-X-X-X-X-X-X-X-X-X-X-X-X-X-X",
"-X-X-X-X-X-X-X-X-X-X-X-X-X-X-X-X-X-X-X-X-X-X-X-X-X-X-X-X-X-X-X-X-X-X-X-X-X-X-X-X-X-X-X-X-X-X-X-X-X-X",
"-X-X-X-X-X-X-X-X-X-X-X-X-X-X-X-X-X-X-X-X-X-X-X-X-X-X-X-X-X-X-X-X-X-X-X-X-X-X-X-X-X-X-X-X-X-X-X-X-X-X",
"-X-X-X-X-X-X-X-X-X-X-X-X-X-X-X-X-X-X-X-X-X-X-X-X-X-X-X-X-X-X-X-X-X-X-X-X-X-X-X-X-X-X-X-X-X-X-X-X-X-X",
"-X-X-X-X-X-X-X-X-X-X-X-X-X-X-X-X-X-X-X-X-X-X-X-X-X-X-X-X-X-X-X-X-X-X-X-X-X-X-X-X-X-X-X-X-X-X-X-X-X-X",
"-X-X-X-X-X-X-X-X-X-X-X-X-X-X-X-X-X-X-X-X-X-X-X-X-X-X-X-X-X-X-X-X-X-X-X-X-X-X-X-X-X-X-X-X-X-X-X-X-X-X",
"-X-X-X-X-X-X-X-X-X-X-X-X-X-X-X-X-X-X-X-X-X-X-X-X-X-X-X-X-X-X-X-X-X-X-X-X-X-X-X-X-X-X-X-X-X-X-X-X-X-X",
"-X-X-X-X-X-X-X-X-X-X-X-X-X-X-X-X-X-X-X-X-X-X-X-X-X-X-X-X-X-X-X-X-X-X-X-X-X-X-X-X-X-X-X-X-X-X-X-X-X-X",
"-X-X-X-X-X-X-X-X-X-X-X-X-X-X-X-X-X-X-X-X-X-X-X-X-X-X-X-X-X-X-X-X-X-X-X-X-X-X-X-X-X-X-X-X-X-X-X-X-X-X",
"-X-X-X-X-X-X-X-X-X-X-X-X-X-X-X-X-X-X-X-X-X-X-X-X-X-X-X-X-X-X-X-X-X-X-X-X-X-X-X-X-X-X-X-X-X-X-X-X-X-X"
};
