/* XPM */
static char *nave2___5[] = {
/* columns rows colors chars-per-pixel */
"50 50 209 2 ",
"   c #0D0C0D",
".  c #020B05",
"X  c #0D110F",
"o  c #150D12",
"O  c #19091B",
"+  c #0B1317",
"@  c #181716",
"#  c #181919",
"$  c #131719",
"%  c #0D0E1A",
"&  c #200D18",
"*  c #270B18",
"=  c #370718",
"-  c #20171F",
";  c #1B201B",
":  c #23201E",
">  c #1F0620",
",  c #1C1620",
"<  c #2E0E21",
"1  c #301326",
"2  c #1C2021",
"3  c #232629",
"4  c #242B2C",
"5  c #262424",
"6  c #2E2830",
"7  c #392A36",
"8  c #363538",
"9  c #38262E",
"0  c #510B18",
"q  c #660717",
"w  c #480B2C",
"e  c #46112F",
"r  c #5A0B36",
"t  c #4B1936",
"y  c #521136",
"u  c #5A143C",
"i  c #54042B",
"p  c #620F3E",
"a  c #6C0537",
"s  c #442B3B",
"d  c #4B2B3D",
"f  c #4C2638",
"g  c #39403F",
"h  c #5C1B41",
"j  c #621E47",
"k  c #6B1243",
"l  c #731446",
"z  c #731249",
"x  c #741B4A",
"c  c #7C1B49",
"v  c #7D1651",
"b  c #4A3B49",
"n  c #513447",
"m  c #592742",
"M  c #6A234C",
"N  c #742352",
"B  c #7B2257",
"V  c #672B50",
"C  c #7B3E63",
"Z  c #51424F",
"A  c #574F5B",
"S  c #4B454F",
"D  c #634B5D",
"F  c #684961",
"G  c #7F476E",
"H  c #645060",
"J  c #73546A",
"K  c #7E5B76",
"L  c #746877",
"P  c #777478",
"I  c #6F646A",
"U  c #900415",
"Y  c #880B1C",
"T  c #AC0A1A",
"R  c #810C20",
"E  c #C3071F",
"W  c #DA1925",
"Q  c #CC1629",
"!  c #E71A2B",
"~  c #FD2639",
"^  c #F43039",
"/  c #820F48",
"(  c #9C024B",
")  c #841453",
"_  c #9A1B59",
"`  c #930D59",
"'  c #842156",
"]  c #932259",
"[  c #951E60",
"{  c #A40B61",
"}  c #B00C61",
"|  c #A71464",
" . c #BA126C",
".. c #8E3461",
"X. c #953968",
"o. c #8C2C66",
"O. c #A7226E",
"+. c #BD2D73",
"@. c #B52175",
"#. c #A83978",
"$. c #B02A6B",
"%. c #C82649",
"&. c #ED3341",
"*. c #E4335D",
"=. c #CF137E",
"-. c #C41B76",
";. c #D2117F",
":. c #C80567",
">. c #C03579",
",. c #C42B7B",
"<. c #84456D",
"1. c #825575",
"2. c #845F7A",
"3. c #805976",
"4. c #994B77",
"5. c #AC557F",
"6. c #F54C5F",
"7. c #F9536B",
"8. c #FD6077",
"9. c #BB3182",
"0. c #F50E91",
"q. c #FA1997",
"w. c #F11891",
"e. c #CF2980",
"r. c #D93496",
"t. c #D53389",
"y. c #EE2499",
"u. c #FF1FA7",
"i. c #FF25A9",
"p. c #FF2BAD",
"a. c #FF20A7",
"s. c #F735A9",
"d. c #FE3DB4",
"f. c #FF37B1",
"g. c #E83FA4",
"h. c #9D5282",
"j. c #945E84",
"k. c #A65888",
"l. c #AB5F92",
"z. c #AA4785",
"x. c #936787",
"c. c #9D6790",
"v. c #8F7C91",
"b. c #8C6382",
"n. c #A36B95",
"m. c #B5689A",
"M. c #A7749C",
"N. c #AF76A0",
"B. c #B579A6",
"V. c #D54D9E",
"C. c #C34D90",
"Z. c #C96797",
"A. c #C4729A",
"S. c #FF7584",
"D. c #DF4EA8",
"F. c #E745A7",
"G. c #F642AD",
"H. c #FA47B5",
"J. c #EC5AB6",
"K. c #F150B3",
"L. c #F35ABC",
"P. c #C368A2",
"I. c #D669AB",
"U. c #C478AE",
"Y. c #C979A8",
"T. c #D572B5",
"R. c #EB6BBD",
"E. c #E767B9",
"W. c #FA5AC0",
"Q. c #E57AC2",
"!. c #EC76C3",
"~. c #F173C6",
"^. c #8D8C8E",
"/. c #958FA0",
"(. c #B487AB",
"). c #B888A9",
"_. c #BD85B1",
"`. c #A99FB4",
"'. c #BF94B2",
"]. c #BBAAB7",
"[. c #FE988E",
"{. c #FEB094",
"}. c #C385A3",
"|. c #C988BA",
" X c #D688BC",
".X c #DB9FBD",
"XX c #CA97B0",
"oX c #CCA8BA",
"OX c #C5A3B6",
"+X c #FDE1A1",
"@X c #DD86C4",
"#X c #DA97C8",
"$X c #E388C7",
"%X c #E795CD",
"&X c #EA8FD0",
"*X c #CDA2CC",
"=X c #D2ABCB",
"-X c #D7A9D1",
";X c #DAB8D7",
":X c #D3BAC7",
">X c #E8B8D8",
",X c #E2A6CE",
"<X c #D1C0C9",
"1X c #DAC9D6",
"2X c #D0CCD3",
"3X c #D4D7E0",
"4X c #D2E4E3",
"5X c #E1F0EB",
"6X c None",
/* pixels */
"6X6X6X6X6X6X6X6X6X6X6X6X6X6X6X6X6X6X6X6X6X6X6X6X6X6X6X6X6X6X6X6X6X6X6X6X6X6X6X6X6X6X6X6X6X6X6X6X6X6X",
"6X6X6X6X6X6X6X6X6X6X6X6X6X6X6X6X6X6X6X6X6X6X6X6X6X6X6X6X6X6X6X6X6X6X6X6X6X6X6X6X6X6X6X6X6X6X6X6X6X6X",
"6X6X6X6X6X6X6X6X6X6X6X6X6X6X6X6X6X6X6X6X6X6X6X6X6X6X6X6X6X6X6X6X6X6X6X6X6X6X6X6X6X6X6X6X6X6X6X6X6X6X",
"6X6X6X6X6X6X6X6X6X6X6X6X6X6X6X6X6X6X6X6X6X6X6X6X6X6X6X6X6X6X6X6X6X6X6X6X6X6X6X6X6X6X6X6X6X6X6X6X6X6X",
"6X6X6X6X6X6X6X6X6X6X6X6X6X6X6X6X6X6X6X6X6X6X6X6X6X6X6X6X6X6X6X6X6X6X6X6X6X6X6X6X6X6X6X6X6X6X6X6X6X6X",
"6X6X6X6X6X6X6X6X6X6X6X6X6X6X6X6X6X6X6X6X6X6X6X6X6X6X6X6X6X6X6X6X6X6X6X6X6X6X6X6X6X6X6X6X6X6X6X6X6X6X",
"6X6X6X6X6X6X6X6X6X6X6X6X6X6X6X6X6X6X6X6X6X6X6X6X6X6X6X6X6X6X6X6X6X6X6X6X6X6X6X6X6X6X6X6X6X6X6X6X6X6X",
"6X6X6X6X6X6X6X6X6X6X6X6X6X6X6X6X6X6X6X6X6X6X6X6X6X6X6X6X6X6X6X6X6X6X6X6X6X6X6X6X6X6X6X6X6X6X6X6X6X6X",
"6X6X6X6X6X6X6X6X6X6X6X6X6X6X6X6X6X6X6X6X6X6X6X6X6X6X6X6X6X6X6X6X6X6X6X6X6X6X6X6X6X6X6X6X6X6X6X6X6X6X",
"6X6X6X6X6X6X6X6X6X6X6X6X6X6X6X6X6X6X6X6X6X6X6X6X6X6X6X6X6X6X6X6X6X6X6X6X6X6X6X6X6X6X6X6X6X6X6X6X6X6X",
"6X6X6X6X6X6X6X6X6X6X6X6X6X6X6X6X6X6X6X6X6X6X6X6X6X6X6X6X6X6X6X6X6X6X6X6X6X6X6X6X6X6X6X6X6X6X6X6X6X6X",
"6X6X6X6X6X6X6X6X6X6X6X6X6X6X6X6X6X6X6X6X6X6X6X6X6X6X6X6X6X6X6X6X6X6X6X6X6X6X6X6X6X6X6X6X6X6X6X6X6X6X",
"6X6X6X6X6X6X6X6X6X6X6X6X6X6X6X6X6X6X6X6X6X6X6X6X6X6X6X6X6X6X6X6X6X6X6X6X6X6X6X6X6X6X6X6X6X6X6X6X6X6X",
"6X6X6X6X6X6X6X6X6X6X6X6X6X6X6X6X6X6X6X6X6X6X6X6X6X6X6X6X6X6X6X6X6X6X6X6X6X6X6X6X6X6X6X6X6X6X6X6X6X6X",
"6X6X6X6X6X6X6X6X6X6X6X6X6Xr | { v p 6X6X6X6X6X6X6X6X6X6X6X6X6X6X6X6X6X6X6X6X6X6X6X6X6X6X6X6X6X6X6X6X",
"6X6X6X6X6X6X6X6X6X6X6X& ` =.0.s.E.z.n 6X6X6X6X6X6X6X6X6X6X6X6X6X6X6X6X6X6X6X6X6X6X6X6X6X6X6X6X6X6X6X",
"6X6X6X6X6X6X6X6X6X6Xe  .D.g.J.-X;X@X<.t 6X6X6X6X6X6X6X6X6X6X6X6X6X6X6X6X6X6X6X6X6X6X6X6X6X6X6X6X6X6X",
"6X6X6X6X6X6X6X6XO e v N.-X|.@X3X3X%XD.@.h.n 6X6X6X6X6X6X6X6X= 6X6X6X6X6X6X6X6X6X6X6X6X6X6X6X6X6X6X6X",
"6X6X6X6X6X6X6X& h z v 2./.S F #X%XJ.H.d.Q._.9.v M 7 X d d i x X.a i     6X6X6X6X6X6X6X6X6X6X6X6X6X6X",
"6X6X6X6X6X6X6X  k k , 8 2 2 4 c.E.i.i.f.W.@XQ.K.Q.N.F k.C.#.}.1X+.( w 6X6X6X6X6X6X6X6X6X6X6X6X6X6X6X",
"6X6X6X6X6X6X6X6XO   6X6X6X# 4 8 U.s.u.p.K.Q.#X&X|.c.4.R.t.Z.<X5X>X( * 6X6X6X6X6X6X6X6X6X6X6X6X6X6X6X",
"6X6X6X6X6X6X6X6X6X6X6X6X6X6X2 b (.Q.p.J.N.K n.M.<.R _ -.Z.oX<X2X1X4.6X6X6X6X6X6X6X6X6X6X6X6X6X6X6X6X",
"6X6X6X6X6X6X6X6X6X6X6X6X6X6Xj r.#X#XU.b.8 g D N B }. XV.oXoX}.A.X.a 6X6X6X6X6X6X6X6X6X6X6X6X6X6X6X6X",
"6X6X6X6X6X6X6X6X6X6X6X6X6X6Xh -.g.*XJ 8 H 2.o.X..X%X!.R.I.>.,.C.p   6X6X6X6X6X6X6X6X6X6X6X6X6X6X6X6X",
"6X6X6X6X6X6X6X6X6X6X6X6X6X+ - :.q.R.^.P (..X+.$.A.~.R.%X>.,.$Xk.n 6X6X6X6X6X6X6X6X6X6X6X6X6X6X6X6X6X",
"6X6X6X6X6X6X6X6X6X6X~ %.0 O < y _ 9.J ^.,X:X).s <.I.>XXX_ X.5.d 6X6X6X6X6X6X6X6X6X6X6X6X6X6X6X6X6X6X",
"6X6X6X6X6X6X6X6X6X6X&.T q 0 % 6Xu t : 8 m.I ^.P c A.k./ G x.x.X 6X6X6X6X6X6X6X6X6X6X6X6X6X6X6X6X6X6X",
"6X6X6X6X6X6X6X6X6X[.8.W T Y 6X6X6XX 5 B @.s I OX+._ c 1.N.&Xh.6X6X6X6X6X6X6X6X6X6X6X6X6X6X6X6X6X6X6X",
"6X6X6X6X6X6X6X6X6X{.S.6.! ~ 6X6X6X@ 9 O.w.X.#X,X}.J F B.&XL.o.6X6X6X6X6X6X6X6X6X6X6X6X6X6X6X6X6X6X6X",
"6X6X6X6X6X6X6X6X6X6X6X6X6X6X6X6X6X@ 5 m f 8 ].'.x.b b B.#XL.) 6X6X6X6X6X6X6X6X6X6X6X6X6X6X6X6X6X6X6X",
"6X6X6X6X6X6X6X6X6X6X6X6X6X6X6X6X6X6X@ # ; 5 L P 8 Z n.T.Q.@X7 6X6X6X6X6X6X6X6X6X6X6X6X6X6X6X6X6X6X6X",
"6X6X6X6X6X6X6X6X6X6X6X6X6X6X6X6X6X6X6X6X1 o.N.L 2.P.F.d.L.$X1.6X6X6X6X6X6X6X6X6X6X6X6X6X6X6X6X6X6X6X",
"6X6X6X6X6X6X6X6X6X6X6X6X6X6X6X6X6X6X6X6Xt @.H.*X|.G.i.p.d.F.j 6X6X6X6X6X6X6X6X6X6X6X6X6X6X6X6X6X6X6X",
"6X6X6X6X6X6X6X6X6X6X6X6X6X6X6X6X6X6X6X6X2 } q.E.*XQ.u.i.f.r.x 6X6X6X6X6X6X6X6X6X6X6X6X6X6X6X6X6X6X6X",
"6X6X6X6X6X6X6X6X6X6X6X6X6X6X6X6X6X*.R * > u | s.B.N.J.f.!.Q.C s 6X6X6X6X6X6X6X6X6X6X6X6X6X6X6X6X6X6X",
"6X6X6X6X6X6X6X6X6X6X6X6X6X6X6X6X^ Q R = % + j ' 4 8 U.@X;X;XT.x 6X6X6X6X6X6X6X6X6X6X6X6X6X6X6X6X6X6X",
"6X6X6X6X6X6X6X6X6X6X6X6X6X6X6X6X8.W U q q 6X6X6X2 4 H #X4X;X!.) 6X6X6X6X6X6X6X6X6X6X6X6X6X6X6X6X6X6X",
"6X6X6X6X6X6X6X6X6X6X6X6X6X6X6X{.S.6.W ! E 6X6X6XX 4 2 n.#X!.y.k 6X6X6X6X6X6X6X6X6X6X6X6X6X6X6X6X6X6X",
"6X6X6X6X6X6X6X6X6X6X6X6X6X6X6X+X[.6X6X6X6X6X6X6X6X3 L _.K.0.e.k 6X6X6X6X6X6X6X6X6X6X6X6X6X6X6X6X6X6X",
"6X6X6X6X6X6X6X6X6X6X6X6X6X6X6X6X6X6X6X6X6X6X6X6X6XA `.*XF.e.k 6X6X6X6X6X6X6X6X6X6X6X6X6X6X6X6X6X6X6X",
"6X6X6X6X6X6X6X6X6X6X6X6X6X6X6X6X6X6X6X6X6X6X6X6Xo V l.r.{ & 6X6X6X6X6X6X6X6X6X6X6X6X6X6X6X6X6X6X6X6X",
"6X6X6X6X6X6X6X6X6X6X6X6X6X6X6X6X6X6X6X6X6X6X6X1 z z ) r . 6X6X6X6X6X6X6X6X6X6X6X6X6X6X6X6X6X6X6X6X6X",
"6X6X6X6X6X6X6X6X6X6X6X6X6X6X6X6X6X6X6X6X6X6X6Xe z y o 6X6X6X6X6X6X6X6X6X6X6X6X6X6X6X6X6X6X6X6X6X6X6X",
"6X6X6X6X6X6X6X6X6X6X6X6X6X6X6X6X6X6X6X6X6X6X6X  < . 6X6X6X6X6X6X6X6X6X6X6X6X6X6X6X6X6X6X6X6X6X6X6X6X",
"6X6X6X6X6X6X6X6X6X6X6X6X6X6X6X6X6X6X6X6X6X6X6X  6X6X6X6X6X6X6X6X6X6X6X6X6X6X6X6X6X6X6X6X6X6X6X6X6X6X",
"6X6X6X6X6X6X6X6X6X6X6X6X6X6X6X6X6X6X6X6X6X6X6X6X6X6X6X6X6X6X6X6X6X6X6X6X6X6X6X6X6X6X6X6X6X6X6X6X6X6X",
"6X6X6X6X6X6X6X6X6X6X6X6X6X6X6X6X6X6X6X6X6X6X6X6X6X6X6X6X6X6X6X6X6X6X6X6X6X6X6X6X6X6X6X6X6X6X6X6X6X6X",
"6X6X6X6X6X6X6X6X6X6X6X6X6X6X6X6X6X6X6X6X6X6X6X6X6X6X6X6X6X6X6X6X6X6X6X6X6X6X6X6X6X6X6X6X6X6X6X6X6X6X",
"6X6X6X6X6X6X6X6X6X6X6X6X6X6X6X6X6X6X6X6X6X6X6X6X6X6X6X6X6X6X6X6X6X6X6X6X6X6X6X6X6X6X6X6X6X6X6X6X6X6X",
"6X6X6X6X6X6X6X6X6X6X6X6X6X6X6X6X6X6X6X6X6X6X6X6X6X6X6X6X6X6X6X6X6X6X6X6X6X6X6X6X6X6X6X6X6X6X6X6X6X6X"
};
