/* XPM */
static char * coracao_xpm[] = {
"50 40 71 1",
" 	c None",
".	c #141414",
"+	c #020101",
"@	c #931324",
"#	c #96061B",
"$	c #9A061B",
"%	c #93091D",
"&	c #8A0A1C",
"*	c #991F2F",
"=	c #AA071C",
"-	c #9B0A1E",
";	c #8F071A",
">	c #1B0406",
",	c #F20B31",
"'	c #FD012A",
")	c #990B22",
"!	c #DD0724",
"~	c #FD0127",
"{	c #C20923",
"]	c #F3092D",
"^	c #F60327",
"/	c #0B0104",
"(	c #DF072A",
"_	c #C30621",
":	c #BB0B23",
"<	c #BB0E29",
"[	c #F2A0AD",
"}	c #F49AAA",
"|	c #EE667E",
"1	c #B80721",
"2	c #AB0921",
"3	c #EB0526",
"4	c #DC0929",
"5	c #ED1133",
"6	c #FAFAFA",
"7	c #F4ACB9",
"8	c #F11133",
"9	c #FCF3F5",
"0	c #120304",
"a	c #CC0A24",
"b	c #F6D7DB",
"c	c #F4062A",
"d	c #EF072C",
"e	c #FAEEEE",
"f	c #F9DCDC",
"g	c #F2D4D7",
"h	c #DE0824",
"i	c #960D21",
"j	c #C6192B",
"k	c #D60E2B",
"l	c #E1082B",
"m	c #2C060A",
"n	c #BC132D",
"o	c #200307",
"p	c #BA061F",
"q	c #340E11",
"r	c #D70C27",
"s	c #A4071A",
"t	c #6B0715",
"u	c #EF0E32",
"v	c #7A0A17",
"w	c #7B0818",
"x	c #760C1B",
"y	c #761726",
"z	c #390F14",
"A	c #0D0D0D",
"B	c #480C13",
"C	c #4E0710",
"D	c #821524",
"E	c #440F14",
"F	c #55141F",
"                                                  ",
"                                                  ",
"                                                  ",
"                                                  ",
"                                                  ",
"                                                  ",
"                                                  ",
"            .+++++++          +++++++             ",
"            .+++++++          +++++++             ",
"            @###$$%&         *=-#$##;             ",
"          +>,''''''')++    ++!''''''~{++          ",
"          +>]''''''^-++    +/('''''''_++          ",
"          :<[[[}}|''!12    11^''''''~311          ",
"       +/4'5666667'''''&++{'''''''''~''~-++       ",
"       +/('8966667''''~%00a''''''''''''~-++       ",
"       +0('896b58]''''^cd]^''''''''''''~-++       ",
"       +04',e6bc'''''''''''''''''''''''')++       ",
"       +/4']feg''''''''''''''''''''''''')++       ",
"       +/4'',,,'''''''''''''''''''''''''%++       ",
"       +/h''''''''''''''''''''''''''''''i++       ",
"         jkl''''''''''''''''''''''''^dk4          ",
"          +mc''''''''''''''''''''''''n//          ",
"          +oc''''''''''''''''''''''~'<++          ",
"            npa''''''''''''''''''^c::             ",
"            .+qc~'''''''''''''''~~r/+             ",
"            .+q'~'''''''''''''''~~r++             ",
"               )):''''''''''''''=s                ",
"               ++t'''''''''''''u0+                ",
"               ++t'''^'''''''''50+                ",
"                  vw{~''''''c)xy                  ",
"                  ++&~'''''''z+A                  ",
"                  ++&'''~'''cz+A                  ",
"                     BC1'~DEE                     ",
"                     ++%'cF++                     ",
"                     ++%c'F++                     ",
"                        mm                        ",
"                        ++                        ",
"                                                  ",
"                                                  ",
"                                                  "};
