/* XPM */
static char *trophy_11[] = {
/* columns rows colors chars-per-pixel */
"100 100 82 1 ",
"  c #E9AA05",
". c #E9AB05",
"X c #EAAC05",
"o c #EAAD05",
"O c #EBAF05",
"+ c #EBB005",
"@ c #ECB104",
"# c #ECB204",
"$ c #ECB404",
"% c #EDB704",
"& c #EEB704",
"* c #EFBC03",
"= c #EFBD03",
"- c #EEB804",
"; c #EEB904",
": c #EFBC04",
"> c #F0BD03",
", c #F0BE03",
"< c #F0BF03",
"1 c #F1BF03",
"2 c #F1C103",
"3 c #F1C203",
"4 c #F2C203",
"5 c #F2C403",
"6 c #F3C403",
"7 c #F2C503",
"8 c #F3C703",
"9 c #F3C803",
"0 c #F4C802",
"q c #F4C902",
"w c #F4CA02",
"e c #F5CA02",
"r c #F5CD02",
"t c #F6CC02",
"y c #F6CD02",
"u c #F6CE02",
"i c #F6CF02",
"p c #F6D002",
"a c #F7D202",
"s c #F8D301",
"d c #F8D302",
"f c #F8D501",
"g c #F9D501",
"h c #F8D601",
"j c #F9D601",
"k c #F9D801",
"l c #FAD801",
"z c #FAD901",
"x c #FADA01",
"c c #FBDA01",
"v c #FADB01",
"b c #FBDB01",
"n c #FBDD00",
"m c #FADC01",
"M c #FBDC01",
"N c #FBDD01",
"B c #FBDE01",
"V c #FBDF01",
"C c #FCDC01",
"Z c #FCDD01",
"A c #FCDF00",
"S c #FDDF00",
"D c #FCDE01",
"F c #FDDE01",
"G c #FCDF01",
"H c #FCE000",
"J c #FDE000",
"K c #FCE100",
"L c #FDE100",
"P c #FCE001",
"I c #FEE100",
"U c #FCE200",
"Y c #FDE200",
"T c #FDE300",
"R c #FEE300",
"E c #FDE400",
"W c #FEE400",
"Q c #FFE400",
"! c #FEE500",
"~ c #FFE500",
"^ c #FEE600",
"/ c None",
/* pixels */
"////////////////////////////////////////////////////////////////////////////////////////////////////",
"////////////////////////////////////////////////////////////////////////////////////////////////////",
"////////////////////////////////////////////////////////////////////////////////////////////////////",
"////////////////////////////////////////////////////////////////////////////////////////////////////",
"////////////////////////////////////////////////////////////////////////////////////////////////////",
"////////////////////////////////////////////////////////////////////////////////////////////////////",
"////////////////////////////////////////////////////////////////////////////////////////////////////",
"////////////////////////////////////////////////////////////////////////////////////////////////////",
"////////////////////////////////////////////////////////////////////////////////////////////////////",
"////////////////////////////////////////////////////////////////////////////////////////////////////",
"////////////////////////////////////////////////////////////////////////////////////////////////////",
"////////////////////////////////////////////////////////////////////////////////////////////////////",
"////////////////////////////////////////////////////////////////////////////////////////////////////",
"////////////////////////////////////////////////////////////////////////////////////////////////////",
"////////////////////////////////////////////////////////////////////////////////////////////////////",
"////////////////////////////////////////////////////////////////////////////////////////////////////",
"////////////////////////////////////////////////////////////////////////////////////////////////////",
"////////////////////////////////////////////////////////////////////////////////////////////////////",
"////////////////////////////////////////////////////////////////////////////////////////////////////",
"/////////////////////////////        #//////////////////////////////////////////////////////////////",
"/////////////////////////////        -^^^^EKPHBAz///////////////////////////////////////////////////",
"/////////////////////////////        ,^^^^^^^^^^^^^!EYPBBmv/////////////////////////////////////////",
"/////////////////////////////        5^^^^^^^^^^^^^^^^^^^^^j        ////////////////////////////////",
"////////////////////////////    //// q^^^^^^^^^^^^^^^^^^^^^p         ///////////////////////////////",
"////////////////////////////    //// i^^^^^^^^^^^^^^^^^^^^^w         ///////////////////////////////",
"////////////////////////////    //// f^^^^^^^^^^^^^^^^^^^^^7         ///////////////////////////////",
"////////////////////////////    ////.x^^^^^^^^^^^^^^^^^^^^^< ////   ////////////////////////////////",
"////////////////////////////    /// XV^^^^^^^^^^^^^^^^^^^^^; ////   ////////////////////////////////",
"////////////////////////////    /// OY^^^^^^^^^^^^^^^^^^^^!$ ////   ////////////////////////////////",
"////////////////////////////   //// #W^^^^^^^^^^^^^^^^^^^^E+ ///    ////////////////////////////////",
"////////////////////////////   //// &!^^^^^^^^^^^^^^^^^^^^Ho ///    ////////////////////////////////",
"////////////////////////////   //// *^^^^^^^^^^^^^^^^^^^^^N. ///    ////////////////////////////////",
"////////////////////////////   //// 3^^^^^^^^^^^^^^^^^^^^^k ////    ////////////////////////////////",
"////////////////////////////   //// 9^^^^^^^^^^^^^^^^^^^^^a ////    ////////////////////////////////",
"///////////////////////////////     y^^^^^^^^^^^^^^^^^^^^^r ////    ////////////////////////////////",
"///////////////////////////////     d^^^^^^^^^^^^^^^^^^^^^8 ////    ////////////////////////////////",
"///////////////////////////////    .k^^^^^^^^^^^^^^^^^^^^^2  ///   /////////////////////////////////",
"///////////////////////////////    XN^^^^^^^^^^^^^^^^^^^^^:        /////////////////////////////////",
"/////////////////////////////////////V!^^^^^^^^^^^^^^^^^^!%     ////////////////////////////////////",
"//////////////////////////////////////^^^^^^^^^^^^^^^^^^^T#     ////////////////////////////////////",
"//////////////////////////////////////^^^^^^^^^^^^^^^^^^N//     ////////////////////////////////////",
"//////////////////////////////////////WE!^^^^^^^^^^^^^^!////////////////////////////////////////////",
"/////////////////////////////////////////G^^^^^^^^^^^^^E////////////////////////////////////////////",
"/////////////////////////////////////////H^^^^^^^^^^G/Nn////////////////////////////////////////////",
"/////////////////////////////////////////U^^^^^^^^^^k///////////////////////////////////////////////",
"/////////////////////////////////////////HW!^^^^^^^!////////////////////////////////////////////////",
"////////////////////////////////////////////=>40hUUY////////////////////////////////////////////////",
"////////////////////////////////////////////    ////////////////////////////////////////////////////",
"////////////////////////////////////////////    ////////////////////////////////////////////////////",
"////////////////////////////////////////////te61////////////////////////////////////////////////////",
"////////////////////////////////////////////J~~I////////////////////////////////////////////////////",
"////////////////////////////////////////////I~~S////////////////////////////////////////////////////",
"////////////////////////////////////////////R~~F////////////////////////////////////////////////////",
"////////////////////////////////////////////Q~~C////////////////////////////////////////////////////",
"////////////////////////////////////////////~~~C////////////////////////////////////////////////////",
"///////////////////////////////////////////l~~~c////////////////////////////////////////////////////",
"////////////////////////////////////////Dz/M~~~l////////////////////////////////////////////////////",
"///////////////////////////////////////M~~~~~~~RIJc/////////////////////////////////////////////////",
"///////////////////////////////////////b~~~~~~~~~~Z/////////////////////////////////////////////////",
"///////////////////////////////////////lR~~~~~~~~~Z/////////////////////////////////////////////////",
"///////////////////////////////////    .o@&>40uszZg/////////////////////////////////////////////////",
"///////////////////////////////////             .X.   //////////////////////////////////////////////",
"///////////////////////////////////                   //////////////////////////////////////////////",
"///////////////////////////////////                   //////////////////////////////////////////////",
"///////////////////////////////////////////           //////////////////////////////////////////////",
"////////////////////////////////////////////////////////////////////////////////////////////////////",
"////////////////////////////////////////////////////////////////////////////////////////////////////",
"////////////////////////////////////////////////////////////////////////////////////////////////////",
"////////////////////////////////////////////////////////////////////////////////////////////////////",
"////////////////////////////////////////////////////////////////////////////////////////////////////",
"////////////////////////////////////////////////////////////////////////////////////////////////////",
"////////////////////////////////////////////////////////////////////////////////////////////////////",
"////////////////////////////////////////////////////////////////////////////////////////////////////",
"////////////////////////////////////////////////////////////////////////////////////////////////////",
"////////////////////////////////////////////////////////////////////////////////////////////////////",
"////////////////////////////////////////////////////////////////////////////////////////////////////",
"////////////////////////////////////////////////////////////////////////////////////////////////////",
"////////////////////////////////////////////////////////////////////////////////////////////////////",
"////////////////////////////////////////////////////////////////////////////////////////////////////",
"////////////////////////////////////////////////////////////////////////////////////////////////////",
"////////////////////////////////////////////////////////////////////////////////////////////////////",
"////////////////////////////////////////////////////////////////////////////////////////////////////",
"////////////////////////////////////////////////////////////////////////////////////////////////////",
"////////////////////////////////////////////////////////////////////////////////////////////////////",
"////////////////////////////////////////////////////////////////////////////////////////////////////",
"////////////////////////////////////////////////////////////////////////////////////////////////////",
"////////////////////////////////////////////////////////////////////////////////////////////////////",
"////////////////////////////////////////////////////////////////////////////////////////////////////",
"////////////////////////////////////////////////////////////////////////////////////////////////////",
"////////////////////////////////////////////////////////////////////////////////////////////////////",
"////////////////////////////////////////////////////////////////////////////////////////////////////",
"////////////////////////////////////////////////////////////////////////////////////////////////////",
"////////////////////////////////////////////////////////////////////////////////////////////////////",
"////////////////////////////////////////////////////////////////////////////////////////////////////",
"////////////////////////////////////////////////////////////////////////////////////////////////////",
"////////////////////////////////////////////////////////////////////////////////////////////////////",
"////////////////////////////////////////////////////////////////////////////////////////////////////",
"////////////////////////////////////////////////////////////////////////////////////////////////////",
"////////////////////////////////////////////////////////////////////////////////////////////////////",
"////////////////////////////////////////////////////////////////////////////////////////////////////"
};
