/* XPM */
static char *trophy_52[] = {
/* columns rows colors chars-per-pixel */
"100 100 72 1 ",
"  c #E9AA05",
". c #E9AB05",
"X c #EAAB05",
"o c #EAAC05",
"O c #EAAD05",
"+ c #EAAE05",
"@ c #EBAF05",
"# c #EBB004",
"$ c #ECB204",
"% c #ECB404",
"& c #EDB504",
"* c #EEB604",
"= c #EEB704",
"- c #EEB904",
"; c #EFBA04",
": c #EFBB04",
"> c #EFBC04",
", c #F0BE03",
"< c #F1BF03",
"1 c #F1C003",
"2 c #F1C203",
"3 c #F2C303",
"4 c #F2C403",
"5 c #F3C503",
"6 c #F3C703",
"7 c #F4C902",
"8 c #F4C903",
"9 c #F4CA02",
"0 c #F5CB02",
"q c #F5CD02",
"w c #F6CE02",
"e c #F6D002",
"r c #F7D102",
"t c #F7D402",
"y c #F8D301",
"u c #F8D401",
"i c #F9D501",
"p c #F9D701",
"a c #F9D801",
"s c #FAD801",
"d c #FAD901",
"f c #FBD901",
"g c #FADA01",
"h c #FADB01",
"j c #FBDB01",
"k c #FADC01",
"l c #FBDC01",
"z c #FBDD01",
"x c #FBDE01",
"c c #FBDF01",
"v c #FCDC01",
"b c #FCDD01",
"n c #FCDE00",
"m c #FCDF00",
"M c #FDDF00",
"N c #FCDE01",
"B c #FCDF01",
"V c #FCE000",
"C c #FDE000",
"Z c #FCE100",
"A c #FCE001",
"S c #FEE100",
"D c #FDE200",
"F c #FDE300",
"G c #FEE200",
"H c #FDE400",
"J c #FEE400",
"K c #FFE400",
"L c #FEE500",
"P c #FFE500",
"I c #FEE600",
"U c None",
/* pixels */
"UUUUUUUUUUUUUUUUUUUUUUUUUUUUUUUUUUUUUUUUUUUUUUUUUUUUUUUUUUUUUUUUUUUUUUUUUUUUUUUUUUUUUUUUUUUUUUUUUUUU",
"UUUUUUUUUUUUUUUUUUUUUUUUUUUUUUUUUUUUUUUUUUUUUUUUUUUUUUUUUUUUUUUUUUUUUUUUUUUUUUUUUUUUUUUUUUUUUUUUUUUU",
"UUUUUUUUUUUUUUUUUUUUUUUUUUUUUUUUUUUUUUUUUUUUUUUUUUUUUUUUUUUUUUUUUUUUUUUUUUUUUUUUUUUUUUUUUUUUUUUUUUUU",
"UUUUUUUUUUUUUUUUUUUUUUUUUUUUUUUUUUUUUUUUUUUUUUUUUUUUUUUUUUUUUUUUUUUUUUUUUUUUUUUUUUUUUUUUUUUUUUUUUUUU",
"UUUUUUUUUUUUUUUUUUUUUUUUUUUUUUUUUUUUUUUUUUUUUUUUUUUUUUUUUUUUUUUUUUUUUUUUUUUUUUUUUUUUUUUUUUUUUUUUUUUU",
"UUUUUUUUUUUUUUUUUUUUUUUUUUUUUUUUUUUUUUUUUUUUUUUUUUUUUUUUUUUUUUUUUUUUUUUUUUUUUUUUUUUUUUUUUUUUUUUUUUUU",
"UUUUUUUUUUUUUUUUUUUUUUUUUUUUUUUUUUUUUUUUUUUUUUUUUUUUUUUUUUUUUUUUUUUUUUUUUUUUUUUUUUUUUUUUUUUUUUUUUUUU",
"UUUUUUUUUUUUUUUUUUUUUUUUUUUUUUUUUUUUUUUUUUUUUUUUUUUUUUUUUUUUUUUUUUUUUUUUUUUUUUUUUUUUUUUUUUUUUUUUUUUU",
"UUUUUUUUUUUUUUUUUUUUUUUUUUUUUUUUUUUUUUUUUUUUUUUUUUUUUUUUUUUUUUUUUUUUUUUUUUUUUUUUUUUUUUUUUUUUUUUUUUUU",
"UUUUUUUUUUUUUUUUUUUUUUUUUUUUUUUUUUUUUUUUUUUUUUUUUUUUUUUUUUUUUUUUUUUUUUUUUUUUUUUUUUUUUUUUUUUUUUUUUUUU",
"UUUUUUUUUUUUUUUUUUUUUUUUUUUUUUUUUUUUUUUUUUUUUUUUUUUUUUUUUUUUUUUUUUUUUUUUUUUUUUUUUUUUUUUUUUUUUUUUUUUU",
"UUUUUUUUUUUUUUUUUUUUUUUUUUUUUUUUUUUUUUUUUUUUUUUUUUUUUUUUUUUUUUUUUUUUUUUUUUUUUUUUUUUUUUUUUUUUUUUUUUUU",
"UUUUUUUUUUUUUUUUUUUUUUUUUUUUUUUUUUUUUUUUUUUUUUUUUUUUUUUUUUUUUUUUUUUUUUUUUUUUUUUUUUUUUUUUUUUUUUUUUUUU",
"UUUUUUUUUUUUUUUUUUUUUUUUUUUUUUUUUUUUUUUUUUUUUUUUUUUUUUUUUUUUUUUUUUUUUUUUUUUUUUUUUUUUUUUUUUUUUUUUUUUU",
"UUUUUUUUUUUUUUUUUUUUUUUUUUUUUUUUUUUUUUUUUUUUUUUUUUUUUUUUUUUUUUUUUUUUUUUUUUUUUUUUUUUUUUUUUUUUUUUUUUUU",
"UUUUUUUUUUUUUUUUUUUUUUUUUUUUUUUUUUUUUUUUUUUUUUUUUUUUUUUUUUUUUUUUUUUUUUUUUUUUUUUUUUUUUUUUUUUUUUUUUUUU",
"UUUUUUUUUUUUUUUUUUUUUUUUUUUUUUUUUUUUUUUUUUUUUUUUUUUUUUUUUUUUUUUUUUUUUUUUUUUUUUUUUUUUUUUUUUUUUUUUUUUU",
"UUUUUUUUUUUUUUUUUUUUUUUUUUUUUUUUUUUUUUUUUUUUUUUUUUUUUUUUUUUUUUUUUUUUUUUUUUUUUUUUUUUUUUUUUUUUUUUUUUUU",
"UUUUUUUUUUUUUUUUUUUUUUUUUUUUUUUUUUUUUUUUUUUUUUUUUUUUUUUUUUUUUUUUUUUUUUUUUUUUUUUUUUUUUUUUUUUUUUUUUUUU",
"UUUUUUUUUUUUUUUUUUUUUUUUUUUUUUUUUUUUUUUUUUUUUUUUUUUUUUUUUUUUUUUUUUUUUUUUUUUUUUUUUUUUUUUUUUUUUUUUUUUU",
"UUUUUUUUUUUUUUUUUUUUUUUUUUU  UUUUUUUUUUUUUUUUUUUUUUUUUUUUUUUUUUUUUUUUUUUUUUUUUUUUUUUUUUUUUUUUUUUUUUU",
"UUUUUUUUUUUUUUUUUUUUUUUUUU        UUUUUUUUUUUUUUUUUUUUUUUUUUUUUUUUUUUUUUUUUUUUUUUUUUUUUUUUUUUUUUUUUU",
"UUUUUUUUUUUUUUUUUUUUUUUUUU         hHDBlUUUUUUUUUUUUUUUUUUUUUUUUUUUUUUUUUUUUUUUUUUUUUUUUUUUUUUUUUUUU",
"UUUUUUUUUUUUUUUUUUUUUUUUUU        oFIIIIILFVzhUUUUUUUUUUUUUUUUUUUUUUUUUUUUUUUUUUUUUUUUUUUUUUUUUUUUUU",
"UUUUUUUUUUUUUUUUUUUUUUUUUU        %IIIIIIIIIIIILDBkdUUUUUUUUUUUUUUUUUUUUUUUUUUUUUUUUUUUUUUUUUUUUUUUU",
"UUUUUUUUUUUUUUUUUUUUUUUUUU   UUUU ,IIIIIIIIIIIIIIIIIIHVlgUUUUUUUUUUUUUUUUUUUUUUUUUUUUUUUUUUUUUUUUUUU",
"UUUUUUUUUUUUUUUUUUUUUUUUU    UUUU 7IIIIIIIIIIIIIIIIIIIIIx.     UUUUUUUUUUUUUUUUUUUUUUUUUUUUUUUUUUUUU",
"UUUUUUUUUUUUUUUUUUUUUUUUU    UUUU tIIIIIIIIIIIIIIIIIIIIIu         UUUUUUUUUUUUUUUUUUUUUUUUUUUUUUUUUU",
"UUUUUUUUUUUUUUUUUUUUUUUUU    UUU .zIIIIIIIIIIIIIIIIIIIII9         UUUUUUUUUUUUUUUUUUUUUUUUUUUUUUUUUU",
"UUUUUUUUUUUUUUUUUUUUUUUUU    UUU @HIIIIIIIIIIIIIIIIIIIII<        UUUUUUUUUUUUUUUUUUUUUUUUUUUUUUUUUUU",
"UUUUUUUUUUUUUUUUUUUUUUUUU   UUUU =IIIIIIIIIIIIIIIIIIIIII& UUUU   UUUUUUUUUUUUUUUUUUUUUUUUUUUUUUUUUUU",
"UUUUUUUUUUUUUUUUUUUUUUUUU   UUUU 2IIIIIIIIIIIIIIIIIIIIIFO UUU    UUUUUUUUUUUUUUUUUUUUUUUUUUUUUUUUUUU",
"UUUUUUUUUUUUUUUUUUUUUUUU    UUUU qIIIIIIIIIIIIIIIIIIIIIh. UUU    UUUUUUUUUUUUUUUUUUUUUUUUUUUUUUUUUUU",
"UUUUUUUUUUUUUUUUUUUUUUUU    UUUU pIIIIIIIIIIIIIIIIIIIIIr UUUU    UUUUUUUUUUUUUUUUUUUUUUUUUUUUUUUUUUU",
"UUUUUUUUUUUUUUUUUUUUUUUU    UUU oAIIIIIIIIIIIIIIIIIIIII6 UUUU    UUUUUUUUUUUUUUUUUUUUUUUUUUUUUUUUUUU",
"UUUUUUUUUUUUUUUUUUUUUUUUU    UU $HIIIIIIIIIIIIIIIIIIIII> UUUU   UUUUUUUUUUUUUUUUUUUUUUUUUUUUUUUUUUUU",
"UUUUUUUUUUUUUUUUUUUUUUUUUUU     :IIIIIIIIIIIIIIIIIIIIIL$ UUUU   UUUUUUUUUUUUUUUUUUUUUUUUUUUUUUUUUUUU",
"UUUUUUUUUUUUUUUUUUUUUUUUUUU     5IIIIIIIIIIIIIIIIIIIIIZo UUU    UUUUUUUUUUUUUUUUUUUUUUUUUUUUUUUUUUUU",
"UUUUUUUUUUUUUUUUUUUUUUUUUUU     eIIIIIIIIIIIIIIIIIIIIIa UUUU    UUUUUUUUUUUUUUUUUUUUUUUUUUUUUUUUUUUU",
"UUUUUUUUUUUUUUUUUUUUUUUUUUUU   .gIIIIIIIIIIIIIIIIIIIIIw UUUU    UUUUUUUUUUUUUUUUUUUUUUUUUUUUUUUUUUUU",
"UUUUUUUUUUUUUUUUUUUUUUUUUUUUUUUUUBIIIIIIIIIIIIIIIIIIII3   UU    UUUUUUUUUUUUUUUUUUUUUUUUUUUUUUUUUUUU",
"UUUUUUUUUUUUUUUUUUUUUUUUUUUUUUUUUUIIIIIIIIIIIIIIIIIIII-        UUUUUUUUUUUUUUUUUUUUUUUUUUUUUUUUUUUUU",
"UUUUUUUUUUUUUUUUUUUUUUUUUUUUUUUUUxIIIIIIIIIIIIIIIIIIIH#     UUUUUUUUUUUUUUUUUUUUUUUUUUUUUUUUUUUUUUUU",
"UUUUUUUUUUUUUUUUUUUUUUUUUUUUUUUUUzHIIIIIIIIIIIIIIIIIDkX     UUUUUUUUUUUUUUUUUUUUUUUUUUUUUUUUUUUUUUUU",
"UUUUUUUUUUUUUUUUUUUUUUUUUUUUUUUUUUUUzLIIIIIIIIIIIIIFUUUU   UUUUUUUUUUUUUUUUUUUUUUUUUUUUUUUUUUUUUUUUU",
"UUUUUUUUUUUUUUUUUUUUUUUUUUUUUUUUUUUUULIIIIIIIIIIIIIZUUUUUUUUUUUUUUUUUUUUUUUUUUUUUUUUUUUUUUUUUUUUUUUU",
"UUUUUUUUUUUUUUUUUUUUUUUUUUUUUUUUUUUUUIIIIIIIIIILzxZlUUUUUUUUUUUUUUUUUUUUUUUUUUUUUUUUUUUUUUUUUUUUUUUU",
"UUUUUUUUUUUUUUUUUUUUUUUUUUUUUUUUUUUUxIIIIIIIIIIZUUUUUUUUUUUUUUUUUUUUUUUUUUUUUUUUUUUUUUUUUUUUUUUUUUUU",
"UUUUUUUUUUUUUUUUUUUUUUUUUUUUUUUUUUUUUUmBcHIIIIIBUUUUUUUUUUUUUUUUUUUUUUUUUUUUUUUUUUUUUUUUUUUUUUUUUUUU",
"UUUUUUUUUUUUUUUUUUUUUUUUUUUUUUUUUUUUUUUUo$;8mVDlUUUUUUUUUUUUUUUUUUUUUUUUUUUUUUUUUUUUUUUUUUUUUUUUUUUU",
"UUUUUUUUUUUUUUUUUUUUUUUUUUUUUUUUUUUUUUUU    UUUUUUUUUUUUUUUUUUUUUUUUUUUUUUUUUUUUUUUUUUUUUUUUUUUUUUUU",
"UUUUUUUUUUUUUUUUUUUUUUUUUUUUUUUUUUUUUUU#O  UUUUUUUUUUUUUUUUUUUUUUUUUUUUUUUUUUUUUUUUUUUUUUUUUUUUUUUUU",
"UUUUUUUUUUUUUUUUUUUUUUUUUUUUUUUUUUUUUUUbNi0UUUUUUUUUUUUUUUUUUUUUUUUUUUUUUUUUUUUUUUUUUUUUUUUUUUUUUUUU",
"UUUUUUUUUUUUUUUUUUUUUUUUUUUUUUUUUUUUUUUSPPGUUUUUUUUUUUUUUUUUUUUUUUUUUUUUUUUUUUUUUUUUUUUUUUUUUUUUUUUU",
"UUUUUUUUUUUUUUUUUUUUUUUUUUUUUUUUUUUUUUUKPPCUUUUUUUUUUUUUUUUUUUUUUUUUUUUUUUUUUUUUUUUUUUUUUUUUUUUUUUUU",
"UUUUUUUUUUUUUUUUUUUUUUUUUUUUUUUUUUUUUUUPPPnUUUUUUUUUUUUUUUUUUUUUUUUUUUUUUUUUUUUUUUUUUUUUUUUUUUUUUUUU",
"UUUUUUUUUUUUUUUUUUUUUUUUUUUUUUUUUUUUUUjPPPvUUUUUUUUUUUUUUUUUUUUUUUUUUUUUUUUUUUUUUUUUUUUUUUUUUUUUUUUU",
"UUUUUUUUUUUUUUUUUUUUUUUUUUUUUUUUUUUUUUNPPPUUUUUUUUUUUUUUUUUUUUUUUUUUUUUUUUUUUUUUUUUUUUUUUUUUUUUUUUUU",
"UUUUUUUUUUUUUUUUUUUUUUUUUUUUUUUUUUUUUUCPPJUUUUUUUUUUUUUUUUUUUUUUUUUUUUUUUUUUUUUUUUUUUUUUUUUUUUUUUUUU",
"UUUUUUUUUUUUUUUUUUUUUUUUUUUUUUUUUUGKSMKPPSUUUUUUUUUUUUUUUUUUUUUUUUUUUUUUUUUUUUUUUUUUUUUUUUUUUUUUUUUU",
"UUUUUUUUUUUUUUUUUUUUUUUUUUUUUUUUUUKPPPPPPPKGNUUUUUUUUUUUUUUUUUUUUUUUUUUUUUUUUUUUUUUUUUUUUUUUUUUUUUUU",
"UUUUUUUUUUUUUUUUUUUUUUUUUUUUUU UUyKPPPPPPPPPKUUUUUUUUUUUUUUUUUUUUUUUUUUUUUUUUUUUUUUUUUUUUUUUUUUUUUUU",
"UUUUUUUUUUUUUUUUUUUUUUUUUUUUUU   +*10ibGKPPPGUUUUUUUUUUUUUUUUUUUUUUUUUUUUUUUUUUUUUUUUUUUUUUUUUUUUUUU",
"UUUUUUUUUUUUUUUUUUUUUUUUUUUUU         o$;4wsfUUUUUUUUUUUUUUUUUUUUUUUUUUUUUUUUUUUUUUUUUUUUUUUUUUUUUUU",
"UUUUUUUUUUUUUUUUUUUUUUUUUUUUU              .X   UUUUUUUUUUUUUUUUUUUUUUUUUUUUUUUUUUUUUUUUUUUUUUUUUUUU",
"UUUUUUUUUUUUUUUUUUUUUUUUUUUUU                   UUUUUUUUUUUUUUUUUUUUUUUUUUUUUUUUUUUUUUUUUUUUUUUUUUUU",
"UUUUUUUUUUUUUUUUUUUUUUUUUUUUUUUUUU              UUUUUUUUUUUUUUUUUUUUUUUUUUUUUUUUUUUUUUUUUUUUUUUUUUUU",
"UUUUUUUUUUUUUUUUUUUUUUUUUUUUUUUUUUUUUUUU        UUUUUUUUUUUUUUUUUUUUUUUUUUUUUUUUUUUUUUUUUUUUUUUUUUUU",
"UUUUUUUUUUUUUUUUUUUUUUUUUUUUUUUUUUUUUUUUUUUUUU  UUUUUUUUUUUUUUUUUUUUUUUUUUUUUUUUUUUUUUUUUUUUUUUUUUUU",
"UUUUUUUUUUUUUUUUUUUUUUUUUUUUUUUUUUUUUUUUUUUUUUUUUUUUUUUUUUUUUUUUUUUUUUUUUUUUUUUUUUUUUUUUUUUUUUUUUUUU",
"UUUUUUUUUUUUUUUUUUUUUUUUUUUUUUUUUUUUUUUUUUUUUUUUUUUUUUUUUUUUUUUUUUUUUUUUUUUUUUUUUUUUUUUUUUUUUUUUUUUU",
"UUUUUUUUUUUUUUUUUUUUUUUUUUUUUUUUUUUUUUUUUUUUUUUUUUUUUUUUUUUUUUUUUUUUUUUUUUUUUUUUUUUUUUUUUUUUUUUUUUUU",
"UUUUUUUUUUUUUUUUUUUUUUUUUUUUUUUUUUUUUUUUUUUUUUUUUUUUUUUUUUUUUUUUUUUUUUUUUUUUUUUUUUUUUUUUUUUUUUUUUUUU",
"UUUUUUUUUUUUUUUUUUUUUUUUUUUUUUUUUUUUUUUUUUUUUUUUUUUUUUUUUUUUUUUUUUUUUUUUUUUUUUUUUUUUUUUUUUUUUUUUUUUU",
"UUUUUUUUUUUUUUUUUUUUUUUUUUUUUUUUUUUUUUUUUUUUUUUUUUUUUUUUUUUUUUUUUUUUUUUUUUUUUUUUUUUUUUUUUUUUUUUUUUUU",
"UUUUUUUUUUUUUUUUUUUUUUUUUUUUUUUUUUUUUUUUUUUUUUUUUUUUUUUUUUUUUUUUUUUUUUUUUUUUUUUUUUUUUUUUUUUUUUUUUUUU",
"UUUUUUUUUUUUUUUUUUUUUUUUUUUUUUUUUUUUUUUUUUUUUUUUUUUUUUUUUUUUUUUUUUUUUUUUUUUUUUUUUUUUUUUUUUUUUUUUUUUU",
"UUUUUUUUUUUUUUUUUUUUUUUUUUUUUUUUUUUUUUUUUUUUUUUUUUUUUUUUUUUUUUUUUUUUUUUUUUUUUUUUUUUUUUUUUUUUUUUUUUUU",
"UUUUUUUUUUUUUUUUUUUUUUUUUUUUUUUUUUUUUUUUUUUUUUUUUUUUUUUUUUUUUUUUUUUUUUUUUUUUUUUUUUUUUUUUUUUUUUUUUUUU",
"UUUUUUUUUUUUUUUUUUUUUUUUUUUUUUUUUUUUUUUUUUUUUUUUUUUUUUUUUUUUUUUUUUUUUUUUUUUUUUUUUUUUUUUUUUUUUUUUUUUU",
"UUUUUUUUUUUUUUUUUUUUUUUUUUUUUUUUUUUUUUUUUUUUUUUUUUUUUUUUUUUUUUUUUUUUUUUUUUUUUUUUUUUUUUUUUUUUUUUUUUUU",
"UUUUUUUUUUUUUUUUUUUUUUUUUUUUUUUUUUUUUUUUUUUUUUUUUUUUUUUUUUUUUUUUUUUUUUUUUUUUUUUUUUUUUUUUUUUUUUUUUUUU",
"UUUUUUUUUUUUUUUUUUUUUUUUUUUUUUUUUUUUUUUUUUUUUUUUUUUUUUUUUUUUUUUUUUUUUUUUUUUUUUUUUUUUUUUUUUUUUUUUUUUU",
"UUUUUUUUUUUUUUUUUUUUUUUUUUUUUUUUUUUUUUUUUUUUUUUUUUUUUUUUUUUUUUUUUUUUUUUUUUUUUUUUUUUUUUUUUUUUUUUUUUUU",
"UUUUUUUUUUUUUUUUUUUUUUUUUUUUUUUUUUUUUUUUUUUUUUUUUUUUUUUUUUUUUUUUUUUUUUUUUUUUUUUUUUUUUUUUUUUUUUUUUUUU",
"UUUUUUUUUUUUUUUUUUUUUUUUUUUUUUUUUUUUUUUUUUUUUUUUUUUUUUUUUUUUUUUUUUUUUUUUUUUUUUUUUUUUUUUUUUUUUUUUUUUU",
"UUUUUUUUUUUUUUUUUUUUUUUUUUUUUUUUUUUUUUUUUUUUUUUUUUUUUUUUUUUUUUUUUUUUUUUUUUUUUUUUUUUUUUUUUUUUUUUUUUUU",
"UUUUUUUUUUUUUUUUUUUUUUUUUUUUUUUUUUUUUUUUUUUUUUUUUUUUUUUUUUUUUUUUUUUUUUUUUUUUUUUUUUUUUUUUUUUUUUUUUUUU",
"UUUUUUUUUUUUUUUUUUUUUUUUUUUUUUUUUUUUUUUUUUUUUUUUUUUUUUUUUUUUUUUUUUUUUUUUUUUUUUUUUUUUUUUUUUUUUUUUUUUU",
"UUUUUUUUUUUUUUUUUUUUUUUUUUUUUUUUUUUUUUUUUUUUUUUUUUUUUUUUUUUUUUUUUUUUUUUUUUUUUUUUUUUUUUUUUUUUUUUUUUUU",
"UUUUUUUUUUUUUUUUUUUUUUUUUUUUUUUUUUUUUUUUUUUUUUUUUUUUUUUUUUUUUUUUUUUUUUUUUUUUUUUUUUUUUUUUUUUUUUUUUUUU",
"UUUUUUUUUUUUUUUUUUUUUUUUUUUUUUUUUUUUUUUUUUUUUUUUUUUUUUUUUUUUUUUUUUUUUUUUUUUUUUUUUUUUUUUUUUUUUUUUUUUU",
"UUUUUUUUUUUUUUUUUUUUUUUUUUUUUUUUUUUUUUUUUUUUUUUUUUUUUUUUUUUUUUUUUUUUUUUUUUUUUUUUUUUUUUUUUUUUUUUUUUUU",
"UUUUUUUUUUUUUUUUUUUUUUUUUUUUUUUUUUUUUUUUUUUUUUUUUUUUUUUUUUUUUUUUUUUUUUUUUUUUUUUUUUUUUUUUUUUUUUUUUUUU",
"UUUUUUUUUUUUUUUUUUUUUUUUUUUUUUUUUUUUUUUUUUUUUUUUUUUUUUUUUUUUUUUUUUUUUUUUUUUUUUUUUUUUUUUUUUUUUUUUUUUU",
"UUUUUUUUUUUUUUUUUUUUUUUUUUUUUUUUUUUUUUUUUUUUUUUUUUUUUUUUUUUUUUUUUUUUUUUUUUUUUUUUUUUUUUUUUUUUUUUUUUUU",
"UUUUUUUUUUUUUUUUUUUUUUUUUUUUUUUUUUUUUUUUUUUUUUUUUUUUUUUUUUUUUUUUUUUUUUUUUUUUUUUUUUUUUUUUUUUUUUUUUUUU",
"UUUUUUUUUUUUUUUUUUUUUUUUUUUUUUUUUUUUUUUUUUUUUUUUUUUUUUUUUUUUUUUUUUUUUUUUUUUUUUUUUUUUUUUUUUUUUUUUUUUU",
"UUUUUUUUUUUUUUUUUUUUUUUUUUUUUUUUUUUUUUUUUUUUUUUUUUUUUUUUUUUUUUUUUUUUUUUUUUUUUUUUUUUUUUUUUUUUUUUUUUUU",
"UUUUUUUUUUUUUUUUUUUUUUUUUUUUUUUUUUUUUUUUUUUUUUUUUUUUUUUUUUUUUUUUUUUUUUUUUUUUUUUUUUUUUUUUUUUUUUUUUUUU"
};
