/* XPM */
static char *nave1___31[] = {
/* columns rows colors chars-per-pixel */
"50 50 176 2 ",
"   c #020100",
".  c #080807",
"X  c #0C0C0C",
"o  c #0B0616",
"O  c #160B18",
"+  c #091016",
"@  c #071019",
"#  c #0D101C",
"$  c #141414",
"%  c #191716",
"&  c #171718",
"*  c #181718",
"=  c #191A1B",
"-  c #2E0F1A",
";  c #231E1E",
":  c #29111C",
">  c #151A23",
",  c #1D2024",
"<  c #1D212B",
"1  c #212224",
"2  c #292424",
"3  c #242628",
"4  c #2A2B2E",
"5  c #25292B",
"6  c #352E2F",
"7  c #2C2F31",
"8  c #2C3032",
"9  c #313235",
"0  c #333539",
"q  c #393B3D",
"w  c #373637",
"e  c #480C16",
"r  c #570E17",
"t  c #4E121A",
"y  c #68171D",
"u  c #671319",
"i  c #7B1D18",
"p  c #3A3E41",
"a  c #3C4143",
"s  c #414344",
"d  c #424549",
"f  c #454A4D",
"g  c #484B4C",
"h  c #494D51",
"j  c #474C52",
"k  c #4C5255",
"l  c #495758",
"z  c #525255",
"x  c #545659",
"c  c #545C5E",
"v  c #5B5B5E",
"b  c #585253",
"n  c #5A5E63",
"m  c #575C61",
"M  c #556263",
"N  c #5A6165",
"B  c #5D6369",
"V  c #5C6B6C",
"C  c #5F7272",
"Z  c #626365",
"A  c #62666B",
"S  c #6B6769",
"D  c #64696C",
"F  c #696A6B",
"G  c #666E74",
"H  c #6D6E71",
"J  c #6D7177",
"K  c #617976",
"L  c #6D737A",
"P  c #697B7D",
"I  c #737476",
"U  c #777A7E",
"Y  c #992916",
"T  c #9C2727",
"R  c #B22723",
"E  c #B4312B",
"W  c #D12C24",
"Q  c #DD3C20",
"!  c #D7571B",
"~  c #E35F1F",
"^  c #E8651F",
"/  c #EC4921",
"(  c #E36723",
")  c #EF6735",
"_  c #EA6C33",
"`  c #E84842",
"'  c #F57642",
"]  c #6B807D",
"[  c #FD9262",
"{  c #FF9769",
"}  c #FF9A6B",
"|  c #747C83",
" . c #787D84",
".. c #6D8485",
"X. c #748385",
"o. c #7B8384",
"O. c #7D848B",
"+. c #72898A",
"@. c #7B898C",
"#. c #76918C",
"$. c #7D8C91",
"%. c #7B9494",
"&. c #818486",
"*. c #84888A",
"=. c #848C94",
"-. c #898F96",
";. c #849599",
":. c #8B949C",
">. c #88989D",
",. c #839A9A",
"<. c #969697",
"1. c #9B9E9F",
"2. c #8A9DA2",
"3. c #999FA1",
"4. c #939CA6",
"5. c #A19FA2",
"6. c #84A1A2",
"7. c #8DA6A9",
"8. c #8DA5A8",
"9. c #91A1A7",
"0. c #92A7AC",
"q. c #98A3AC",
"w. c #92ABAE",
"e. c #94AFB1",
"r. c #9CABB3",
"t. c #95B4B5",
"y. c #99B3B7",
"u. c #92BFB8",
"i. c #9CBDBE",
"p. c #A6AEAF",
"a. c #AAAAAC",
"s. c #A1A0A3",
"d. c #A4B3BD",
"f. c #AAB4BD",
"g. c #A2BCB9",
"h. c #B2BFBF",
"j. c #BABABA",
"k. c #B2B3B5",
"l. c #FCBB87",
"z. c #91C4BB",
"x. c #FCC68F",
"c. c #FDEFA6",
"v. c #FDF3A8",
"b. c #A7B6C0",
"n. c #A3BCC2",
"m. c #AABCC6",
"M. c #AFBDC9",
"N. c #AAB6C2",
"B. c #B1BDCA",
"V. c #93CBC2",
"C. c #9ACFC6",
"Z. c #9DC0C1",
"A. c #A2C3C3",
"S. c #A9C8C7",
"D. c #ABC4CB",
"F. c #A6C8C8",
"G. c #A7CCC9",
"H. c #BDCECD",
"J. c #B8C1C7",
"K. c #ADD0CF",
"L. c #B4D1CE",
"P. c #B6C6D0",
"I. c #B5C9D1",
"U. c #AED2D1",
"Y. c #B7D7D5",
"T. c #B9D5D3",
"R. c #BCDBD9",
"E. c #CACBCB",
"W. c #C3C9C8",
"Q. c #CED0D1",
"!. c #C2DDDB",
"~. c #D4D7D8",
"^. c #D8DCDD",
"/. c #C7E1DF",
"(. c #D9E5E4",
"). c None",
/* pixels */
").).).).).).).).).).).).).).).).).).).).).).).).).).).).).).).).).).).).).).).).).).).).).).).).).).",
").).).).).).).).).).).).).).).).).).).).).).).).).).).).).).).).).).).).).).).).).).).).).).).).).).",
").).).).).).).).).).).).).).).).).).).).).).).).).).).).).).).).).).).).).).).).).).).).).).).).).).",
").).).).).).).).).).).).).).).).).).).).).).).).).).).).).).).).).).).).).).).).).).).).).).).).).).",
").).).).).).).).).).).).).).).).).).).).).).).).).).).).).).).).).).).).).).).).).).).).).).).).).).",
").).).).).).).).).).).).).).).).).).).).).).).).).).).).).).).).).).).).).).).).).).).).).).).).).).",
").).).).).).).).).).).).).).).).).).).).).).).).).).).).).).).).).).).).).).).).).).).).).).).).).).",
").).).).).).).).).).).).).).).).).).).).).).).).).).).).).).).).).).).).).).).).).).).).).).).).).).",
").).).).).).).).).).).).).).).).).).).).).).).).).).).).).).).).).).).).).).).).).).).).).).).).).).",
").).).).).).).).).).).).).).).).).).).).).).).).).).).).).).).).).).).).).).).).).).).).).).).).).).",
").).).).).).).).).).).).).).).).).).).).).).).).).).).).).).).).).).).).).).).).).).).).).).).).).).",
").).).).).).).).).).).).).).).).).).).).).).).).).).).).).).).).).).).).).).).).).).).).).).).).).).",
").).).).).).).).).).).).).).).).).).).).).).).).).).).).).).).).).).).).).).).).).).).).).).).).).).",
").).).).).).).).).).).).).).).).).).).).).).. X ).).).).).).).).).).).).).).).).).).).).).).).).).).",
").).).).).).).).).).).).).).).).).).).).).).9 q & ).).).).).).).).).).).).).).).).).).).).).).).).).",
").).).).).).).).).).).).).).).).).).).).).2 g x z 4 ).).).).).).).).).).).).).).).).).).).).).).).).",
").).).).).).).).).).).).).).).).).).).).$ F k.^.~.F = ).).).).).).).).).).).).).).).).).).).).).).).",
").).).).).).).).).).).).).).).).).).).).2 I Q.(.E.o.q ).).).).).).).).).).).).).).).).).).).).).).).",
").).).).).).).).).).).).).).).).).).).).3 N a.W.j.&.&.x $ ).).).).).).).).).).).).).).).).).).).).).",
").).).).).).).).).).).).).).).).).).).).k *.&.j.j.H f.J = ).).).).).).).).).).).).).).).).).).).).).",
").).).).).).).).).).).).).).).).).).).& N f.U k.W.H -.P X.k ).).).).).).).).).).).).).).).).).).).).",
").).).).).).).).).).).).).).).).).).).& m -.Z ,.u.o.n M 0.r.N w = ).).).).).).).).).).).).).).).).).",
").).).).).).).).).).).).).).).).).).).J ,.M J g.z.L.<.k ,.N.r.=.G V & ).8 7 ).).).).).).).).).).).).",
").).).).).).).).).).).).).).).).).).d q.r.V S H.V.G.j.j +.D.m.D.m.6.B m K P j ).).).).).).).).).).).",
").).).).).).).).).).).).).).).).).8  .r.d.P b W.C.z.j.g M +.t.t.e.7.7.Z.U.F.$.n 1 ).).).).).).).).).",
").).).).).).).).).).).).).).).).j | b.m.g.P d 1.#.C &.v v q +.8.2.2.7.F.!.R.0. .q ).).).).).).).).).",
").).).).).).).).).).).).).).).7 $.n.i.i.+.c v S s 6 Z *.#.a C 8.>.;.2.n.!.Y.t.O.k ).).).).).).).).).",
").).).).).).).).).).).).7 f l V >.e.w.t.c a ] q.q.5.a.H.w.x l 8.e.y.t.t.6.%.y.e.B   ).).).).).).).).",
").).).).).).).).).).).).N 6.u.i.w.2.2.7.P p %.L.p.b F T.h.I k e.D.y.j 0 4 9 q.P.L X ).).).).).).).).",
").).).).).).).).).).).p @.K.R.K.7.;.;.2.%.9 &.H.t.g z ] S U f.M.d.4.7 3 > 3 | 2.A = ).).).).).).).).",
").).).).).).).).).).1 B ;.U.(.Y.e.7.y.i.e.m U S s J o.6 ; x -.=. .L 7 X ).$ 9 f d 1 ).).).).).).).).",
").).).).).).).).).).X A =.A.Z.t.2...0.D.P.D.*.6 2 z n 6 % 9 k n j 0 ).).).).).1 d 7 ).).).).).).).).",
").).).).).).).).).).).m >.Z.M 9 7 1 G 4.:.=.G 9 $ 2 2 ; ).).).> > @ ).).).).).= d 8 . ).).).).).).).",
").).).).).).).).).).).f 4.I.G 3 1 = p n A n p ).).).% & ).).).O O - ).).).).).).& X X ).).).).).).).",
").).).).).).).).).).).0 | q.B $ ).).).5 > < # ).).).).).).).).y r r W ).).).).).).).).).).).).).).).",
").).).).).).).).).).).= j m 7 ).).).).).# o : ).).).).).).).).E Y Y / ).).).).).).).).).).).).).).).",
").).).).).).).).).).).X 0 d = ).).).).).t e u R ).).).).).).).^ ( _ ' ).).).).).).).).).).).).).).).",
").).).).).).).).).).).).9 j > ).).).).` T i Y Q ).).).).).).).).{ } ).).).).).).).).).).).).).).).).",
").).).).).).).).).).).).1 4 = ).).).).).~ ! ( ) ).).).).).).).).).x.).).).).).).).).).).).).).).).).",
").).).).).).).).).).).).X . ).).).).).).).[ [ ).).).).).).).).).).v.).).).).).).).).).).).).).).).).",
").).).).).).).).).).).).).).).).).).).).).).l.).).).).).).).).).).).).).).).).).).).).).).).).).).).",
").).).).).).).).).).).).).).).).).).).).).).c.).).).).).).).).).).).).).).).).).).).).).).).).).).).",
").).).).).).).).).).).).).).).).).).).).).).).).).).).).).).).).).).).).).).).).).).).).).).).).).).",
").).).).).).).).).).).).).).).).).).).).).).).).).).).).).).).).).).).).).).).).).).).).).).).).).).",
").).).).).).).).).).).).).).).).).).).).).).).).).).).).).).).).).).).).).).).).).).).).).).).).).).",
").).).).).).).).).).).).).).).).).).).).).).).).).).).).).).).).).).).).).).).).).).).).).).).).).).",
").).).).).).).).).).).).).).).).).).).).).).).).).).).).).).).).).).).).).).).).).).).).).).).).).).",
").).).).).).).).).).).).).).).).).).).).).).).).).).).).).).).).).).).).).).).).).).).).).).).).).).",
").).).).).).).).).).).).).).).).).).).).).).).).).).).).).).).).).).).).).).).).).).).).).).).).).).",
").).).).).).).).).).).).).).).).).).).).).).).).).).).).).).).).).).).).).).).).).).).).).).).).).)."
};
