/* XPM */
static char *nave1___24[] = {
/* columns rows colors chars-per-pixel */
"50 50 160 2 ",
"   c #0D0D0D",
".  c #070817",
"X  c #0B0C1A",
"o  c #0F1010",
"O  c #0F101C",
"+  c #121212",
"@  c #13131B",
"#  c #14191E",
"$  c #1B1A1B",
"%  c #151B21",
"&  c #1D1F21",
"*  c #1F2325",
"=  c #232122",
"-  c #242629",
";  c #2D2A2A",
":  c #27292B",
">  c #312B2C",
",  c #232730",
"<  c #2D2F31",
"1  c #252932",
"2  c #2F3134",
"3  c #343234",
"4  c #393434",
"5  c #33363A",
"6  c #34383D",
"7  c #393B3D",
"8  c #430B16",
"9  c #470E18",
"0  c #4E1019",
"q  c #5B141A",
"w  c #63171C",
"e  c #781616",
"r  c #771A18",
"t  c #3B3E42",
"y  c #3E4144",
"u  c #414345",
"i  c #43464A",
"p  c #454A4D",
"a  c #4A4B4D",
"s  c #4B4F52",
"d  c #4E5254",
"f  c #4F5458",
"g  c #4E5B5C",
"h  c #51555A",
"j  c #54595E",
"k  c #5B5B5E",
"l  c #5A5555",
"z  c #4E605F",
"x  c #575C61",
"c  c #5A5E62",
"v  c #4F6060",
"b  c #5D6063",
"n  c #586266",
"m  c #626364",
"M  c #61656B",
"N  c #63696E",
"B  c #68696B",
"V  c #676D73",
"C  c #6B6E72",
"Z  c #637375",
"A  c #6D7175",
"S  c #647778",
"D  c #6E747A",
"F  c #68787A",
"G  c #71767C",
"H  c #76787C",
"J  c #821B1C",
"K  c #9A1B18",
"L  c #922421",
"P  c #A82B28",
"I  c #EF3426",
"U  c #F2392B",
"Y  c #D74D19",
"T  c #D5501A",
"R  c #D45D18",
"E  c #D35B17",
"W  c #E05B1B",
"Q  c #FA5C23",
"!  c #FC7F24",
"~  c #F35043",
"^  c #67827D",
"/  c #FD8D57",
"(  c #FB8C5F",
")  c #FB8F65",
"_  c #FB9066",
"`  c #FCAF7F",
"'  c #797D85",
"]  c #6D8281",
"[  c #708787",
"{  c #7B838A",
"}  c #7B888F",
"|  c #7D8587",
" . c #80888F",
".. c #848488",
"X. c #838C93",
"o. c #8E9192",
"O. c #86949A",
"+. c #8A929A",
"@. c #829C9D",
"#. c #89999E",
"$. c #959798",
"%. c #8A9CA0",
"&. c #929DA7",
"*. c #A19FA2",
"=. c #8BA2A6",
"-. c #8FA4A9",
";. c #8CADAC",
":. c #87A2A3",
">. c #90A7AC",
",. c #9AA4AD",
"<. c #91AAAD",
"1. c #8EB1AC",
"2. c #93B3AE",
"3. c #93AEB1",
"4. c #9FAAB4",
"5. c #8EB9B2",
"6. c #93B4B4",
"7. c #98B7B9",
"8. c #95B8B8",
"9. c #9ABCBC",
"0. c #A4A3A5",
"q. c #A3ADB6",
"w. c #A6B7B7",
"e. c #A5B4BE",
"r. c #A3BABB",
"t. c #AFB1B3",
"y. c #B2B3B4",
"u. c #B3B6B8",
"i. c #B6BBBD",
"p. c #BFBFBF",
"a. c #FCAF80",
"s. c #FBB48A",
"d. c #90C7BE",
"f. c #90C8BF",
"g. c #FDE9A1",
"h. c #A4B7C0",
"j. c #AAB6C2",
"k. c #A5BEC4",
"l. c #AABDC7",
"z. c #ACBFC9",
"x. c #B1BEC9",
"c. c #9EC3C3",
"v. c #9BCDC5",
"b. c #93CAC1",
"n. c #A2C5C5",
"m. c #ABCCCB",
"M. c #AAC6C8",
"N. c #BEC2C2",
"B. c #B4C1CD",
"V. c #BACBCB",
"C. c #B4D4D2",
"Z. c #BBD9D7",
"A. c #C3C5C5",
"S. c #CED4D4",
"D. c #C3DFDC",
"F. c #D7DADA",
"G. c #DADCDD",
"H. c #CFE6E3",
"J. c #E1E5E6",
"K. c None",
/* pixels */
"K.K.K.K.K.K.K.K.K.K.K.K.K.K.K.K.K.K.K.K.K.K.K.K.K.K.K.K.K.K.K.K.K.K.K.K.K.K.K.K.K.K.K.K.K.K.K.K.K.K.",
"K.K.K.K.K.K.K.K.K.K.K.K.K.K.K.K.K.K.K.K.K.K.K.K.K.K.K.K.K.K.K.K.K.K.K.K.K.K.K.K.K.K.K.K.K.K.K.K.K.K.",
"K.K.K.K.K.K.K.K.K.K.K.K.K.K.K.K.K.K.K.K.K.K.K.K.K.K.K.K.K.K.K.K.K.K.K.K.K.K.K.K.K.K.K.K.K.K.K.K.K.K.",
"K.K.K.K.K.K.K.K.K.K.K.K.K.K.K.K.K.K.K.K.K.K.K.K.K.K.K.K.K.K.K.K.K.K.K.K.K.K.K.K.K.K.K.K.K.K.K.K.K.K.",
"K.K.K.K.K.K.K.K.K.K.K.K.K.K.K.K.K.K.K.K.K.K.K.K.K.K.K.K.K.K.K.K.K.K.K.K.K.K.K.K.K.K.K.K.K.K.K.K.K.K.",
"K.K.K.K.K.K.K.K.K.K.K.K.K.K.K.K.K.K.K.K.K.K.K.K.K.K.K.K.K.K.K.K.K.K.K.K.K.K.K.K.K.K.K.K.K.K.K.K.K.K.",
"K.K.K.K.K.K.K.K.K.K.K.K.K.K.K.K.K.K.K.K.K.K.K.K.K.K.K.K.K.K.K.K.K.K.K.K.K.K.K.K.K.K.K.K.K.K.K.K.K.K.",
"K.K.K.K.K.K.K.K.K.K.K.K.K.K.K.K.K.K.K.K.K.K.K.K.K.K.K.K.K.K.K.K.K.K.K.K.K.K.K.K.K.K.K.K.K.K.K.K.K.K.",
"K.K.K.K.K.K.K.K.K.K.K.K.K.K.K.K.K.K.K.K.K.K.K.K.K.K.K.K.K.K.K.K.K.K.K.K.K.K.K.K.K.K.K.K.K.K.K.K.K.K.",
"K.K.K.K.K.K.K.K.K.K.K.K.K.K.K.K.K.K.K.K.K.K.K.K.K.K.K.o                   K.K.K.K.K.K.K.K.K.K.K.K.K.",
"K.K.K.K.K.K.K.K.K.K.K.K.K.K.K.K.K.K.K.K.K.K.K.K.K.K.K.x D G G G x t t t   K.K.K.K.K.K.K.K.K.K.K.K.K.",
"K.K.K.K.K.K.K.K.K.K.K.K.K.K.K.K.K.K.K.K.K.K.K.K.K.= c X.+.%.n.B.} u y t   K.K.K.K.K.K.K.K.K.K.K.K.K.",
"K.K.K.K.K.K.K.K.K.K.K.K.K.K.K.K.K.K.K.K.K.K.K.K.K.s 3.m.m.c.=.,.n $   o K.K.K.K.K.K.K.K.K.K.K.K.K.K.",
"K.K.K.K.K.K.K.K.K.K.K.K.K.K.K.K.K.K.K.K.K.K.K.K.K.v c.D.H.6.6 < & K.K.K.K.K.K.K.K.K.K.K.K.K.K.K.K.K.",
"K.K.K.K.K.K.K.K.K.K.K.K.K.K.K.K.K.K.K.K.K.K.K.K.K.g 9.C.C.8.5 -   K.K.K.K.K.K.K.K.K.K.K.K.K.K.K.K.K.",
"K.K.K.K.K.K.K.K.K.K.K.K.K.K.K.K.K.K.K.K.K.K.K.K.< Z <.3.<.6.5 - K.K.K.K.K.K.K.K.K.K.K.K.K.K.K.K.K.K.",
"K.K.K.K.K.K.K.K.K.K.K.K.K.K.K.K.K.K.K.K.K.K.K.2 O.<.=.%.O.6.6 -   K.K.K.K.K.K.K.K.K.K.K.K.K.K.K.K.K.",
"K.K.K.K.K.K.K.K.K.K.K.K.K.K.K.K.K.K.K.K.K.K.K.6 e.7.-.#.O.n.q.X.h K.K.L I Q K.K.K.K.K.K.K.K.K.K.K.K.",
"K.K.K.K.K.K.K.K.K.K.K.K.K.K.K.K.K.K.K.K.K.K.3 +.M.7.>.=.%.n.x.+.j % X 9 e Y ( s.K.K.K.K.K.K.K.K.K.K.",
"K.K.K.K.K.K.K.K.K.K.K.K.K.K.K.K.K.K.K.K.K.y O.4.l.6.@.@.} :.B.+.V 1 . 8 r E / a.g.K.K.K.K.K.K.K.K.K.",
"K.K.K.K.K.K.K.K.K.K.K.K.K.K.K.K.K.K.K.$ = +.l.l.n.F 3 3 6 p j.#.h # @ w P W _ K.K.K.K.K.K.K.K.K.K.K.",
"K.K.K.K.K.K.K.K.K.K.K.K.K.K.K.K.o o u B G F S S F g b ^ } ..A k 7 K.K.K.K.K.K.K.K.K.K.K.K.K.K.K.K.K.",
"K.K.K.K.K.K.K.K.K.K.K.K.K.K.K.o u u C q.q.c d a a a B w.M.i.4 =   K.K.K.K.K.K.K.K.K.K.K.K.K.K.K.K.K.",
"K.K.K.K.K.K.K.K.K.K.K.K.K.K.+ a x.y.o.A A m A.S.F.$.k u.V.1.4 ; $ K.K.K.K.K.K.K.K.K.K.K.K.K.K.K.K.K.",
"K.K.K.K.K.K.K.K.K.K.K.K.K.  u k J.F.A.p.p.5.b.f.f.^ 4 0.l u ' m > $ K.K.K.K.K.K.K.K.K.K.K.K.K.K.K.K.",
"K.K.K.K.K.K.K.K.K.K.K.K.K.  7 k J.F.A.y.u.;.v.v.v.[ 4 0.m d G c ; $ K.K.K.K.K.K.K.K.K.K.K.K.K.K.K.K.",
"K.K.K.K.K.K.K.K.K.K.K.K.K.K.+ u y.0.o.H G m u.A.N.o.k u.V.<.4 ; $ K.K.K.K.K.K.K.K.K.K.K.K.K.K.K.K.K.",
"K.K.K.K.K.K.K.K.K.K.K.K.K.K.K.+ 7 7 N q.q.k a p a p B w.m.i.4 = o K.K.K.K.K.K.K.K.K.K.K.K.K.K.K.K.K.",
"K.K.K.K.K.K.K.K.K.K.K.K.K.K.K.K.K.K.7 b B ] [ [ [ v h Z A H | B u K.K.K.U K.K.K.K.K.K.K.K.K.K.K.K.K.",
"K.K.K.K.K.K.K.K.K.K.K.K.K.K.K.K.K.K.K.$ $ O.l.l.l.^ 3 2 3 u j.+.f % @ q K Y ) K.K.K.K.K.K.K.K.K.K.K.",
"K.K.K.K.K.K.K.K.K.K.K.K.K.K.K.K.K.K.K.K.K.5 X.,.z.9.;.;.;.3.B.+.C 1 . 8 r R / ` g.K.K.K.K.K.K.K.K.K.",
"K.K.K.K.K.K.K.K.K.K.K.K.K.K.K.K.K.K.K.K.K.K.:  .l.7.-.#.#.n.x.+.h % @ 0 J T ) K.K.K.K.K.K.K.K.K.K.K.",
"K.K.K.K.K.K.K.K.K.K.K.K.K.K.K.K.K.K.K.K.K.K.K.5 e.7.=.%.O.n.&.' s K.K.L ~ ! K.K.K.K.K.K.K.K.K.K.K.K.",
"K.K.K.K.K.K.K.K.K.K.K.K.K.K.K.K.K.K.K.K.K.K.K.< } =.>.#.O.6.6 -   K.K.K.K.K.K.K.K.K.K.K.K.K.K.K.K.K.",
"K.K.K.K.K.K.K.K.K.K.K.K.K.K.K.K.K.K.K.K.K.K.K.K.: N <.3.3.6.5 - o K.K.K.K.K.K.K.K.K.K.K.K.K.K.K.K.K.",
"K.K.K.K.K.K.K.K.K.K.K.K.K.K.K.K.K.K.K.K.K.K.K.K.K.g n.C.Z.7.5 -   K.K.K.K.K.K.K.K.K.K.K.K.K.K.K.K.K.",
"K.K.K.K.K.K.K.K.K.K.K.K.K.K.K.K.K.K.K.K.K.K.K.K.K.v n.D.H.6.5 2 & K.K.K.K.K.K.K.K.K.K.K.K.K.K.K.K.K.",
"K.K.K.K.K.K.K.K.K.K.K.K.K.K.K.K.K.K.K.K.K.K.K.K.K.p ;.m.m.c.7.e.V * @ + K.K.K.K.K.K.K.K.K.K.K.K.K.K.",
"K.K.K.K.K.K.K.K.K.K.K.K.K.K.K.K.K.K.K.K.K.K.K.K.K.K.f { X.+.9.x.{ p i i + K.K.K.K.K.K.K.K.K.K.K.K.K.",
"K.K.K.K.K.K.K.K.K.K.K.K.K.K.K.K.K.K.K.K.K.K.K.K.K.K.K.h n V V M s 6 6 5   K.K.K.K.K.K.K.K.K.K.K.K.K.",
"K.K.K.K.K.K.K.K.K.K.K.K.K.K.K.K.K.K.K.K.K.K.K.K.K.K.K.K.      o           K.K.K.K.K.K.K.K.K.K.K.K.K.",
"K.K.K.K.K.K.K.K.K.K.K.K.K.K.K.K.K.K.K.K.K.K.K.K.K.K.K.K.K.K.K.K.K.K.K.K.K.K.K.K.K.K.K.K.K.K.K.K.K.K.",
"K.K.K.K.K.K.K.K.K.K.K.K.K.K.K.K.K.K.K.K.K.K.K.K.K.K.K.K.K.K.K.K.K.K.K.K.K.K.K.K.K.K.K.K.K.K.K.K.K.K.",
"K.K.K.K.K.K.K.K.K.K.K.K.K.K.K.K.K.K.K.K.K.K.K.K.K.K.K.K.K.K.K.K.K.K.K.K.K.K.K.K.K.K.K.K.K.K.K.K.K.K.",
"K.K.K.K.K.K.K.K.K.K.K.K.K.K.K.K.K.K.K.K.K.K.K.K.K.K.K.K.K.K.K.K.K.K.K.K.K.K.K.K.K.K.K.K.K.K.K.K.K.K.",
"K.K.K.K.K.K.K.K.K.K.K.K.K.K.K.K.K.K.K.K.K.K.K.K.K.K.K.K.K.K.K.K.K.K.K.K.K.K.K.K.K.K.K.K.K.K.K.K.K.K.",
"K.K.K.K.K.K.K.K.K.K.K.K.K.K.K.K.K.K.K.K.K.K.K.K.K.K.K.K.K.K.K.K.K.K.K.K.K.K.K.K.K.K.K.K.K.K.K.K.K.K.",
"K.K.K.K.K.K.K.K.K.K.K.K.K.K.K.K.K.K.K.K.K.K.K.K.K.K.K.K.K.K.K.K.K.K.K.K.K.K.K.K.K.K.K.K.K.K.K.K.K.K.",
"K.K.K.K.K.K.K.K.K.K.K.K.K.K.K.K.K.K.K.K.K.K.K.K.K.K.K.K.K.K.K.K.K.K.K.K.K.K.K.K.K.K.K.K.K.K.K.K.K.K.",
"K.K.K.K.K.K.K.K.K.K.K.K.K.K.K.K.K.K.K.K.K.K.K.K.K.K.K.K.K.K.K.K.K.K.K.K.K.K.K.K.K.K.K.K.K.K.K.K.K.K."
};
