/* XPM */
static char *nave2___8[] = {
/* columns rows colors chars-per-pixel */
"50 50 187 2 ",
"   c #0D0C0D",
".  c #100C0E",
"X  c #0A0718",
"o  c #1F0411",
"O  c #130D10",
"+  c #1D0C14",
"@  c #0D111C",
"#  c #15161D",
"$  c #1A1A1A",
"%  c #1D1921",
"&  c #340D23",
"*  c #251E21",
"=  c #3D152D",
"-  c #242529",
";  c #2B2529",
":  c #232124",
">  c #31292A",
",  c #312F32",
"<  c #3B2933",
"1  c #2E3135",
"2  c #333333",
"3  c #32343A",
"4  c #33383D",
"5  c #460A16",
"6  c #520C18",
"7  c #680B1A",
"8  c #7F0717",
"9  c #470B2D",
"0  c #500F2E",
"q  c #4B0530",
"w  c #58133B",
"e  c #640D3A",
"r  c #6B0838",
"t  c #78073E",
"y  c #472739",
"u  c #5C1C43",
"i  c #7A0940",
"p  c #6B1244",
"a  c #661846",
"s  c #731449",
"d  c #7B154B",
"f  c #7A1949",
"g  c #781A51",
"h  c #5A2D47",
"j  c #54334A",
"k  c #77345F",
"l  c #722B55",
"z  c #48444B",
"x  c #585557",
"c  c #5F485A",
"v  c #6D4160",
"b  c #684C61",
"n  c #635D66",
"m  c #7B5670",
"M  c #7A4565",
"N  c #7A6677",
"B  c #6F6A71",
"V  c #830318",
"C  c #A7071C",
"Z  c #890D21",
"A  c #AE0620",
"S  c #AE1A37",
"D  c #D51622",
"F  c #DB1925",
"G  c #ED1C2D",
"H  c #FF2129",
"J  c #FA243B",
"K  c #87114B",
"L  c #89154E",
"P  c #8E1859",
"I  c #94145B",
"U  c #9B145A",
"Y  c #830D46",
"T  c #AF0858",
"R  c #B10859",
"E  c #84235C",
"W  c #94255F",
"Q  c #B80D60",
"!  c #A31566",
"~  c #B21D6F",
"^  c #BC1373",
"/  c #BC1C73",
"(  c #9C2264",
")  c #8B2D64",
"_  c #A6276B",
"`  c #A1376E",
"'  c #A63273",
"]  c #D0086D",
"[  c #C11B6E",
"{  c #DA0570",
"}  c #C31E70",
"|  c #C8287A",
" . c #F93968",
".. c #824D6E",
"X. c #8F4D75",
"o. c #9B4E7D",
"O. c #825877",
"+. c #875779",
"@. c #94537B",
"#. c #FE5875",
"$. c #FE6B7F",
"%. c #FE647B",
"&. c #D51683",
"*. c #E21A8E",
"=. c #EF1792",
"-. c #FF179C",
";. c #D93C9C",
":. c #C93890",
">. c #FF269F",
",. c #F7279D",
"<. c #FE23A5",
"1. c #FF26A9",
"2. c #FF29AA",
"3. c #F631A2",
"4. c #FA33AB",
"5. c #FF38B2",
"6. c #8D5E81",
"7. c #945D83",
"8. c #A55788",
"9. c #AB5F90",
"0. c #8D6683",
"q. c #956287",
"w. c #897987",
"e. c #A0648E",
"r. c #AF6E9D",
"t. c #B36D9E",
"y. c #AA739C",
"u. c #B07CA5",
"i. c #C9598F",
"p. c #C65B90",
"a. c #C96495",
"s. c #DB51A5",
"d. c #E947A9",
"f. c #F44CB5",
"g. c #F945B4",
"h. c #E958B4",
"j. c #F457BB",
"k. c #C578AD",
"l. c #C276AC",
"z. c #CC7AB4",
"x. c #EE63BD",
"c. c #EB6DBC",
"v. c #E263B3",
"b. c #E971BA",
"n. c #DF7DC0",
"m. c #EC7CC5",
"M. c #E677C1",
"N. c #858488",
"B. c #A49FA3",
"V. c #A398AD",
"C. c #BD88B4",
"Z. c #AB83A8",
"A. c #BEB4BD",
"S. c #B3A6BD",
"D. c #FE968D",
"F. c #C582A9",
"G. c #CA82B6",
"H. c #C785B7",
"J. c #D388B8",
"K. c #CE96B3",
"L. c #CF99B6",
"P. c #D096B2",
"I. c #C9A0B4",
"U. c #CBB3BF",
"Y. c #FDE7A2",
"T. c #DD8AC6",
"R. c #D989C3",
"E. c #CA9AC6",
"W. c #DC93C7",
"Q. c #DF93CB",
"!. c #D09FCB",
"~. c #D996C5",
"^. c #E288C7",
"/. c #E293CC",
"(. c #D8A7C6",
"). c #CCB5C0",
"_. c #C9B0CF",
"`. c #D9B5D4",
"'. c #D6B0CE",
"]. c #E4BDD2",
"[. c #CCC1C6",
"{. c #D6C9DB",
"}. c #D9DBDB",
"|. c #E3C1D3",
" X c #D2E3E3",
".X c #E3E3E6",
"XX c None",
/* pixels */
"XXXXXXXXXXXXXXXXXXXXXXXXXXXXXXXXXXXXXXXXXXXXXXXXXXXXXXXXXXXXXXXXXXXXXXXXXXXXXXXXXXXXXXXXXXXXXXXXXXXX",
"XXXXXXXXXXXXXXXXXXXXXXXXXXXXXXXXXXXXXXXXXXXXXXXXXXXXXXXXXXXXXXXXXXXXXXXXXXXXXXXXXXXXXXXXXXXXXXXXXXXX",
"XXXXXXXXXXXXXXXXXXXXXXXXXXXXXXXXXXXXXXXXXXXXXXXXXXXXXXXXXXXXXXXXXXXXXXXXXXXXXXXXXXXXXXXXXXXXXXXXXXXX",
"XXXXXXXXXXXXXXXXXXXXXXXXXXXXXXXXXXXXXXXXXXXXXXXXXXXXXXXXXXXXXXXXXXXXXXXXXXXXXXXXXXXXXXXXXXXXXXXXXXXX",
"XXXXXXXXXXXXXXXXXXXXXXXXXXXXXXXXXXXXXXXXXXXXXXXXXXXXXXXXXXXXXXXXXXXXXXXXXXXXXXXXXXXXXXXXXXXXXXXXXXXX",
"XXXXXXXXXXXXXXXXXXXXXXXXXXXXXXXXXXXXXXXXXXXXXXXXXXXXXXXXXXXXXXXXXXXXXXXXXXXXXXXXXXXXXXXXXXXXXXXXXXXX",
"XXXXXXXXXXXXXXXXXXXXXXXXXXXXXXXXXXXXXXXXXXXXXXXXXXXXXXXXXXXXXXXXXXXXXXXXXXXXXXXXXXXXXXXXXXXXXXXXXXXX",
"XXXXXXXXXXXXXXXXXXXXXXXXXXXXXXXXXXXXXXXXXXXXXXXXXXXXXXXXXXXXXXXXXXXXXXXXXXXXXXXXXXXXXXXXXXXXXXXXXXXX",
"XXXXXXXXXXXXXXXXXXXXXXXXXXXXXXXXXXXXXXXXXXXXXXXXXXXXXXXXXXXXXXXXXXXXXXXXXXXXXXXXXXXXXXXXXXXXXXXXXXXX",
"XXXXXXXXXXXXXXXXXXXXXXXXXX  .       .     . XXXXXXXXXXXXXXXXXXXXXXXXXXXXXXXXXXXXXXXXXXXXXXXXXXXXXXXX",
"XXXXXXXXXXXXXXXXXXXXXXXXXX. w e w I ~ ^ ^ ^ I XXXXXXXXXXXXXXXXXXXXXXXXXXXXXXXXXXXXXXXXXXXXXXXXXXXXXX",
"XXXXXXXXXXXXXXXXXXXXXXXXXXO s d g 8.!.b.<.-.=.I XXXXXXXXXXXXXXXXXXXXXXXXXXXXXXXXXXXXXXXXXXXXXXXXXXXX",
"XXXXXXXXXXXXXXXXXXXXXXXXXXXXO # * B S.H.^./.^.v.g XXXXXXXXXXXXXXXXXXXXXXXXXXXXXXXXXXXXXXXXXXXXXXXXXX",
"XXXXXXXXXXXXXXXXXXXXXXXXXXXXXXXXXX% 3 4 G. X{.^.v XXXXXXXXXXXXXXXXXXXXXXXXXXXXXXXXXXXXXXXXXXXXXXXXXX",
"XXXXXXXXXXXXXXXXXXXXXXXXXXXXXXXXXX  - 3 G.{.`.M.k XXXXXXXXXXXXXXXXXXXXXXXXXXXXXXXXXXXXXXXXXXXXXXXXXX",
"XXXXXXXXXXXXXXXXXXXXXXXXXXXXXXXXXX  - 3 z.h.j.f.~ 9 XXXXXXXXXXXXXXXXXXXXXXXXXXXXXXXXXXXXXXXXXXXXXXXX",
"XXXXXXXXXXXXXXXXXXXXXXXXXXXXXXXXXXO - 4 z.<.1.5.d.9.< XXXXXXXXXXXXXXXXXXXXXXXXXXXXXXXXXXXXXXXXXXXXXX",
"XXXXXXXXXXXXXXXXXXXXXXXXH  .A XXXXg :.Z.R.<.1.5.x.R.y XXXXXXXXXXXXXXXXXXXXXXXXXXXXXXXXXXXXXXXXXXXXXX",
"XXXXXXXXXXXXXXXXXXXXXX$.F Z 6 @ # P 3.!.R.1.2.5.x./.;.= XXXXXXXXXXXXXXXXXXXXXXXXXXXXXXXXXXXXXXXXXXXX",
"XXXXXXXXXXXXXXXXXXY.D.#.D V 5 X q { <.!.C.k.k.k.J.Q.j.;.y XXXXXXXXXXXXXXXXXXXXXXXXXXXXXXXXXXXXXXXXXX",
"XXXXXXXXXXXXXXXXXXXXXX$.G C 7 # # P ,.E.z 1 2 2 0.W.Q./.y.% $ XXXXXXXXXXXXXXXXXXXXXXXXXXXXXXXXXXXXXX",
"XXXXXXXXXXXXXXXXXXXXXXXXXXJ XXXXXXa ' w.N B m x b q.q.q.7...v h XXXXXXXXXXXXXXXXXXXXXXXXXXXXXXXXXXXX",
"XXXXXXXXXXXXXXXXXXXXXXXXXXXXXXXXXXO ; 2 A.(.J.` f f K f W b.c.` r e o XXXXXXXXXXXXXXXXXXXXXXXXXXXXXX",
"XXXXXXXXXXXXXXXXXXXXXXXXXXXXXXXXXX$ > < H.'.P.T i.L.(.L.R | | p.F.K.t + XXXXXXXXXXXXXXXXXXXXXXXXXXXX",
"XXXXXXXXXXXXXXXXXXXXXXXXXXXXXXXX$ > ( | l n B.y 8.m.m.m.s.I.I.).}..XR t . XXXXXXXXXXXXXXXXXXXXXXXXXX",
"XXXXXXXXXXXXXXXXXXXXXXXXXXXXXXXX$ > _ *.h x B.< o.c.x.m.v.U.U.[.}..XR t . XXXXXXXXXXXXXXXXXXXXXXXXXX",
"XXXXXXXXXXXXXXXXXXXXXXXXXXXXXXXXXX$ > y F.).P.T a.].|.(.R [ | a.K.U.Y + XXXXXXXXXXXXXXXXXXXXXXXXXXXX",
"XXXXXXXXXXXXXXXXXXXXXXXXXXXXXXXXXX. * 2 U./.J._ L L L L ( b.b.' i i o XXXXXXXXXXXXXXXXXXXXXXXXXXXXXX",
"XXXXXXXXXXXXXXXXXXXXXXXXXXXXXXXXXXu ) N N.w.6.n c O.O.O.@.@.X.h . O XXXXXXXXXXXXXXXXXXXXXXXXXXXXXXXX",
"XXXXXXXXXXXXXXXXXXXXXXa.G S 7 # # P 3.E.z , , 3 0.T.T.Q.y.* $ XXXXXXXXXXXXXXXXXXXXXXXXXXXXXXXXXXXXXX",
"XXXXXXXXXXXXXXXXXXY.D.#.D V 5 X 9 ] >.!.u.r.t.t.z.Q.j.s.j XXXXXXXXXXXXXXXXXXXXXXXXXXXXXXXXXXXXXXXXXX",
"XXXXXXXXXXXXXXXXXXXXD.%.D 8 5 X % U ,.!.T.4.4.g.c./.d.w XXXXXXXXXXXXXXXXXXXXXXXXXXXXXXXXXXXXXXXXXXXX",
"XXXXXXXXXXXXXXXXXXXXXXXXH J C XXXXE ;.C.^.1.2.5.M.R.y XXXXXXXXXXXXXXXXXXXXXXXXXXXXXXXXXXXXXXXXXXXXXX",
"XXXXXXXXXXXXXXXXXXXXXXXXXXXXXXXXXX  ; 4 z.1.2.5.g.t.< XXXXXXXXXXXXXXXXXXXXXXXXXXXXXXXXXXXXXXXXXXXXXX",
"XXXXXXXXXXXXXXXXXXXXXXXXXXXXXXXXXX  - 3 z.f.f.g./ 0 XXXXXXXXXXXXXXXXXXXXXXXXXXXXXXXXXXXXXXXXXXXXXXXX",
"XXXXXXXXXXXXXXXXXXXXXXXXXXXXXXXXXX  - 3 z.`.'.M.k XXXXXXXXXXXXXXXXXXXXXXXXXXXXXXXXXXXXXXXXXXXXXXXXXX",
"XXXXXXXXXXXXXXXXXXXXXXXXXXXXXXXXXX% 2 4 H. X{.T.v XXXXXXXXXXXXXXXXXXXXXXXXXXXXXXXXXXXXXXXXXXXXXXXXXX",
"XXXXXXXXXXXXXXXXXXXXXXXXXXXX.   # n V.Z.T.(.Q.h.g XXXXXXXXXXXXXXXXXXXXXXXXXXXXXXXXXXXXXXXXXXXXXXXXXX",
"XXXXXXXXXXXXXXXXXXXXXXXXXXO p s s e._.R.2.<.,.! & XXXXXXXXXXXXXXXXXXXXXXXXXXXXXXXXXXXXXXXXXXXXXXXXXX",
"XXXXXXXXXXXXXXXXXXXXXXXXXX  p p p ! &.&.&.&.! XXXXXXXXXXXXXXXXXXXXXXXXXXXXXXXXXXXXXXXXXXXXXXXXXXXXXX",
"XXXXXXXXXXXXXXXXXXXXXXXXXX                  O XXXXXXXXXXXXXXXXXXXXXXXXXXXXXXXXXXXXXXXXXXXXXXXXXXXXXX",
"XXXXXXXXXXXXXXXXXXXXXXXXXXXXXXXXXXXXXXXXXXXXXXXXXXXXXXXXXXXXXXXXXXXXXXXXXXXXXXXXXXXXXXXXXXXXXXXXXXXX",
"XXXXXXXXXXXXXXXXXXXXXXXXXXXXXXXXXXXXXXXXXXXXXXXXXXXXXXXXXXXXXXXXXXXXXXXXXXXXXXXXXXXXXXXXXXXXXXXXXXXX",
"XXXXXXXXXXXXXXXXXXXXXXXXXXXXXXXXXXXXXXXXXXXXXXXXXXXXXXXXXXXXXXXXXXXXXXXXXXXXXXXXXXXXXXXXXXXXXXXXXXXX",
"XXXXXXXXXXXXXXXXXXXXXXXXXXXXXXXXXXXXXXXXXXXXXXXXXXXXXXXXXXXXXXXXXXXXXXXXXXXXXXXXXXXXXXXXXXXXXXXXXXXX",
"XXXXXXXXXXXXXXXXXXXXXXXXXXXXXXXXXXXXXXXXXXXXXXXXXXXXXXXXXXXXXXXXXXXXXXXXXXXXXXXXXXXXXXXXXXXXXXXXXXXX",
"XXXXXXXXXXXXXXXXXXXXXXXXXXXXXXXXXXXXXXXXXXXXXXXXXXXXXXXXXXXXXXXXXXXXXXXXXXXXXXXXXXXXXXXXXXXXXXXXXXXX",
"XXXXXXXXXXXXXXXXXXXXXXXXXXXXXXXXXXXXXXXXXXXXXXXXXXXXXXXXXXXXXXXXXXXXXXXXXXXXXXXXXXXXXXXXXXXXXXXXXXXX",
"XXXXXXXXXXXXXXXXXXXXXXXXXXXXXXXXXXXXXXXXXXXXXXXXXXXXXXXXXXXXXXXXXXXXXXXXXXXXXXXXXXXXXXXXXXXXXXXXXXXX",
"XXXXXXXXXXXXXXXXXXXXXXXXXXXXXXXXXXXXXXXXXXXXXXXXXXXXXXXXXXXXXXXXXXXXXXXXXXXXXXXXXXXXXXXXXXXXXXXXXXXX"
};
