/* XPM */
static char *nave1___7[] = {
/* columns rows colors chars-per-pixel */
"50 50 176 2 ",
"   c #020100",
".  c #080807",
"X  c #0C0C0C",
"o  c #0B0616",
"O  c #160B18",
"+  c #091016",
"@  c #071019",
"#  c #0D101C",
"$  c #141414",
"%  c #191716",
"&  c #171718",
"*  c #181718",
"=  c #191A1B",
"-  c #2E0F1A",
";  c #231E1E",
":  c #29111C",
">  c #151A23",
",  c #1D2024",
"<  c #1D212B",
"1  c #212224",
"2  c #292424",
"3  c #242628",
"4  c #2A2B2E",
"5  c #25292B",
"6  c #352E2F",
"7  c #2C2F31",
"8  c #2C3032",
"9  c #313235",
"0  c #333539",
"q  c #393B3D",
"w  c #373637",
"e  c #480C16",
"r  c #570E17",
"t  c #4E121A",
"y  c #68171D",
"u  c #671319",
"i  c #7B1D18",
"p  c #3A3E41",
"a  c #3C4143",
"s  c #414344",
"d  c #424549",
"f  c #454A4D",
"g  c #484B4C",
"h  c #494D51",
"j  c #474C52",
"k  c #4C5255",
"l  c #495758",
"z  c #525255",
"x  c #545659",
"c  c #545C5E",
"v  c #5B5B5E",
"b  c #585253",
"n  c #5A5E63",
"m  c #575C61",
"M  c #556263",
"N  c #5A6165",
"B  c #5D6369",
"V  c #5C6B6C",
"C  c #5F7272",
"Z  c #626365",
"A  c #62666B",
"S  c #6B6769",
"D  c #64696C",
"F  c #696A6B",
"G  c #666E74",
"H  c #6D6E71",
"J  c #6D7177",
"K  c #617976",
"L  c #6D737A",
"P  c #697B7D",
"I  c #737476",
"U  c #777A7E",
"Y  c #992916",
"T  c #9C2727",
"R  c #B22723",
"E  c #B4312B",
"W  c #D12C24",
"Q  c #DD3C20",
"!  c #D7571B",
"~  c #E35F1F",
"^  c #E8651F",
"/  c #EC4921",
"(  c #E36723",
")  c #EF6735",
"_  c #EA6C33",
"`  c #E84842",
"'  c #F57642",
"]  c #6B807D",
"[  c #FD9262",
"{  c #FF9769",
"}  c #FF9A6B",
"|  c #747C83",
" . c #787D84",
".. c #6D8485",
"X. c #748385",
"o. c #7B8384",
"O. c #7D848B",
"+. c #72898A",
"@. c #7B898C",
"#. c #76918C",
"$. c #7D8C91",
"%. c #7B9494",
"&. c #818486",
"*. c #84888A",
"=. c #848C94",
"-. c #898F96",
";. c #849599",
":. c #8B949C",
">. c #88989D",
",. c #839A9A",
"<. c #969697",
"1. c #9B9E9F",
"2. c #8A9DA2",
"3. c #999FA1",
"4. c #939CA6",
"5. c #A19FA2",
"6. c #84A1A2",
"7. c #8DA6A9",
"8. c #8DA5A8",
"9. c #91A1A7",
"0. c #92A7AC",
"q. c #98A3AC",
"w. c #92ABAE",
"e. c #94AFB1",
"r. c #9CABB3",
"t. c #95B4B5",
"y. c #99B3B7",
"u. c #92BFB8",
"i. c #9CBDBE",
"p. c #A6AEAF",
"a. c #AAAAAC",
"s. c #A1A0A3",
"d. c #A4B3BD",
"f. c #AAB4BD",
"g. c #A2BCB9",
"h. c #B2BFBF",
"j. c #BABABA",
"k. c #B2B3B5",
"l. c #FCBB87",
"z. c #91C4BB",
"x. c #FCC68F",
"c. c #FDEFA6",
"v. c #FDF3A8",
"b. c #A7B6C0",
"n. c #A3BCC2",
"m. c #AABCC6",
"M. c #AFBDC9",
"N. c #AAB6C2",
"B. c #B1BDCA",
"V. c #93CBC2",
"C. c #9ACFC6",
"Z. c #9DC0C1",
"A. c #A2C3C3",
"S. c #A9C8C7",
"D. c #ABC4CB",
"F. c #A6C8C8",
"G. c #A7CCC9",
"H. c #BDCECD",
"J. c #B8C1C7",
"K. c #ADD0CF",
"L. c #B4D1CE",
"P. c #B6C6D0",
"I. c #B5C9D1",
"U. c #AED2D1",
"Y. c #B7D7D5",
"T. c #B9D5D3",
"R. c #BCDBD9",
"E. c #CACBCB",
"W. c #C3C9C8",
"Q. c #CED0D1",
"!. c #C2DDDB",
"~. c #D4D7D8",
"^. c #D8DCDD",
"/. c #C7E1DF",
"(. c #D9E5E4",
"). c None",
/* pixels */
").).).).).).).).).).).).).).).).).).).).).).).).).).).).).).).).).).).).).).).).).).).).).).).).).).",
").).).).).).).).).).).).).).).).).).).).).).).).).).).).).).).).).).).).).).).).).).).).).).).).).).",
").).).).).).).).).).).).).).).).).).).).).).).).).).).).).).).).).).).).).).).).).).).).).).).).).).",
").).).).).).).).).).).).).).).).).).).).).).).).).).).).).).).).).).).).).).).).).).).).).).).).).).",
").).).).).).).).).).).).).).).).).).).).).).).).).).).).).).).).).).).).).).).).).).).).).).).).).).",
").).).).).).).).).).).).).).).).).).).).).).).).).).).).).).).).).).).).).).).).).).).).).).).).).).",
").).).).).).).).).).).).).).).).).).).).).).).).).).).).).).).).).).).).).).).).).).).).).).).).).).",
").).).).).).).).).).).).).).).).).).).).).).).).).).).).).).).).).).).).).).).).).).).).).).).).).).",
").).).).).).).).).).).).).).).).).).).).).).).).).).).).).).).).).).).).).).).).).).).).).).).).).).",
").).).).).).).).).).).).).).).).).).).).).).).).).).).).).).).).).).).).).).).).).).).).).).).).).).",
").).).).).).).).).).).).).).).).).).X 1 ).).).).).).).).).).).).).).).).).).).).).).).).).).).).).).",
").).).).).).).).).).).).).X = 9 f m A B a ).).).).).).).).).).).).).).).).).).).).).).).).).).).).).",
").).).).).).).).).).X 1 9 0 j  .9.>.=.:.@.M 8 ).).).).).).).).).).).).).).).).).).).).).).).).).).).",
").).).).).).).).).).. 5 f s m q.P.i.A.K.K.6.f ).).).).).).).).).).).).).).).).).).).).).).).).).).).",
").).).).).).).).).).).= > = 8 B G M A.(.!.i.l ).).).).).).).).).).).).).).).).).).).).).).).).).).).",
").).).).).).).).).).).).).).).& 3 8 u.Y.D.i.V 4 ).).).).).).).).).).).).).).).).).).).).).).).).).).",
").).).).).).).).).).).).).).).).< 7 2.w.0.w.,.$.j ).).).).).).).).).).).).).).).).).).).).).).).).).",
").).).).).).).).).).).).).).).).= 1 ..8.;.2.e.n.| 9 ).).).).).).).).).).).).).).).).).).).).).).).).",
").).).).).).).).).).).).).).).).p G 7.t.;.>.w.n.d. .d ).).).).).).).).).).).).).).).).).).).).).).).",
").).).).).).).).).).).).` ).).4 n 2.M.Z.2.7.t.z.m.r.q.G * = ).).).).).).).).).).).).).).).).).).).).",
").).).).).).).).).).).~ T t # > A 2.B.e.%.| c ..g.d.y.,.m N j 3 1 % ).).).).).).).).).).).).).).).).",
").).).).).).).).).).[ ! i e o 3 n =.B.m 0 q a c P P V N -.f.=.Z I S 2 ).).).).).).).).).).).).).).).",
").).).).).).).).c.l.[ ( Y u - + p G =.| o.=.o.x f z S F D U &.a.Q.j.g 9 X ).).).).).).).).).).).).).",
").).).).).).).).).).).) Q R ).).).9 6 S T.L.1.Z 9.W.H.g.,.a.j.E.(.~.x q X ).).).).).).).).).).).).).",
").).).).).).).).).).).).).).).).).$ 2 s t.a.5.s #.C.V.z.z.W.j.j.E.~.b = ).).).).).).).).).).).).).).",
").).).).).).).).).).).).).).).).).2 z J g b 5.w K z.G.L.#.H H &. .F 4 ).).).).).).).).).).).).).).).",
").).).).).).).).).).).).).).).).% 2 N o.z F a.v &.j.j.<.v -.f.o.q = ).).).).).).).).).).).).).).).).",
").).).).).).).).).).).).).).).).% ; 6 6 ] T.H.*.v g g k B P J x ).).).).).).).).).).).).).).).).).).",
").).).).).).).).).).).).).).).).).).% ; S h.w.@.v M +.;.0.X.= $ ).).).).).).).).).).).).).).).).).).",
").).).).).).).).).).).).).).).).).).9 x U J x a q +.D.N.r.k ).).).).).).).).).).).).).).).).).).).).",
").).).).).).).).).).).).).).).).).).k -.N.k l C +.e.m.r.B ).).).).).).).).).).).).).).).).).).).).).",
").).).).).).).).).).).).).( E y & > n =.m.t.8.8.8.t.D.=.0 ).).).).).).).).).).).).).).).).).).).).).",
").).).).).).).).).).).).{ ( Y t O > j  .d.D.e.>.2.e.m.G = ).).).).).).).).).).).).).).).).).).).).).",
").).).).).).).).).).v.x.} _ Y r - @ 0 J 9.r.t.;.2.7.2.V ).).).).).).).).).).).).).).).).).).).).).).",
").).).).).).).).).).).).).' / W ).).).4 7 f t.2.7.7.B = ).).).).).).).).).).).).).).).).).).).).).).",
").).).).).).).).).).).).).).).).).).).X 3 0 t.A.F.Z.M ).).).).).).).).).).).).).).).).).).).).).).).",
").).).).).).).).).).).).).).).).).).).)., 4 6.!./.U.K 7 ).).).).).).).).).).).).).).).).).).).).).).",
").).).).).).).).).).).).).).).).).).).$ 3 0 %.Y.R.F.P 7 ).).).).).).).).).).).).).).).).).).).).).).",
").).).).).).).).).).).).).).).).).).).9 | w.y.y.0.$.j ).).).).).).).).).).).).).).).).).).).).).).).",
").).).).).).).).).).).).).).).).).> 3 d 2.P.e.*.| n ).).).).).).).).).).).).).).).).).).).).).).).).",
").).).).).).).).).).).).).).).).& a d g A L A h q 1 ).).).).).).).).).).).).).).).).).).).).).).).).",
").).).).).).).).).).).).).).).).X 9 4 > = X   ).).).).).).).).).).).).).).).).).).).).).).).).).).).",
").).).).).).).).).).).).).).).).X X ).).).).).).).).).).).).).).).).).).).).).).).).).).).).).).).).",
").).).).).).).).).).).).).).).).).).).).).).).).).).).).).).).).).).).).).).).).).).).).).).).).).).",
").).).).).).).).).).).).).).).).).).).).).).).).).).).).).).).).).).).).).).).).).).).).).).).).).).",
").).).).).).).).).).).).).).).).).).).).).).).).).).).).).).).).).).).).).).).).).).).).).).).).).).",
").).).).).).).).).).).).).).).).).).).).).).).).).).).).).).).).).).).).).).).).).).).).).).).).).).",
").).).).).).).).).).).).).).).).).).).).).).).).).).).).).).).).).).).).).).).).).).).).).).).).).).",
").).).).).).).).).).).).).).).).).).).).).).).).).).).).).).).).).).).).).).).).).).).).).).).).).).",
").).).).).).).).).).).).).).).).).).).).).).).).).).).).).).).).).).).).).).).).).).).).).).).).).)."
};
