/* XPM */
static char *nave2___14[] = {
/* columns rows colors chars-per-pixel */
"50 50 205 2 ",
"   c #060C09",
".  c #0B0C0B",
"X  c #030C07",
"o  c #06100A",
"O  c #150D11",
"+  c #190D14",
"@  c #140A1C",
"#  c #091617",
"$  c #151615",
"%  c #1B1B1A",
"&  c #14131C",
"*  c #0F081C",
"=  c #250C19",
"-  c #1B211C",
";  c #23221F",
":  c #1D1E21",
">  c #3C0E28",
",  c #3D0721",
"<  c #3D152D",
"1  c #281823",
"2  c #1C2223",
"3  c #222729",
"4  c #252529",
"5  c #3C2B37",
"6  c #343539",
"7  c #3A272F",
"8  c #430B16",
"9  c #520B18",
"0  c #790619",
"q  c #620917",
"w  c #480D2D",
"e  c #400F2B",
"r  c #47102F",
"t  c #4A0E30",
"y  c #560B35",
"u  c #4D1334",
"i  c #551339",
"p  c #63002C",
"a  c #630231",
"s  c #77033A",
"d  c #621A3D",
"f  c #422C38",
"g  c #53253E",
"h  c #44303D",
"j  c #3F3B45",
"k  c #6E1245",
"l  c #671A47",
"z  c #77164B",
"x  c #7C1F50",
"c  c #6F0942",
"v  c #443E41",
"b  c #4D3446",
"n  c #533949",
"m  c #583F51",
"M  c #5D2744",
"N  c #6E254C",
"B  c #792557",
"V  c #683A56",
"C  c #7A345E",
"Z  c #7B3761",
"A  c #454349",
"S  c #544453",
"D  c #5E4C5A",
"F  c #4F5154",
"G  c #66505E",
"H  c #5B5963",
"J  c #734E66",
"K  c #6E6C74",
"L  c #85071C",
"P  c #9C0A1B",
"I  c #91132C",
"U  c #AC0F26",
"Y  c #B90F20",
"T  c #CC111D",
"R  c #D51D33",
"E  c #FA1D2F",
"W  c #E4212D",
"Q  c #E92A38",
"!  c #FF2634",
"~  c #980249",
"^  c #85164D",
"/  c #980C58",
"(  c #811150",
")  c #8E1258",
"_  c #891B56",
"`  c #8C1454",
"'  c #84255E",
"]  c #912258",
"[  c #AF0F6A",
"{  c #B11869",
"}  c #B7166D",
"|  c #912D67",
" . c #A62868",
".. c #AB3879",
"X. c #AE2777",
"o. c #D1127F",
"O. c #C71B72",
"+. c #C22D77",
"@. c #C9297B",
"#. c #C2317E",
"$. c #F73867",
"%. c #865C7B",
"&. c #93577A",
"*. c #8F4872",
"=. c #B5437B",
"-. c #856A7E",
";. c #F84A5C",
":. c #F85269",
">. c #FF637C",
",. c #BC2F82",
"<. c #D91787",
"1. c #F21794",
"2. c #EF118A",
"3. c #CD318C",
"4. c #D5328F",
"5. c #F82A9E",
"6. c #FF1DA7",
"7. c #FF23A9",
"8. c #FE2BAC",
"9. c #FD26A5",
"0. c #FC31AD",
"q. c #F439AA",
"w. c #FC3BB1",
"e. c #FF33B0",
"r. c #E93CA1",
"t. c #9A5A86",
"y. c #BF5E8E",
"u. c #B75B95",
"i. c #8C6584",
"p. c #966489",
"a. c #91708E",
"s. c #957191",
"d. c #8C748A",
"f. c #AA6997",
"g. c #AC739D",
"h. c #B97596",
"j. c #B96196",
"k. c #AE76A0",
"l. c #BA78A7",
"z. c #C54385",
"x. c #D34799",
"c. c #C74D92",
"v. c #D454A2",
"b. c #EB49AE",
"n. c #F44BB4",
"m. c #F74AB6",
"M. c #EC5AB5",
"N. c #F45BBC",
"B. c #F157B5",
"V. c #EF4CAE",
"C. c #C861A5",
"Z. c #C47AA9",
"A. c #D968B2",
"S. c #CE78B3",
"D. c #DB72B5",
"F. c #D079B6",
"G. c #DE78BD",
"H. c #E767B9",
"J. c #F362BF",
"K. c #ED6BC0",
"L. c #F16FC4",
"P. c #E775C1",
"I. c #E979C3",
"U. c #F077C7",
"Y. c #7F8081",
"T. c #8B8A8C",
"R. c #90828B",
"E. c #9B829E",
"W. c #A18198",
"Q. c #9E93A7",
"!. c #A380A0",
"~. c #B781AC",
"^. c #A499A2",
"/. c #B790B3",
"(. c #FF878A",
"). c #FE948D",
"_. c #FE9F90",
"`. c #CA88A9",
"'. c #D287AC",
"]. c #C888B6",
"[. c #D685B7",
"{. c #CB9AB2",
"}. c #C898AF",
"|. c #D2A0BA",
" X c #FDE3A1",
".X c #DC8AC6",
"XX c #C999C5",
"oX c #D995C9",
"OX c #E48BCA",
"+X c #EA8DCC",
"@X c #E194CC",
"#X c #CDABCE",
"$X c #CBA1CA",
"%X c #C8B4C0",
"&X c #DAB2D4",
"*X c #DBADCF",
"=X c #E5A5CE",
"-X c #E3B8D4",
";X c #EEA6D3",
":X c #D6C5DA",
">X c #D0C7CC",
",X c #D3DFE3",
"<X c #D9E3E4",
"1X c #E5F4EF",
"2X c None",
/* pixels */
"2X2X2X2X2X2X2X2X2X2X2X2X2X2X2X2X2X2X2X2X2X2X2X2X2X2X2X2X2X2X2X2X2X2X2X2X2X2X2X2X2X2X2X2X2X2X2X2X2X2X",
"2X2X2X2X2X2X2X2X2X2X2X2X2X2X2X2X2X2X2X2X2X2X2X2X2X2X2X2X2X2X2X2X2X2X2X2X2X2X2X2X2X2X2X2X2X2X2X2X2X2X",
"2X2X2X2X2X2X2X2X2X2X2X2X2X2X2X2X2X2X2X2X2X2X2X2X2X2X2X2X2X2X2X2X2X2X2X2X2X2X2X2X2X2X2X2X2X2X2X2X2X2X",
"2X2X2X2X2X2X2X2X2X2X2X2X2X2X2X2X2X2X2X2X2X2X2X2X2X2X2X2X2X2X2X2X2X2X2X2X2X2X2X2X2X2X2X2X2X2X2X2X2X2X",
"2X2X2X2X2X2X2X2X2X2X2X2X2X2X2X2X2X2X2X2X2X2X2X2X2X2X2X2X2X2X2X2X2X2X2X2X2X2X2X2X2X2X2X2X2X2X2X2X2X2X",
"2X2X2X2X2X2X2X2X2X2X2X2X2X2X2X2X2X2X2X2X2X2X2X2X2X2X2X2X2X2X2X2X2X2X2X2X2X2X2X2X2X2X2X2X2X2X2X2X2X2X",
"2X2X2X2X2X2X2X2X2X2X2X2X2X2X2X2X2X2X2X2X2X2X2X2X2X2X2X2X2X2X2X2X2X2X2X2X2X2X2X2X2X2X2X2X2X2X2X2X2X2X",
"2X2X2X2X2X2X2X2X2X2X2X2X2X2X2X2X2X2X2X2X2X2X2X2X2X2X2X2X2X2X2X2X2X2X2X2X2X2X2X2X2X2X2X2X2X2X2X2X2X2X",
"2X2X2X2X2X2X2X2X2X2X2X2X2X2X2X2X2X2X2X2X2X2X2X2X X2X2X2X2X2X2X2X2XX . 2X2X2X2X2X2X2X2X2X2X2X2X2X2X2X",
"2X2X2X2X2X2X2X2X2X2X2X2X2X2X2X2X2X2X2X2X2X2X2X2X_.(.2X2X2X2X2X2X2X> r . 2X2X2X2X2X2X2X2X2X2X2X2X2X2X",
"2X2X2X2X2X2X2X2X2X2X2X2X2X2X2X2X2X2X2X2X2X2X2X2X>.;.Q 2X2X2X2X2X@ z l = 2X2X2X2X2X2X2X2X2X2X2X2X2X2X",
"2X2X2X2X2X2X2X2X2X2X2X2X2X2X2X2X2X2X2X2X2X2X2X2XW T U $.2X2X2X2X# u k r 2X2X2X2X2X2X2X2X2X2X2X2X2X2X",
"2X2X2X2X2X2X2X2X2X2X2X2X2X2X2X2X2X2X2X2X2X2X2X! Y L q L 2X2X2X2X2X5 | ) @ 2X2X2X2X2X2X2X2X2X2X2X2X2X",
"2X2X2X2X2X2X2X2X2X2X2X2X2X2X_.2X2X2X2X2X2X2X2X2XP 9 = @ 2X2X2X2X& K /.c.c 2X2X2X2X2X2X2X2X2X2X2X2X2X",
"2X2X2X2X2X2X2X2X2X2X2X2X2X(.>.:.2X2X2X2X2X2X2X2X2X: @ : 2X2X2X$ : H #XD.} . 2X2X2X2X2X2X2X2X2X2X2X2X",
"2X2X2X2X2X2X2X2X2X2X2X2X2X;.Q T R 2X2X2X2X2X2X2X2X# y / _ ' : 3 2 6 ].q.<.t 2X2X2X2X2X2X2X2X2X2X2X2X",
"2X2X2X2X2X2X2X2X2X2X2X2X2XE P 0 I U 2X2X2X2X2X2X2Xl { 1.5.C.j j %.l.oXN.2.) 2X2X2X2X2X2X2X2X2X2X2X2X",
"2X2X2X2X2X2X2X2X2X2X2X2X2XE 0 , 8 2X2X2X2X- ; % % ' r.U.oX{.l.S.G.:X<X.X1.z 2X2X2X2X2X2X2X2X2X2X2X2X",
"2X2X2X2X2X2X2X2X2X2X2X2X2X2X0 * * # 2X2X- 7 N g - n W.!.].P.n.7.n.&X:X+X,.t 2X2X2X2X2X2X2X2X2X2X2X2X",
"2X2X2X2X2X2X. X + 2X2X2X2X2X2X: y k N < - N <.{ A T.K 6 k.q.6.7.w.U.G.u.x 2X2X2X2X2X2X2X2X2X2X2X2X2X",
"2X2X2X2X2X2X. u k + 2X2X2X2X2Xl [ 2.4.C ; 5 X.' l.-Xs.v J A.7.e.w.3.Z n > 2X2X2X2X2X2X2X2X2X2X2X2X2X",
"2X2X2X2X2X2X  i z e o 2X2X2X1 3.5.M..Xd.-.].%.n d.-X].G 6 l.m.N.M. .2X2X2X2X2X2X2X2X2X2X2X2X2X2X2X2X",
"2X2X2X2X2X2X2X= k N A 2 2 2 2 t.XX$Xa.F ^.=X%XT.^.y.=.G S k.I.+XZ.V 2X2X2X2X2X2X2X2X2X2X2X2X2X2X2X2X",
"2X2X2X2X2X2X2XX ) u.Q.H 2 2 j a..XP.g.6 -.{.`.J f ] X.N i..XOXA.h 2X2X2X2X2X2X2X2X2X2X2X2X2X2X2X2X2X",
"2X2X2X2X2X2X2X2Xc v.#Xs.S p.S.M.0.7.C.D S &.{  .*.j.'.I p.oXN.X.2X2X2X2X2X2X2X2X2X2X2X2X2X2X2X2X2X2X",
"2X2X2X2X2X2X2X2X+ <.M.G.XX&XP.7.7.8.b.i.h D ^ '.D.U.;X*.Z ~.I.B 2X2X2X2X2X2X2X2X2X2X2X2X2X2X2X2X2X2X",
"2X2X2X2X2X2X2X2X2X/ 1.B.:X,X@Xm.0.w.m.S.g.-.^ h.;XJ.+X`.z p.k.4 2X2X2X2X2X2X2X2X2X2X2X2X2X2X2X2X2X2X",
"2X2X2X2X2X2X2X2X2X> <.8.@X&X+Xb.q.N.I..X@X].J ] -XH.G.+. .t.b 2X2X2X2X2X2X2X2X2X2X2X2X2X2X2X2X2X2X2X",
"2X2X2X2X2X2X2X2X2X2X( [ x.C.*.|  .S.l.K.N.+Xi.( =.x.[.c.4.D.D 2X2X2X2X2X2X2X2X2X2X2X2X2X2X2X2X2X2X2X",
"2X2X2X2X2X2X2X2X2X2X2X2Xi l 5 2X2Xb 4 x ..D.k.*.+.+.>X{.@.v.V 2X2X2X2X2X2X2X2X2X2X2X2X2X2X2X2X2X2X2X",
"2X2X2X2X2X2X2X2X2X2X2X2X2X2X2X2X2X2X2X2X2Xb V &.+XO.{.%XZ...y 2X2X2X2X2X2X2X2X2X2X2X2X2X2X2X2X2X2X2X",
"2X2X2X2X2X2X2X2X2X2X2X2X2X2X2X2X2X2X2X2X2X2X  D y.#.'.>X>Xh.a 2X2X2X2X2X2X2X2X2X2X2X2X2X2X2X2X2X2X2X",
"2X2X2X2X2X2X2X2X2X2X2X2X2X2X2X2X2X2X2X2X2X2X2X2Xg _ {.<X1X{.d 2X2X2X2X2X2X2X2X2X2X2X2X2X2X2X2X2X2X2X",
"2X2X2X2X2X2X2X2X2X2X2X2X2X2X2X2X2X2X2X2X2X2X2X2X2Xp h.|.z.~ , 2X2X2X2X2X2X2X2X2X2X2X2X2X2X2X2X2X2X2X",
"2X2X2X2X2X2X2X2X2X2X2X2X2X2X2X2X2X2X2X2X2X2X2X2X2X2Xw s ~ s 2X2X2X2X2X2X2X2X2X2X2X2X2X2X2X2X2X2X2X2X",
"2X2X2X2X2X2X2X2X2X2X2X2X2X2X2X2X2X2X2X2X2X2X2X2X2X2X2X2X, O 2X2X2X2X2X2X2X2X2X2X2X2X2X2X2X2X2X2X2X2X",
"2X2X2X2X2X2X2X2X2X2X2X2X2X2X2X2X2X2X2X2X2X2X2X2X2X2X2X2X2XO 2X2X2X2X2X2X2X2X2X2X2X2X2X2X2X2X2X2X2X2X",
"2X2X2X2X2X2X2X2X2X2X2X2X2X2X2X2X2X2X2X2X2X2X2X2X2X2X2X2X2X2X2X2X2X2X2X2X2X2X2X2X2X2X2X2X2X2X2X2X2X2X",
"2X2X2X2X2X2X2X2X2X2X2X2X2X2X2X2X2X2X2X2X2X2X2X2X2X2X2X2X2X2X2X2X2X2X2X2X2X2X2X2X2X2X2X2X2X2X2X2X2X2X",
"2X2X2X2X2X2X2X2X2X2X2X2X2X2X2X2X2X2X2X2X2X2X2X2X2X2X2X2X2X2X2X2X2X2X2X2X2X2X2X2X2X2X2X2X2X2X2X2X2X2X",
"2X2X2X2X2X2X2X2X2X2X2X2X2X2X2X2X2X2X2X2X2X2X2X2X2X2X2X2X2X2X2X2X2X2X2X2X2X2X2X2X2X2X2X2X2X2X2X2X2X2X",
"2X2X2X2X2X2X2X2X2X2X2X2X2X2X2X2X2X2X2X2X2X2X2X2X2X2X2X2X2X2X2X2X2X2X2X2X2X2X2X2X2X2X2X2X2X2X2X2X2X2X",
"2X2X2X2X2X2X2X2X2X2X2X2X2X2X2X2X2X2X2X2X2X2X2X2X2X2X2X2X2X2X2X2X2X2X2X2X2X2X2X2X2X2X2X2X2X2X2X2X2X2X",
"2X2X2X2X2X2X2X2X2X2X2X2X2X2X2X2X2X2X2X2X2X2X2X2X2X2X2X2X2X2X2X2X2X2X2X2X2X2X2X2X2X2X2X2X2X2X2X2X2X2X",
"2X2X2X2X2X2X2X2X2X2X2X2X2X2X2X2X2X2X2X2X2X2X2X2X2X2X2X2X2X2X2X2X2X2X2X2X2X2X2X2X2X2X2X2X2X2X2X2X2X2X",
"2X2X2X2X2X2X2X2X2X2X2X2X2X2X2X2X2X2X2X2X2X2X2X2X2X2X2X2X2X2X2X2X2X2X2X2X2X2X2X2X2X2X2X2X2X2X2X2X2X2X",
"2X2X2X2X2X2X2X2X2X2X2X2X2X2X2X2X2X2X2X2X2X2X2X2X2X2X2X2X2X2X2X2X2X2X2X2X2X2X2X2X2X2X2X2X2X2X2X2X2X2X",
"2X2X2X2X2X2X2X2X2X2X2X2X2X2X2X2X2X2X2X2X2X2X2X2X2X2X2X2X2X2X2X2X2X2X2X2X2X2X2X2X2X2X2X2X2X2X2X2X2X2X",
"2X2X2X2X2X2X2X2X2X2X2X2X2X2X2X2X2X2X2X2X2X2X2X2X2X2X2X2X2X2X2X2X2X2X2X2X2X2X2X2X2X2X2X2X2X2X2X2X2X2X",
"2X2X2X2X2X2X2X2X2X2X2X2X2X2X2X2X2X2X2X2X2X2X2X2X2X2X2X2X2X2X2X2X2X2X2X2X2X2X2X2X2X2X2X2X2X2X2X2X2X2X"
};
