/* XPM */
static char *nave2___11[] = {
/* columns rows colors chars-per-pixel */
"50 50 214 2 ",
"   c #000B03",
".  c #0C0C0C",
"X  c #050C08",
"o  c #100D0F",
"O  c #0F120F",
"+  c #0F0F15",
"@  c #150C13",
"#  c #1C0E16",
"$  c #1C081F",
"%  c #07151A",
"&  c #0E1310",
"*  c #181616",
"=  c #191C1A",
"-  c #171719",
";  c #220D18",
":  c #280D1B",
">  c #390719",
",  c #23201F",
"<  c #1E0620",
"1  c #1C1721",
"2  c #3B162C",
"3  c #2B1226",
"4  c #1C2021",
"5  c #212322",
"6  c #23292B",
"7  c #252527",
"8  c #2D2830",
"9  c #3D2830",
"0  c #3B2634",
"q  c #363537",
"w  c #31262A",
"e  c #4F0B17",
"r  c #690718",
"t  c #7A0718",
"y  c #5E022F",
"u  c #4A102F",
"i  c #4E0B31",
"p  c #590C38",
"a  c #4D1034",
"s  c #4A1836",
"d  c #5C123C",
"f  c #531638",
"g  c #430825",
"h  c #620E3C",
"j  c #640633",
"k  c #750036",
"l  c #442939",
"z  c #47323E",
"x  c #53263E",
"c  c #3E3A40",
"v  c #5D1C43",
"b  c #681846",
"n  c #741347",
"m  c #75174C",
"M  c #7E1B55",
"N  c #53364B",
"B  c #503547",
"V  c #6B214A",
"C  c #712855",
"Z  c #72315B",
"A  c #7B3D62",
"S  c #3F4645",
"D  c #5B4857",
"F  c #49454F",
"G  c #624F5B",
"H  c #595760",
"J  c #644B62",
"K  c #7C4A6B",
"L  c #675265",
"P  c #735769",
"I  c #7C5D76",
"U  c #7B5672",
"Y  c #776979",
"T  c #6E6A6E",
"R  c #920418",
"E  c #AA0816",
"W  c #93132B",
"Q  c #B01229",
"!  c #C40D1C",
"~  c #DB1727",
"^  c #C71529",
"/  c #E61E2F",
"(  c #FF212A",
")  c #F3303C",
"_  c #960248",
"`  c #85164C",
"'  c #90195D",
"]  c #91115A",
"[  c #A41D5E",
"{  c #842359",
"}  c #92245A",
"|  c #8D355F",
" . c #931F60",
".. c #B90A62",
"X. c #A61565",
"o. c #B5136F",
"O. c #BB1171",
"+. c #BB1F79",
"@. c #A30D62",
"#. c #8E3C67",
"$. c #9C3070",
"%. c #8D2464",
"&. c #AB336D",
"*. c #AA2874",
"=. c #BE2D73",
"-. c #B52073",
";. c #BC3074",
":. c #EC3141",
">. c #E9335E",
",. c #CD157B",
"<. c #C00764",
"1. c #C8257C",
"2. c #C3317F",
"3. c #86456E",
"4. c #974A77",
"5. c #865375",
"6. c #99476F",
"7. c #B04179",
"8. c #A14479",
"9. c #827179",
"0. c #F64A5C",
"q. c #F9536B",
"w. c #FD6077",
"e. c #7E7485",
"r. c #B93788",
"t. c #D91B89",
"y. c #F91894",
"u. c #ED1490",
"i. c #D93997",
"p. c #CA3586",
"a. c #E5339B",
"s. c #FF1EA7",
"d. c #FF24A9",
"f. c #FD2EAC",
"g. c #F639AD",
"h. c #FF35B1",
"j. c #FE3CB3",
"k. c #EA39A3",
"l. c #AB588D",
"z. c #AE5E90",
"x. c #B14886",
"c. c #946385",
"v. c #976A8D",
"b. c #9D6890",
"n. c #8C6E88",
"m. c #A36C95",
"M. c #A6739B",
"N. c #B76296",
"B. c #BC7CAC",
"V. c #B877A6",
"C. c #CA5A96",
"Z. c #D3569C",
"A. c #C36797",
"S. c #C8739D",
"D. c #FF7584",
"F. c #DA58A8",
"G. c #F643AC",
"H. c #EF4EB0",
"J. c #FB44B3",
"K. c #F748B4",
"L. c #EC56B5",
"P. c #F35BBC",
"I. c #F152B6",
"U. c #E24FAA",
"Y. c #CD6EAE",
"T. c #C57BAD",
"R. c #D87AB9",
"E. c #D46EB3",
"W. c #EB63B9",
"Q. c #EA6BBB",
"!. c #E668B9",
"~. c #E978BE",
"^. c #ED6CC0",
"/. c #EB72C1",
"(. c #E57AC3",
"). c #ED79C5",
"_. c #F271C6",
"`. c #89878A",
"'. c #8B8891",
"]. c #B689A8",
"[. c #BD88B4",
"{. c #B691AC",
"}. c #B9A7BA",
"|. c #FF8E8B",
" X c #FEB094",
".X c #C086A7",
"XX c #CA86B9",
"oX c #D088BD",
"OX c #C99AB1",
"+X c #D895BE",
"@X c #C7A3B6",
"#X c #FDE1A1",
"$X c #D38DC3",
"%X c #D494C5",
"&X c #DE95CB",
"*X c #D89BC8",
"=X c #CB9FC9",
"-X c #E48CCB",
";X c #E491CC",
":X c #E697C5",
">X c #ED9CD0",
",X c #CCA2CC",
"<X c #D6B5C8",
"1X c #DAB7D7",
"2X c #CFB5CD",
"3X c #E6A9CF",
"4X c #E3B3D1",
"5X c #D3C8CE",
"6X c #D4D2DD",
"7X c #D1C6D1",
"8X c #E0D5DC",
"9X c #D2E3E3",
"0X c #E1F0EB",
"qX c None",
/* pixels */
"qXqXqXqXqXqXqXqXqXqXqXqXqXqXqXqXqXqXqXqXqXqXqXqXqXqXqXqXqXqXqXqXqXqXqXqXqXqXqXqXqXqXqXqXqXqXqXqXqXqX",
"qXqXqXqXqXqXqXqXqXqXqXqXqXqXqXqXqXqXqXqXqXqXqXqXqXqXqXqXqXqXqXqXqXqXqXqXqXqXqXqXqXqXqXqXqXqXqXqXqXqX",
"qXqXqXqXqXqXqXqXqXqXqXqXqXqXqXqXqXqXqXqXqXqXqXqXqXqXqXqXqXqXqXqXqXqXqXqXqXqXqXqXqXqXqXqXqXqXqXqXqXqX",
"qXqXqXqXqXqXqXqXqXqXqXqXqXqXqXqXqXqXqXqXqXqXqXqXqXqXqXqXqXqXqXqXqXqXqXqXqXqXqXqXqXqXqXqXqXqXqXqXqXqX",
"qXqXqXqXqXqXqXqXqXqXqXqXqXqXqXqXqXqXqXqXqXqXqXqXqXqXqXqXqXqXqXqXqXqXqXqXqXqXqXqXqXqXqXqXqXqXqXqXqXqX",
"qXqXqXqXqXqXqXqXqXqXqXqXqXqXqXqXqXqXqXqXqXqXqX. qXqXqXqXqXqXqXqXqXqXqXqXqXqXqXqXqXqXqXqXqXqXqXqXqXqX",
"qXqXqXqXqXqXqXqXqXqXqXqXqXqXqXqXqXqXqXqXqXqXqX. : X qXqXqXqXqXqXqXqXqXqXqXqXqXqXqXqXqXqXqXqXqXqXqXqX",
"qXqXqXqXqXqXqXqXqXqXqXqXqXqXqXqXqXqXqXqXqXqXqXu b a @ qXqXqXqXqXqXqXqXqXqXqXqXqXqXqXqXqXqXqXqXqXqXqX",
"qXqXqXqXqXqXqXqXqXqXqXqXqXqXqXqXqXqXqXqXqXqXqX2 m n n i   qXqXqXqXqXqXqXqXqXqXqXqXqXqXqXqXqXqXqXqXqX",
"qXqXqXqXqXqXqXqXqXqXqXqXqXqXqXqXqXqXqXqXqXqXqXqX1 C l.p.] : qXqXqXqXqXqXqXqXqXqXqXqXqXqXqXqXqXqXqXqX",
"qXqXqXqXqXqXqXqXqXqXqXqXqXqXqXqXqXqXqXqXqXqXqXqXqXH }.*Xi.O.d qXqXqXqXqXqXqXqXqXqXqXqXqXqXqXqXqXqXqX",
"qXqXqXqXqXqXqXqXqXqXqXqXqXqXqX#XqXqXqXqXqXqXqXqXqX8 e.XXG.y.O.d qXqXqXqXqXqXqXqXqXqXqXqXqXqXqXqXqXqX",
"qXqXqXqXqXqXqXqXqXqXqXqXqXqXqX XD.q.~ >.qXqXqXqX+ 6 6 m.&XP.u.d qXqXqXqXqXqXqXqXqXqXqXqXqXqXqXqXqXqX",
"qXqXqXqXqXqXqXqXqXqXqXqXqXqXqXqXw.~ R r r qXqXqX4 6 J %X9X1X!.M qXqXqXqXqXqXqXqXqXqXqXqXqXqXqXqXqXqX",
"qXqXqXqXqXqXqXqXqXqXqXqXqXqXqXqX) ! t > + % v C 8 q B.&X6X1XY.m qXqXqXqXqXqXqXqXqXqXqXqXqXqXqXqXqXqX",
"qXqXqXqXqXqXqXqXqXqXqXqXqXqXqXqXqX/ t ; < h  .k.b.M.L.j._.(.K 0 qXqXqXqXqXqXqXqXqXqXqXqXqXqXqXqXqXqX",
"qXqXqXqXqXqXqXqXqXqXqXqXqXqXqXqXqXqXqXqX= ..y.Q.,X(.s.d.J.i.m qXqXqXqXqXqXqXqXqXqXqXqXqXqXqXqXqXqXqX",
"qXqXqXqXqXqXqXqXqXqXqXqXqXqXqXqXqXqXqXqXf -.J.,X$Xg.s.f.j.i.V qXqXqXqXqXqXqXqXqXqXqXqXqXqXqXqXqXqXqX",
"qXqXqXqXqXqXqXqXqXqXqXqXqXqXqXqXqXqXqXqX2 $.[.T c.Y.g.g.P.R.K qXqXqXqXqXqXqXqXqXqXqXqXqXqXqXqXqXqXqX",
"qXqXqXqXqXqXqXqXqXqXqXqXqXqXqXqXqXqX* = = w Y T q D V.!.(.oX0 qXqXqXqXqXqXqXqXqXqXqXqXqXqXqXqXqXqXqX",
"qXqXqXqXqXqXqXqXqXqXqXqXqXqXqXqXqX* , x l 9 }.{.9.q B B.;XP.b qXqXqXqXqXqXqXqXqXqXqXqXqXqXqXqXqXqXqX",
"qXqXqXqXqXqXqXqXqX XD.0./ qXqXqXqX* 9 *.t.6.*X3XT.P G T.;XI.%.qXqXqXqXqXqXqXqXqXqXqXqXqXqXqXqXqXqXqX",
"qXqXqXqXqXqXqXqXqX|.w.~ Q W qXqXqX& 7 } -.z Y @X=.} V v.[.;X4.qXqXqXqXqXqXqXqXqXqXqXqXqXqXqXqXqXqXqX",
"qXqXqXqXqXqXqXqXqXqX:.E r e - qXs 2 , q z.L `.9.` C.4.n 3.m.v.& qXqXqXqXqXqXqXqXqXqXqXqXqXqXqXqXqXqX",
"qXqXqXqXqXqXqXqXqXqX( ^ e $ < a  .*.G '.4X@X{.l 3.R.3X.X{ | 5.l qXqXqXqXqXqXqXqXqXqXqXqXqXqXqXqXqXqX",
"qXqXqXqXqXqXqXqXqXqXqX~ R % 3 ..y.).n.'.OX+X=.&.A.Q.).:X2.2.~.4.9 qXqXqXqXqXqXqXqXqXqXqXqXqXqXqXqXqX",
"qXqXqXqXqXqXqXqXqXqXqXqXqXqXb ,.G.,XL q P c.} &.4X>XQ.Q.Z.2.p.C.h qXqXqXqXqXqXqXqXqXqXqXqXqXqXqXqXqX",
"qXqXqXqXqXqXqXqXqXqXqXqXqXqXV k.%X*XV.I q S D m } OX:XF.@X@XA.A.| y qXqXqXqXqXqXqXqXqXqXqXqXqXqXqXqX",
"qXqXqXqXqXqXqXqXqXqXqXqXqXqX= N [.(.f.F.m.U m.v.K ` [ ..S.@X5X5X<X#.qXqXqXqXqXqXqXqXqXqXqXqXqXqXqXqX",
"qXqXqXqXqXqXqXqXqXX qXqXqX- 6 c T.g.d.h.I.oX&X-XV.5.6.Q.1.S.5X0X<X_ : qXqXqXqXqXqXqXqXqXqXqXqXqXqXqX",
"qXqXqXqXqXqXqXo b p - 4 4 6 6 b.L.d.d.h.P.-X).P.-Xm.3.N.C.7.@X8X2._ g qXqXqXqXqXqXqXqXqXqXqXqXqXqXqX",
"qXqXqXqXqXqX. ; b m m I '.F J %X&XI.j.K./..Xr.{ Z l * N x j ` 6.k j . qXqXqXqXqXqXqXqXqXqXqXqXqXqXqX",
"qXqXqXqXqXqXqXqX@ a ' V.2XB.$X6X6X;XU.,.z.N qXqXqXqXqXqXqXqX> qXqXqXqXqXqXqXqXqXqXqXqXqXqXqXqXqXqXqX",
"qXqXqXqXqXqXqXqXqX  i ,.F.H.P.1X1X$X3.a qXqXqXqXqXqXqXqXqXqXqXqXqXqXqXqXqXqXqXqXqXqXqXqXqXqXqXqXqXqX",
"qXqXqXqXqXqXqXqXqXqXqX; @.u.y.G.Q.x.N qXqXqXqXqXqXqXqXqXqXqXqXqXqXqXqXqXqXqXqXqXqXqXqXqXqXqXqXqXqXqX",
"qXqXqXqXqXqXqXqXqXqXqXqX  v o.X.' d qXqXqXqXqXqXqXqXqXqXqXqXqXqXqXqXqXqXqXqXqXqXqXqXqXqXqXqXqXqXqXqX",
"qXqXqXqXqXqXqXqXqXqXqXqXqXqXqXqXqXqXqXqXqXqXqXqXqXqXqXqXqXqXqXqXqXqXqXqXqXqXqXqXqXqXqXqXqXqXqXqXqXqX",
"qXqXqXqXqXqXqXqXqXqXqXqXqXqXqXqXqXqXqXqXqXqXqXqXqXqXqXqXqXqXqXqXqXqXqXqXqXqXqXqXqXqXqXqXqXqXqXqXqXqX",
"qXqXqXqXqXqXqXqXqXqXqXqXqXqXqXqXqXqXqXqXqXqXqXqXqXqXqXqXqXqXqXqXqXqXqXqXqXqXqXqXqXqXqXqXqXqXqXqXqXqX",
"qXqXqXqXqXqXqXqXqXqXqXqXqXqXqXqXqXqXqXqXqXqXqXqXqXqXqXqXqXqXqXqXqXqXqXqXqXqXqXqXqXqXqXqXqXqXqXqXqXqX",
"qXqXqXqXqXqXqXqXqXqXqXqXqXqXqXqXqXqXqXqXqXqXqXqXqXqXqXqXqXqXqXqXqXqXqXqXqXqXqXqXqXqXqXqXqXqXqXqXqXqX",
"qXqXqXqXqXqXqXqXqXqXqXqXqXqXqXqXqXqXqXqXqXqXqXqXqXqXqXqXqXqXqXqXqXqXqXqXqXqXqXqXqXqXqXqXqXqXqXqXqXqX",
"qXqXqXqXqXqXqXqXqXqXqXqXqXqXqXqXqXqXqXqXqXqXqXqXqXqXqXqXqXqXqXqXqXqXqXqXqXqXqXqXqXqXqXqXqXqXqXqXqXqX",
"qXqXqXqXqXqXqXqXqXqXqXqXqXqXqXqXqXqXqXqXqXqXqXqXqXqXqXqXqXqXqXqXqXqXqXqXqXqXqXqXqXqXqXqXqXqXqXqXqXqX",
"qXqXqXqXqXqXqXqXqXqXqXqXqXqXqXqXqXqXqXqXqXqXqXqXqXqXqXqXqXqXqXqXqXqXqXqXqXqXqXqXqXqXqXqXqXqXqXqXqXqX",
"qXqXqXqXqXqXqXqXqXqXqXqXqXqXqXqXqXqXqXqXqXqXqXqXqXqXqXqXqXqXqXqXqXqXqXqXqXqXqXqXqXqXqXqXqXqXqXqXqXqX",
"qXqXqXqXqXqXqXqXqXqXqXqXqXqXqXqXqXqXqXqXqXqXqXqXqXqXqXqXqXqXqXqXqXqXqXqXqXqXqXqXqXqXqXqXqXqXqXqXqXqX",
"qXqXqXqXqXqXqXqXqXqXqXqXqXqXqXqXqXqXqXqXqXqXqXqXqXqXqXqXqXqXqXqXqXqXqXqXqXqXqXqXqXqXqXqXqXqXqXqXqXqX",
"qXqXqXqXqXqXqXqXqXqXqXqXqXqXqXqXqXqXqXqXqXqXqXqXqXqXqXqXqXqXqXqXqXqXqXqXqXqXqXqXqXqXqXqXqXqXqXqXqXqX",
"qXqXqXqXqXqXqXqXqXqXqXqXqXqXqXqXqXqXqXqXqXqXqXqXqXqXqXqXqXqXqXqXqXqXqXqXqXqXqXqXqXqXqXqXqXqXqXqXqXqX"
};
