/* XPM */
static char *nave1[] = {
/* columns rows colors chars-per-pixel */
"50 50 153 2 ",
"   c #0C0C0C",
".  c #070716",
"X  c #0F101C",
"o  c #141414",
"O  c #12141C",
"+  c #14181C",
"@  c #1B1A1B",
"#  c #1D1E20",
"$  c #151B21",
"%  c #1D2022",
"&  c #242222",
"*  c #232528",
"=  c #27282A",
"-  c #2D2A2B",
";  c #322C2C",
":  c #35302F",
">  c #252932",
",  c #2C2E31",
"<  c #2F3032",
"1  c #363637",
"2  c #323539",
"3  c #36393C",
"4  c #393C3F",
"5  c #393435",
"6  c #440B16",
"7  c #490E18",
"8  c #50111A",
"9  c #5C141B",
"0  c #63161C",
"q  c #751918",
"w  c #771718",
"e  c #3C3E41",
"r  c #3E4145",
"t  c #414244",
"y  c #45474A",
"u  c #444A4C",
"i  c #4A4C4D",
"p  c #4A4E52",
"a  c #4C5155",
"s  c #4E5558",
"d  c #4B5A5A",
"f  c #555051",
"g  c #505459",
"h  c #56595D",
"j  c #595B5D",
"k  c #565E61",
"l  c #5B5E62",
"z  c #635F60",
"x  c #4F6160",
"c  c #5F656C",
"v  c #5D716F",
"b  c #64686E",
"n  c #696B6E",
"m  c #626367",
"M  c #616C70",
"N  c #696F74",
"B  c #657577",
"V  c #6E7276",
"C  c #677778",
"Z  c #6E7379",
"A  c #71767B",
"S  c #707174",
"D  c #981A17",
"F  c #89221F",
"G  c #892320",
"H  c #A82B28",
"J  c #F73527",
"K  c #F93A2D",
"L  c #D74C18",
"P  c #DD4B18",
"I  c #D44915",
"U  c #D45C18",
"Y  c #E15A19",
"T  c #D46018",
"R  c #F86026",
"E  c #FB5247",
"W  c #69817F",
"Q  c #67827D",
"!  c #F98425",
"~  c #FD8B54",
"^  c #FC8D60",
"/  c #FC9369",
"(  c #FC9166",
")  c #FCAB7E",
"_  c #757982",
"`  c #6D8383",
"'  c #708787",
"]  c #7D8387",
"[  c #7D848C",
"{  c #7C8990",
"}  c #838588",
"|  c #848C94",
" . c #869097",
".. c #86959A",
"X. c #8B949B",
"o. c #819E9E",
"O. c #88999E",
"+. c #919395",
"@. c #999C9D",
"#. c #8C9DA3",
"$. c #939CA5",
"%. c #949FA9",
"&. c #8EA4A8",
"*. c #8EAEAE",
"=. c #87A2A4",
"-. c #9AA4AE",
";. c #91AAAD",
":. c #8AB1AB",
">. c #9CA5B0",
",. c #93AEB1",
"<. c #8EB6B0",
"1. c #94B5B5",
"2. c #94B9B6",
"3. c #98B6B8",
"4. c #98BABB",
"5. c #A5A5A7",
"6. c #A6A5A8",
"7. c #A2AEB9",
"8. c #AFB0B3",
"9. c #A8B2BB",
"0. c #A9B8B8",
"q. c #A7BBBA",
"w. c #B3B4B4",
"e. c #B4B6B8",
"r. c #B9BDBE",
"t. c #FBB98E",
"y. c #8FC7BE",
"u. c #90C8BF",
"i. c #FDECA3",
"p. c #AABDC7",
"a. c #A6B9C0",
"s. c #B1BECA",
"d. c #9EC2C2",
"f. c #9ACCC4",
"g. c #A3C4C6",
"h. c #A5C9C8",
"j. c #AACDCC",
"k. c #A8CAC6",
"l. c #BFC2C4",
"z. c #BDCECF",
"x. c #B8C4D0",
"c. c #B4D4D3",
"v. c #BAD8D6",
"b. c #BFDCD9",
"n. c #C2C2C3",
"m. c #C8CDCD",
"M. c #C4DFDC",
"N. c #C4D0D1",
"B. c #D0D5D5",
"V. c #D9DBDC",
"C. c #D2E8E5",
"Z. c #E1E5E6",
"A. c None",
/* pixels */
"A.A.A.A.A.A.A.A.A.A.A.A.A.A.A.A.A.A.A.A.A.A.A.A.A.A.A.A.A.A.A.A.A.A.A.A.A.A.A.A.A.A.A.A.A.A.A.A.A.A.",
"A.A.A.A.A.A.A.A.A.A.A.A.A.A.A.A.A.A.A.A.A.A.A.A.A.A.A.A.A.A.A.A.A.A.A.A.A.A.A.A.A.A.A.A.A.A.A.A.A.A.",
"A.A.A.A.A.A.A.A.A.A.A.A.A.A.A.A.A.A.A.A.A.A.A.A.A.A.A.A.A.A.A.A.A.A.A.A.A.A.A.A.A.A.A.A.A.A.A.A.A.A.",
"A.A.A.A.A.A.A.A.A.A.A.A.A.A.A.A.A.A.A.A.A.A.A.A.A.A.A.A.A.A.A.A.A.A.A.A.A.A.A.A.A.A.A.A.A.A.A.A.A.A.",
"A.A.A.A.A.A.A.A.A.A.A.A.A.A.A.A.A.A.A.A.A.A.A.A.A.A.A.A.A.A.A.A.A.A.A.A.A.A.A.A.A.A.A.A.A.A.A.A.A.A.",
"A.A.A.A.A.A.A.A.A.A.A.A.A.A.A.A.A.A.A.A.A.A.A.A.A.A.A.A.A.A.A.A.A.A.A.A.A.A.A.A.A.A.A.A.A.A.A.A.A.A.",
"A.A.A.A.A.A.A.A.A.A.A.A.A.A.A.A.A.A.A.A.A.A.A.A.A.A.A.A.A.A.A.A.A.A.A.A.A.A.A.A.A.A.A.A.A.A.A.A.A.A.",
"A.A.A.A.A.A.A.A.A.A.A.A.A.A.A.A.A.A.A.A.A.A.A.A.A.A.A.A.A.A.A.A.A.A.A.A.A.A.A.A.A.A.A.A.A.A.A.A.A.A.",
"A.A.A.A.A.A.A.A.A.A.A.A.A.A.A.A.A.A.A.A.A.A.A.A.A.A.A.A.A.A.A.A.A.A.A.A.A.A.A.A.A.A.A.A.A.A.A.A.A.A.",
"A.A.A.A.A.A.A.A.A.A.A.A.A.A.A.A.A.A.A.A.A.A.A.A.A.A.A.A.A.A.A.A.A.A.A.A.A.A.A.A.A.A.A.A.A.A.A.A.A.A.",
"A.A.A.A.A.A.A.A.A.A.A.A.A.A.A.A.A.A.A.A.A.A.A.A.A.A.A.A.A.A.A.A.A.A.A.A.A.A.A.A.A.A.A.A.A.A.A.A.A.A.",
"A.A.A.A.A.A.A.A.A.A.A.A.A.A.A.A.A.A.A.A.A.A.A.A.A.A.A.A.A.A.A.A.A.A.A.A.A.A.A.A.A.A.A.A.A.A.A.A.A.A.",
"A.A.A.A.A.A.A.A.A.A.A.A.A.A.A.A.A.A.A.A.A.A.A.A.A.A.A.A.A.A.A.A.A.A.A.A.A.A.A.A.A.A.A.A.A.A.A.A.A.A.",
"A.A.A.A.A.A.A.A.A.A.A.A.A.A.A.A.A.A.A.A.A.A.A.A.    A.A.A.A.A.A.A.A.A.A.A.A.A.A.A.A.A.A.A.A.A.A.A.A.",
"A.A.A.A.A.A.A.A.A.A.A.A.A.A.A.A.A.A.A.A.A.A.A.  4 y   A.A.A.A.A.A.A.A.A.A.A.A.A.A.A.A.A.A.A.A.A.A.A.",
"A.A.A.A.A.A.A.A.A.A.A.A.A.A.A.A.A.A.A.A.A.A.o t j j y o A.A.A.A.A.A.A.A.A.A.A.A.A.A.A.A.A.A.A.A.A.A.",
"A.A.A.A.A.A.A.A.A.A.A.A.A.A.A.A.A.A.A.A.A.A.1 e.Z.Z.n.t   A.A.A.A.A.A.A.A.A.A.A.A.A.A.A.A.A.A.A.A.A.",
"A.A.A.A.A.A.A.A.A.A.A.A.A.A.A.A.A.A.A.A.A.A.1 5.V.V.w.4   A.A.A.A.A.A.A.A.A.A.A.A.A.A.A.A.A.A.A.A.A.",
"A.A.A.A.A.A.A.A.A.A.A.A.A.A.A.A.A.A.A.A.A.3 b +.n.n.+.V e A.A.A.A.A.A.A.A.A.A.A.A.A.A.A.A.A.A.A.A.A.",
"A.A.A.A.A.A.A.A.A.A.A.A.A.A.A.A.A.A.A.A.o l 9.A w.n.n 9.N @ A.A.A.A.A.A.A.A.A.A.A.A.A.A.A.A.A.A.A.A.",
"A.A.A.A.A.A.A.A.A.A.A.A.A.A.A.A.A.A.A.A.@ b 9.A w.l.n 9.A @ A.A.A.A.A.A.A.A.A.A.A.A.A.A.A.A.A.A.A.A.",
"A.A.A.A.A.A.A.A.A.A.A.A.A.A.A.A.A.A.A.= #.` l l :.2.j c C &.3 A.A.A.A.A.A.A.A.A.A.A.A.A.A.A.A.A.A.A.",
"A.A.A.A.A.A.A.A.A.A.A.A.A.A.A.A.A.A.@ X.p.' y r.u.u.m.i B p.$.= A.A.A.A.A.A.A.A.A.A.A.A.A.A.A.A.A.A.",
"A.A.A.A.A.A.A.A.A.A.A.A.A.A.A.A.- , X.-.p.' y n.f.u.B.i B p.>.$., , A.A.A.A.A.A.A.A.A.A.A.A.A.A.A.A.",
"A.A.A.A.A.A.A.A.A.A.A.A.A.A.A.* | p.p.g.p.' y l.f.u.B.i B k.p.p.p.#.* A.A.A.A.A.A.A.A.A.A.A.A.A.A.A.",
"A.A.A.A.A.A.A.A.A.A.A.A.u x d b &.3.3.4.W x y +.' Q @.i s W 1.3.1.;.B d x p A.A.A.A.A.A.A.A.A.A.A.A.",
"A.A.A.A.A.A.A.A.A.A.A.p ,.g.d.,.&.&.&.*.5 g S j 5 : j n c - o.;.#.&.*.d.d.1.k A.A.A.A.A.A.A.A.A.A.A.",
"A.A.A.A.A.A.A.A.A.A.g [ h.M.c.1.O...O.*.< v 0.8.6.5.8.0.Q 5 o.#.#.#.;.c.M.j. .k   A.A.A.A.A.A.A.A.A.",
"A.A.A.A.A.A.A.A.A.  b | h.C.b.;.......*.5 V k.z.z f m.k.} - o.#.....&.v.C.j. .Z   A.A.A.A.A.A.A.A.A.",
"A.A.A.A.A.A.A.A.A.  b  .d.3.2.1.1.g.g.1.y A l.1.i e <.l.} r =.g.d.1.1.1.4.d..._   A.A.A.A.A.A.A.A.A.",
"A.A.A.A.A.A.A.A.A.  b a.3.2 2 2 2 %.p.s.s._ ; ; _ [ ; ; S s.x.p.>.e 2 2 2 &.g.A   A.A.A.A.A.A.A.A.A.",
"A.A.A.A.A.A.A.A.A.  b s.a.< * * * [ X. .X.b & - l m - & l O. . .#.* % * , -.x.A   A.A.A.A.A.A.A.A.A.",
"A.A.A.A.A.A.A.A.A.  p [ N #       p g Z s r   @ - - @   4 s N h a       @ c [ k   A.A.A.A.A.A.A.A.A.",
"A.A.A.A.A.A.A.A.A.  3 u # A.A.A.A.A.$ > + A.A.A.@ @ A.A.A.O > $ A.A.A.A.A.@ r e   A.A.A.A.A.A.A.A.A.",
"A.A.A.A.A.A.A.A.A.  3 y + A.A.A.A.A.O . O A.A.A.A.A.A.A.A.O . X A.A.A.A.A.  r e   A.A.A.A.A.A.A.A.A.",
"A.A.A.A.A.A.A.A.A.  2 u   A.A.A.A.G 8 6 9 G A.A.A.A.A.A.A.0 6 7 G A.A.A.A.  r e   A.A.A.A.A.A.A.A.A.",
"A.A.A.A.A.A.A.A.A.      A.A.A.A.A.E w q D K A.A.A.A.A.A.A.H q w J A.A.A.A.A.      A.A.A.A.A.A.A.A.A.",
"A.A.A.A.A.A.A.A.A.A.A.A.A.A.A.A.A.! P T P A.A.A.A.A.A.A.A.Y U I R A.A.A.A.A.A.A.  A.A.A.A.A.A.A.A.A.",
"A.A.A.A.A.A.A.A.A.A.A.A.A.A.A.A.A.A.( ~ / A.A.A.A.A.A.A.A./ ~ ^ A.A.A.A.A.A.A.A.A.A.A.A.A.A.A.A.A.A.",
"A.A.A.A.A.A.A.A.A.A.A.A.A.A.A.A.A.A.A.) A.A.A.A.A.A.A.A.A.A.) t.A.A.A.A.A.A.A.A.A.A.A.A.A.A.A.A.A.A.",
"A.A.A.A.A.A.A.A.A.A.A.A.A.A.A.A.A.A.A.i.A.A.A.A.A.A.A.A.A.A.i.A.A.A.A.A.A.A.A.A.A.A.A.A.A.A.A.A.A.A.",
"A.A.A.A.A.A.A.A.A.A.A.A.A.A.A.A.A.A.A.A.A.A.A.A.A.A.A.A.A.A.A.A.A.A.A.A.A.A.A.A.A.A.A.A.A.A.A.A.A.A.",
"A.A.A.A.A.A.A.A.A.A.A.A.A.A.A.A.A.A.A.A.A.A.A.A.A.A.A.A.A.A.A.A.A.A.A.A.A.A.A.A.A.A.A.A.A.A.A.A.A.A.",
"A.A.A.A.A.A.A.A.A.A.A.A.A.A.A.A.A.A.A.A.A.A.A.A.A.A.A.A.A.A.A.A.A.A.A.A.A.A.A.A.A.A.A.A.A.A.A.A.A.A.",
"A.A.A.A.A.A.A.A.A.A.A.A.A.A.A.A.A.A.A.A.A.A.A.A.A.A.A.A.A.A.A.A.A.A.A.A.A.A.A.A.A.A.A.A.A.A.A.A.A.A.",
"A.A.A.A.A.A.A.A.A.A.A.A.A.A.A.A.A.A.A.A.A.A.A.A.A.A.A.A.A.A.A.A.A.A.A.A.A.A.A.A.A.A.A.A.A.A.A.A.A.A.",
"A.A.A.A.A.A.A.A.A.A.A.A.A.A.A.A.A.A.A.A.A.A.A.A.A.A.A.A.A.A.A.A.A.A.A.A.A.A.A.A.A.A.A.A.A.A.A.A.A.A.",
"A.A.A.A.A.A.A.A.A.A.A.A.A.A.A.A.A.A.A.A.A.A.A.A.A.A.A.A.A.A.A.A.A.A.A.A.A.A.A.A.A.A.A.A.A.A.A.A.A.A.",
"A.A.A.A.A.A.A.A.A.A.A.A.A.A.A.A.A.A.A.A.A.A.A.A.A.A.A.A.A.A.A.A.A.A.A.A.A.A.A.A.A.A.A.A.A.A.A.A.A.A.",
"A.A.A.A.A.A.A.A.A.A.A.A.A.A.A.A.A.A.A.A.A.A.A.A.A.A.A.A.A.A.A.A.A.A.A.A.A.A.A.A.A.A.A.A.A.A.A.A.A.A."
};
