/* XPM */
static char *nave1___4[] = {
/* columns rows colors chars-per-pixel */
"50 50 162 2 ",
"   c #0B0A0A",
".  c #0A0F1D",
"X  c #07111A",
"o  c #141414",
"O  c #191616",
"+  c #161718",
"@  c #171819",
"#  c #191A1A",
"$  c #240D19",
"%  c #271F1E",
"&  c #171D23",
"*  c #1E2229",
"=  c #1F2124",
"-  c #232425",
";  c #24262A",
":  c #27282C",
">  c #292A2D",
",  c #292323",
"<  c #322D2D",
"1  c #2B2C30",
"2  c #2F3133",
"3  c #323335",
"4  c #343538",
"5  c #383638",
"6  c #353B3D",
"7  c #3C3B3C",
"8  c #480C16",
"9  c #681319",
"0  c #741B1E",
"q  c #761518",
"w  c #771D20",
"e  c #403D3F",
"r  c #3B3D41",
"t  c #3E4146",
"y  c #424447",
"u  c #43464A",
"i  c #464A4C",
"p  c #484B4F",
"a  c #534D4E",
"s  c #4A4E50",
"d  c #4B5154",
"f  c #4E5558",
"g  c #4E5B5C",
"h  c #515756",
"j  c #515559",
"k  c #55595E",
"l  c #555E61",
"z  c #5A5E63",
"x  c #546364",
"c  c #596466",
"v  c #586768",
"b  c #5B696B",
"n  c #5C716D",
"m  c #5C7271",
"M  c #636466",
"N  c #64676A",
"B  c #636A6D",
"V  c #6D6D6F",
"C  c #6C6E73",
"Z  c #706F71",
"A  c #637474",
"S  c #6D7379",
"D  c #65797A",
"F  c #697278",
"G  c #717274",
"H  c #73787E",
"J  c #76797D",
"K  c #A63A14",
"L  c #851E20",
"P  c #C83518",
"I  c #D73D1D",
"U  c #E23329",
"Y  c #F03327",
"T  c #D04923",
"R  c #D95128",
"E  c #E15D26",
"W  c #E36423",
"Q  c #807D7F",
"!  c #F54E46",
"~  c #FB8A54",
"^  c #FA8C63",
"/  c #FDA57A",
"(  c #FDA477",
")  c #697E80",
"_  c #737B82",
"`  c #827F82",
"'  c #6A8082",
"]  c #708281",
"[  c #7B8087",
"{  c #7A838A",
"}  c #728889",
"|  c #7F8A90",
" . c #828486",
".. c #898C8D",
"X. c #838A92",
"o. c #8C8E92",
"O. c #839395",
"+. c #8A9295",
"@. c #86959A",
"#. c #8B949C",
"$. c #899A9F",
"%. c #959597",
"&. c #8B9DA2",
"*. c #929BA3",
"=. c #9F9EA1",
"-. c #959FA8",
";. c #86A3A3",
":. c #87ADA6",
">. c #8EA5AA",
",. c #8EAFAA",
"<. c #8CA2A5",
"1. c #9FA7A7",
"2. c #9BA4AD",
"3. c #90A9AC",
"4. c #96A5AD",
"5. c #9EAEB8",
"6. c #9EAEB7",
"7. c #95B3B4",
"8. c #9BB4B4",
"9. c #97B7B8",
"0. c #9DB5BB",
"q. c #97BBB9",
"w. c #9ABBBB",
"e. c #92BEB7",
"r. c #A9AAAB",
"t. c #A2ACB4",
"y. c #A1B6BD",
"u. c #A8B4BE",
"i. c #A0BBBE",
"p. c #A9B1B1",
"a. c #B2B3B3",
"s. c #94C2BB",
"d. c #FCC38D",
"f. c #A7B6C0",
"g. c #A4BDC3",
"h. c #ABBAC4",
"j. c #BEBFC0",
"k. c #B2BFCB",
"l. c #92CCC3",
"z. c #9BCBC4",
"x. c #A5C1C3",
"c. c #A4CBC7",
"v. c #AAC6CA",
"b. c #A6CBC9",
"n. c #B5C5C5",
"m. c #BFC6C6",
"M. c #B3C1CC",
"N. c #B6C9C8",
"B. c #BAD0CF",
"V. c #B9D9D7",
"C. c #BDDCD9",
"Z. c #BDD1D0",
"A. c #C6C4C5",
"S. c #C5CACA",
"D. c #CCCDCD",
"F. c #CED6D6",
"G. c #DBDEDF",
"H. c #D2DBDB",
"J. c #CEE5E2",
"K. c #DEE2E3",
"L. c #E3E6E7",
"P. c None",
/* pixels */
"P.P.P.P.P.P.P.P.P.P.P.P.P.P.P.P.P.P.P.P.P.P.P.P.P.P.P.P.P.P.P.P.P.P.P.P.P.P.P.P.P.P.P.P.P.P.P.P.P.P.",
"P.P.P.P.P.P.P.P.P.P.P.P.P.P.P.P.P.P.P.P.P.P.P.P.P.P.P.P.P.P.P.P.P.P.P.P.P.P.P.P.P.P.P.P.P.P.P.P.P.P.",
"P.P.P.P.P.P.P.P.P.P.P.P.P.P.P.P.P.P.P.P.P.P.P.P.P.P.P.P.P.P.P.P.P.P.P.P.P.P.P.P.P.P.P.P.P.P.P.P.P.P.",
"P.P.P.P.P.P.P.P.P.P.P.P.P.P.P.P.P.P.P.P.P.P.P.P.P.P.P.P.P.P.P.P.P.P.P.P.P.P.P.P.P.P.P.P.P.P.P.P.P.P.",
"P.P.P.P.P.P.P.P.P.P.P.P.P.P.P.P.P.P.P.P.P.P.P.P.P.P.P.P.P.P.P.P.P.P.P.P.P.P.P.P.P.P.P.P.P.P.P.P.P.P.",
"P.P.P.P.P.P.P.P.P.P.P.P.P.P.P.P.P.P.P.P.P.P.P.P.P.P.P.P.P.P.P.P.P.P.P.P.P.P.P.P.P.P.P.P.P.P.P.P.P.P.",
"P.P.P.P.P.P.P.P.P.P.P.P.P.P.P.P.P.P.P.P.P.P.P.P.P.P.P.P.P.P.P.P.P.P.P.P.P.P.P.P.P.P.P.P.P.P.P.P.P.P.",
"P.P.P.P.P.P.P.P.P.P.P.P.P.P.P.P.P.P.P.P.P.P.P.P.P.P.P.P.P.P.P.P.P.P.P.P.P.P.P.P.P.P.P.P.P.P.P.P.P.P.",
"P.P.P.P.P.P.P.P.P.P.P.P.P.P.P.P.P.P.P.P.P.P.P.P.P.P.P.P.P.P.P.P.P.P.P.P.P.P.P.P.P.P.P.P.P.P.P.P.P.P.",
"P.P.P.P.P.P.P.P.P.P.P.P.P.P.P.P.P.P.P.P.P.P.P.P.P.P.P.P.P.P.P.P.P.P.P.P.P.P.P.P.P.P.P.P.P.P.P.P.P.P.",
"P.P.P.P.P.P.P.P.P.P.P.P.P.P.P.P.P.P.P.P.P.P.P.P.P.P.P.P.P.P.P.P.P.P.P.P.P.P.P.P.P.P.P.P.P.P.P.P.P.P.",
"P.P.P.P.P.P.P.P.P.P.P.P.P.P.P.P.P.P.P.P.P.P.P.P.P.P.P.P.P.P.P.P.P.P.P.P.P.P.P.P.P.P.P.P.P.P.P.P.P.P.",
"P.P.P.P.P.P.P.P.P.P.P.P.P.P.P.P.P.P.P.P.P.P.P.P.P.P.P.P.P.P.P.P.P.P.P.P.P.P.P.P.P.P.P.P.P.P.P.P.P.P.",
"P.P.P.P.P.P.P.P.P.P.P.P.P.P.P.P.P.P.P.P.P.P.P.P.P.P.P.P.P.P.P.P.P.P.P.P.P.P.P.P.P.P.P.P.P.P.P.P.P.P.",
"P.P.P.P.P.P.P.P.P.P.P.P.P.P.P.P.P.P.P.P.P.P.P.P.P.P.P.P.P.P.P.P.P.P.P.P.P.P.P.P.P.P.P.P.P.P.P.P.P.P.",
"P.P.P.P.P.P.P.P.P.P.P.P.P.P.P.P.P.P.P.P.P.P.P.P.P.P.P.P.P.P.P.P.P.P.P.P.P.P.P.P.P.P.P.P.P.P.P.P.P.P.",
"P.P.P.P.P.P.P.P.P.P.P.  i j f d 6 P.P.P.P.P.P.P.P.P.P.P.P.P.P.P.O   P.P.P.P.P.P.P.P.P.P.P.P.P.P.P.P.",
"P.P.P.P.P.P.P.P.P.P.  s S X.7.q.m 6 P.P.P.P.P.P.P.P.P.P.- M N y r o P.P.P.P.P.P.P.P.P.P.P.P.P.P.P.P.",
"P.P.P.P.P.P.P.P.P.  s _ #.w.V.V.w.A c _ 4 2 - : > - k N M a.G. .i O P.P.P.P.P.P.P.P.P.P.P.P.P.P.P.P.",
"P.P.P.P.P.P.P.P.  y X.x.i.b.J.C.w.3.>.w.5.@.o.4.@.B 2.*.+.A.L.L.Z O P.P.P.P.P.P.P.P.P.P.P.P.P.P.P.P.",
"P.P.P.P.P.P.P.  1 l -.k.F D v.g.>.&.>.7.g.f.u.y.} B X.H r.A.D.j.V O P.P.P.P.P.P.P.P.P.P.P.P.P.P.P.P.",
"P.P.P.P.P.P.  1 r u z z : 1 ) q.@.@.&.>.w.9.i.} s M M r.A.a.%.V > P.P.P.P.P.P.P.P.P.P.P.P.P.P.P.P.P.",
"P.P.P.P.P.  o 7 u = # + & ; : ) w.@.&.7.b v A d Z m.e.e.p.G #.N - P.P.P.P.P.P.P.P.P.P.P.P.P.P.P.P.P.",
"P.P.P.P.P.P.P.O & P.P.P.P.+ : _ v.w.3.v 2 j s N S.c.l.s.M X.t.N P.P.P.P.P.P.P.P.P.P.P.P.P.P.P.P.P.P.",
"P.P.P.P.P.P.P.P.P.P.P.P.P.P.k &.k.i.b 5 A +.M  .,.l.z.F.Z M S > P.P.P.P.P.P.P.P.P.P.P.P.P.P.P.P.P.P.",
"P.P.P.P.P.P.P.P.P.P.P.P.P.P.t S %.M.J G 8.n.o.7 n :.H.J s D O.> P.P.P.P.P.P.P.P.P.P.P.P.P.P.P.P.P.P.",
"P.P.P.P.P.P.P.P.P.P.P.P.P.P.& z _ #.[ Q B.n.r.Q 6 ..Z s D 0.3.7 P.P.P.P.P.P.P.P.P.P.P.P.P.P.P.P.P.P.",
"P.P.P.P.P.P.P.P.P.P.P.! w $ . * t j 5 % A c a %.o.M s v 0.u.#.2 P.P.P.P.P.P.P.P.P.P.P.P.P.P.P.P.P.P.",
"P.P.P.P.P.P.P.P.P.P.P.R q 8 $ X P.P.O < B z j n.N.+.k v 7.f.<.7 P.P.P.P.P.P.P.P.P.P.P.P.P.P.P.P.P.P.",
"P.P.P.P.P.P.P.P.P.P.P.W K q 9 P.P.P.O 7 B G A B.8.] 4 x 7.x.6.4 P.P.P.P.P.P.P.P.P.P.P.P.P.P.P.P.P.P.",
"P.P.P.P.P.P.P.P.P.P./ ~ W P U P.P.P.O , e < %  . .7 k ;.3.9.g.{ P.P.P.P.P.P.P.P.P.P.P.P.P.P.P.P.P.P.",
"P.P.P.P.P.P.P.P.P.P.d./ ^ P.P.P.P.P.P.O # O < G H x ;.&.&.>.3.b P.P.P.P.P.P.P.P.P.P.P.P.P.P.P.P.P.P.",
"P.P.P.P.P.P.P.P.P.P.P.P.P.P.P.P.P.P.P.P.P.P.p O.M.y.w.$.@.&.>.A r P.P.P.P.P.P.P.P.P.P.P.P.P.P.P.P.P.",
"P.P.P.P.P.P.P.P.P.P.P.P.P.P.P.P.P.P.P.P.P.P.t _ *.h.v.w.@.>.0.q.m 6 P.P.P.P.P.P.P.P.P.P.P.P.P.P.P.P.",
"P.P.P.P.P.P.P.P.P.P.P.P.P.P.P.P.P.P.P.P.P.P.* k S *.X.) 9.w.V.V.q.f P.P.P.P.P.P.P.P.P.P.P.P.P.P.P.P.",
"P.P.P.P.P.P.P.P.P.P.P.P.P.P.P.P.P.P.P.P.0 $ . = u z : 1 ) b.J.C.w.z P.P.P.P.P.P.P.P.P.P.P.P.P.P.P.P.",
"P.P.P.P.P.P.P.P.P.P.P.P.P.P.P.P.P.P.P.T L 8 $ P.P.P.@ ; 1 D b.x.@.z P.P.P.P.P.P.P.P.P.P.P.P.P.P.P.P.",
"P.P.P.P.P.P.P.P.P.P.P.P.P.P.P.P.P.P.P.W K 9 0 P.P.P.P.# : b 9.#._ s P.P.P.P.P.P.P.P.P.P.P.P.P.P.P.P.",
"P.P.P.P.P.P.P.P.P.P.P.P.P.P.P.P.P.P./ ~ R I Y P.P.P.P.o l f.h.| z   P.P.P.P.P.P.P.P.P.P.P.P.P.P.P.P.",
"P.P.P.P.P.P.P.P.P.P.P.P.P.P.P.P.P.P.d./ P.P.P.P.P.P.P.o l -.&.j   P.P.P.P.P.P.P.P.P.P.P.P.P.P.P.P.P.",
"P.P.P.P.P.P.P.P.P.P.P.P.P.P.P.P.P.P.P.P.P.P.P.P.P.P.P.@ y z s   P.P.P.P.P.P.P.P.P.P.P.P.P.P.P.P.P.P.",
"P.P.P.P.P.P.P.P.P.P.P.P.P.P.P.P.P.P.P.P.P.P.P.P.P.P.# t t 2   P.P.P.P.P.P.P.P.P.P.P.P.P.P.P.P.P.P.P.",
"P.P.P.P.P.P.P.P.P.P.P.P.P.P.P.P.P.P.P.P.P.P.P.P.P.P.@ r 2   P.P.P.P.P.P.P.P.P.P.P.P.P.P.P.P.P.P.P.P.",
"P.P.P.P.P.P.P.P.P.P.P.P.P.P.P.P.P.P.P.P.P.P.P.P.P.P.P.o   P.P.P.P.P.P.P.P.P.P.P.P.P.P.P.P.P.P.P.P.P.",
"P.P.P.P.P.P.P.P.P.P.P.P.P.P.P.P.P.P.P.P.P.P.P.P.P.P.P.  P.P.P.P.P.P.P.P.P.P.P.P.P.P.P.P.P.P.P.P.P.P.",
"P.P.P.P.P.P.P.P.P.P.P.P.P.P.P.P.P.P.P.P.P.P.P.P.P.P.P.P.P.P.P.P.P.P.P.P.P.P.P.P.P.P.P.P.P.P.P.P.P.P.",
"P.P.P.P.P.P.P.P.P.P.P.P.P.P.P.P.P.P.P.P.P.P.P.P.P.P.P.P.P.P.P.P.P.P.P.P.P.P.P.P.P.P.P.P.P.P.P.P.P.P.",
"P.P.P.P.P.P.P.P.P.P.P.P.P.P.P.P.P.P.P.P.P.P.P.P.P.P.P.P.P.P.P.P.P.P.P.P.P.P.P.P.P.P.P.P.P.P.P.P.P.P.",
"P.P.P.P.P.P.P.P.P.P.P.P.P.P.P.P.P.P.P.P.P.P.P.P.P.P.P.P.P.P.P.P.P.P.P.P.P.P.P.P.P.P.P.P.P.P.P.P.P.P.",
"P.P.P.P.P.P.P.P.P.P.P.P.P.P.P.P.P.P.P.P.P.P.P.P.P.P.P.P.P.P.P.P.P.P.P.P.P.P.P.P.P.P.P.P.P.P.P.P.P.P."
};
