/* XPM */
static char *nave1___1[] = {
/* columns rows colors chars-per-pixel */
"50 50 168 2 ",
"   c #050404",
".  c #0C0C0C",
"X  c #060F18",
"o  c #0C0B19",
"O  c #150A18",
"+  c #0C1013",
"@  c #151515",
"#  c #181615",
"$  c #1A1A1B",
"%  c #221D1D",
"&  c #2E121C",
"*  c #33111B",
"=  c #1C1E22",
"-  c #141923",
";  c #1B2028",
":  c #222325",
">  c #2A2525",
",  c #232529",
"<  c #26292B",
"1  c #292A2C",
"2  c #312C2D",
"3  c #2C2E30",
"4  c #322F30",
"5  c #2D3133",
"6  c #333639",
"7  c #36393B",
"8  c #3A3A3D",
"9  c #363434",
"0  c #470B16",
"q  c #520D16",
"w  c #481019",
"e  c #62131A",
"r  c #73191A",
"t  c #3A3E42",
"y  c #3E4245",
"u  c #424444",
"i  c #424549",
"p  c #444A4D",
"a  c #4A4B4D",
"s  c #524B4C",
"d  c #474C51",
"f  c #4B4E52",
"g  c #4B5456",
"h  c #4D5759",
"j  c #53565A",
"k  c #545B5E",
"l  c #59595C",
"z  c #545456",
"x  c #545C60",
"c  c #5B5E61",
"v  c #605E60",
"b  c #546163",
"n  c #5D6166",
"m  c #5D6569",
"M  c #5D6D6E",
"N  c #5E6F70",
"B  c #5F7171",
"V  c #62656A",
"C  c #6A696B",
"Z  c #676567",
"A  c #646C71",
"S  c #6B6F73",
"D  c #647677",
"F  c #6D757B",
"G  c #6B7C7D",
"H  c #677F7B",
"J  c #727375",
"K  c #757679",
"L  c #74787D",
"P  c #971C1B",
"I  c #A81F19",
"U  c #912917",
"Y  c #A22E15",
"T  c #A7301F",
"R  c #B13231",
"E  c #D33F3B",
"W  c #E43126",
"Q  c #F4392D",
"!  c #D5551A",
"~  c #E14D1C",
"^  c #E5511E",
"/  c #E1552E",
"(  c #E76626",
")  c #EB6F35",
"_  c #F07533",
"`  c #F57F41",
"'  c #6F817E",
"]  c #FC8E5F",
"[  c #FF9668",
"{  c #FF9867",
"}  c #747B82",
"|  c #7B7F83",
" . c #6C8384",
".. c #6F8C87",
"X. c #738181",
"o. c #7C8285",
"O. c #7D848C",
"+. c #72898A",
"@. c #7A9193",
"#. c #7E9899",
"$. c #80868B",
"%. c #868687",
"&. c #858D94",
"*. c #898F93",
"=. c #859499",
"-. c #8A929A",
";. c #879799",
":. c #989C9F",
">. c #87A39F",
",. c #8A9DA2",
"<. c #959EA8",
"1. c #A19FA2",
"2. c #85A1A2",
"3. c #8DA2A6",
"4. c #8EA6A9",
"5. c #8CA9AB",
"6. c #91A6AB",
"7. c #99A4AD",
"8. c #91A9AD",
"9. c #90A7A5",
"0. c #90B1AC",
"q. c #93ADB0",
"w. c #9AABB3",
"e. c #95B4B5",
"r. c #99B7B9",
"t. c #97BBBA",
"y. c #9CBCBD",
"u. c #95B5B5",
"i. c #A6AAAC",
"p. c #AAAAAD",
"a. c #A2ADB7",
"s. c #A3B3BC",
"d. c #AAB4BD",
"f. c #AFB2B3",
"g. c #B1B2B3",
"h. c #B4BBBC",
"j. c #BBBABB",
"k. c #FCB889",
"l. c #8EC9BF",
"z. c #A4C2BE",
"x. c #FCC68F",
"c. c #FDF1A7",
"v. c #9FBCC0",
"b. c #A9B6C2",
"n. c #A4BCC2",
"m. c #AABBC5",
"M. c #ADBDC8",
"N. c #B1BFCA",
"B. c #91CAC1",
"V. c #9DC5C2",
"C. c #A3C5C5",
"Z. c #A9C8C7",
"A. c #ABC3CA",
"S. c #A9CAC8",
"D. c #B2C1CC",
"F. c #B3CECB",
"G. c #BBCDCD",
"H. c #AFD3D1",
"J. c #B4D4D3",
"K. c #B9D8D6",
"L. c #C3C4C4",
"P. c #CACCCD",
"I. c #C5DCDA",
"U. c #D4DADA",
"Y. c #D8DCDD",
"T. c #C8E2E0",
"R. c #D8E5E4",
"E. c None",
/* pixels */
"E.E.E.E.E.E.E.E.E.E.E.E.E.E.E.E.E.E.E.E.E.E.E.E.E.E.E.E.E.E.E.E.E.E.E.E.E.E.E.E.E.E.E.E.E.E.E.E.E.E.",
"E.E.E.E.E.E.E.E.E.E.E.E.E.E.E.E.E.E.E.E.E.E.E.E.E.E.E.E.E.E.E.E.E.E.E.E.E.E.E.E.E.E.E.E.E.E.E.E.E.E.",
"E.E.E.E.E.E.E.E.E.E.E.E.E.E.E.E.E.E.E.E.E.E.E.E.E.E.E.E.E.E.E.E.E.E.E.E.E.E.E.E.E.E.E.E.E.E.E.E.E.E.",
"E.E.E.E.E.E.E.E.E.E.E.E.E.E.E.E.E.E.E.E.E.E.E.E.E.E.E.E.E.E.E.E.E.E.E.E.E.E.E.E.E.E.E.E.E.E.E.E.E.E.",
"E.E.E.E.E.E.E.E.E.E.E.E.E.E.E.E.E.E.E.E.E.E.E.E.E.E.E.E.E.E.E.E.E.E.E.E.E.E.E.E.E.E.E.E.E.E.E.E.E.E.",
"E.E.E.E.E.E.E.E.E.E.E.E.E.E.E.E.E.E.E.E.E.E.E.E.E.E.E.E.E.E.E.E.E.E.E.E.E.E.E.E.E.E.E.E.E.E.E.E.E.E.",
"E.E.E.E.E.E.E.E.E.E.E.E.E.E.E.E.E.E.E.E.E.E.E.E.E.E.E.E.E.E.E.E.E.E.E.E.E.E.E.E.E.E.E.E.E.E.E.E.E.E.",
"E.E.E.E.E.E.E.E.E.E.E.E.E.E.E.E.E.E.E.E.E.E.E.E.E.E.E.E.E.E.E.E.E.E.E.E.E.E.E.E.E.E.E.E.E.E.E.E.E.E.",
"E.E.E.E.E.E.E.E.E.E.E.E.E.E.E.E.E.E.E.E.E.E.E.E.E.E.E.E.E.E.E.E.E.E.E.E.E.E.E.E.E.E.E.E.E.E.E.E.E.E.",
"E.E.E.E.E.E.E.E.E.E.E.E.E.E.E.E.E.E.E.E.E.E.E.E.E.E.E.E.E.E.E.E.E.E.E.E.E.E.E.E.E.E.E.E.E.E.E.E.E.E.",
"E.E.E.E.E.E.E.E.E.E.E.E.E.E.E.E.E.E.E.E.E.E.E.E.E.E.E.E.E.E.E.E.E.E.E.E.E.E.E.E.E.E.E.E.E.E.E.E.E.E.",
"E.E.E.E.E.E.E.E.E.E.E.E.E.E.E.E.E.E.E.E.E.E.E.E.E.E.E.E.E.E.E.E.E.E.E.E.E.E.E.E.E.E.E.E.E.E.E.E.E.E.",
"E.E.E.E.E.E.E.E.E.E.E.E.E.E.E.E.E.E.E.E.E.E.E.E.E.E.E.E.E.E.E.E.E.E.E.E.E.E.E.E.E.E.E.E.E.E.E.E.E.E.",
"E.E.E.E.E.E.E.E.E.E.E.E.E.E.E.E.E.E.E.E.E.E.E.E.E.E..   E.E.E.E.E.E.E.E.E.E.E.E.E.E.E.E.E.E.E.E.E.E.",
"E.E.E.E.E.E.E.E.E.E.E.E.E.E.E.E.E.E.E.E.E.E.E.E.E.# 7 9 E.E.E.E.E.E.E.E.E.E.E.E.E.E.E.E.E.E.E.E.E.E.",
"E.E.E.E.E.E.E.E.E.E.E.E.E.E.E.E.E.E.E.E.E.E.E.E.< f z a < E.E.E.E.E.E.E.E.E.E.E.E.E.E.E.E.E.E.E.E.E.",
"E.E.E.E.E.E.E.E.E.E.E.E.E.E.E.E.E.E.E.E.E.E.E.$ l P.Y.j.J # E.E.E.E.E.E.E.E.E.E.E.E.E.E.E.E.E.E.E.E.",
"E.E.E.E.E.E.E.E.E.E.E.E.E.E.E.E.E.E.E.E.E.E.E.7 K L.Y.U.%.> E.E.E.E.E.E.E.E.E.E.E.E.E.E.E.E.E.E.E.E.",
"E.E.E.E.E.E.E.E.E.E.E.E.E.E.E.E.E.E.E.E.E.E.d | %.g.P.g.C < E.E.E.E.E.E.E.E.E.E.E.E.E.E.E.E.E.E.E.E.",
"E.E.E.E.E.E.E.E.E.E.E.E.E.E.E.E.E.E.E.E.E.@ V d.L f.L.o.&.j E.E.E.E.E.E.E.E.E.E.E.E.E.E.E.E.E.E.E.E.",
"E.E.E.E.E.E.E.E.E.E.E.E.E.E.E.E.E.E.E.E.i } G *.K h.j.S d.S $ E.E.E.E.E.E.E.E.E.E.E.E.E.E.E.E.E.E.E.",
"E.E.E.E.E.E.E.E.E.E.E.E.E.E.E.E.E.E.3 k 7.q.M l ' u.3.v -.m $ E.E.E.E.E.E.E.E.E.E.E.E.E.E.E.E.E.E.E.",
"E.E.E.E.E.E.E.E.E.E.E.E.3 3 E.E.n A O.7.b.4.h %.F.l.z.K l @.G E.E.E.E.E.E.E.E.E.E.E.E.E.E.E.E.E.E.E.",
"E.E.E.E.E.E.E.E.E.E.E.y D D b b ;.n.A.A.A.#.d i.S.l.I.J x 8.w.f E.E.E.E.E.E.E.E.E.E.E.E.E.E.E.E.E.E.",
"E.E.E.E.E.E.E.E.E.: j } C.H.C.4.4.q.e.t.+.M a g.l.B.U.z M y.a.$.6 E.E.E.E.E.E.E.E.E.E.E.E.E.E.E.E.E.",
"E.E.E.E.E.E.E.E.E.6 F <.J.T.S.6.,.,.3.#.9 l l ' ' ..i.a B s.A.m.} g E.E.E.E.E.E.E.E.E.E.E.E.E.E.E.E.",
"E.E.E.E.E.E.E.E.E.p | q.J.T.C.2.=.=.4.H 8 ' *.v 9 8 Z z k  .t.s.n.,.5 E.E.E.E.E.E.E.E.E.E.E.E.E.E.E.",
"E.E.E.E.E.E.E.E.E.k 6.y.@.2.e.t.u.6.e.k f 9.G.p.i.1.:.%.p h 5.0.q.,.N g p 5 E.E.E.E.E.E.E.E.E.E.E.E.",
"E.E.E.E.E.E.E.E.+ V N.b.6 3 6 p 6.A.y.j Z h.K.K s i.F.:.y D 2.,.,.8.r.t.2.m E.E.E.E.E.E.E.E.E.E.E.E.",
"E.E.E.E.E.E.E.E.$ x -.&., = , 3 -.s.M.b.| C G k u 0.G.*.8 ..,.;.=.3.Z.K.H.=.i E.E.E.E.E.E.E.E.E.E.E.",
"E.E.E.E.E.E.E.E.= t d t + E.+ < A | &.-.V % 2 } } u C | c 2.y.t.5.8.J.R.J.,.A : E.E.E.E.E.E.E.E.E.E.",
"E.E.E.E.E.E.E.E.< y 3 E.E.E.E.E.6 d c f 8 # 2 l j > 1 | N.D.D.w...#.e.C.C.&.L . E.E.E.E.E.E.E.E.E.E.",
"E.E.E.E.E.E.E.E.3 p = E.E.E.E.E.o - - E.E.E.% > > # 1 V &.-.<.} = 3 5 x r.3.V   E.E.E.E.E.E.E.E.E.E.",
"E.E.E.E.E.E.E.. . # E.E.E.E.E.E.* O O E.E.E.# $ # E.E.t c m m i $ , , m M.w.f E.E.E.E.E.E.E.E.E.E.E.",
"E.E.E.E.E.E.E.E.E.E.E.E.E.E.E.E e q e E.E.E.E.E.E.E.E.X ; ; 1 E.E.E.o x <.&.7 E.E.E.E.E.E.E.E.E.E.E.",
"E.E.E.E.E.E.E.E.E.E.E.E.E.E.E.( Y U Y Q E.E.E.E.E.E.E.& o o E.E.E.E.E.< x j $ E.E.E.E.E.E.E.E.E.E.E.",
"E.E.E.E.E.E.E.E.E.E.E.E.E.E.E.` ) ( / E.E.E.E.E.E.E.R r 0 w E.E.E.E.E.+ t 8 . E.E.E.E.E.E.E.E.E.E.E.",
"E.E.E.E.E.E.E.E.E.E.E.E.E.E.E.E.{ [ E.E.E.E.E.E.E.E./ T r P W E.E.E.E.$ i 8   E.E.E.E.E.E.E.E.E.E.E.",
"E.E.E.E.E.E.E.E.E.E.E.E.E.E.E.E.x.E.E.E.E.E.E.E.E.E._ ( ! ~ E.E.E.E.E.E.< , E.E.E.E.E.E.E.E.E.E.E.E.",
"E.E.E.E.E.E.E.E.E.E.E.E.E.E.E.E.c.E.E.E.E.E.E.E.E.E.E.[ ] E.E.E.E.E.E.E.E.. E.E.E.E.E.E.E.E.E.E.E.E.",
"E.E.E.E.E.E.E.E.E.E.E.E.E.E.E.E.E.E.E.E.E.E.E.E.E.E.E.k.k.E.E.E.E.E.E.E.E.E.E.E.E.E.E.E.E.E.E.E.E.E.",
"E.E.E.E.E.E.E.E.E.E.E.E.E.E.E.E.E.E.E.E.E.E.E.E.E.E.E.c.E.E.E.E.E.E.E.E.E.E.E.E.E.E.E.E.E.E.E.E.E.E.",
"E.E.E.E.E.E.E.E.E.E.E.E.E.E.E.E.E.E.E.E.E.E.E.E.E.E.E.E.E.E.E.E.E.E.E.E.E.E.E.E.E.E.E.E.E.E.E.E.E.E.",
"E.E.E.E.E.E.E.E.E.E.E.E.E.E.E.E.E.E.E.E.E.E.E.E.E.E.E.E.E.E.E.E.E.E.E.E.E.E.E.E.E.E.E.E.E.E.E.E.E.E.",
"E.E.E.E.E.E.E.E.E.E.E.E.E.E.E.E.E.E.E.E.E.E.E.E.E.E.E.E.E.E.E.E.E.E.E.E.E.E.E.E.E.E.E.E.E.E.E.E.E.E.",
"E.E.E.E.E.E.E.E.E.E.E.E.E.E.E.E.E.E.E.E.E.E.E.E.E.E.E.E.E.E.E.E.E.E.E.E.E.E.E.E.E.E.E.E.E.E.E.E.E.E.",
"E.E.E.E.E.E.E.E.E.E.E.E.E.E.E.E.E.E.E.E.E.E.E.E.E.E.E.E.E.E.E.E.E.E.E.E.E.E.E.E.E.E.E.E.E.E.E.E.E.E.",
"E.E.E.E.E.E.E.E.E.E.E.E.E.E.E.E.E.E.E.E.E.E.E.E.E.E.E.E.E.E.E.E.E.E.E.E.E.E.E.E.E.E.E.E.E.E.E.E.E.E.",
"E.E.E.E.E.E.E.E.E.E.E.E.E.E.E.E.E.E.E.E.E.E.E.E.E.E.E.E.E.E.E.E.E.E.E.E.E.E.E.E.E.E.E.E.E.E.E.E.E.E.",
"E.E.E.E.E.E.E.E.E.E.E.E.E.E.E.E.E.E.E.E.E.E.E.E.E.E.E.E.E.E.E.E.E.E.E.E.E.E.E.E.E.E.E.E.E.E.E.E.E.E."
};
