/* XPM */
static char *nave2___29[] = {
/* columns rows colors chars-per-pixel */
"50 50 209 2 ",
"   c #0D0C0D",
".  c #020B05",
"X  c #0D110F",
"o  c #150D12",
"O  c #19091B",
"+  c #0B1317",
"@  c #181716",
"#  c #181919",
"$  c #131719",
"%  c #0D0E1A",
"&  c #200D18",
"*  c #270B18",
"=  c #370718",
"-  c #20171F",
";  c #1B201B",
":  c #23201E",
">  c #1F0620",
",  c #1C1620",
"<  c #2E0E21",
"1  c #301326",
"2  c #1C2021",
"3  c #232629",
"4  c #242B2C",
"5  c #262424",
"6  c #2E2830",
"7  c #392A36",
"8  c #363538",
"9  c #38262E",
"0  c #510B18",
"q  c #660717",
"w  c #480B2C",
"e  c #46112F",
"r  c #5A0B36",
"t  c #4B1936",
"y  c #521136",
"u  c #5A143C",
"i  c #54042B",
"p  c #620F3E",
"a  c #6C0537",
"s  c #442B3B",
"d  c #4B2B3D",
"f  c #4C2638",
"g  c #39403F",
"h  c #5C1B41",
"j  c #621E47",
"k  c #6B1243",
"l  c #731446",
"z  c #731249",
"x  c #741B4A",
"c  c #7C1B49",
"v  c #7D1651",
"b  c #4A3B49",
"n  c #513447",
"m  c #592742",
"M  c #6A234C",
"N  c #742352",
"B  c #7B2257",
"V  c #672B50",
"C  c #7B3E63",
"Z  c #51424F",
"A  c #574F5B",
"S  c #4B454F",
"D  c #634B5D",
"F  c #684961",
"G  c #7F476E",
"H  c #645060",
"J  c #73546A",
"K  c #7E5B76",
"L  c #746877",
"P  c #777478",
"I  c #6F646A",
"U  c #900415",
"Y  c #880B1C",
"T  c #AC0A1A",
"R  c #810C20",
"E  c #C3071F",
"W  c #DA1925",
"Q  c #CC1629",
"!  c #E71A2B",
"~  c #FD2639",
"^  c #F43039",
"/  c #820F48",
"(  c #9C024B",
")  c #841453",
"_  c #9A1B59",
"`  c #930D59",
"'  c #842156",
"]  c #932259",
"[  c #951E60",
"{  c #A40B61",
"}  c #B00C61",
"|  c #A71464",
" . c #BA126C",
".. c #8E3461",
"X. c #953968",
"o. c #8C2C66",
"O. c #A7226E",
"+. c #BD2D73",
"@. c #B52175",
"#. c #A83978",
"$. c #B02A6B",
"%. c #C82649",
"&. c #ED3341",
"*. c #E4335D",
"=. c #CF137E",
"-. c #C41B76",
";. c #D2117F",
":. c #C80567",
">. c #C03579",
",. c #C42B7B",
"<. c #84456D",
"1. c #825575",
"2. c #845F7A",
"3. c #805976",
"4. c #994B77",
"5. c #AC557F",
"6. c #F54C5F",
"7. c #F9536B",
"8. c #FD6077",
"9. c #BB3182",
"0. c #F50E91",
"q. c #FA1997",
"w. c #F11891",
"e. c #CF2980",
"r. c #D93496",
"t. c #D53389",
"y. c #EE2499",
"u. c #FF1FA7",
"i. c #FF25A9",
"p. c #FF2BAD",
"a. c #FF20A7",
"s. c #F735A9",
"d. c #FE3DB4",
"f. c #FF37B1",
"g. c #E83FA4",
"h. c #9D5282",
"j. c #945E84",
"k. c #A65888",
"l. c #AB5F92",
"z. c #AA4785",
"x. c #936787",
"c. c #9D6790",
"v. c #8F7C91",
"b. c #8C6382",
"n. c #A36B95",
"m. c #B5689A",
"M. c #A7749C",
"N. c #AF76A0",
"B. c #B579A6",
"V. c #D54D9E",
"C. c #C34D90",
"Z. c #C96797",
"A. c #C4729A",
"S. c #FF7584",
"D. c #DF4EA8",
"F. c #E745A7",
"G. c #F642AD",
"H. c #FA47B5",
"J. c #EC5AB6",
"K. c #F150B3",
"L. c #F35ABC",
"P. c #C368A2",
"I. c #D669AB",
"U. c #C478AE",
"Y. c #C979A8",
"T. c #D572B5",
"R. c #EB6BBD",
"E. c #E767B9",
"W. c #FA5AC0",
"Q. c #E57AC2",
"!. c #EC76C3",
"~. c #F173C6",
"^. c #8D8C8E",
"/. c #958FA0",
"(. c #B487AB",
"). c #B888A9",
"_. c #BD85B1",
"`. c #A99FB4",
"'. c #BF94B2",
"]. c #BBAAB7",
"[. c #FE988E",
"{. c #FEB094",
"}. c #C385A3",
"|. c #C988BA",
" X c #D688BC",
".X c #DB9FBD",
"XX c #CA97B0",
"oX c #CCA8BA",
"OX c #C5A3B6",
"+X c #FDE1A1",
"@X c #DD86C4",
"#X c #DA97C8",
"$X c #E388C7",
"%X c #E795CD",
"&X c #EA8FD0",
"*X c #CDA2CC",
"=X c #D2ABCB",
"-X c #D7A9D1",
";X c #DAB8D7",
":X c #D3BAC7",
">X c #E8B8D8",
",X c #E2A6CE",
"<X c #D1C0C9",
"1X c #DAC9D6",
"2X c #D0CCD3",
"3X c #D4D7E0",
"4X c #D2E4E3",
"5X c #E1F0EB",
"6X c None",
/* pixels */
"6X6X6X6X6X6X6X6X6X6X6X6X6X6X6X6X6X6X6X6X6X6X6X6X6X6X6X6X6X6X6X6X6X6X6X6X6X6X6X6X6X6X6X6X6X6X6X6X6X6X",
"6X6X6X6X6X6X6X6X6X6X6X6X6X6X6X6X6X6X6X6X6X6X6X6X6X6X6X6X6X6X6X6X6X6X6X6X6X6X6X6X6X6X6X6X6X6X6X6X6X6X",
"6X6X6X6X6X6X6X6X6X6X6X6X6X6X6X6X6X6X6X6X6X6X6X6X6X6X6X6X6X6X6X6X6X6X6X6X6X6X6X6X6X6X6X6X6X6X6X6X6X6X",
"6X6X6X6X6X6X6X6X6X6X6X6X6X6X6X6X6X6X6X6X6X6X6X6X6X6X6X6X6X6X6X6X6X6X6X6X6X6X6X6X6X6X6X6X6X6X6X6X6X6X",
"6X6X6X6X6X6X6X6X6X6X6X6X6X6X6X6X6X6X6X6X6X6X6X6X6X6X6X6X6X6X6X6X6X6X6X6X6X6X6X6X6X6X6X6X6X6X6X6X6X6X",
"6X6X6X6X6X6X6X6X6X6X6X6X6X6X6X6X6X6X6X6X6X6X6X6X6X6X6X6X6X6X6X6X6X6X6X6X6X6X6X6X6X6X6X6X6X6X6X6X6X6X",
"6X6X6X6X6X6X6X6X6X6X6X6X6X6X6X6X6X6X6X6X6X6X6X6X6X6X6X6X6X6X6X6X6X6X6X6X6X6X6X6X6X6X6X6X6X6X6X6X6X6X",
"6X6X6X6X6X6X6X6X6X6X6X6X6X6X6X6X6X6X6X6X6X6X6X6X6X6X6X6X6X6X6X6X6X6X6X6X6X6X6X6X6X6X6X6X6X6X6X6X6X6X",
"6X6X6X6X6X6X6X6X6X6X6X6X6X6X6X6X6X6X6X6X6X6X6X6X6X6X6X6X6X6X6X6X6X6X6X6X6X6X6X6X6X6X6X6X6X6X6X6X6X6X",
"6X6X6X6X6X6X6X6X6X6X6X6X6X6X6X6X6X6X6X6X6X6X6X6X6X6X6X6X6X6X6X6X6X6X6X6X6X6X6X6X6X6X6X6X6X6X6X6X6X6X",
"6X6X6X6X6X6X6X6X6X6X6X6X6X6X6X6X6X6X6X6X6X6X6X6X6X6X6X6X6X6X6X6X6X6X6X6X6X6X6X6X6X6X6X6X6X6X6X6X6X6X",
"6X6X6X6X6X6X6X6X6X6X6X6X6X6X6X6X6X6X6X6X6X6X6X6X6X6X6X6X6X6X6X6X6X6X6X6X6X6X6X6X6X6X6X6X6X6X6X6X6X6X",
"6X6X6X6X6X6X6X6X6X6X6X6X6X6X6X6X6X6X6X6X6X6X6X6X6X6X6X6X6X6X6X6X6X6X6X6X6X6X6X6X6X6X6X6X6X6X6X6X6X6X",
"6X6X6X6X6X6X6X6X6X6X6X6X6X6X6X6X6X6X6X6X6X6X6X6X6X6X6X6X6X6X6X6X6X6X6X6X6X6X6X6X6X6X6X6X6X6X6X6X6X6X",
"6X6X6X6X6X6X6X6X6X6X6X6X6X6X6X6X6X6X  6X6X6X6X6X6X6X6X6X6X6X6X6X6X6X6X6X6X6X6X6X6X6X6X6X6X6X6X6X6X6X",
"6X6X6X6X6X6X6X6X6X6X6X6X6X6X6X6X6X6X  w * 6X6X6X6X6X6X6X6X6X6X6X6X6X6X6X6X6X6X6X6X6X6X6X6X6X6X6X6X6X",
"6X6X6X6X6X6X6X6X6X6X6X6X6X6X6X6X6X6Xr ( ( 4.a   6X6X6X6X6X6X6X6X6X6X6X6X6X6X6X6X6X6X6X6X6X6X6X6X6X6X",
"6X6X6X6X6X6X6X6X6X6X6X6X6X6X6X6X6X6Xa +.1X1XX.a d 6X6X6X6X6X6X6X6X6X6X6X6X6X6X6X6X6X6X6X6X6X6X6X6X6X",
"6X6X6X6X6X6X6X6X6X6X6X6X6X6X6X6X6X6X..1X5X2XA.C.k.b X 6X6X6X6X6X6X6X7 x ' z k 6X6X6X6X6X6X6X6X6X6X6X",
"6X6X6X6X6X6X6X6X6X6X6X6X6X6X6X6X6X= c }.<X<XA.t.R.5.x.h.o.N 7 3.M x G T.!.y.e.k 6X6X6X6X6X6X6X6X6X6X",
"6X6X6X6X6X6X6X6X6X6X6X6X6X6X6X6X6X6Xi #.Z.oXoX>.,.X.x.%XL.W. XQ.D.r.Q.;X;X!.0.e.& 6X6X6X6X6X6X6X6X6X",
"6X6X6X6X6X6X6X6X6X6X6X6X6X6X6X6X6X6Xn C.t.Z.oXI.+.] C B.&X%XQ.L.d.d.E.;X4X#XH.F.{ . 6X6X6X6X6X6X6X6X",
"6X6X6X6X6X6X6X6X6X6X6X6X6X6X6X6X6X6Xs k.E.:.V.R.%XXX/ 1.B.B.T.d.p.i.d.%X#Xc._.*Xr.r 6X6X6X6X6X6X6X6X",
"6X6X6X6X6X6X6X6X6X6X6X6X6X6X6X6X6X6XX F 4._ .XR.~.>Xk.x H b c.G.u.u.J.U.F 2 L `.l.) o 6X6X6X6X6X6X6X",
"6X6X6X6X6X6X6X6X6X6X6X6X6X6X6X6X6X6X7 N.2.c }.%X~.T.A._ 1.S Z Z.G.Q.M.8 4 4 3 A V z y . 6X6X6X6X6X6X",
"6X6X6X6X6X6X6X6X6X6X6X6X6X6X6X6X6X6XV Q.|.<.' .XZ.<.c +.}.x.8 K |.*XB.6 2 X 6X6Xo z z < 6X6X6X6X6X6X",
"6X6X6X6X6X6X6X6X6X6X6X6X6X6X6X6X6X6XN H.%XM.N X.$.s P OX,X'.L L *XE.s.' 6X6X6X6X6X1 e   X 6X6X6X6X6X",
"6X6X6X6X6X6X6X6X6X6X6X6X6X6X6X6X6X6X#.!.$Xn.D ..+.).^.I *X].L N.H.q.| j 6X6X6X6X6X6X6X6X6X6X6X6X6X6X",
"6X6X6X6X6X6X6X6X6X6X6X6X6X6X6X6X6Xn _.$XT.2.g 2..X=XI d X.8 5 ] @.} u + 6X6X6X6X6X6X6X6X6X6X6X6X6X6X",
"6X6X6X6X6X6X6X6X6X6X6X6X6X6X6X6X6Xk.E.L.K.N.8 H ).>Xm.@.w.d ; 1 t , O % q E 6X6X6X6X6X6X6X6X6X6X6X6X",
"6X6X6X6X6X6X6X6X6X6X6X6X6X6X6X6Xt @.G.f.p.J.b.8 P ^.8 B O.m ; 6X6X6X* 0 q ! 6X6X6X6X6X6X6X6X6X6X6X6X",
"6X6X6X6X6X6X6X6X6X6X6X6X6X6X6Xn <.F.H.i.a.a.|.J v.F : 5 9 : # 6X6X6XR a U W 6X6X6X6X6X6X6X6X6X6X6X6X",
"6X6X6X6X6X6X6X6X6X6X6X6X6X6Xp z.@X%XW.a.p.Q.*X*X!.9.t   @ @ 6X6X6X6X*.Q W 6.6X6X6X6X6X6X6X6X6X6X6X6X",
"6X6X6X6X6X6X6X6X6X6X6X6X6X6Xv E.;X3X*XE.B.(.@Xd.w.[ t 6X6X6X6X6X6X6X6X^ 8.S.[.6X6X6X6X6X6X6X6X6X6X6X",
"6X6X6X6X6X6X6X6X6X6X6X6X6X6X{ s.-X3X#Xc.g b r.@.:.y 6X6X6X6X6X6X6X6X6X6X6X{.+X6X6X6X6X6X6X6X6X6X6X6X",
"6X6X6X6X6X6X6X6X6X6X6X6X6X6X| 0.E.@XH 4 4 , j h , < % 6X6X6X6X6X6X6X6X6X6X6X6X6X6X6X6X6X6X6X6X6X6X6X",
"6X6X6X6X6X6X6X6X6X6X6X6X6X6Xu ;.K.@XS 2 # 6X6X6X% > 0 Y ~ 6X6X6X6X6X6X6X6X6X6X6X6X6X6X6X6X6X6X6X6X6X",
"6X6X6X6X6X6X6X6X6X6X6X6X6X6X6X` V.-X/.2 6X6X6X6X6X0 q T ! 6X6X6X6X6X6X6X6X6X6X6X6X6X6X6X6X6X6X6X6X6X",
"6X6X6X6X6X6X6X6X6X6X6X6X6X6X6X&  .m.2.4 6X6X6X6X6X%.T W 6.6X6X6X6X6X6X6X6X6X6X6X6X6X6X6X6X6X6X6X6X6X",
"6X6X6X6X6X6X6X6X6X6X6X6X6X6X6X6Xe ) v - 6X6X6X6X6X~ &.8.S.6X6X6X6X6X6X6X6X6X6X6X6X6X6X6X6X6X6X6X6X6X",
"6X6X6X6X6X6X6X6X6X6X6X6X6X6X6X6X6Xe z k   6X6X6X6X6X6X[.{.6X6X6X6X6X6X6X6X6X6X6X6X6X6X6X6X6X6X6X6X6X",
"6X6X6X6X6X6X6X6X6X6X6X6X6X6X6X6X6Xo u k & 6X6X6X6X6X6X6X6X6X6X6X6X6X6X6X6X6X6X6X6X6X6X6X6X6X6X6X6X6X",
"6X6X6X6X6X6X6X6X6X6X6X6X6X6X6X6X6X6X&   6X6X6X6X6X6X6X6X6X6X6X6X6X6X6X6X6X6X6X6X6X6X6X6X6X6X6X6X6X6X",
"6X6X6X6X6X6X6X6X6X6X6X6X6X6X6X6X6X6X6X6X6X6X6X6X6X6X6X6X6X6X6X6X6X6X6X6X6X6X6X6X6X6X6X6X6X6X6X6X6X6X",
"6X6X6X6X6X6X6X6X6X6X6X6X6X6X6X6X6X6X6X6X6X6X6X6X6X6X6X6X6X6X6X6X6X6X6X6X6X6X6X6X6X6X6X6X6X6X6X6X6X6X",
"6X6X6X6X6X6X6X6X6X6X6X6X6X6X6X6X6X6X6X6X6X6X6X6X6X6X6X6X6X6X6X6X6X6X6X6X6X6X6X6X6X6X6X6X6X6X6X6X6X6X",
"6X6X6X6X6X6X6X6X6X6X6X6X6X6X6X6X6X6X6X6X6X6X6X6X6X6X6X6X6X6X6X6X6X6X6X6X6X6X6X6X6X6X6X6X6X6X6X6X6X6X",
"6X6X6X6X6X6X6X6X6X6X6X6X6X6X6X6X6X6X6X6X6X6X6X6X6X6X6X6X6X6X6X6X6X6X6X6X6X6X6X6X6X6X6X6X6X6X6X6X6X6X",
"6X6X6X6X6X6X6X6X6X6X6X6X6X6X6X6X6X6X6X6X6X6X6X6X6X6X6X6X6X6X6X6X6X6X6X6X6X6X6X6X6X6X6X6X6X6X6X6X6X6X",
"6X6X6X6X6X6X6X6X6X6X6X6X6X6X6X6X6X6X6X6X6X6X6X6X6X6X6X6X6X6X6X6X6X6X6X6X6X6X6X6X6X6X6X6X6X6X6X6X6X6X"
};
