/* XPM */
static char *nave2___18[] = {
/* columns rows colors chars-per-pixel */
"50 50 208 2 ",
"   c #060C09",
".  c #0C0C0C",
"X  c #010C05",
"o  c #110C0F",
"O  c #1A0D14",
"+  c #130A19",
"@  c #081717",
"#  c #141514",
"$  c #15111C",
"%  c #1B1C1A",
"&  c #1C1218",
"*  c #240D19",
"=  c #380A1B",
"-  c #1A221D",
";  c #390B23",
":  c #281A24",
">  c #3B112A",
",  c #1E2123",
"<  c #222221",
"1  c #222729",
"2  c #232B2C",
"3  c #34262E",
"4  c #3C2D34",
"5  c #3E2B39",
"6  c #343539",
"7  c #590916",
"8  c #4A0B17",
"9  c #730517",
"0  c #440825",
"q  c #45102E",
"w  c #4D0E32",
"e  c #5B0936",
"r  c #540E36",
"t  c #4C1233",
"y  c #481C36",
"u  c #531036",
"i  c #540026",
"p  c #750239",
"a  c #65093D",
"s  c #4A263C",
"d  c #3D3A42",
"f  c #5F1B43",
"g  c #790B49",
"h  c #661342",
"j  c #6B1946",
"k  c #751149",
"l  c #79144A",
"z  c #711A4A",
"x  c #582641",
"c  c #4C3342",
"v  c #473D46",
"b  c #54384A",
"n  c #7A214F",
"m  c #742652",
"M  c #7F2359",
"N  c #7A2B56",
"B  c #72375A",
"V  c #7A3460",
"C  c #4A474A",
"Z  c #574756",
"A  c #53505A",
"S  c #604B5C",
"D  c #5D5B65",
"F  c #764563",
"G  c #735D6E",
"H  c #7C5974",
"J  c #6E5463",
"K  c #84081B",
"L  c #820217",
"P  c #A40B1C",
"I  c #9F122C",
"U  c #831126",
"Y  c #AF0A20",
"T  c #D2131E",
"R  c #C30D19",
"E  c #CE1221",
"W  c #C31E3A",
"Q  c #F61E34",
"!  c #E92A39",
"~  c #F02332",
"^  c #930045",
"/  c #83194E",
"(  c #88144D",
")  c #891753",
"_  c #921157",
"`  c #A0034E",
"'  c #832557",
"]  c #9D1161",
"[  c #A61965",
"{  c #B4176A",
"}  c #B1106B",
"|  c #992767",
" . c #8D3E6F",
".. c #903A6E",
"X. c #882F67",
"o. c #AB2365",
"O. c #B32D6E",
"+. c #AB2876",
"@. c #B73979",
"#. c #B72B7E",
"$. c #C31977",
"%. c #C70F78",
"&. c #CE287E",
"*. c #C5327C",
"=. c #FD396B",
"-. c #834D6E",
";. c #8C4D74",
":. c #875779",
">. c #8D4E71",
",. c #B0427A",
"<. c #A84E79",
"1. c #F84C5C",
"2. c #F85169",
"3. c #FF647D",
"4. c #7F7F81",
"5. c #B33081",
"6. c #D41D87",
"7. c #EA128A",
"8. c #F81999",
"9. c #F5138B",
"0. c #D62E8F",
"q. c #CD348A",
"w. c #F7279D",
"e. c #E43D9F",
"r. c #E12992",
"t. c #FF1BA7",
"y. c #FF23A9",
"u. c #FE23A7",
"i. c #FC31AD",
"p. c #F03BA6",
"a. c #FF33B0",
"s. c #FD3AB1",
"d. c #EE3CAA",
"f. c #AF558D",
"g. c #A35785",
"h. c #BE5E8E",
"j. c #B35D94",
"k. c #966488",
"l. c #9E6B91",
"z. c #987895",
"x. c #877284",
"c. c #AD6487",
"v. c #A86E98",
"b. c #B86F9E",
"n. c #AA769E",
"m. c #BC7BAB",
"M. c #B879A8",
"N. c #AC7AA2",
"B. c #C44385",
"V. c #CC4295",
"C. c #D24090",
"Z. c #C75B92",
"A. c #D558A5",
"S. c #C65EA1",
"D. c #F34BB3",
"F. c #F645B3",
"G. c #E959B3",
"H. c #F355B9",
"J. c #E84EAE",
"K. c #D26AAF",
"L. c #CD75A0",
"P. c #D57AB8",
"I. c #D069AC",
"U. c #EA63B9",
"Y. c #E176BC",
"T. c #DD7EC0",
"R. c #ED6EC0",
"E. c #F268C2",
"W. c #E47BC2",
"Q. c #EC7AC3",
"!. c #EA75C2",
"~. c #878689",
"^. c #968598",
"/. c #959194",
"(. c #BA83AF",
"). c #A19EA2",
"_. c #AB98B1",
"`. c #AE88A3",
"'. c #FF878A",
"]. c #FE958D",
"[. c #FE9F90",
"{. c #C886A7",
"}. c #CA87B6",
"|. c #CB98B4",
" X c #DA8FBA",
".X c #C9ADBA",
"XX c #FDE3A1",
"oX c #BEA2C1",
"OX c #DA8BC4",
"+X c #DF94CB",
"@X c #D695C7",
"#X c #C693C0",
"$X c #E48CCA",
"%X c #EA8BCB",
"&X c #E695CD",
"*X c #CCA5C8",
"=X c #DBA7C9",
"-X c #DBB0CD",
";X c #D9B6D6",
":X c #D6A5D0",
">X c #E2AAD1",
",X c #EDBADA",
"<X c #D6C6D6",
"1X c #D2D0D2",
"2X c #CBC0C5",
"3X c #D6E2E3",
"4X c #E5F4F0",
"5X c None",
/* pixels */
"5X5X5X5X5X5X5X5X5X5X5X5X5X5X5X5X5X5X5X5X5X5X5X5X5X5X5X5X5X5X5X5X5X5X5X5X5X5X5X5X5X5X5X5X5X5X5X5X5X5X",
"5X5X5X5X5X5X5X5X5X5X5X5X5X5X5X5X5X5X5X5X5X5X5X5X5X5X5X5X5X5X5X5X5X5X5X5X5X5X5X5X5X5X5X5X5X5X5X5X5X5X",
"5X5X5X5X5X5X5X5X5X5X5X5X5X5X5X5X5X5X5X5X5X5X5X5X5X5X5X5X5X5X5X5X5X5X5X5X5X5X5X5X5X5X5X5X5X5X5X5X5X5X",
"5X5X5X5X5X5X5X5X5X5X5X5X5X5X5X5X5X5X5X5X5X5X5X5X5X5X5X5X5X5X5X5X5X5X5X5X5X5X5X5X5X5X5X5X5X5X5X5X5X5X",
"5X5X5X5X5X5X5X5X5X5X5X5X5X5X5X5X5X5X5X5X5X5X5X5X5X5X5X5X5X5X5X5X5X5X5X5X5X5X5X5X5X5X5X5X5X5X5X5X5X5X",
"5X5X5X5X5X5X5X5X5X5X5X5X5X5X5X5X5X5X5X5X5X5X5X5X5X5X5X5X5X5X5X5X5X5X5X5X5X5X5X5X5X5X5X5X5X5X5X5X5X5X",
"5X5X5X5X5X5X5X5X5X5X5X5X5X5X5X5X5X5X5X5X5X5X5X5X5X5X5X5X5X5X5X5X5X5X5X5X5X5X5X5X5X5X5X5X5X5X5X5X5X5X",
"5X5X5X5X5X5X5X5X5X5X5X5X5X5X5X5X5X5X5X5X5X5X5X5X5X5X5X5X5X5X5X5X5X5X5X5X5X5X5X5X5X5X5X5X5X5X5X5X5X5X",
"5X5X5X5X5X5X5X5X5X5X5X5X5X5X5X  5X5X5X5X5X5X5X5X5XXX5X5X5X5X5X5X5X5X5X5X5X5X5X5X5X5X5X5X5X5X5X5X5X5X",
"5X5X5X5X5X5X5X5X5X5X5X5X5X5X  u > 5X5X5X5X5X5X5X'.].5X5X5X5X5X5X5X5X5X5X5X5X5X5X5X5X5X5X5X5X5X5X5X5X",
"5X5X5X5X5X5X5X5X5X5X5X5X5X5X* k k . 5X5X5X5X5X! 1.3.5X5X5X5X5X5X5X5X5X5X5X5X5X5X5X5X5X5X5X5X5X5X5X5X",
"5X5X5X5X5X5X5X5X5X5X5X5X5XX w k q 5X5X5X5X5XQ P R ~ 5X5X5X5X5X5X5X5X5X5X5X5X5X5X5X5X5X5X5X5X5X5X5X5X",
"5X5X5X5X5X5X5X5X5X5X5X5X5XO ] ..3 5X5X5X5X5XK 7 K W 5X5X5X5X5X5X5X5X5X5X5X5X5X5X5X5X5X5X5X5X5X5X5X5X",
"5X5X5X5X5X5X5X5X5X5X5X5X5Xg A._.D # 5X5X5X5X& * 7 I 5X5X5X5X5X5X5X5X5X[.5X5X5X5X5X5X5X5X5X5X5X5X5X5X",
"5X5X5X5X5X5X5X5X5X5X5X5X  %.OXoXA , # 5X5X: $ + $ 5X5X5X5X5X5X5X5X5X2.J.'.5X5X5X5X5X5X5X5X5X5X5X5X5X",
"5X5X5X5X5X5X5X5X5X5X5X5Xw 7.D.m.6 2 2 % X.] ] r 5X5X5X5X5X5X5X5X5XT T ! 1.5X5X5X5X5X5X5X5X5X5X5X5X5X",
"5X5X5X5X5X5X5X5X5X5X5X5X] 8.E.+Xm.:.d d G.u.7.{ j 5X5X& 5X5X5X5XP K L P Q 5X5X5X5X5X5X5X5X5X5X5X5X5X",
"5X5X5X5X5X5X5X5X5X5X5X5X) w.+X3X;XW.P.(.*X@XY.e.m # % < % 5X5X5X5X= 8 U =.5X5X5X5X5X5X5X5X5X5X5X5X5X",
"5X5X5X5X5X5X5X5X5X5X5X5Xw q.&X<X:XF.u.D.!.(.^.z.v - s m 3 # 5X5X@ + $ 9 5X5X5X5X5X5X5X5X5X5X5X5X5X5X",
"5X5X5X5X5X5X5X5X5X5X5X5X5XM j.T.E.s.u.u.d.l.d ~.~.b &.6.s - y z k e @ 5X5X5X5X5X5X&   5X5X5X5X5X5X5X",
"5X5X5X5X5X5X5X5X5X5X5X5X5X> b V 0.s.a.a.I.S C `.-X(.n +.s < ..r.7.} j 5X5X5X5X5X& l q . 5X5X5X5X5X5X",
"5X5X5X5X5X5X5X5X5X5X5X5X5X5X5X= | G.H.H.v.6 G }.-X:.v k.|.4.^.$XJ.w.5.: 5X5X5X@ t l t 5X5X5X5X5X5X5X",
"5X5X5X5X5X5X5X5X5X5X5X5X5X5X5X5XF }.$XT.b.Z J @.h.)./..X>X~.C z.*X#Xk., < % , A M h * 5X5X5X5X5X5X5X",
"5X5X5X5X5X5X5X5X5X5X5X5X5X5X5X5X: c G.$XOXH z +.' s >.{.}.G 6 M.!.OXx.d 2 , D _.f.k   5X5X5X5X5X5X5X",
"5X5X5X5X5X5X5X5X5X5X5X5X5X5X5X5X5X5X5.U. X:.(  Xc.>.o.o.>.C S K.t.a.G.P.k.v N.:XV.h 5X5X5X5X5X5X5X5X",
"5X5X5X5X5X5X5X5X5X5X5X5X5X5X5X5X5X5XX.W.`.' <.,XU.Y.L.n S d l.F.y.t.a.$X;X@X!.G.{ O 5X5X5X5X5X5X5X5X",
"5X5X5X5X5X5X5X5X5X5X5X5X5X5X5X5X5X5X4 n.:.) |.%XQ.&Xh.N k.v. XF.s.a.D.:X3X;XF.7._ 5X5X5X5X5X5X5X5X5X",
"5X5X5X5X5X5X5X5X5X5X5X5X5X5X5X5X5X5XX b g.o.*.U.Q.=X' >.}.&X%XY.H.p.J.&X;XOXt.{ > 5X5X5X5X5X5X5X5X5X",
"5X5X5X5X5X5X5X5X5X5X5X5X5X5X5X5X5X5X# F Y.*.Z. XC.@.m l.&XH.U.m.I.| M :.S.q.] k 5X5X5X5X5X5X5X5X5X5X",
"5X5X5X5X5X5X5X5X5X5X5X5X5X5X5X5X5X5X5XB A.$..X.X*.q.;.M.K.+.m : c 5X5X5 j u 5X5X5X5X5X5X5X5X5X5X5X5X",
"5X5X5X5X5X5X5X5X5X5X5X5X5X5X5X5X5X5X5Xa ,.{.2X{.&.Y.-.b 5 5X5X5X5X5X5X5X5X5X5X5X5X5X5X5X5X5X5X5X5X5X",
"5X5X5X5X5X5X5X5X5X5X5X5X5X5X5X5X5X5Xo p {.1X1X{.B.f.b   5X5X5X5X5X5X5X5X5X5X5X5X5X5X5X5X5X5X5X5X5X5X",
"5X5X5X5X5X5X5X5X5X5X5X5X5X5X5X5X5X5X5Xj =X4X3X{./ y 5X5X5X5X5X5X5X5X5X5X5X5X5X5X5X5X5X5X5X5X5X5X5X5X",
"5X5X5X5X5X5X5X5X5X5X5X5X5X5X5X5X5X5X5X0 ` @.|.c.7 5X5X5X5X5X5X5X5X5X5X5X5X5X5X5X5X5X5X5X5X5X5X5X5X5X",
"5X5X5X5X5X5X5X5X5X5X5X5X5X5X5X5X5X5X5X5Xp ^ p q 5X5X5X5X5X5X5X5X5X5X5X5X5X5X5X5X5X5X5X5X5X5X5X5X5X5X",
"5X5X5X5X5X5X5X5X5X5X5X5X5X5X5X5X5X5X5X5X& = 5X5X5X5X5X5X5X5X5X5X5X5X5X5X5X5X5X5X5X5X5X5X5X5X5X5X5X5X",
"5X5X5X5X5X5X5X5X5X5X5X5X5X5X5X5X5X5X5X5X. 5X5X5X5X5X5X5X5X5X5X5X5X5X5X5X5X5X5X5X5X5X5X5X5X5X5X5X5X5X",
"5X5X5X5X5X5X5X5X5X5X5X5X5X5X5X5X5X5X5X5X5X5X5X5X5X5X5X5X5X5X5X5X5X5X5X5X5X5X5X5X5X5X5X5X5X5X5X5X5X5X",
"5X5X5X5X5X5X5X5X5X5X5X5X5X5X5X5X5X5X5X5X5X5X5X5X5X5X5X5X5X5X5X5X5X5X5X5X5X5X5X5X5X5X5X5X5X5X5X5X5X5X",
"5X5X5X5X5X5X5X5X5X5X5X5X5X5X5X5X5X5X5X5X5X5X5X5X5X5X5X5X5X5X5X5X5X5X5X5X5X5X5X5X5X5X5X5X5X5X5X5X5X5X",
"5X5X5X5X5X5X5X5X5X5X5X5X5X5X5X5X5X5X5X5X5X5X5X5X5X5X5X5X5X5X5X5X5X5X5X5X5X5X5X5X5X5X5X5X5X5X5X5X5X5X",
"5X5X5X5X5X5X5X5X5X5X5X5X5X5X5X5X5X5X5X5X5X5X5X5X5X5X5X5X5X5X5X5X5X5X5X5X5X5X5X5X5X5X5X5X5X5X5X5X5X5X",
"5X5X5X5X5X5X5X5X5X5X5X5X5X5X5X5X5X5X5X5X5X5X5X5X5X5X5X5X5X5X5X5X5X5X5X5X5X5X5X5X5X5X5X5X5X5X5X5X5X5X",
"5X5X5X5X5X5X5X5X5X5X5X5X5X5X5X5X5X5X5X5X5X5X5X5X5X5X5X5X5X5X5X5X5X5X5X5X5X5X5X5X5X5X5X5X5X5X5X5X5X5X",
"5X5X5X5X5X5X5X5X5X5X5X5X5X5X5X5X5X5X5X5X5X5X5X5X5X5X5X5X5X5X5X5X5X5X5X5X5X5X5X5X5X5X5X5X5X5X5X5X5X5X",
"5X5X5X5X5X5X5X5X5X5X5X5X5X5X5X5X5X5X5X5X5X5X5X5X5X5X5X5X5X5X5X5X5X5X5X5X5X5X5X5X5X5X5X5X5X5X5X5X5X5X",
"5X5X5X5X5X5X5X5X5X5X5X5X5X5X5X5X5X5X5X5X5X5X5X5X5X5X5X5X5X5X5X5X5X5X5X5X5X5X5X5X5X5X5X5X5X5X5X5X5X5X",
"5X5X5X5X5X5X5X5X5X5X5X5X5X5X5X5X5X5X5X5X5X5X5X5X5X5X5X5X5X5X5X5X5X5X5X5X5X5X5X5X5X5X5X5X5X5X5X5X5X5X",
"5X5X5X5X5X5X5X5X5X5X5X5X5X5X5X5X5X5X5X5X5X5X5X5X5X5X5X5X5X5X5X5X5X5X5X5X5X5X5X5X5X5X5X5X5X5X5X5X5X5X",
"5X5X5X5X5X5X5X5X5X5X5X5X5X5X5X5X5X5X5X5X5X5X5X5X5X5X5X5X5X5X5X5X5X5X5X5X5X5X5X5X5X5X5X5X5X5X5X5X5X5X"
};
