/* XPM */
static char *nave2[] = {
/* columns rows colors chars-per-pixel */
"50 50 173 2 ",
"   c #0C0C0C",
".  c #070716",
"X  c #120E10",
"o  c #0F101C",
"O  c #171717",
"+  c #12141C",
"@  c #14181C",
"#  c #1B1A1A",
"$  c #27111F",
"%  c #1C1A21",
"&  c #3E132D",
"*  c #1D2022",
"=  c #242020",
"-  c #232528",
";  c #2E2929",
":  c #2F212B",
">  c #322C2C",
",  c #38262F",
"<  c #2C2F33",
"1  c #362531",
"2  c #2F3032",
"3  c #313439",
"4  c #460B17",
"5  c #530E1A",
"6  c #690B19",
"7  c #790515",
"8  c #440A28",
"9  c #4E0531",
"0  c #5D113C",
"q  c #680535",
"w  c #7A043D",
"e  c #78093E",
"r  c #48293A",
"t  c #5B1D42",
"y  c #681545",
"u  c #781646",
"i  c #7C144E",
"p  c #711349",
"a  c #781B51",
"s  c #532C42",
"d  c #403E44",
"f  c #63334E",
"g  c #7B2358",
"h  c #73335C",
"j  c #594B54",
"k  c #58585B",
"l  c #6B4660",
"z  c #655F66",
"x  c #7C526F",
"c  c #7A4364",
"v  c #736B76",
"b  c #7C6177",
"n  c #6D6B70",
"m  c #830419",
"M  c #9F0A1C",
"N  c #A70119",
"B  c #A80018",
"V  c #AE1B38",
"C  c #D51621",
"Z  c #D81725",
"A  c #E21723",
"S  c #FF2329",
"D  c #FE233B",
"F  c #850643",
"G  c #86104A",
"H  c #8F1259",
"J  c #8B1C58",
"K  c #97145A",
"L  c #B30056",
"P  c #B4055A",
"I  c #91275E",
"U  c #A31465",
"Y  c #BD1374",
"T  c #B51C70",
"R  c #9C2364",
"E  c #8A2E65",
"W  c #A9216F",
"Q  c #A4316C",
"!  c #A63673",
"~  c #C0176B",
"^  c #CD1172",
"/  c #E20473",
"(  c #C72477",
")  c #FF3F71",
"_  c #854E6F",
"`  c #964D79",
"'  c #825877",
"]  c #885679",
"[  c #95587E",
"{  c #FF5573",
"}  c #FF657C",
"|  c #D81483",
" . c #D91D8A",
".. c #F71898",
"X. c #CE3893",
"o. c #FB249E",
"O. c #FB299F",
"+. c #FF21A7",
"@. c #FF27AA",
"#. c #FC2DA7",
"$. c #E93CA6",
"%. c #FC33AA",
"&. c #FF37B1",
"*. c #FE3AB2",
"=. c #8F5F83",
"-. c #935D83",
";. c #A55788",
":. c #956287",
">. c #8A7588",
",. c #A0648E",
"<. c #AC6090",
"1. c #B06F9E",
"2. c #BB6FA2",
"3. c #B67AA7",
"4. c #C85C91",
"5. c #CA6797",
"6. c #FF6E81",
"7. c #FF7083",
"8. c #DE5DAA",
"9. c #EC49AC",
"0. c #E640A7",
"q. c #F44BB5",
"w. c #F945B4",
"e. c #ED57B4",
"r. c #F255B8",
"t. c #C379AE",
"y. c #CD7DB6",
"u. c #D177B1",
"i. c #ED63BC",
"p. c #EC6ABE",
"a. c #E36AB5",
"s. c #EE75BF",
"d. c #EC7BC4",
"f. c #E579C2",
"g. c #868288",
"h. c #BD91BA",
"j. c #A98FAD",
"k. c #A9A1A7",
"l. c #FE8F8C",
"z. c #FE918C",
"x. c #FEA190",
"c. c #CC80B7",
"v. c #C584B5",
"b. c #D38AB9",
"n. c #C998B1",
"m. c #D69BB9",
"M. c #C587A4",
"N. c #C9A0B4",
"B. c #FDEBA3",
"V. c #B6A9C0",
"C. c #DD85C3",
"Z. c #DD89C6",
"A. c #DE8FC8",
"S. c #CD9FCA",
"D. c #DD93C7",
"F. c #DE93CA",
"G. c #DC9BCC",
"H. c #E08EC5",
"J. c #CEA3CA",
"K. c #DDA7C3",
"L. c #CBB6C0",
"P. c #C0BEC3",
"I. c #CCBFC5",
"U. c #D7B3CA",
"Y. c #D7B9D4",
"T. c #D1B0D1",
"R. c #E0B5CC",
"E. c #D6CADB",
"W. c #DADADC",
"Q. c #E3C2D4",
"!. c #D2E8E5",
"~. c #E1E5E6",
"^. c None",
/* pixels */
"^.^.^.^.^.^.^.^.^.^.^.^.^.^.^.^.^.^.^.^.^.^.^.^.^.^.^.^.^.^.^.^.^.^.^.^.^.^.^.^.^.^.^.^.^.^.^.^.^.^.",
"^.^.^.^.^.^.^.^.^.^.^.^.^.^.^.^.^.^.^.^.^.^.^.^.^.^.^.^.^.^.^.^.^.^.^.^.^.^.^.^.^.^.^.^.^.^.^.^.^.^.",
"^.^.^.^.^.^.^.^.^.^.^.^.^.^.^.^.^.^.^.^.^.^.^.^.^.^.^.^.^.^.^.^.^.^.^.^.^.^.^.^.^.^.^.^.^.^.^.^.^.^.",
"^.^.^.^.^.^.^.^.^.^.^.^.^.^.^.^.^.^.^.^.^.^.^.^.^.^.^.^.^.^.^.^.^.^.^.^.^.^.^.^.^.^.^.^.^.^.^.^.^.^.",
"^.^.^.^.^.^.^.^.^.^.^.^.^.^.^.^.^.^.^.^.^.^.^.^.^.^.^.^.^.^.^.^.^.^.^.^.^.^.^.^.^.^.^.^.^.^.^.^.^.^.",
"^.^.^.^.^.^.^.^.^.^.^.^.^.^.^.^.^.^.^.^.^.^.^.^.^.^.^.^.^.^.^.^.^.^.^.^.^.^.^.^.^.^.^.^.^.^.^.^.^.^.",
"^.^.^.^.^.^.^.^.^.^.^.^.^.^.^.^.^.^.^.^.^.^.^.^.^.^.^.^.^.^.^.^.^.^.^.^.^.^.^.^.^.^.^.^.^.^.^.^.^.^.",
"^.^.^.^.^.^.^.^.^.^.^.^.^.^.^.^.^.^.^.^.^.^.^.^.^.^.^.^.^.^.^.^.^.^.^.^.^.^.^.^.^.^.^.^.^.^.^.^.^.^.",
"^.^.^.^.^.^.^.^.^.^.^.^.^.^.^.^.^.^.^.^.^.^.^.^.^.^.^.^.^.^.^.^.^.^.^.^.^.^.^.^.^.^.^.^.^.^.^.^.^.^.",
"^.^.^.^.^.^.^.^.^.^.^.^.^.^.^.^.^.^.^.^.^.^.^.^.^.^.^.^.^.^.^.^.^.^.^.^.^.^.^.^.^.^.^.^.^.^.^.^.^.^.",
"^.^.^.^.^.^.^.^.^.^.^.^.^.^.^.^.^.^.^.^.^.^.^.^.^.^.^.^.^.^.^.^.^.^.^.^.^.^.^.^.^.^.^.^.^.^.^.^.^.^.",
"^.^.^.^.^.^.^.^.^.^.^.^.^.^.^.^.^.^.^.^.^.^.^.^.^.^.^.^.^.^.^.^.^.^.^.^.^.^.^.^.^.^.^.^.^.^.^.^.^.^.",
"^.^.^.^.^.^.^.^.^.^.^.^.^.^.^.^.^.^.^.^.^.^.^.^.^.^.^.^.^.^.^.^.^.^.^.^.^.^.^.^.^.^.^.^.^.^.^.^.^.^.",
"^.^.^.^.^.^.^.^.^.^.^.^.^.^.^.^.^.^.^.^.^.^.^.^.    ^.^.^.^.^.^.^.^.^.^.^.^.^.^.^.^.^.^.^.^.^.^.^.^.",
"^.^.^.^.^.^.^.^.^.^.^.^.^.^.^.^.^.^.^.^.^.^.^.  w F   ^.^.^.^.^.^.^.^.^.^.^.^.^.^.^.^.^.^.^.^.^.^.^.",
"^.^.^.^.^.^.^.^.^.^.^.^.^.^.^.^.^.^.^.^.^.^.X e P P F X ^.^.^.^.^.^.^.^.^.^.^.^.^.^.^.^.^.^.^.^.^.^.",
"^.^.^.^.^.^.^.^.^.^.^.^.^.^.^.^.^.^.^.^.^.^.q m.~.~.m.F   ^.^.^.^.^.^.^.^.^.^.^.^.^.^.^.^.^.^.^.^.^.",
"^.^.^.^.^.^.^.^.^.^.^.^.^.^.^.^.^.^.^.^.^.^.q M.W.W.n.F   ^.^.^.^.^.^.^.^.^.^.^.^.^.^.^.^.^.^.^.^.^.",
"^.^.^.^.^.^.^.^.^.^.^.^.^.^.^.^.^.^.^.^.^.r Q 4.L.E.<.Q s ^.^.^.^.^.^.^.^.^.^.^.^.^.^.^.^.^.^.^.^.^.",
"^.^.^.^.^.^.^.^.^.^.^.^.^.^.^.^.^.^.^.^.O c s.( N.L.~ s.] # ^.^.^.^.^.^.^.^.^.^.^.^.^.^.^.^.^.^.^.^.",
"^.^.^.^.^.^.^.^.^.^.^.^.^.^.^.^.^.^.^.^.O _ d.( N.L.~ s.[ $ ^.^.^.^.^.^.^.^.^.^.^.^.^.^.^.^.^.^.^.^.",
"^.^.^.^.^.^.^.^.^.^.^.^.^.^.^.^.^.^.^.: 3.-.R P 8.a.P R ] 3.r ^.^.^.^.^.^.^.^.^.^.^.^.^.^.^.^.^.^.^.",
"^.^.^.^.^.^.^.^.^.^.^.^.^.^.^.^.^.^.$ $.F.:.u m.d.p.R.G ' F.e.& ^.^.^.^.^.^.^.^.^.^.^.^.^.^.^.^.^.^.",
"^.^.^.^.^.^.^.^.^.^.^.^.^.^.^.^.1 1 0.r.F.:.u K.d.p.Q.G ' F.e.w.1 1 ^.^.^.^.^.^.^.^.^.^.^.^.^.^.^.^.",
"^.^.^.^.^.^.^.^.^.^.^.^.^.^.^.8 <.F.F.F.H.:.u m.d.p.Q.G ] H.D.F.Z.2.8 ^.^.^.^.^.^.^.^.^.^.^.^.^.^.^.",
"^.^.^.^.^.^.^.^.^.^.^.^.i l h T 9.i.i.c.:.z u 4.;.` 5.G j :.y.p.f.q.^ h l a ^.^.^.^.^.^.^.^.^.^.^.^.",
"^.^.^.^.^.^.^.^.^.^.^.H e.Z.f.q.&.&.*.t.2 k ! P r , L Q z 2 1.w.&.&.w.f.H.i.U ^.^.^.^.^.^.^.^.^.^.^.",
"^.^.^.^.^.^.^.^.^.^.K ..F.E.Y.r.@.@.#.t.2 x b.n.k.k.n.b.[ 2 1.%.@.@.q.T.E.F.+.U   ^.^.^.^.^.^.^.^.^.",
"^.^.^.^.^.^.^.^.^.  Y ..A.!.E.r.+.+.+.t.- v D.U.z j E.D.g.- 1.#.+.+.q.Y.!.G.+.|   ^.^.^.^.^.^.^.^.^.",
"^.^.^.^.^.^.^.^.^.  Y +.C.y.y.y.y.Z.Z.v.j v P.c.f r u.P.g.j 3.Z.Z.y.y.y.c.b.#.|   ^.^.^.^.^.^.^.^.^.",
"^.^.^.^.^.^.^.^.^.  Y C.v.3 3 3 2 j.J.S.J.>.> > ^ ..> > b J.J.S.h.3 3 3 3 3.D.|   ^.^.^.^.^.^.^.^.^.",
"^.^.^.^.^.^.^.^.^.  Y J.V.2 - - - X.O.o.#.! $ ; Q W ; # E #.O.o.$.- - * < k.T.|   ^.^.^.^.^.^.^.^.^.",
"^.^.^.^.^.^.^.^.^.  H ;.v *       g H / J y   # ; > #   t J / K g       % z ,.U   ^.^.^.^.^.^.^.^.^.",
"^.^.^.^.^.^.^.^.^.  0 i * ^.^.^.^.^.@ 9 @ ^.^.^.# # ^.^.^.@ 8 % ^.^.^.^.^.O p y   ^.^.^.^.^.^.^.^.^.",
"^.^.^.^.^.^.^.^.^.  0 i @ ^.^.^.^.^.o . @ ^.^.^.^.^.^.^.^.+ . + ^.^.^.^.^.  p y   ^.^.^.^.^.^.^.^.^.",
"^.^.^.^.^.^.^.^.^.  0 i X ^.^.^.^.N 5 4 6 N ^.^.^.^.^.^.^.6 4 4 N ^.^.^.^.  p y   ^.^.^.^.^.^.^.^.^.",
"^.^.^.^.^.^.^.^.^.      ^.^.^.^.^.{ m m N D ^.^.^.^.^.^.^.V m 7 D ^.^.^.^.^.      ^.^.^.^.^.^.^.^.^.",
"^.^.^.^.^.^.^.^.^.^.^.^.^.^.^.^.^.S Z C Z ^.^.^.^.^.^.^.^.A C C S ^.^.^.^.^.^.^.  ^.^.^.^.^.^.^.^.^.",
"^.^.^.^.^.^.^.^.^.^.^.^.^.^.^.^.^.^.7.{ 7.^.^.^.^.^.^.^.^.7.{ } ^.^.^.^.^.^.^.^.^.^.^.^.^.^.^.^.^.^.",
"^.^.^.^.^.^.^.^.^.^.^.^.^.^.^.^.^.^.^.z.^.^.^.^.^.^.^.^.^.^.z.x.^.^.^.^.^.^.^.^.^.^.^.^.^.^.^.^.^.^.",
"^.^.^.^.^.^.^.^.^.^.^.^.^.^.^.^.^.^.^.B.^.^.^.^.^.^.^.^.^.^.B.^.^.^.^.^.^.^.^.^.^.^.^.^.^.^.^.^.^.^.",
"^.^.^.^.^.^.^.^.^.^.^.^.^.^.^.^.^.^.^.^.^.^.^.^.^.^.^.^.^.^.^.^.^.^.^.^.^.^.^.^.^.^.^.^.^.^.^.^.^.^.",
"^.^.^.^.^.^.^.^.^.^.^.^.^.^.^.^.^.^.^.^.^.^.^.^.^.^.^.^.^.^.^.^.^.^.^.^.^.^.^.^.^.^.^.^.^.^.^.^.^.^.",
"^.^.^.^.^.^.^.^.^.^.^.^.^.^.^.^.^.^.^.^.^.^.^.^.^.^.^.^.^.^.^.^.^.^.^.^.^.^.^.^.^.^.^.^.^.^.^.^.^.^.",
"^.^.^.^.^.^.^.^.^.^.^.^.^.^.^.^.^.^.^.^.^.^.^.^.^.^.^.^.^.^.^.^.^.^.^.^.^.^.^.^.^.^.^.^.^.^.^.^.^.^.",
"^.^.^.^.^.^.^.^.^.^.^.^.^.^.^.^.^.^.^.^.^.^.^.^.^.^.^.^.^.^.^.^.^.^.^.^.^.^.^.^.^.^.^.^.^.^.^.^.^.^.",
"^.^.^.^.^.^.^.^.^.^.^.^.^.^.^.^.^.^.^.^.^.^.^.^.^.^.^.^.^.^.^.^.^.^.^.^.^.^.^.^.^.^.^.^.^.^.^.^.^.^.",
"^.^.^.^.^.^.^.^.^.^.^.^.^.^.^.^.^.^.^.^.^.^.^.^.^.^.^.^.^.^.^.^.^.^.^.^.^.^.^.^.^.^.^.^.^.^.^.^.^.^.",
"^.^.^.^.^.^.^.^.^.^.^.^.^.^.^.^.^.^.^.^.^.^.^.^.^.^.^.^.^.^.^.^.^.^.^.^.^.^.^.^.^.^.^.^.^.^.^.^.^.^.",
"^.^.^.^.^.^.^.^.^.^.^.^.^.^.^.^.^.^.^.^.^.^.^.^.^.^.^.^.^.^.^.^.^.^.^.^.^.^.^.^.^.^.^.^.^.^.^.^.^.^."
};
