/* XPM */
static char *nave1___27[] = {
/* columns rows colors chars-per-pixel */
"50 50 170 2 ",
"   c #040403",
".  c #0C0C0C",
"X  c #0F0F10",
"o  c #180917",
"O  c #100D1A",
"+  c #0A111A",
"@  c #131313",
"#  c #191717",
"$  c #161519",
"%  c #1B1B1C",
"&  c #230D19",
"*  c #3D0A16",
"=  c #241F1F",
"-  c #0F1420",
";  c #1A1D21",
":  c #1B2127",
">  c #232223",
",  c #242629",
"<  c #2A2B2D",
"1  c #282628",
"2  c #2D2F32",
"3  c #342F30",
"4  c #2F3134",
"5  c #353334",
"6  c #343639",
"7  c #35393C",
"8  c #3B3B3D",
"9  c #3A3637",
"0  c #470D18",
"q  c #500F18",
"w  c #57171C",
"e  c #671319",
"r  c #72181B",
"t  c #3A3E41",
"y  c #3E4145",
"u  c #3D4A4A",
"i  c #404346",
"p  c #424649",
"a  c #444A4D",
"s  c #4A4C4D",
"d  c #494E52",
"f  c #474C50",
"g  c #4D5356",
"h  c #4F5658",
"j  c #525255",
"k  c #53555A",
"l  c #54595E",
"z  c #5A5A5C",
"x  c #525C61",
"c  c #5B5E62",
"v  c #605F62",
"b  c #546163",
"n  c #5E6469",
"m  c #5B6B6C",
"M  c #5D6167",
"N  c #5E736F",
"B  c #5F7171",
"V  c #626365",
"C  c #62666B",
"Z  c #676E6F",
"A  c #666C72",
"S  c #686C72",
"D  c #637474",
"F  c #6B7174",
"G  c #6B7479",
"H  c #747476",
"J  c #747679",
"K  c #74787D",
"L  c #7B787A",
"P  c #8D2716",
"I  c #A73118",
"U  c #BF3415",
"Y  c #882124",
"T  c #BF2820",
"R  c #C72C24",
"E  c #DC3226",
"W  c #D4501A",
"Q  c #DC631C",
"!  c #FE5825",
"~  c #E3493E",
"^  c #E56120",
"/  c #ED6530",
"(  c #F37C49",
")  c #FB8A5A",
"_  c #FF9D6D",
"`  c #757C83",
"'  c #747780",
"]  c #6D8384",
"[  c #738585",
"{  c #7C8084",
"}  c #7B838A",
"|  c #778B8E",
" . c #7A8E91",
".. c #7B9395",
"X. c #7B9796",
"o. c #84888D",
"O. c #86878C",
"+. c #838B93",
"@. c #908D90",
"#. c #899197",
"$. c #85969B",
"%. c #88989E",
"&. c #89929B",
"*. c #949597",
"=. c #979799",
"-. c #9C9D9F",
";. c #84A29D",
":. c #8A9DA1",
">. c #939CA5",
",. c #A09FA2",
"<. c #8BA3A6",
"1. c #8EA4A8",
"2. c #8DADAD",
"3. c #86A8A5",
"4. c #90A2A7",
"5. c #92A6AB",
"6. c #9AA3AD",
"7. c #91AAAD",
"8. c #9BACAC",
"9. c #98B1AF",
"0. c #92AEB0",
"q. c #9FAFB9",
"w. c #9DA7B1",
"e. c #95B3B4",
"r. c #9AB3B7",
"t. c #97B8B9",
"y. c #9CBBBD",
"u. c #99B6B7",
"i. c #A1A1A3",
"p. c #A3ADB7",
"a. c #A5B3BB",
"s. c #A8B3BE",
"d. c #ADBFBF",
"f. c #B3B3B4",
"g. c #B1B5B8",
"h. c #FCAB80",
"j. c #90C6BD",
"k. c #FCC28D",
"l. c #FDE5A0",
"z. c #9EBFC0",
"x. c #AAB6C1",
"c. c #A9BFC7",
"v. c #ACBFC9",
"b. c #A0BBC0",
"n. c #B1BFCB",
"m. c #9FC1C1",
"M. c #90CBC1",
"N. c #99CDC5",
"B. c #A3C5C6",
"V. c #A9C3C7",
"C. c #ACC1C9",
"Z. c #AACBCA",
"A. c #AACBC9",
"S. c #B7C6C8",
"D. c #B7C8D1",
"F. c #B3D5D2",
"G. c #BAD4D2",
"H. c #BAD9D7",
"J. c #B7D8D6",
"K. c #C5C5C5",
"L. c #CACDCE",
"P. c #C7CACB",
"I. c #C2D0CF",
"U. c #CDCFD0",
"Y. c #C4DFDC",
"T. c #D9DCDD",
"R. c #C5E1DE",
"E. c #CFE6E3",
"W. c #E7EAEB",
"Q. c None",
/* pixels */
"Q.Q.Q.Q.Q.Q.Q.Q.Q.Q.Q.Q.Q.Q.Q.Q.Q.Q.Q.Q.Q.Q.Q.Q.Q.Q.Q.Q.Q.Q.Q.Q.Q.Q.Q.Q.Q.Q.Q.Q.Q.Q.Q.Q.Q.Q.Q.Q.Q.Q.",
"Q.Q.Q.Q.Q.Q.Q.Q.Q.Q.Q.Q.Q.Q.Q.Q.Q.Q.Q.Q.Q.Q.Q.Q.Q.Q.Q.Q.Q.Q.Q.Q.Q.Q.Q.Q.Q.Q.Q.Q.Q.Q.Q.Q.Q.Q.Q.Q.Q.Q.",
"Q.Q.Q.Q.Q.Q.Q.Q.Q.Q.Q.Q.Q.Q.Q.Q.Q.Q.Q.Q.Q.Q.Q.Q.Q.Q.Q.Q.Q.Q.Q.Q.Q.Q.Q.Q.Q.Q.Q.Q.Q.Q.Q.Q.Q.Q.Q.Q.Q.Q.",
"Q.Q.Q.Q.Q.Q.Q.Q.Q.Q.Q.Q.Q.Q.Q.Q.Q.Q.Q.Q.Q.Q.Q.Q.Q.Q.Q.Q.Q.Q.Q.Q.Q.Q.Q.Q.Q.Q.Q.Q.Q.Q.Q.Q.Q.Q.Q.Q.Q.Q.",
"Q.Q.Q.Q.Q.Q.Q.Q.Q.Q.Q.Q.Q.Q.Q.Q.Q.Q.Q.Q.Q.Q.Q.Q.Q.Q.Q.Q.Q.Q.Q.Q.Q.Q.Q.Q.Q.Q.Q.Q.Q.Q.Q.Q.Q.Q.Q.Q.Q.Q.",
"Q.Q.Q.Q.Q.Q.Q.Q.Q.Q.Q.Q.Q.Q.Q.Q.Q.Q.Q.Q.Q.Q.Q.Q.Q.Q.Q.Q.Q.Q.Q.Q.Q.Q.Q.Q.Q.Q.Q.Q.Q.Q.Q.Q.Q.Q.Q.Q.Q.Q.",
"Q.Q.Q.Q.Q.Q.Q.Q.Q.Q.Q.Q.Q.Q.Q.Q.Q.Q.Q.Q.Q.Q.Q.Q.Q.Q.Q.Q.Q.Q.Q.Q.Q.Q.Q.Q.Q.Q.Q.Q.Q.Q.Q.Q.Q.Q.Q.Q.Q.Q.",
"Q.Q.Q.Q.Q.Q.Q.Q.Q.Q.Q.Q.Q.Q.Q.Q.Q.Q.Q.Q.Q.Q.Q.Q.Q.Q.Q.Q.Q.Q.Q.Q.Q.Q.Q.Q.Q.Q.Q.Q.Q.Q.Q.Q.Q.Q.Q.Q.Q.Q.",
"Q.Q.Q.Q.Q.Q.Q.Q.Q.Q.Q.Q.Q.Q.Q.Q.Q.Q.Q.Q.Q.Q.Q.Q.Q.Q.Q.Q.Q.Q.Q.Q.Q.Q.Q.Q.Q.Q.Q.Q.Q.Q.Q.Q.Q.Q.Q.Q.Q.Q.",
"Q.Q.Q.Q.Q.Q.Q.Q.Q.Q.Q.Q.Q.Q.Q.Q.Q.Q.Q.Q.Q.Q.Q.Q.Q.Q.Q.Q.Q.Q.Q.Q.Q.Q.Q.Q.Q.Q.Q.Q.Q.Q.Q.Q.Q.Q.Q.Q.Q.Q.",
"Q.Q.Q.Q.Q.Q.Q.Q.Q.Q.Q.Q.Q.Q.Q.Q.Q.Q.Q.Q.Q.Q.Q.Q.Q.Q.Q.Q.Q.Q.Q.Q.Q.Q.Q.Q.Q.Q.Q.Q.Q.Q.Q.Q.Q.Q.Q.Q.Q.Q.",
"Q.Q.Q.Q.Q.Q.Q.Q.Q.Q.Q.Q.Q.Q.Q.Q.Q.Q.Q.Q.Q.Q.Q.Q.Q.Q.Q.Q.Q.Q.Q.Q.Q.Q.Q.Q.Q.Q.Q.Q.Q.Q.Q.Q.Q.Q.Q.Q.Q.Q.",
"Q.Q.Q.Q.Q.Q.Q.Q.Q.Q.Q.Q.Q.Q.Q.Q.Q.Q.Q.Q.Q.Q.Q.Q.Q.Q.Q.Q.Q.Q.Q.Q.Q.Q.Q.Q.Q.Q.Q.Q.Q.Q.Q.Q.Q.Q.Q.Q.Q.Q.",
"Q.Q.Q.Q.Q.Q.Q.Q.Q.Q.Q.Q.Q.Q.Q.Q.Q.Q.Q.Q.Q.Q.Q.Q.Q.Q.Q.Q.Q.Q.Q.Q.Q.Q.Q.Q.Q.Q.Q.Q.Q.Q.Q.Q.Q.Q.Q.Q.Q.Q.",
"Q.Q.Q.Q.Q.Q.Q.Q.Q.Q.Q.Q.Q.Q.Q.Q.Q.Q.Q.Q.Q.Q.Q.Q.Q.Q.Q.Q.Q.Q.Q.Q.t g c n 6   Q.Q.Q.Q.Q.Q.Q.Q.Q.Q.Q.Q.",
"Q.Q.Q.Q.Q.Q.Q.Q.Q.Q.Q.Q.Q.Q.Q.Q.Q.Q.Q.Q.Q.Q.Q.Q.Q.Q.Q.Q.Q.Q.Q.u ] r.4.+.` l # Q.Q.Q.Q.Q.Q.Q.Q.Q.Q.Q.",
"Q.Q.Q.Q.Q.Q.Q.Q.Q.Q.Q.Q.Q.Q.Q.Q.Q.Q.Q.Q.Q.Q.Q.Q.Q.Q.Q.Q.Q.Q.4 m N.H.F.r.1.>.G 2   Q.Q.Q.Q.Q.Q.Q.Q.Q.",
"Q.Q.Q.Q.Q.Q.Q.Q.Q.Q.Q.Q.Q.Q.Q.Q.Q.Q.Q.% Q.Q.Q.Q.Q.Q.Q.Q.p | G <.B.E.Y.z.0.D.>.h 2 X Q.Q.Q.Q.Q.Q.Q.Q.",
"Q.Q.Q.Q.Q.Q.Q.Q.Q.Q.Q.Q.Q.Q.Q.. 5 9 F j 3 y i @ t g g K 6.y.2.1.7.V.m.x a +.A p y t # . Q.Q.Q.Q.Q.Q.",
"Q.Q.Q.Q.Q.Q.Q.Q.Q.Q.Q.Q.Q.Q.Q., s H T.f.H #.#.n %.a.8.x.c.r.1.%.:.e...< , : , @ 6 t X Q.Q.Q.Q.Q.Q.Q.",
"Q.Q.Q.Q.Q.Q.Q.Q.Q.Q.Q.Q.Q.Q.Q.# s P.W.U.*.K p.F D <.C.c.t.2.1.$.:.2.t , % Q.Q.Q.. Q.Q.Q.Q.Q.Q.Q.Q.Q.",
"Q.Q.Q.Q.Q.Q.Q.Q.Q.Q.Q.Q.Q.Q.Q.Q.C P.U.K.K.=.M c s b | ..B ..<.:.m.q.u % Q.Q.Q.Q.Q.Q.Q.Q.Q.Q.Q.Q.Q.Q.",
"Q.Q.Q.Q.Q.Q.Q.Q.Q.Q.Q.Q.Q.Q.Q.Q.3 V *.-.f.K.3.S.f.k s k p 4 D 3.V.x.&.p Q.Q.Q.Q.Q.Q.Q.Q.Q.Q.Q.Q.Q.Q.",
"Q.Q.Q.Q.Q.Q.Q.Q.Q.Q.Q.Q.Q.Q.Q.Q.Q.7 { } O.;.j.j.F.L.Z c [ A 7 n n.>.F y Q.Q.Q.Q.Q.Q.Q.Q.Q.Q.Q.Q.Q.Q.",
"Q.Q.Q.Q.Q.Q.Q.Q.Q.Q.Q.Q.Q.Q.Q.Q.Q.5 G a.K L Z.N.M.;.F H d.9.O.o.s.+.n : + r R Q.Q.Q.Q.Q.Q.Q.Q.Q.Q.Q.",
"Q.Q.Q.Q.Q.Q.Q.Q.Q.Q.Q.Q.Q.Q.Q.Q.Q.Q.6 A C j i.I.t.N 3 i.K.G.@.k A l 4 - o q T ! Q.Q.Q.Q.Q.Q.Q.Q.Q.Q.",
"Q.Q.Q.Q.Q.Q.Q.Q.Q.Q.Q.Q.Q.Q.Q.Q.Q.Q.@ ` X.N a H *.s L O.z X.5 = < 2 Q.$ 0 e I / Q.Q.Q.Q.Q.Q.Q.Q.Q.Q.",
"Q.Q.Q.Q.Q.Q.Q.Q.Q.Q.Q.Q.Q.Q.Q.Q.Q.Q.Q.F C.5.[ a z H g.H 8 Z j 1 @ Q.Q.Q.Y I Q ) h.Q.Q.Q.Q.Q.Q.Q.Q.Q.",
"Q.Q.Q.Q.Q.Q.Q.Q.Q.Q.Q.Q.Q.Q.Q.Q.Q.Q.Q.l 6.C.1.x V 8.G.A.Z K C 3 % Q.Q.Q.Q.^ ( _ k.Q.Q.Q.Q.Q.Q.Q.Q.Q.",
"Q.Q.Q.Q.Q.Q.Q.Q.Q.Q.Q.Q.Q.Q.Q.Q.Q.Q.Q.y 6.C.2.u t F 8.g.9 9 8 = $ Q.Q.Q.Q.Q.Q.Q.Q.Q.Q.Q.Q.Q.Q.Q.Q.Q.",
"Q.Q.Q.Q.Q.Q.Q.Q.Q.Q.Q.Q.Q.Q.Q.Q.Q.Q.Q.2 p.b.u.3.g 5 V J 1 = # # Q.Q.Q.Q.Q.Q.Q.Q.Q.Q.Q.Q.Q.Q.Q.Q.Q.Q.",
"Q.Q.Q.Q.Q.Q.Q.Q.Q.Q.Q.Q.Q.Q.Q.Q.Q.Q.Q.n u.r.<.3.2.] G 6.V < Q.Q.Q.Q.Q.Q.Q.Q.Q.Q.Q.Q.Q.Q.Q.Q.Q.Q.Q.Q.",
"Q.Q.Q.Q.Q.Q.Q.Q.Q.Q.Q.Q.Q.Q.Q.Q.Q.Q.Q.u $.1.:.$.<.b.D.6.A 6 Q.Q.Q.Q.Q.Q.Q.Q.Q.Q.Q.Q.Q.Q.Q.Q.Q.Q.Q.Q.",
"Q.Q.Q.Q.Q.Q.Q.Q.Q.Q.Q.Q.Q.Q.Q.Q.Q.Q.Q.a | 5.$.$.z.C.p.} n - Q.Q.Q.Q.Q.Q.Q.Q.Q.Q.Q.Q.Q.Q.Q.Q.Q.Q.Q.Q.",
"Q.Q.Q.Q.Q.Q.Q.Q.Q.Q.Q.Q.Q.Q.Q.Q.Q.Q.7 m m.y.1.e.X.+.+.M 6 - & r E Q.Q.Q.Q.Q.Q.Q.Q.Q.Q.Q.Q.Q.Q.Q.Q.Q.",
"Q.Q.Q.Q.Q.Q.Q.Q.Q.Q.Q.Q.Q.Q.Q.Q.Q.Q.a 2.H.Y.Z.2.t 2 f t + O * r U / Q.Q.Q.Q.Q.Q.Q.Q.Q.Q.Q.Q.Q.Q.Q.Q.",
"Q.Q.Q.Q.Q.Q.Q.Q.Q.Q.Q.Q.Q.Q.Q.Q.Q.Q.d e.J.E.B.x , ; Q.Q.Q.w e P Q ) Q.Q.Q.Q.Q.Q.Q.Q.Q.Q.Q.Q.Q.Q.Q.Q.",
"Q.Q.Q.Q.Q.Q.Q.Q.Q.Q.Q.Q.Q.Q.Q.Q.Q.Q.7 } r.Z.X., , X Q.Q.Q.Q.~ W ( _ k.Q.Q.Q.Q.Q.Q.Q.Q.Q.Q.Q.Q.Q.Q.Q.",
"Q.Q.Q.Q.Q.Q.Q.Q.Q.Q.Q.Q.Q.Q.Q.Q.Q.Q.6 C } 1.y.` , Q.Q.Q.Q.Q.Q.Q.Q.Q.l.Q.Q.Q.Q.Q.Q.Q.Q.Q.Q.Q.Q.Q.Q.Q.",
"Q.Q.Q.Q.Q.Q.Q.Q.Q.Q.Q.Q.Q.Q.Q.Q.Q.Q.Q.6 C  .C.a.x Q.Q.Q.Q.Q.Q.Q.Q.Q.Q.Q.Q.Q.Q.Q.Q.Q.Q.Q.Q.Q.Q.Q.Q.Q.",
"Q.Q.Q.Q.Q.Q.Q.Q.Q.Q.Q.Q.Q.Q.Q.Q.Q.Q.Q.Q.# d ' } g % Q.Q.Q.Q.Q.Q.Q.Q.Q.Q.Q.Q.Q.Q.Q.Q.Q.Q.Q.Q.Q.Q.Q.Q.",
"Q.Q.Q.Q.Q.Q.Q.Q.Q.Q.Q.Q.Q.Q.Q.Q.Q.Q.Q.Q.Q.  2 y t p , Q.Q.Q.Q.Q.Q.Q.Q.Q.Q.Q.Q.Q.Q.Q.Q.Q.Q.Q.Q.Q.Q.Q.",
"Q.Q.Q.Q.Q.Q.Q.Q.Q.Q.Q.Q.Q.Q.Q.Q.Q.Q.Q.Q.Q.Q.Q.@ 2 t 2 Q.Q.Q.Q.Q.Q.Q.Q.Q.Q.Q.Q.Q.Q.Q.Q.Q.Q.Q.Q.Q.Q.Q.",
"Q.Q.Q.Q.Q.Q.Q.Q.Q.Q.Q.Q.Q.Q.Q.Q.Q.Q.Q.Q.Q.Q.Q.Q.. % . Q.Q.Q.Q.Q.Q.Q.Q.Q.Q.Q.Q.Q.Q.Q.Q.Q.Q.Q.Q.Q.Q.Q.",
"Q.Q.Q.Q.Q.Q.Q.Q.Q.Q.Q.Q.Q.Q.Q.Q.Q.Q.Q.Q.Q.Q.Q.Q.Q.Q.. Q.Q.Q.Q.Q.Q.Q.Q.Q.Q.Q.Q.Q.Q.Q.Q.Q.Q.Q.Q.Q.Q.Q.",
"Q.Q.Q.Q.Q.Q.Q.Q.Q.Q.Q.Q.Q.Q.Q.Q.Q.Q.Q.Q.Q.Q.Q.Q.Q.Q.Q.Q.Q.Q.Q.Q.Q.Q.Q.Q.Q.Q.Q.Q.Q.Q.Q.Q.Q.Q.Q.Q.Q.Q.",
"Q.Q.Q.Q.Q.Q.Q.Q.Q.Q.Q.Q.Q.Q.Q.Q.Q.Q.Q.Q.Q.Q.Q.Q.Q.Q.Q.Q.Q.Q.Q.Q.Q.Q.Q.Q.Q.Q.Q.Q.Q.Q.Q.Q.Q.Q.Q.Q.Q.Q.",
"Q.Q.Q.Q.Q.Q.Q.Q.Q.Q.Q.Q.Q.Q.Q.Q.Q.Q.Q.Q.Q.Q.Q.Q.Q.Q.Q.Q.Q.Q.Q.Q.Q.Q.Q.Q.Q.Q.Q.Q.Q.Q.Q.Q.Q.Q.Q.Q.Q.Q.",
"Q.Q.Q.Q.Q.Q.Q.Q.Q.Q.Q.Q.Q.Q.Q.Q.Q.Q.Q.Q.Q.Q.Q.Q.Q.Q.Q.Q.Q.Q.Q.Q.Q.Q.Q.Q.Q.Q.Q.Q.Q.Q.Q.Q.Q.Q.Q.Q.Q.Q.",
"Q.Q.Q.Q.Q.Q.Q.Q.Q.Q.Q.Q.Q.Q.Q.Q.Q.Q.Q.Q.Q.Q.Q.Q.Q.Q.Q.Q.Q.Q.Q.Q.Q.Q.Q.Q.Q.Q.Q.Q.Q.Q.Q.Q.Q.Q.Q.Q.Q.Q."
};
