/* XPM */
static char *nave1___16[] = {
/* columns rows colors chars-per-pixel */
"50 50 158 2 ",
"   c #0D0D0D",
".  c #070817",
"X  c #0B0C1A",
"o  c #0F1010",
"O  c #0F101C",
"+  c #121212",
"@  c #13131B",
"#  c #14191E",
"$  c #1B1A1B",
"%  c #151B21",
"&  c #1D1E21",
"*  c #1F2325",
"=  c #232122",
"-  c #242529",
";  c #2C2A2B",
":  c #312B2C",
">  c #232730",
",  c #2D2F31",
"<  c #252932",
"1  c #2F3134",
"2  c #343234",
"3  c #393434",
"4  c #33363A",
"5  c #34383D",
"6  c #393B3D",
"7  c #430B16",
"8  c #470E18",
"9  c #4E1019",
"0  c #5B141A",
"q  c #63171C",
"w  c #781516",
"e  c #771A18",
"r  c #3B3E42",
"t  c #3E4144",
"y  c #414345",
"u  c #43464A",
"i  c #454A4C",
"p  c #4A4B4D",
"a  c #4B4F52",
"s  c #4E5254",
"d  c #4F5458",
"f  c #4E5B5C",
"g  c #51555A",
"h  c #54595E",
"j  c #5B5B5E",
"k  c #5A5556",
"l  c #4F605F",
"z  c #575C61",
"x  c #5A5E62",
"c  c #4F6060",
"v  c #5D6063",
"b  c #586266",
"n  c #626364",
"m  c #61656B",
"M  c #63696E",
"N  c #68696B",
"B  c #676D73",
"V  c #6B6E72",
"C  c #637374",
"Z  c #6D7175",
"A  c #647778",
"S  c #6E747A",
"D  c #68787A",
"F  c #71767C",
"G  c #76797C",
"H  c #821B1C",
"J  c #9A1B18",
"K  c #922421",
"L  c #A82B28",
"P  c #EF3426",
"I  c #F2392B",
"U  c #D74D19",
"Y  c #D5501A",
"T  c #D45D18",
"R  c #D35B17",
"E  c #E05B1B",
"W  c #FA5C23",
"Q  c #FC7F24",
"!  c #F35043",
"~  c #67827D",
"^  c #FD8D57",
"/  c #FB8C5F",
"(  c #FB8F65",
")  c #FB9066",
"_  c #FCAF7F",
"`  c #797D85",
"'  c #6D8281",
"]  c #708787",
"[  c #7B838A",
"{  c #7C888F",
"}  c #7D8586",
"|  c #80888F",
" . c #848488",
".. c #838C93",
"X. c #8F9193",
"o. c #86949A",
"O. c #8A929A",
"+. c #829C9D",
"@. c #89999E",
"#. c #959798",
"$. c #8A9CA0",
"%. c #929DA7",
"&. c #A09FA2",
"*. c #8BA2A6",
"=. c #8FA4A9",
"-. c #8CACAC",
";. c #87A2A3",
":. c #9AA4AE",
">. c #91AAAD",
",. c #8EB1AC",
"<. c #93B3AE",
"1. c #93AEB1",
"2. c #9FAAB4",
"3. c #8EB9B2",
"4. c #93B4B4",
"5. c #98B7B9",
"6. c #95B8B8",
"7. c #9ABCBC",
"8. c #A4A3A5",
"9. c #A3ADB6",
"0. c #A6B7B7",
"q. c #A5B4BE",
"w. c #A3BABB",
"e. c #AFB2B3",
"r. c #B2B3B4",
"t. c #B3B6B8",
"y. c #B6BBBD",
"u. c #BFBFBF",
"i. c #FCAF80",
"p. c #FBB48A",
"a. c #91C7BE",
"s. c #90C8BF",
"d. c #FDE9A1",
"f. c #A4B6C0",
"g. c #AAB6C2",
"h. c #A5BEC4",
"j. c #AABDC7",
"k. c #ACBFC9",
"l. c #B1BEC9",
"z. c #9EC3C3",
"x. c #9BCDC5",
"c. c #93CAC1",
"v. c #A2C5C5",
"b. c #ABCCCB",
"n. c #A9C6C8",
"m. c #BEC2C2",
"M. c #B4C1CD",
"N. c #BACACB",
"B. c #B4D4D2",
"V. c #B9D7D5",
"C. c #BEDAD8",
"Z. c #C3C4C5",
"A. c #CED4D4",
"S. c #C4DFDC",
"D. c #D9DBDB",
"F. c #CFE6E3",
"G. c #E1E5E6",
"H. c None",
/* pixels */
"H.H.H.H.H.H.H.H.H.H.H.H.H.H.H.H.H.H.H.H.H.H.H.H.H.H.H.H.H.H.H.H.H.H.H.H.H.H.H.H.H.H.H.H.H.H.H.H.H.H.",
"H.H.H.H.H.H.H.H.H.H.H.H.H.H.H.H.H.H.H.H.H.H.H.H.H.H.H.H.H.H.H.H.H.H.H.H.H.H.H.H.H.H.H.H.H.H.H.H.H.H.",
"H.H.H.H.H.H.H.H.H.H.H.H.H.H.H.H.H.H.H.H.H.H.H.H.H.H.H.H.H.H.H.H.H.H.H.H.H.H.H.H.H.H.H.H.H.H.H.H.H.H.",
"H.H.H.H.H.H.H.H.H.H.H.H.H.H.H.H.H.H.H.H.H.H.H.H.H.H.H.H.H.H.H.H.H.H.H.H.H.H.H.H.H.H.H.H.H.H.H.H.H.H.",
"H.H.H.H.H.H.H.H.H.H.H.H.H.H.H.H.H.H.H.H.H.H.H.H.H.H.H.H.H.H.H.H.H.H.H.H.H.H.H.H.H.H.H.H.H.H.H.H.H.H.",
"H.H.H.H.H.H.H.H.H.H.H.H.H.H.H.H.H.H.H.H.H.H.H.H.H.H.H.H.H.H.H.H.H.H.H.H.H.H.H.H.H.H.H.H.H.H.H.H.H.H.",
"H.H.H.H.H.H.H.H.H.H.H.H.H.H.H.H.H.H.H.H.H.H.H.H.H.H.H.H.H.H.H.H.H.H.H.H.H.H.H.H.H.H.H.H.H.H.H.H.H.H.",
"H.H.H.H.H.H.H.H.H.H.H.H.H.H.H.H.H.H.H.H.H.H.H.H.H.H.H.H.H.H.H.H.H.H.H.H.H.H.H.H.H.H.H.H.H.H.H.H.H.H.",
"H.H.H.H.H.H.H.H.H.H.H.H.H.H.H.H.H.H.H.H.H.H.H.H.H.H.H.H.H.H.H.H.H.H.H.H.H.H.H.H.H.H.H.H.H.H.H.H.H.H.",
"H.H.H.H.H.H.H.H.H.H.H.H.H.H.H.H.H.H.H.d.H.H.H.H.H.H.H.H.H.H.d.H.H.H.H.H.H.H.H.H.H.H.H.H.H.H.H.H.H.H.",
"H.H.H.H.H.H.H.H.H.H.H.H.H.H.H.H.H.H.p._ H.H.H.H.H.H.H.H.H.H.i.H.H.H.H.H.H.H.H.H.H.H.H.H.H.H.H.H.H.H.",
"H.H.H.H.H.H.H.H.H.H.H.H.H.H.H.H.H.H.( ^ ) H.H.H.H.H.H.H.H.( ^ ( H.H.H.H.H.H.H.H.H.H.H.H.H.H.H.H.H.H.",
"H.H.H.H.H.H.H.H.H.H.H.H.H.H.H.H.H.W U R E H.H.H.H.H.H.H.H.U T Y Q H.H.H.H.H.H.H.H.H.H.H.H.H.H.H.H.H.",
"H.H.H.H.H.H.H.H.H.  o o H.H.H.H.H.P w e L H.H.H.H.H.H.H.I J e H ! H.H.H.H.H.+     H.H.H.H.H.H.H.H.H.",
"H.H.H.H.H.H.H.H.H.  6 r o H.H.H.H.K 8 7 q H.H.H.H.H.H.H.H.0 7 9 K H.H.H.H.+ u 4   H.H.H.H.H.H.H.H.H.",
"H.H.H.H.H.H.H.H.H.  r t   H.H.H.H.H.X . @ H.H.H.H.H.H.H.H.O . @ H.H.H.H.H.# u 5   H.H.H.H.H.H.H.H.H.",
"H.H.H.H.H.H.H.H.H.  r t $ H.H.H.H.H.% > # H.H.H.$ $ H.H.H.# < % H.H.H.H.H.* i 4   H.H.H.H.H.H.H.H.H.",
"H.H.H.H.H.H.H.H.H.  z [ b &       g h B g 6 o $ : : $   y g V g i   o   * B [ a   H.H.H.H.H.H.H.H.H.",
"H.H.H.H.H.H.H.H.H.o ` l.:.1 - - - ..O.O.O.x = ; n j ; = B O.O.O.[ - - - 1 q.l.M   H.H.H.H.H.H.H.H.H.",
"H.H.H.H.H.H.H.H.H.  S h.;.r 4 4 5 2.l.M.q.Z 3 3 ` F 2 3 ` g.M.l.%.5 1 4 5 4.f.M   H.H.H.H.H.H.H.H.H.",
"H.H.H.H.H.H.H.H.H.  S $.z.6.6.4.4.v.v.-.i } y.,.y s <.y.G u 4.v.v.4.4.6.4.z.o.m   H.H.H.H.H.H.H.H.H.",
"H.H.H.H.H.H.H.H.H.  S O.b.F.V.>.o.o.,.{ 1 } b.Z.k n N.b.Z 2 -.o.o.o.1.C.F.b...m   H.H.H.H.H.H.H.H.H.",
"H.H.H.H.H.H.H.H.H.o z ..b.S.B.>.@.@.*.;.1 ~ 0.t.&.8.t.0.C 1 -.$.@.@.4.B.S.n.{ g H.H.H.H.H.H.H.H.H.H.",
"H.H.H.H.H.H.H.H.H.H.H.z 1.v.7.1.=.=.>.{ 4 v N j 3 3 j N g 4 -.=.=.=.1.z.v.-.d H.H.H.H.H.H.H.H.H.H.H.",
"H.H.H.H.H.H.H.H.H.H.H.= i c f C >.5.5.4.~ f a #.~ ~ X.i c G 7.6.5.*.B f c i H.H.H.H.H.H.H.H.H.H.H.H.",
"H.H.H.H.H.H.H.H.H.H.H.H.H.H.H.1 o.q.n.j.h.A a A.a.x.m.p ] v.j.n.q.{ ; H.H.H.H.H.H.H.H.H.H.H.H.H.H.H.",
"H.H.H.H.H.H.H.H.H.H.H.H.H.H.H.H., 5 O.2.j.A p A.s.x.Z.p ] j.:.| 5 ; H.H.H.H.H.H.H.H.H.H.H.H.H.H.H.H.",
"H.H.H.H.H.H.H.H.H.H.H.H.H.H.H.H.H.H.2 O.j.A s Z.x.x.t.p ] j...; H.H.H.H.H.H.H.H.H.H.H.H.H.H.H.H.H.H.",
"H.H.H.H.H.H.H.H.H.H.H.H.H.H.H.H.H.H.H.y o.D b n 3.-.n x ` o.4 H.H.H.H.H.H.H.H.H.H.H.H.H.H.H.H.H.H.H.",
"H.H.H.H.H.H.H.H.H.H.H.H.H.H.H.H.H.H.H.H.= Z 9.V m.r.G 9.b = H.H.H.H.H.H.H.H.H.H.H.H.H.H.H.H.H.H.H.H.",
"H.H.H.H.H.H.H.H.H.H.H.H.H.H.H.H.H.H.H.H.$ Z 9.Z u.r.G 9.x $ H.H.H.H.H.H.H.H.H.H.H.H.H.H.H.H.H.H.H.H.",
"H.H.H.H.H.H.H.H.H.H.H.H.H.H.H.H.H.H.H.H.H.t V #.Z.m.X.M 5 H.H.H.H.H.H.H.H.H.H.H.H.H.H.H.H.H.H.H.H.H.",
"H.H.H.H.H.H.H.H.H.H.H.H.H.H.H.H.H.H.H.H.H.  t e.D.D.8.3 H.H.H.H.H.H.H.H.H.H.H.H.H.H.H.H.H.H.H.H.H.H.",
"H.H.H.H.H.H.H.H.H.H.H.H.H.H.H.H.H.H.H.H.H.+ y m.G.G.e.6 H.H.H.H.H.H.H.H.H.H.H.H.H.H.H.H.H.H.H.H.H.H.",
"H.H.H.H.H.H.H.H.H.H.H.H.H.H.H.H.H.H.H.H.H.H.+ p j j y o H.H.H.H.H.H.H.H.H.H.H.H.H.H.H.H.H.H.H.H.H.H.",
"H.H.H.H.H.H.H.H.H.H.H.H.H.H.H.H.H.H.H.H.H.H.H.+ y 6 + H.H.H.H.H.H.H.H.H.H.H.H.H.H.H.H.H.H.H.H.H.H.H.",
"H.H.H.H.H.H.H.H.H.H.H.H.H.H.H.H.H.H.H.H.H.H.H.H.o   H.H.H.H.H.H.H.H.H.H.H.H.H.H.H.H.H.H.H.H.H.H.H.H.",
"H.H.H.H.H.H.H.H.H.H.H.H.H.H.H.H.H.H.H.H.H.H.H.H.H.H.H.H.H.H.H.H.H.H.H.H.H.H.H.H.H.H.H.H.H.H.H.H.H.H.",
"H.H.H.H.H.H.H.H.H.H.H.H.H.H.H.H.H.H.H.H.H.H.H.H.H.H.H.H.H.H.H.H.H.H.H.H.H.H.H.H.H.H.H.H.H.H.H.H.H.H.",
"H.H.H.H.H.H.H.H.H.H.H.H.H.H.H.H.H.H.H.H.H.H.H.H.H.H.H.H.H.H.H.H.H.H.H.H.H.H.H.H.H.H.H.H.H.H.H.H.H.H.",
"H.H.H.H.H.H.H.H.H.H.H.H.H.H.H.H.H.H.H.H.H.H.H.H.H.H.H.H.H.H.H.H.H.H.H.H.H.H.H.H.H.H.H.H.H.H.H.H.H.H.",
"H.H.H.H.H.H.H.H.H.H.H.H.H.H.H.H.H.H.H.H.H.H.H.H.H.H.H.H.H.H.H.H.H.H.H.H.H.H.H.H.H.H.H.H.H.H.H.H.H.H.",
"H.H.H.H.H.H.H.H.H.H.H.H.H.H.H.H.H.H.H.H.H.H.H.H.H.H.H.H.H.H.H.H.H.H.H.H.H.H.H.H.H.H.H.H.H.H.H.H.H.H.",
"H.H.H.H.H.H.H.H.H.H.H.H.H.H.H.H.H.H.H.H.H.H.H.H.H.H.H.H.H.H.H.H.H.H.H.H.H.H.H.H.H.H.H.H.H.H.H.H.H.H.",
"H.H.H.H.H.H.H.H.H.H.H.H.H.H.H.H.H.H.H.H.H.H.H.H.H.H.H.H.H.H.H.H.H.H.H.H.H.H.H.H.H.H.H.H.H.H.H.H.H.H.",
"H.H.H.H.H.H.H.H.H.H.H.H.H.H.H.H.H.H.H.H.H.H.H.H.H.H.H.H.H.H.H.H.H.H.H.H.H.H.H.H.H.H.H.H.H.H.H.H.H.H.",
"H.H.H.H.H.H.H.H.H.H.H.H.H.H.H.H.H.H.H.H.H.H.H.H.H.H.H.H.H.H.H.H.H.H.H.H.H.H.H.H.H.H.H.H.H.H.H.H.H.H.",
"H.H.H.H.H.H.H.H.H.H.H.H.H.H.H.H.H.H.H.H.H.H.H.H.H.H.H.H.H.H.H.H.H.H.H.H.H.H.H.H.H.H.H.H.H.H.H.H.H.H.",
"H.H.H.H.H.H.H.H.H.H.H.H.H.H.H.H.H.H.H.H.H.H.H.H.H.H.H.H.H.H.H.H.H.H.H.H.H.H.H.H.H.H.H.H.H.H.H.H.H.H.",
"H.H.H.H.H.H.H.H.H.H.H.H.H.H.H.H.H.H.H.H.H.H.H.H.H.H.H.H.H.H.H.H.H.H.H.H.H.H.H.H.H.H.H.H.H.H.H.H.H.H."
};
