/* XPM */
static char *nave2___16[] = {
/* columns rows colors chars-per-pixel */
"50 50 187 2 ",
"   c #0D0C0D",
".  c #100C0E",
"X  c #0A0718",
"o  c #1F0411",
"O  c #130D10",
"+  c #1D0C14",
"@  c #0E111C",
"#  c #15161D",
"$  c #1A1A1A",
"%  c #1D1921",
"&  c #340D22",
"*  c #251E21",
"=  c #3D152D",
"-  c #242529",
";  c #2B2529",
":  c #232124",
">  c #31292A",
",  c #312F33",
"<  c #3B2933",
"1  c #2E3135",
"2  c #333334",
"3  c #33343A",
"4  c #33383D",
"5  c #460A16",
"6  c #520C18",
"7  c #680B1A",
"8  c #7F0717",
"9  c #470B2C",
"0  c #500F2E",
"q  c #4B0530",
"w  c #58133B",
"e  c #640D3A",
"r  c #6B0838",
"t  c #78073E",
"y  c #472739",
"u  c #5C1C43",
"i  c #7A0940",
"p  c #6B1244",
"a  c #661846",
"s  c #731449",
"d  c #7A1949",
"f  c #7B154B",
"g  c #781A51",
"h  c #5A2D47",
"j  c #54334A",
"k  c #77345F",
"l  c #722B55",
"z  c #48444B",
"x  c #595557",
"c  c #5F485A",
"v  c #6D4160",
"b  c #684C61",
"n  c #635D66",
"m  c #7B5670",
"M  c #7A4565",
"N  c #7A6677",
"B  c #6F6A71",
"V  c #830318",
"C  c #A7071C",
"Z  c #890D21",
"A  c #AE0620",
"S  c #AE1A37",
"D  c #D51622",
"F  c #DB1925",
"G  c #ED1C2D",
"H  c #FF2129",
"J  c #FA243B",
"K  c #87114B",
"L  c #89154E",
"P  c #8E1859",
"I  c #94145B",
"U  c #9B145A",
"Y  c #830D46",
"T  c #AF0858",
"R  c #B10859",
"E  c #84235C",
"W  c #94255F",
"Q  c #B80D60",
"!  c #A31566",
"~  c #B21D6F",
"^  c #BC1373",
"/  c #BC1C73",
"(  c #9C2264",
")  c #8B2D64",
"_  c #A6276B",
"`  c #A1376E",
"'  c #A63273",
"]  c #D0086D",
"[  c #C11B6E",
"{  c #DA0570",
"}  c #C31E70",
"|  c #C8287A",
" . c #F93968",
".. c #824D6E",
"X. c #8F4D75",
"o. c #9B4E7D",
"O. c #835878",
"+. c #865779",
"@. c #94537B",
"#. c #FE5875",
"$. c #FE6B7F",
"%. c #FE647B",
"&. c #D51683",
"*. c #E21A8E",
"=. c #EF1792",
"-. c #FF179C",
";. c #D93C9C",
":. c #C93890",
">. c #FF269F",
",. c #F7279D",
"<. c #FE23A5",
"1. c #FF26A9",
"2. c #FF29AA",
"3. c #F631A2",
"4. c #FA33AB",
"5. c #FF38B2",
"6. c #8D5E81",
"7. c #945D83",
"8. c #A75A8A",
"9. c #8D6683",
"0. c #956287",
"q. c #897987",
"w. c #A0648E",
"e. c #AF6E9D",
"r. c #B36D9E",
"t. c #AA739C",
"y. c #B07CA5",
"u. c #C9598F",
"i. c #C65B90",
"p. c #C96495",
"a. c #DB51A5",
"s. c #E847A9",
"d. c #F44CB5",
"f. c #F945B4",
"g. c #E958B4",
"h. c #F457BB",
"j. c #C578AD",
"k. c #C276AC",
"l. c #CC7AB4",
"z. c #EE63BD",
"x. c #EA6DBC",
"c. c #E263B3",
"v. c #E971BA",
"b. c #DF7DC0",
"n. c #EC7CC5",
"m. c #E677C1",
"M. c #858388",
"N. c #A49EA3",
"B. c #A398AD",
"V. c #BD88B4",
"C. c #AB83A8",
"Z. c #BEB3BD",
"A. c #B3A6BD",
"S. c #FE968D",
"D. c #C582A9",
"F. c #C799AF",
"G. c #CA82B6",
"H. c #C785B7",
"J. c #D388B8",
"K. c #CE96B3",
"L. c #CF99B6",
"P. c #D893B6",
"I. c #C9A0B4",
"U. c #CBB3BF",
"Y. c #FDE7A2",
"T. c #DD8AC6",
"R. c #D78BC3",
"E. c #CA9AC6",
"W. c #DC93C6",
"Q. c #DF93CA",
"!. c #D09FCB",
"~. c #DC9CC8",
"^. c #E288C7",
"/. c #E293CC",
"(. c #D8A6C6",
"). c #CCB5C0",
"_. c #C9B0CF",
"`. c #D9B5D4",
"'. c #D6B0CE",
"]. c #E4BDD2",
"[. c #CCC1C6",
"{. c #D6C9DB",
"}. c #D9DBDB",
"|. c #E3C1D3",
" X c #D2E3E3",
".X c #E3E3E6",
"XX c None",
/* pixels */
"XXXXXXXXXXXXXXXXXXXXXXXXXXXXXXXXXXXXXXXXXXXXXXXXXXXXXXXXXXXXXXXXXXXXXXXXXXXXXXXXXXXXXXXXXXXXXXXXXXXX",
"XXXXXXXXXXXXXXXXXXXXXXXXXXXXXXXXXXXXXXXXXXXXXXXXXXXXXXXXXXXXXXXXXXXXXXXXXXXXXXXXXXXXXXXXXXXXXXXXXXXX",
"XXXXXXXXXXXXXXXXXXXXXXXXXXXXXXXXXXXXXXXXXXXXXXXXXXXXXXXXXXXXXXXXXXXXXXXXXXXXXXXXXXXXXXXXXXXXXXXXXXXX",
"XXXXXXXXXXXXXXXXXXXXXXXXXXXXXXXXXXXXXXXXXXXXXXXXXXXXXXXXXXXXXXXXXXXXXXXXXXXXXXXXXXXXXXXXXXXXXXXXXXXX",
"XXXXXXXXXXXXXXXXXXXXXXXXXXXXXXXXXXXXXXXXXXXXXXXXXXXXXXXXXXXXXXXXXXXXXXXXXXXXXXXXXXXXXXXXXXXXXXXXXXXX",
"XXXXXXXXXXXXXXXXXXXXXXXXXXXXXXXXXXXXXXXXXXXXXXXXXXXXXXXXXXXXXXXXXXXXXXXXXXXXXXXXXXXXXXXXXXXXXXXXXXXX",
"XXXXXXXXXXXXXXXXXXXXXXXXXXXXXXXXXXXXXXXXXXXXXXXXXXXXXXXXXXXXXXXXXXXXXXXXXXXXXXXXXXXXXXXXXXXXXXXXXXXX",
"XXXXXXXXXXXXXXXXXXXXXXXXXXXXXXXXXXXXXXXXXXXXXXXXXXXXXXXXXXXXXXXXXXXXXXXXXXXXXXXXXXXXXXXXXXXXXXXXXXXX",
"XXXXXXXXXXXXXXXXXXXXXXXXXXXXXXXXXXXXXXXXXXXXXXXXXXXXXXXXXXXXXXXXXXXXXXXXXXXXXXXXXXXXXXXXXXXXXXXXXXXX",
"XXXXXXXXXXXXXXXXXXXXXXXXXXXXXXXXXXXXXXY.XXXXXXXXXXXXXXXXXXXXY.XXXXXXXXXXXXXXXXXXXXXXXXXXXXXXXXXXXXXX",
"XXXXXXXXXXXXXXXXXXXXXXXXXXXXXXXXXXXXS.S.XXXXXXXXXXXXXXXXXXXXS.XXXXXXXXXXXXXXXXXXXXXXXXXXXXXXXXXXXXXX",
"XXXXXXXXXXXXXXXXXXXXXXXXXXXXXXXXXXXX%.#.$.XXXXXXXXXXXXXXXX$.#.$.XXXXXXXXXXXXXXXXXXXXXXXXXXXXXXXXXXXX",
"XXXXXXXXXXXXXXXXXXXXXXXXXXXXXXXXXXH D D F XXXXXXXXXXXXXXXXF D F H XXXXXXXXXXXXXXXXXXXXXXXXXXXXXXXXXX",
"XXXXXXXXXXXXXXXXXX  O O XXXXXXXXXXJ 8 V S XXXXXXXXXXXXXXJ C V Z  .XXXXXXXXXXO .   XXXXXXXXXXXXXXXXXX",
"XXXXXXXXXXXXXXXXXX  p p . XXXXXXXXC 5 5 7 XXXXXXXXXXXXXXXX7 5 6 A XXXXXXXXO f w . XXXXXXXXXXXXXXXXXX",
"XXXXXXXXXXXXXXXXXX  p p   XXXXXXXXXX@ X # XXXXXXXXXXXXXXXX@ X @ XXXXXXXXXX$ f w   XXXXXXXXXXXXXXXXXX",
"XXXXXXXXXXXXXXXXXX  p g $ XXXXXXXXXX% 9 # XXXXXX$ $ XXXXXX# q # XXXXXXXXXX- g p   XXXXXXXXXXXXXXXXXX",
"XXXXXXXXXXXXXXXXXX  ! w.n % .   . E U ] P h   $ > > $ . a W { P g   .   % B 8.I   XXXXXXXXXXXXXXXXXX",
"XXXXXXXXXXXXXXXXXX  &._.B.3 - - ; ;.,.<.3.) : > _ ( > : ` 3.<.,.:.- - - 3 A.!./   XXXXXXXXXXXXXXXXXX",
"XXXXXXXXXXXXXXXXXX  &.T.y.4 3 4 4 V.!.!.L.O.2 < *.&.< 2 9.E.(.!.C.4 3 3 4 V.b.^   XXXXXXXXXXXXXXXXXX",
"XXXXXXXXXXXXXXXXXX  &.4.T.G.l.l.l.T.T.y.j M.Z.j.h l D.Z.B z V.T.T.l.l.H.G.^.<.^   XXXXXXXXXXXXXXXXXX",
"XXXXXXXXXXXXXXXXXX  &.-.(. X`.d.<.<.4.e.1 q.~.'.x n '.~.N 4 y.2.1.<.h.`. XQ.-.^   XXXXXXXXXXXXXXXXXX",
"XXXXXXXXXXXXXXXXXXO ! ,./.{.'.d.2.2.4.r.1 +.K.L.N.N.K.J.m , l.2.2.2.g.`.{./.=.I XXXXXXXXXXXXXXXXXXXX",
"XXXXXXXXXXXXXXXXXXXXXX! c.^.m.f.5.5.f.r.3 n _ T y y T ` x 3 k.5.5.5.d.v.T.g.I XXXXXXXXXXXXXXXXXXXXXX",
"XXXXXXXXXXXXXXXXXXXXXX& g v k / d.m.x.l.@.c L p.o.o.u.Y b +.J.z.z.s.~ k v d XXXXXXXXXXXXXXXXXXXXXXXX",
"XXXXXXXXXXXXXXXXXXXXXXXXXXXXXX0 r.R./.Q.W.+.L |.x.^.U.L 0.W././.R.w.0 XXXXXXXXXXXXXXXXXXXXXXXXXXXXXX",
"XXXXXXXXXXXXXXXXXXXXXXXXXXXXXXXX< y s.h./.O.L |.x.n.(.d 0.Q.h.;.y < XXXXXXXXXXXXXXXXXXXXXXXXXXXXXXXX",
"XXXXXXXXXXXXXXXXXXXXXXXXXXXXXXXXXXXX0 a./.O.L (.x.n.P.L 0.T.a.9 XXXXXXXXXXXXXXXXXXXXXXXXXXXXXXXXXXXX",
"XXXXXXXXXXXXXXXXXXXXXXXXXXXXXXXXXXXXXXj t.@.( R c.c.Q W 7.t.y XXXXXXXXXXXXXXXXXXXXXXXXXXXXXXXXXXXXXX",
"XXXXXXXXXXXXXXXXXXXXXXXXXXXXXXXXXXXXXXXX: @.v.[ U.F.| v...* XXXXXXXXXXXXXXXXXXXXXXXXXXXXXXXXXXXXXXXX",
"XXXXXXXXXXXXXXXXXXXXXXXXXXXXXXXXXXXXXXXX* X.v./ U.I.| v.M $ XXXXXXXXXXXXXXXXXXXXXXXXXXXXXXXXXXXXXXXX",
"XXXXXXXXXXXXXXXXXXXXXXXXXXXXXXXXXXXXXXXXXXy ' p.[.U.i.' y XXXXXXXXXXXXXXXXXXXXXXXXXXXXXXXXXXXXXXXXXX",
"XXXXXXXXXXXXXXXXXXXXXXXXXXXXXXXXXXXXXXXXXX  t F.}.}.D.r XXXXXXXXXXXXXXXXXXXXXXXXXXXXXXXXXXXXXXXXXXXX",
"XXXXXXXXXXXXXXXXXXXXXXXXXXXXXXXXXXXXXXXXXXO t (..X.XK.e XXXXXXXXXXXXXXXXXXXXXXXXXXXXXXXXXXXXXXXXXXXX",
"XXXXXXXXXXXXXXXXXXXXXXXXXXXXXXXXXXXXXXXXXXXXo Y R T t o XXXXXXXXXXXXXXXXXXXXXXXXXXXXXXXXXXXXXXXXXXXX",
"XXXXXXXXXXXXXXXXXXXXXXXXXXXXXXXXXXXXXXXXXXXXXX+ t t + XXXXXXXXXXXXXXXXXXXXXXXXXXXXXXXXXXXXXXXXXXXXXX",
"XXXXXXXXXXXXXXXXXXXXXXXXXXXXXXXXXXXXXXXXXXXXXXXX. . XXXXXXXXXXXXXXXXXXXXXXXXXXXXXXXXXXXXXXXXXXXXXXXX",
"XXXXXXXXXXXXXXXXXXXXXXXXXXXXXXXXXXXXXXXXXXXXXXXXXXXXXXXXXXXXXXXXXXXXXXXXXXXXXXXXXXXXXXXXXXXXXXXXXXXX",
"XXXXXXXXXXXXXXXXXXXXXXXXXXXXXXXXXXXXXXXXXXXXXXXXXXXXXXXXXXXXXXXXXXXXXXXXXXXXXXXXXXXXXXXXXXXXXXXXXXXX",
"XXXXXXXXXXXXXXXXXXXXXXXXXXXXXXXXXXXXXXXXXXXXXXXXXXXXXXXXXXXXXXXXXXXXXXXXXXXXXXXXXXXXXXXXXXXXXXXXXXXX",
"XXXXXXXXXXXXXXXXXXXXXXXXXXXXXXXXXXXXXXXXXXXXXXXXXXXXXXXXXXXXXXXXXXXXXXXXXXXXXXXXXXXXXXXXXXXXXXXXXXXX",
"XXXXXXXXXXXXXXXXXXXXXXXXXXXXXXXXXXXXXXXXXXXXXXXXXXXXXXXXXXXXXXXXXXXXXXXXXXXXXXXXXXXXXXXXXXXXXXXXXXXX",
"XXXXXXXXXXXXXXXXXXXXXXXXXXXXXXXXXXXXXXXXXXXXXXXXXXXXXXXXXXXXXXXXXXXXXXXXXXXXXXXXXXXXXXXXXXXXXXXXXXXX",
"XXXXXXXXXXXXXXXXXXXXXXXXXXXXXXXXXXXXXXXXXXXXXXXXXXXXXXXXXXXXXXXXXXXXXXXXXXXXXXXXXXXXXXXXXXXXXXXXXXXX",
"XXXXXXXXXXXXXXXXXXXXXXXXXXXXXXXXXXXXXXXXXXXXXXXXXXXXXXXXXXXXXXXXXXXXXXXXXXXXXXXXXXXXXXXXXXXXXXXXXXXX",
"XXXXXXXXXXXXXXXXXXXXXXXXXXXXXXXXXXXXXXXXXXXXXXXXXXXXXXXXXXXXXXXXXXXXXXXXXXXXXXXXXXXXXXXXXXXXXXXXXXXX",
"XXXXXXXXXXXXXXXXXXXXXXXXXXXXXXXXXXXXXXXXXXXXXXXXXXXXXXXXXXXXXXXXXXXXXXXXXXXXXXXXXXXXXXXXXXXXXXXXXXXX",
"XXXXXXXXXXXXXXXXXXXXXXXXXXXXXXXXXXXXXXXXXXXXXXXXXXXXXXXXXXXXXXXXXXXXXXXXXXXXXXXXXXXXXXXXXXXXXXXXXXXX",
"XXXXXXXXXXXXXXXXXXXXXXXXXXXXXXXXXXXXXXXXXXXXXXXXXXXXXXXXXXXXXXXXXXXXXXXXXXXXXXXXXXXXXXXXXXXXXXXXXXXX",
"XXXXXXXXXXXXXXXXXXXXXXXXXXXXXXXXXXXXXXXXXXXXXXXXXXXXXXXXXXXXXXXXXXXXXXXXXXXXXXXXXXXXXXXXXXXXXXXXXXXX"
};
