/* XPM */
static char *nave1___21[] = {
/* columns rows colors chars-per-pixel */
"50 50 176 2 ",
"   c #0D0D0D",
".  c #040403",
"X  c #11100F",
"o  c #0F0F10",
"O  c #0F0D1A",
"+  c #190917",
"@  c #0B121B",
"#  c #131314",
"$  c #181616",
"%  c #151319",
"&  c #171818",
"*  c #191A1B",
"=  c #260D19",
"-  c #3D0A16",
";  c #221D1D",
":  c #0E1420",
">  c #101421",
",  c #1D1E20",
"<  c #171C21",
"1  c #1A2026",
"2  c #232324",
"3  c #2A2526",
"4  c #252629",
"5  c #292B2E",
"6  c #312D2D",
"7  c #2C2E31",
"8  c #2E3133",
"9  c #2D3238",
"0  c #343435",
"q  c #34363A",
"w  c #35393C",
"e  c #3A3B3D",
"r  c #393535",
"t  c #440C17",
"y  c #5C0F17",
"u  c #56141B",
"i  c #641217",
"p  c #761A1E",
"a  c #7F171A",
"s  c #383D40",
"d  c #413E40",
"f  c #3E4144",
"g  c #3D4A4A",
"h  c #424648",
"j  c #454A4D",
"k  c #4A4B4C",
"l  c #4A4D52",
"z  c #454E50",
"x  c #4D5154",
"c  c #4E5458",
"v  c #53565C",
"b  c #545B5E",
"n  c #5A5A5C",
"m  c #515254",
"M  c #4F5D60",
"N  c #5A5E64",
"B  c #546163",
"V  c #5E6166",
"C  c #5E6469",
"Z  c #5C6C6D",
"A  c #5B716D",
"S  c #636365",
"D  c #636569",
"F  c #6A6768",
"G  c #66696B",
"H  c #6B6C6D",
"J  c #646A70",
"K  c #6D6F70",
"L  c #647576",
"P  c #6B7075",
"I  c #6B7279",
"U  c #6C7979",
"Y  c #717275",
"T  c #72767B",
"R  c #787A7D",
"E  c #797577",
"W  c #872414",
"Q  c #9F2616",
"!  c #AC3414",
"~  c #A72822",
"^  c #C23932",
"/  c #E13124",
"(  c #F4392C",
")  c #C8441D",
"_  c #D14618",
"`  c #E14A1C",
"'  c #DC631C",
"]  c #DE473E",
"[  c #F87A2C",
"{  c #EB6C31",
"}  c #F37A48",
"|  c #FB8C5B",
" . c #FF9D6D",
".. c #6F7A80",
"X. c #737C82",
"o. c #787E84",
"O. c #6D8383",
"+. c #7D838A",
"@. c #768587",
"#. c #788E91",
"$. c #7A9395",
"%. c #7E9995",
"&. c #80878E",
"*. c #8E8B8E",
"=. c #808082",
"-. c #808790",
";. c #828A91",
":. c #86969B",
">. c #8A959D",
",. c #819A9C",
"<. c #88989D",
"1. c #939597",
"2. c #9A9B9C",
"3. c #82A39F",
"4. c #8A9DA2",
"5. c #8A99A0",
"6. c #929AA4",
"7. c #999FA4",
"8. c #86A4A2",
"9. c #8BA3A6",
"0. c #8FA5A9",
"q. c #8DAEAE",
"w. c #8EACA7",
"e. c #92A6AC",
"r. c #9BA5AE",
"t. c #92AAAD",
"y. c #9BABAB",
"u. c #8DB6AF",
"i. c #98ABB0",
"p. c #95B3B5",
"a. c #9AB6B9",
"s. c #9BBBBC",
"d. c #9FB3B2",
"f. c #A2A2A4",
"g. c #A2ABB5",
"h. c #AFB6B7",
"j. c #A3B1BB",
"k. c #A8B3BD",
"l. c #AEBCBB",
"z. c #B9BDBD",
"x. c #B2B2B5",
"c. c #FCAD84",
"v. c #FBB78D",
"b. c #8EC8BE",
"n. c #8FC6BD",
"m. c #FCC28D",
"M. c #FDE4A0",
"N. c #9DBFC0",
"B. c #A2BBC1",
"V. c #AABFC7",
"C. c #ACBEC8",
"Z. c #B1BFCB",
"A. c #9ACAC4",
"S. c #A4C6C5",
"D. c #ABC1C4",
"F. c #A2C8C7",
"G. c #ACC3CB",
"H. c #ACCDCC",
"J. c #ABC8C5",
"K. c #B1C8CF",
"L. c #B6C4CB",
"P. c #B2D1CD",
"I. c #B8D0CF",
"U. c #B8C8D2",
"Y. c #AED2D0",
"T. c #B7D9D7",
"R. c #BBDBD8",
"E. c #BCD8D6",
"W. c #C9CACB",
"Q. c #C2C1C1",
"!. c #C6DFDD",
"~. c #CEDEDC",
"^. c #D2D5D5",
"/. c #CCE5E2",
"(. c #E7EAEB",
"). c None",
/* pixels */
").).).).).).).).).).).).).).).).).).).).).).).).).).).).).).).).).).).).).).).).).).).).).).).).).).",
").).).).).).).).).).).).).).).).).).).).).).).).).).).).).).).).).).).).).).).).).).).).).).).).).).",
").).).).).).).).).).).).).).).).).).).).).).).).).).).).).).).).).).).).).).).).).).).).).).).).).).",
").).).).).).).).).).).).).).).).).).).).).).).).).).).).).).).).).).).).).).).).).).).).).).).).).).",
").).).).).).).).).).).).).).).).).).).).).).).).).).).).).).).).).).).).).).).).).).).).).).).).).).",
").).).).).).).).).).).).).).).).).).).).).).).).).).  ).).).).).).).).).).).).).).).).).).).).).).).",
").).).).).).).).).).).).).).).).).).).).).).).).  *   ).).).).).).).).).).).).).).).).).).).).).).).",
").).).).).).).).).).).).).).).).).).).).).).).# 0 f 5 ).).).).).).).).).).).).).).).).).).).).).).).",
").).).).).).).).).).).).).).).).).).).).).. 7 l f s 2 ).).).).).).).).).).).).).).).).).).).).).).).",
").).).).).).).).).).).).).).).).).).).).& v -.;.j % ).).).).).).).).).).).).).).).).).).).).).).).).",
").).).).).).).).).).).).).).).).).).).w I 5.K.i.c ).).).).).).).).).).).).).).).).).).).).).).).).).",
").).).).).).).).).).).).).).).).).).w I ;.e.i.I 4 ).).).).).).).).v.M.).).).).).).).).).).).).).).).",
").).).).).).).).).).).).).).).).).).h ;.j.Y.$.4 4 o ).).).~ / _ }  .m.).).).).).).).).).).).).).).).",
").).).).).).).).).).).).).).).).).).c a.R./.A.M 4 , ).).).u y W ' | ).).).).).).).).).).).).).).).).",
").).).).).).).).).).).).).).).).).).j q.T.R.S.q.w 7 c f @ O - p ) [ ).).).).).).).).).).).).).).).).",
").).).).).).).).).).).).).).).).).).w Z N.a.9.q.5.4.>.V q > = p ] ).).).).).).).).).).).).).).).).).",
").).).).).).).).).).).).).).).).).).).j #.e.5.:.N.G.g.&.N < ).).).).).).).).).).).).).).).).).).).).",
").).).).).).).).).).).).).).).).).).).j 5.e.5.5.0.a.Z.r.J 0 ).).).).).).).).).).).).).).).).).).).).",
").).).).).).).).).).).).).).).).).).).J B.p.e.9.8.L I 6.v 2 ).).).).).).).).).).).).).).).).).).).).",
").).).).).).).).).).).).).).).).).).).8 d.N.p.$.z w P Y 3 ; * & ).).).).).).).).).).).).).).).).).).",
").).).).).).).).).).).).).).).).).).).k g.V.8.g h @.g.h.r d d ; & ).).).).).).).).).).).).).).).).).",
").).).).).).).).).).).).).).).).).).).N r.G.9.b H y.I.J.Z o.D 6 & ).).).( ` }  .m.).).).).).).).).).",
").).).).).).).).).).).).).).).).).).).X.G.9.L j b Y x.F r G l 3 o ).).).W Q ' | c.).).).).).).).).).",
").).).).).).).).).).).).).).).).).).# O.@.B j =.7.k E *.H :.r ; 7 w ).> t i ! { ).).).).).).).).).).",
").).).).).).).).).).).).).).).).).).d I D n x.~.u.A r f.I.E.*.S ..N 7 > + y ^ [ ).).).).).).).).).).",
").).).).).).).).).).).).).).).).).0 @.k.T R P.b.A.3.H U l.y.R &.B.;.D < : ).).).).).).).).).).).).).",
").).).).).).).).).).).).).).).).  e +.@.R w.n.A.P.z.F S U B 0 Z Z.7.I s ).).).).).).).).).).).).).).",
").).).).).).).).).).).).).).).).r H 2.f.Q.z.3.l.f.m x M e 0 O.p.G.B.+.s ).).).).).).).).).).).).).).",
").).).).).).).).).).).).).).).).P ^.^.W.z.1.F n j G ,.$.L 8.t.<.N.e.h * ).).).).).).).).).).).).).).",
").).).).).).).).).).).).).).).& m W.(.W.1.&.g.U O.e.C.V.n.y.4.:.4.q.s 4 * ).).).o & ).).).).).).).).",
").).).).).).).).).).).).).).).4 k Y ^.f.I ;.@.b <.j.r.j.V.a.0.<.<.p.#.7 4 2 7 * s s   ).).).).).).).",
").).).).).).).).).).).).).).    0 0 S k 5 e r # 9 h j P e.a.0.t.p.G.F.M l 5.I j h w & ).).).).).).).",
").).).).).).).).).).).).).).).).).).).* ).).).).).).).).g T L 8.H./.!.s.s.U.>.l 5 X ).).).).).).).).",
").).).).).).).).).).).).).).).).).).).).).).).).).).).).).).8 Z F.R.Y.p.9.:.D 4 ).).).).).).).).).).",
").).).).).).).).).).).).).).).).).).).).).).).).).).).).).).).j O.i.4.+.P l & ).).).).).).).).).).).",
").).).).).).).).).).).).).).).).).).).).).).).).).).).).).).).).q j v b q ).).).).).).).).).).).).).",
").).).).).).).).).).).).).).).).).).).).).).).).).).).).).).).).).).).).).).).).).).).).).).).).).).",
").).).).).).).).).).).).).).).).).).).).).).).).).).).).).).).).).).).).).).).).).).).).).).).).).).",
").).).).).).).).).).).).).).).).).).).).).).).).).).).).).).).).).).).).).).).).).).).).).).).).).).",
").).).).).).).).).).).).).).).).).).).).).).).).).).).).).).).).).).).).).).).).).).).).).).).).).).",
").).).).).).).).).).).).).).).).).).).).).).).).).).).).).).).).).).).).).).).).).).).).).).).).).).",
").).).).).).).).).).).).).).).).).).).).).).).).).).).).).).).).).).).).).).).).).).).).).).).).).).",
").).).).).).).).).).).).).).).).).).).).).).).).).).).).).).).).).).).).).).).).).).).).).).).).).).",
").).).).).).).).).).).).).).).).).).).).).).).).).).).).).).).).).).).).).).).).).).).).).).).).).).",
").).).).).).).).).).).).).).).).).).).).).).).).).).).).).).).).).).).).).).).).).).).).).).).).).).",
").).).).).).).).).).).).).).).).).).).).).).).).).).).).).).).).).).).).).).).).).).).).).).).).).).",
").).).).).).).).).).).).).).).).).).).).).).).).).).).).).).).).).).).).).).).).).).).).).).).).).).",
").).).).).).).).).).).).).).).).).).).).).).).).).).).).).).).).).).).).).).).).).).).).).).).).).).",
").).).).).).).).).).).).).).).).).).).).).).).).).).).).).).).).).).).).).).).).).).).).).).).).).).",
").).).).).).).).).).).).).).).).).).).).).).).).).).).).).).).).).).).).).).).).).).).).).).).).).)."
};
