/* XPM */
static char *nave1___8[] = {
/* columns rows colors chars-per-pixel */
"50 50 160 2 ",
"   c #0D0D0D",
".  c #070817",
"X  c #0B0C1A",
"o  c #0F1010",
"O  c #0F101C",
"+  c #121212",
"@  c #13131B",
"#  c #14191E",
"$  c #1B1A1B",
"%  c #151B21",
"&  c #1D1E21",
"*  c #1F2325",
"=  c #232122",
"-  c #242529",
";  c #2D2A2B",
":  c #27292B",
">  c #312B2C",
",  c #232730",
"<  c #2D2F31",
"1  c #252932",
"2  c #2F3134",
"3  c #343234",
"4  c #393434",
"5  c #33363A",
"6  c #34383D",
"7  c #393B3D",
"8  c #430B16",
"9  c #470E18",
"0  c #4E1019",
"q  c #5B141A",
"w  c #63171C",
"e  c #781516",
"r  c #771A18",
"t  c #3B3E42",
"y  c #3E4144",
"u  c #414345",
"i  c #43464A",
"p  c #454A4D",
"a  c #494B4D",
"s  c #4B4F52",
"d  c #4E5254",
"f  c #4F5458",
"g  c #4E5B5C",
"h  c #51555A",
"j  c #54595E",
"k  c #5B5B5E",
"l  c #5A5555",
"z  c #4F605F",
"x  c #575C61",
"c  c #5A5E62",
"v  c #4F6060",
"b  c #5E6163",
"n  c #586266",
"m  c #636364",
"M  c #61656B",
"N  c #63696E",
"B  c #68696B",
"V  c #676D73",
"C  c #6B6E72",
"Z  c #637475",
"A  c #6D7175",
"S  c #647778",
"D  c #6E747A",
"F  c #68787A",
"G  c #71767C",
"H  c #76787C",
"J  c #821B1C",
"K  c #9A1B18",
"L  c #922421",
"P  c #A82B28",
"I  c #EF3426",
"U  c #F2392B",
"Y  c #D74D19",
"T  c #D5501A",
"R  c #D45D18",
"E  c #D35B17",
"W  c #E05B1B",
"Q  c #FA5C23",
"!  c #FC7F24",
"~  c #F35043",
"^  c #67827D",
"/  c #FD8D57",
"(  c #FB8C5F",
")  c #FB8F65",
"_  c #FB9066",
"`  c #FCAF7F",
"'  c #797D85",
"]  c #6D8281",
"[  c #708787",
"{  c #7B838A",
"}  c #7C888F",
"|  c #7D8587",
" . c #80888F",
".. c #848488",
"X. c #838C93",
"o. c #8E9192",
"O. c #86949A",
"+. c #8A929A",
"@. c #829C9D",
"#. c #89999E",
"$. c #959798",
"%. c #8A9CA0",
"&. c #929DA7",
"*. c #A19FA2",
"=. c #8BA2A6",
"-. c #8FA4A9",
";. c #8CACAC",
":. c #87A2A3",
">. c #90A7AC",
",. c #9AA4AE",
"<. c #91AAAD",
"1. c #8EB1AC",
"2. c #93B3AE",
"3. c #93AEB1",
"4. c #9FAAB4",
"5. c #8EB9B2",
"6. c #93B4B4",
"7. c #98B7B9",
"8. c #95B8B8",
"9. c #9ABCBC",
"0. c #A4A3A5",
"q. c #A3ADB6",
"w. c #A6B7B7",
"e. c #A5B4BE",
"r. c #A3BABB",
"t. c #AFB2B3",
"y. c #B2B3B4",
"u. c #B5BABC",
"i. c #BFBFBF",
"p. c #B3B5B8",
"a. c #FCAF80",
"s. c #FBB48A",
"d. c #90C7BE",
"f. c #90C8BF",
"g. c #FDE9A1",
"h. c #A4B7C0",
"j. c #AAB6C2",
"k. c #A5BEC4",
"l. c #AABDC7",
"z. c #ABBFC8",
"x. c #B1BEC9",
"c. c #9EC3C3",
"v. c #9BCDC5",
"b. c #93CAC1",
"n. c #A2C5C5",
"m. c #ADC0CA",
"M. c #ABCDCB",
"N. c #A8C9C7",
"B. c #BEC2C2",
"V. c #B4C1CD",
"C. c #BACBCB",
"Z. c #B4D4D2",
"A. c #BBD9D7",
"S. c #C3C5C5",
"D. c #CFD4D4",
"F. c #C4DFDC",
"G. c #D9DBDB",
"H. c #CFE6E3",
"J. c #E1E5E6",
"K. c None",
/* pixels */
"K.K.K.K.K.K.K.K.K.K.K.K.K.K.K.K.K.K.K.K.K.K.K.K.K.K.K.K.K.K.K.K.K.K.K.K.K.K.K.K.K.K.K.K.K.K.K.K.K.K.",
"K.K.K.K.K.K.K.K.K.K.K.K.K.K.K.K.K.K.K.K.K.K.K.K.K.K.K.K.K.K.K.K.K.K.K.K.K.K.K.K.K.K.K.K.K.K.K.K.K.K.",
"K.K.K.K.K.K.K.K.K.K.K.K.K.K.K.K.K.K.K.K.K.K.K.K.K.K.K.K.K.K.K.K.K.K.K.K.K.K.K.K.K.K.K.K.K.K.K.K.K.K.",
"K.K.K.K.K.K.K.K.K.K.K.K.K.K.K.K.K.K.K.K.K.K.K.K.K.K.K.K.K.K.K.K.K.K.K.K.K.K.K.K.K.K.K.K.K.K.K.K.K.K.",
"K.K.K.K.K.K.K.K.K.K.K.K.K.K.K.K.K.K.K.K.K.K.K.K.K.K.K.K.K.K.K.K.K.K.K.K.K.K.K.K.K.K.K.K.K.K.K.K.K.K.",
"K.K.K.K.K.K.K.K.K.K.K.K.K.K.K.K.K.K.K.K.K.K.K.K.K.K.K.K.K.K.K.K.K.K.K.K.K.K.K.K.K.K.K.K.K.K.K.K.K.K.",
"K.K.K.K.K.K.K.K.K.K.K.K.K.K.K.K.K.K.K.K.K.K.K.K.K.K.K.K.K.K.K.K.K.K.K.K.K.K.K.K.K.K.K.K.K.K.K.K.K.K.",
"K.K.K.K.K.K.K.K.K.K.K.K.K.K.K.K.K.K.K.K.K.K.K.K.K.K.K.K.K.K.K.K.K.K.K.K.K.K.K.K.K.K.K.K.K.K.K.K.K.K.",
"K.K.K.K.K.K.K.K.K.K.K.K.K.K.K.K.K.K.K.K.K.K.K.K.K.K.K.K.K.K.K.K.K.K.K.K.K.K.K.K.K.K.K.K.K.K.K.K.K.K.",
"K.K.K.K.K.K.K.K.K.K.K.K.K.          o       K.K.K.K.K.K.K.K.K.K.K.K.K.K.K.K.K.K.K.K.K.K.K.K.K.K.K.K.",
"K.K.K.K.K.K.K.K.K.K.K.K.K.  5 5 5 s M M N N h K.K.K.K.K.K.K.K.K.K.K.K.K.K.K.K.K.K.K.K.K.K.K.K.K.K.K.",
"K.K.K.K.K.K.K.K.K.K.K.K.K.o i i p { x.9.+.X.{ f K.K.K.K.K.K.K.K.K.K.K.K.K.K.K.K.K.K.K.K.K.K.K.K.K.K.",
"K.K.K.K.K.K.K.K.K.K.K.K.K.K.+ # = V h.7.n.N.N.;.p K.K.K.K.K.K.K.K.K.K.K.K.K.K.K.K.K.K.K.K.K.K.K.K.K.",
"K.K.K.K.K.K.K.K.K.K.K.K.K.K.K.K.K.& 2 5 8.H.F.n.v K.K.K.K.K.K.K.K.K.K.K.K.K.K.K.K.K.K.K.K.K.K.K.K.K.",
"K.K.K.K.K.K.K.K.K.K.K.K.K.K.K.K.K.  - 5 8.A.Z.n.g K.K.K.K.K.K.K.K.K.K.K.K.K.K.K.K.K.K.K.K.K.K.K.K.K.",
"K.K.K.K.K.K.K.K.K.K.K.K.K.K.K.K.K.  - 5 8.3.3.6.n < K.K.K.K.K.K.K.K.K.K.K.K.K.K.K.K.K.K.K.K.K.K.K.K.",
"K.K.K.K.K.K.K.K.K.K.K.K.K.K.K.K.K.  - 6 6.O.#.-.=.} ; K.K.K.K.K.K.K.K.K.K.K.K.K.K.K.K.K.K.K.K.K.K.K.",
"K.K.K.K.K.K.K.K.K.K.K.K.! ~ L K.K.s { &.c.O.#.=.7.e.5 K.K.K.K.K.K.K.K.K.K.K.K.K.K.K.K.K.K.K.K.K.K.K.",
"K.K.K.K.K.K.K.K.K.K.K.) T J 0 O % h +.z.n.#.#.-.7.m.} : K.K.K.K.K.K.K.K.K.K.K.K.K.K.K.K.K.K.K.K.K.K.",
"K.K.K.K.K.K.K.K.K.g.a./ R r 8 . 1 D +.x.6.;.1.;.9.m.,.X.5 K.K.K.K.K.K.K.K.K.K.K.K.K.K.K.K.K.K.K.K.K.",
"K.K.K.K.K.K.K.K.K.K.K._ Y K q @ % h +.j.i 3 < 3 ] k.l.z.O.& $ K.K.K.K.K.K.K.K.K.K.K.K.K.K.K.K.K.K.K.",
"K.K.K.K.K.K.K.K.K.K.K.K.K.U K.K.K.y M ' H A Z k v [ [ [ ] N c 7 K.K.K.K.K.K.K.K.K.K.K.K.K.K.K.K.K.K.",
"K.K.K.K.K.K.K.K.K.K.K.K.K.K.K.K.K.  = 4 u.M.w.B a a p a c q.q.N 4 7 + K.K.K.K.K.K.K.K.K.K.K.K.K.K.K.",
"K.K.K.K.K.K.K.K.K.K.K.K.K.K.K.K.K.$ ; 4 2.C.p.k o.B.B.p.b H H o.0.y.u $ K.K.K.K.K.K.K.K.K.K.K.K.K.K.",
"K.K.K.K.K.K.K.K.K.K.K.K.K.K.K.K.$ > k G d m 0.4 ] v.v.v.1.y.y.S.G.J.k 7   K.K.K.K.K.K.K.K.K.K.K.K.K.",
"K.K.K.K.K.K.K.K.K.K.K.K.K.K.K.K.$ > m H i l *.3 ^ f.f.v.5.i.i.S.G.J.k y   K.K.K.K.K.K.K.K.K.K.K.K.K.",
"K.K.K.K.K.K.K.K.K.K.K.K.K.K.K.K.K.$ > 4 1.C.y.k $.D.D.S.m B A o.t.i.p @ K.K.K.K.K.K.K.K.K.K.K.K.K.K.",
"K.K.K.K.K.K.K.K.K.K.K.K.K.K.K.K.K.  = 4 u.N.w.B d a a d b q.q.A y u o K.K.K.K.K.K.K.K.K.K.K.K.K.K.K.",
"K.K.K.K.K.K.K.K.K.K.K.K.K.K.K.K.K.7 c A ..| ] b g S S S F A Z u   + K.K.K.K.K.K.K.K.K.K.K.K.K.K.K.K.",
"K.K.K.K.K.K.K.K.K.K.K._ W P w @ # h +.j.u 3 2 5 F k.l.m.O.- $ K.K.K.K.K.K.K.K.K.K.K.K.K.K.K.K.K.K.K.",
"K.K.K.K.K.K.K.K.K.g.` / E r 8 . , V +.V.:.@.@.@.6.m.4.X.u K.K.K.K.K.K.K.K.K.K.K.K.K.K.K.K.K.K.K.K.K.",
"K.K.K.K.K.K.K.K.K.K.s.) Y e 9 O % j +.x.n.%.:.;.9.m.+.5 K.K.K.K.K.K.K.K.K.K.K.K.K.K.K.K.K.K.K.K.K.K.",
"K.K.K.K.K.K.K.K.K.K.K.K.Q I L K.K.f +.4.n.#.%.&.8.h.5 K.K.K.K.K.K.K.K.K.K.K.K.K.K.K.K.K.K.K.K.K.K.K.",
"K.K.K.K.K.K.K.K.K.K.K.K.K.K.K.K.K.  - 5 6.O.%.-.-.%.< K.K.K.K.K.K.K.K.K.K.K.K.K.K.K.K.K.K.K.K.K.K.K.",
"K.K.K.K.K.K.K.K.K.K.K.K.K.K.K.K.K.  - 5 6.;.3.<.Z < K.K.K.K.K.K.K.K.K.K.K.K.K.K.K.K.K.K.K.K.K.K.K.K.",
"K.K.K.K.K.K.K.K.K.K.K.K.K.K.K.K.K.  - 5 8.Z.Z.9.g K.K.K.K.K.K.K.K.K.K.K.K.K.K.K.K.K.K.K.K.K.K.K.K.K.",
"K.K.K.K.K.K.K.K.K.K.K.K.K.K.K.K.K.& < 5 8.H.F.n.x K.K.K.K.K.K.K.K.K.K.K.K.K.K.K.K.K.K.K.K.K.K.K.K.K.",
"K.K.K.K.K.K.K.K.K.K.K.K.K.K.    $ n ,.-.c.M.M.6.p K.K.K.K.K.K.K.K.K.K.K.K.K.K.K.K.K.K.K.K.K.K.K.K.K.",
"K.K.K.K.K.K.K.K.K.K.K.K.K.o t u i { V.n.#.+.X.x * K.K.K.K.K.K.K.K.K.K.K.K.K.K.K.K.K.K.K.K.K.K.K.K.K.",
"K.K.K.K.K.K.K.K.K.K.K.K.K.  t t t x G D D D x K.K.K.K.K.K.K.K.K.K.K.K.K.K.K.K.K.K.K.K.K.K.K.K.K.K.K.",
"K.K.K.K.K.K.K.K.K.K.K.K.K.                  + K.K.K.K.K.K.K.K.K.K.K.K.K.K.K.K.K.K.K.K.K.K.K.K.K.K.K.",
"K.K.K.K.K.K.K.K.K.K.K.K.K.K.K.K.K.K.K.K.K.K.K.K.K.K.K.K.K.K.K.K.K.K.K.K.K.K.K.K.K.K.K.K.K.K.K.K.K.K.",
"K.K.K.K.K.K.K.K.K.K.K.K.K.K.K.K.K.K.K.K.K.K.K.K.K.K.K.K.K.K.K.K.K.K.K.K.K.K.K.K.K.K.K.K.K.K.K.K.K.K.",
"K.K.K.K.K.K.K.K.K.K.K.K.K.K.K.K.K.K.K.K.K.K.K.K.K.K.K.K.K.K.K.K.K.K.K.K.K.K.K.K.K.K.K.K.K.K.K.K.K.K.",
"K.K.K.K.K.K.K.K.K.K.K.K.K.K.K.K.K.K.K.K.K.K.K.K.K.K.K.K.K.K.K.K.K.K.K.K.K.K.K.K.K.K.K.K.K.K.K.K.K.K.",
"K.K.K.K.K.K.K.K.K.K.K.K.K.K.K.K.K.K.K.K.K.K.K.K.K.K.K.K.K.K.K.K.K.K.K.K.K.K.K.K.K.K.K.K.K.K.K.K.K.K.",
"K.K.K.K.K.K.K.K.K.K.K.K.K.K.K.K.K.K.K.K.K.K.K.K.K.K.K.K.K.K.K.K.K.K.K.K.K.K.K.K.K.K.K.K.K.K.K.K.K.K.",
"K.K.K.K.K.K.K.K.K.K.K.K.K.K.K.K.K.K.K.K.K.K.K.K.K.K.K.K.K.K.K.K.K.K.K.K.K.K.K.K.K.K.K.K.K.K.K.K.K.K.",
"K.K.K.K.K.K.K.K.K.K.K.K.K.K.K.K.K.K.K.K.K.K.K.K.K.K.K.K.K.K.K.K.K.K.K.K.K.K.K.K.K.K.K.K.K.K.K.K.K.K.",
"K.K.K.K.K.K.K.K.K.K.K.K.K.K.K.K.K.K.K.K.K.K.K.K.K.K.K.K.K.K.K.K.K.K.K.K.K.K.K.K.K.K.K.K.K.K.K.K.K.K."
};
