/* XPM */
static char *nave1___0[] = {
/* columns rows colors chars-per-pixel */
"50 50 160 2 ",
"   c #0D0D0D",
".  c #070817",
"X  c #0B0C1A",
"o  c #0F1010",
"O  c #0F101C",
"+  c #121212",
"@  c #13131B",
"#  c #14191E",
"$  c #1B1A1B",
"%  c #151B21",
"&  c #1D1E21",
"*  c #1F2325",
"=  c #232122",
"-  c #242529",
";  c #27292B",
":  c #2D2A2A",
">  c #312B2C",
",  c #232730",
"<  c #2D2F31",
"1  c #252932",
"2  c #2F3134",
"3  c #343234",
"4  c #393434",
"5  c #33363A",
"6  c #34383D",
"7  c #393B3D",
"8  c #430B16",
"9  c #470E18",
"0  c #4E1019",
"q  c #5B141A",
"w  c #63171C",
"e  c #781516",
"r  c #771A18",
"t  c #3B3E42",
"y  c #3E4144",
"u  c #414345",
"i  c #43464A",
"p  c #454A4D",
"a  c #494B4D",
"s  c #4B4F52",
"d  c #4E5254",
"f  c #4F5458",
"g  c #4E5B5C",
"h  c #51555A",
"j  c #54595E",
"k  c #5B5B5E",
"l  c #5A5555",
"z  c #575C61",
"x  c #5A5E62",
"c  c #4F6060",
"v  c #5E6163",
"b  c #586266",
"n  c #636364",
"m  c #61656B",
"M  c #63696E",
"N  c #68696B",
"B  c #676D73",
"V  c #6B6E72",
"C  c #637475",
"Z  c #6D7175",
"A  c #647778",
"S  c #6E747A",
"D  c #68787A",
"F  c #71767C",
"G  c #76787C",
"H  c #821B1C",
"J  c #9A1B18",
"K  c #922421",
"L  c #A82B28",
"P  c #EF3426",
"I  c #F2392B",
"U  c #D74D19",
"Y  c #D5501A",
"T  c #D45D18",
"R  c #D35B17",
"E  c #E05B1B",
"W  c #FA5C23",
"Q  c #FC7F24",
"!  c #F35043",
"~  c #67827D",
"^  c #FD8D57",
"/  c #FB8C5F",
"(  c #FB8F65",
")  c #FB9066",
"_  c #FCAF7F",
"`  c #797D85",
"'  c #6D8281",
"]  c #708787",
"[  c #7B838A",
"{  c #7C888F",
"}  c #7D8587",
"|  c #80888F",
" . c #848488",
".. c #838C93",
"X. c #8E9192",
"o. c #86949A",
"O. c #8A929A",
"+. c #829C9D",
"@. c #89999E",
"#. c #959798",
"$. c #8A9CA0",
"%. c #929DA7",
"&. c #A19FA2",
"*. c #8BA2A6",
"=. c #8FA4A9",
"-. c #8CADAC",
";. c #87A2A3",
":. c #90A7AC",
">. c #9AA4AE",
",. c #91AAAD",
"<. c #8EB1AC",
"1. c #93B3AE",
"2. c #93AEB1",
"3. c #9FAAB4",
"4. c #8EB9B2",
"5. c #93B4B4",
"6. c #98B7B9",
"7. c #95B8B8",
"8. c #9ABCBC",
"9. c #A4A3A5",
"0. c #A3ADB6",
"q. c #A6B7B7",
"w. c #A5B4BE",
"e. c #A3BABB",
"r. c #AFB2B3",
"t. c #B2B3B4",
"y. c #B5BABC",
"u. c #BFBFBF",
"i. c #B3B5B8",
"p. c #FCAF80",
"a. c #FBB48A",
"s. c #90C7BE",
"d. c #90C8BF",
"f. c #FDE9A1",
"g. c #A4B7C0",
"h. c #AAB6C2",
"j. c #A5BEC4",
"k. c #AABDC7",
"l. c #ABBFC8",
"z. c #B1BEC9",
"x. c #9EC3C3",
"c. c #9BCDC5",
"v. c #93CAC1",
"b. c #A2C5C5",
"n. c #ADC0CA",
"m. c #ABCCCB",
"M. c #A8C9C7",
"N. c #BEC2C2",
"B. c #B4C1CD",
"V. c #BACBCB",
"C. c #B4D4D2",
"Z. c #B9D7D5",
"A. c #BEDAD8",
"S. c #C3C5C5",
"D. c #CFD4D4",
"F. c #C4DFDC",
"G. c #D9DBDB",
"H. c #CFE6E3",
"J. c #E1E5E6",
"K. c None",
/* pixels */
"K.K.K.K.K.K.K.K.K.K.K.K.K.K.K.K.K.K.K.K.K.K.K.K.K.K.K.K.K.K.K.K.K.K.K.K.K.K.K.K.K.K.K.K.K.K.K.K.K.K.",
"K.K.K.K.K.K.K.K.K.K.K.K.K.K.K.K.K.K.K.K.K.K.K.K.K.K.K.K.K.K.K.K.K.K.K.K.K.K.K.K.K.K.K.K.K.K.K.K.K.K.",
"K.K.K.K.K.K.K.K.K.K.K.K.K.K.K.K.K.K.K.K.K.K.K.K.K.K.K.K.K.K.K.K.K.K.K.K.K.K.K.K.K.K.K.K.K.K.K.K.K.K.",
"K.K.K.K.K.K.K.K.K.K.K.K.K.K.K.K.K.K.K.K.K.K.K.K.K.K.K.K.K.K.K.K.K.K.K.K.K.K.K.K.K.K.K.K.K.K.K.K.K.K.",
"K.K.K.K.K.K.K.K.K.K.K.K.K.K.K.K.K.K.K.K.K.K.K.K.K.K.K.K.K.K.K.K.K.K.K.K.K.K.K.K.K.K.K.K.K.K.K.K.K.K.",
"K.K.K.K.K.K.K.K.K.K.K.K.K.K.K.K.K.K.K.K.K.K.K.K.K.K.K.K.K.K.K.K.K.K.K.K.K.K.K.K.K.K.K.K.K.K.K.K.K.K.",
"K.K.K.K.K.K.K.K.K.K.K.K.K.K.K.K.K.K.K.K.K.K.K.K.K.K.K.K.K.K.K.K.K.K.K.K.K.K.K.K.K.K.K.K.K.K.K.K.K.K.",
"K.K.K.K.K.K.K.K.K.K.K.K.K.K.K.K.K.K.K.K.K.K.K.K.K.K.K.K.K.K.K.K.K.K.K.K.K.K.K.K.K.K.K.K.K.K.K.K.K.K.",
"K.K.K.K.K.K.K.K.K.K.K.K.K.K.K.K.K.K.K.K.K.K.K.K.K.K.K.K.K.K.K.K.K.K.K.K.K.K.K.K.K.K.K.K.K.K.K.K.K.K.",
"K.K.K.K.K.K.K.K.K.K.K.K.K.K.K.K.K.K.K.K.K.K.K.K.K.K.K.K.K.K.K.K.K.K.K.K.K.K.K.K.K.K.K.K.K.K.K.K.K.K.",
"K.K.K.K.K.K.K.K.K.K.K.K.K.K.K.K.K.K.K.K.K.K.K.K.K.K.K.K.K.K.K.K.K.K.K.K.K.K.K.K.K.K.K.K.K.K.K.K.K.K.",
"K.K.K.K.K.K.K.K.K.K.K.K.K.K.K.K.K.K.K.K.K.K.K.K.K.K.K.K.K.K.K.K.K.K.K.K.K.K.K.K.K.K.K.K.K.K.K.K.K.K.",
"K.K.K.K.K.K.K.K.K.K.K.K.K.K.K.K.K.K.K.K.K.K.K.K.K.K.K.K.K.K.K.K.K.K.K.K.K.K.K.K.K.K.K.K.K.K.K.K.K.K.",
"K.K.K.K.K.K.K.K.K.K.K.K.K.K.K.K.K.K.K.K.K.K.K.K.o o K.K.K.K.K.K.K.K.K.K.K.K.K.K.K.K.K.K.K.K.K.K.K.K.",
"K.K.K.K.K.K.K.K.K.K.K.K.K.K.K.K.K.K.K.K.K.K.K.+ 7 u + K.K.K.K.K.K.K.K.K.K.K.K.K.K.K.K.K.K.K.K.K.K.K.",
"K.K.K.K.K.K.K.K.K.K.K.K.K.K.K.K.K.K.K.K.K.K.+ u k k i + K.K.K.K.K.K.K.K.K.K.K.K.K.K.K.K.K.K.K.K.K.K.",
"K.K.K.K.K.K.K.K.K.K.K.K.K.K.K.K.K.K.K.K.K.K.7 r.J.J.u.y   K.K.K.K.K.K.K.K.K.K.K.K.K.K.K.K.K.K.K.K.K.",
"K.K.K.K.K.K.K.K.K.K.K.K.K.K.K.K.K.K.K.K.K.K.7 9.G.G.r.u   K.K.K.K.K.K.K.K.K.K.K.K.K.K.K.K.K.K.K.K.K.",
"K.K.K.K.K.K.K.K.K.K.K.K.K.K.K.K.K.K.K.K.K.7 M X.u.S.#.Z u K.K.K.K.K.K.K.K.K.K.K.K.K.K.K.K.K.K.K.K.K.",
"K.K.K.K.K.K.K.K.K.K.K.K.K.K.K.K.K.K.K.K.$ v 0.G t.u.V 0.V $ K.K.K.K.K.K.K.K.K.K.K.K.K.K.K.K.K.K.K.K.",
"K.K.K.K.K.K.K.K.K.K.K.K.K.K.K.K.K.K.K.K.= m 0.G t.S.V 0.S = K.K.K.K.K.K.K.K.K.K.K.K.K.K.K.K.K.K.K.K.",
"K.K.K.K.K.K.K.K.K.K.K.K.K.K.K.K.K.K.K.5 ..] x n -.4.n x D o.i K.K.K.K.K.K.K.K.K.K.K.K.K.K.K.K.K.K.K.",
"K.K.K.K.K.K.K.K.K.K.K.K.K.K.K.K.K.K.; ..k.] a i.c.d.S.d A k.O.2 K.K.K.K.K.K.K.K.K.K.K.K.K.K.K.K.K.K.",
"K.K.K.K.K.K.K.K.K.K.K.K.K.K.K.K.< 5 | >.k.] i S.c.d.D.a A j.3.O.6 < K.K.K.K.K.K.K.K.K.K.K.K.K.K.K.K.",
"K.K.K.K.K.K.K.K.K.K.K.K.K.K.K.< { w.n.k.j.] a S.c.d.D.d A b.k.n.g.$.< K.K.K.K.K.K.K.K.K.K.K.K.K.K.K.",
"K.K.K.K.K.K.K.K.K.K.K.K.p c g B *.6.6.8.~ z p X.' ~ #.a h ' 5.6.7.-.B g c p * K.K.K.K.K.K.K.K.K.K.K.",
"K.K.K.K.K.K.K.K.K.K.K.h ,.c.x.2.:.*.:.-.3 h N v 4 3 k N v 3 +.,.%.=.2.8.b.2.z K.K.K.K.K.K.K.K.K.K.K.",
"K.K.K.K.K.K.K.K.K.K.h [ M.F.C.2.@.@.@.-.< C q.i.9.9.t.q.~ 2 +.*.$.$.,.C.H.M.{ b + K.K.K.K.K.K.K.K.K.",
"K.K.K.K.K.K.K.K.K.  m ..m.H.A.2.o.o.@.-.4 Z M.V.n l V.M.} 3 +.@.o.o.-.Z.H.m.O.S   K.K.K.K.K.K.K.K.K.",
"K.K.K.K.K.K.K.K.K.  m o.x.5.7.5.5.b.b.1.i G y.1.d u <.y. .p ;.b.x.5.5.7.7.x.O.F   K.K.K.K.K.K.K.K.K.",
"K.K.K.K.K.K.K.K.K.  M e.6.5 5 5 6 %.l.z.h.` 4 4 F ` 4 4 Z h.B.z.3.t 5 5 6 *.b.F   K.K.K.K.K.K.K.K.K.",
"K.K.K.K.K.K.K.K.K.  M z.w.2 - - - [ O.O.O.m = : x n : = x O.O.O...- * - 2 >.B.F   K.K.K.K.K.K.K.K.K.",
"K.K.K.K.K.K.K.K.K.  d [ B &       s h V f i   $ : : $   t h B z f       & b { z   K.K.K.K.K.K.K.K.K.",
"K.K.K.K.K.K.K.K.K.  5 i - K.K.K.K.K.% 1 % K.K.K.$ $ K.K.K.# - % K.K.K.K.K.$ i t   K.K.K.K.K.K.K.K.K.",
"K.K.K.K.K.K.K.K.K.  5 p @ K.K.K.K.K.@ . O K.K.K.K.K.K.K.K.@ X X K.K.K.K.K.  y t   K.K.K.K.K.K.K.K.K.",
"K.K.K.K.K.K.K.K.K.  5 i + K.K.K.K.K 0 8 q K.K.K.K.K.K.K.K.w 8 9 K K.K.K.K.  t t   K.K.K.K.K.K.K.K.K.",
"K.K.K.K.K.K.K.K.K.    + K.K.K.K.K.! H r J I K.K.K.K.K.K.K.L r e P K.K.K.K.K.o     K.K.K.K.K.K.K.K.K.",
"K.K.K.K.K.K.K.K.K.K.K.K.K.K.K.K.K.Q Y T U K.K.K.K.K.K.K.K.E R U W K.K.K.K.K.K.K.K.K.K.K.K.K.K.K.K.K.",
"K.K.K.K.K.K.K.K.K.K.K.K.K.K.K.K.K.K.( ^ ) K.K.K.K.K.K.K.K.) ^ / K.K.K.K.K.K.K.K.K.K.K.K.K.K.K.K.K.K.",
"K.K.K.K.K.K.K.K.K.K.K.K.K.K.K.K.K.K.K._ K.K.K.K.K.K.K.K.K.K.p.a.K.K.K.K.K.K.K.K.K.K.K.K.K.K.K.K.K.K.",
"K.K.K.K.K.K.K.K.K.K.K.K.K.K.K.K.K.K.K.f.K.K.K.K.K.K.K.K.K.K.f.K.K.K.K.K.K.K.K.K.K.K.K.K.K.K.K.K.K.K.",
"K.K.K.K.K.K.K.K.K.K.K.K.K.K.K.K.K.K.K.K.K.K.K.K.K.K.K.K.K.K.K.K.K.K.K.K.K.K.K.K.K.K.K.K.K.K.K.K.K.K.",
"K.K.K.K.K.K.K.K.K.K.K.K.K.K.K.K.K.K.K.K.K.K.K.K.K.K.K.K.K.K.K.K.K.K.K.K.K.K.K.K.K.K.K.K.K.K.K.K.K.K.",
"K.K.K.K.K.K.K.K.K.K.K.K.K.K.K.K.K.K.K.K.K.K.K.K.K.K.K.K.K.K.K.K.K.K.K.K.K.K.K.K.K.K.K.K.K.K.K.K.K.K.",
"K.K.K.K.K.K.K.K.K.K.K.K.K.K.K.K.K.K.K.K.K.K.K.K.K.K.K.K.K.K.K.K.K.K.K.K.K.K.K.K.K.K.K.K.K.K.K.K.K.K.",
"K.K.K.K.K.K.K.K.K.K.K.K.K.K.K.K.K.K.K.K.K.K.K.K.K.K.K.K.K.K.K.K.K.K.K.K.K.K.K.K.K.K.K.K.K.K.K.K.K.K.",
"K.K.K.K.K.K.K.K.K.K.K.K.K.K.K.K.K.K.K.K.K.K.K.K.K.K.K.K.K.K.K.K.K.K.K.K.K.K.K.K.K.K.K.K.K.K.K.K.K.K.",
"K.K.K.K.K.K.K.K.K.K.K.K.K.K.K.K.K.K.K.K.K.K.K.K.K.K.K.K.K.K.K.K.K.K.K.K.K.K.K.K.K.K.K.K.K.K.K.K.K.K.",
"K.K.K.K.K.K.K.K.K.K.K.K.K.K.K.K.K.K.K.K.K.K.K.K.K.K.K.K.K.K.K.K.K.K.K.K.K.K.K.K.K.K.K.K.K.K.K.K.K.K.",
"K.K.K.K.K.K.K.K.K.K.K.K.K.K.K.K.K.K.K.K.K.K.K.K.K.K.K.K.K.K.K.K.K.K.K.K.K.K.K.K.K.K.K.K.K.K.K.K.K.K."
};
