/* XPM */
static char *nave2___24[] = {
/* columns rows colors chars-per-pixel */
"50 50 188 2 ",
"   c #0D0D0D",
".  c #100C0E",
"X  c #0A0718",
"o  c #130D10",
"O  c #1D0913",
"+  c #0E111C",
"@  c #15161D",
"#  c #1A1A1A",
"$  c #200411",
"%  c #1D1921",
"&  c #340D23",
"*  c #251E21",
"=  c #3D152D",
"-  c #242529",
";  c #2B2529",
":  c #232124",
">  c #31292A",
",  c #312F33",
"<  c #3B2933",
"1  c #2E3135",
"2  c #333333",
"3  c #33343A",
"4  c #33383D",
"5  c #460A16",
"6  c #520C18",
"7  c #680B1A",
"8  c #7F0717",
"9  c #470B2C",
"0  c #500F2E",
"q  c #4B0530",
"w  c #58133B",
"e  c #630D3A",
"r  c #6B0838",
"t  c #780B3F",
"y  c #78053D",
"u  c #462739",
"i  c #5C1C43",
"p  c #7C0740",
"a  c #6B1244",
"s  c #661846",
"d  c #731449",
"f  c #7A1949",
"g  c #7B154B",
"h  c #781A51",
"j  c #5A2D47",
"k  c #54344A",
"l  c #77345F",
"z  c #722B55",
"x  c #48444B",
"c  c #585557",
"v  c #5F485A",
"b  c #6D4160",
"n  c #684C62",
"m  c #635D66",
"M  c #7B5670",
"N  c #7A4565",
"B  c #7A6677",
"V  c #6F6A71",
"C  c #830318",
"Z  c #A7071C",
"A  c #890D21",
"S  c #AE0620",
"D  c #AE1A37",
"F  c #D51622",
"G  c #DB1925",
"H  c #ED1C2D",
"J  c #FF2129",
"K  c #FA243B",
"L  c #87114B",
"P  c #89154E",
"I  c #8E1859",
"U  c #94145B",
"Y  c #9B145A",
"T  c #830D46",
"R  c #AF0858",
"E  c #B10859",
"W  c #84235C",
"Q  c #94255F",
"!  c #B80D60",
"~  c #A31566",
"^  c #B21D6F",
"/  c #BC1373",
"(  c #BC1C73",
")  c #9C2264",
"_  c #8B2D64",
"`  c #A6276B",
"'  c #A1376E",
"]  c #A63273",
"[  c #D0086D",
"{  c #C11B6E",
"}  c #DA0570",
"|  c #C31E70",
" . c #C8287A",
".. c #F93968",
"X. c #824D6D",
"o. c #8F4D75",
"O. c #9B4E7D",
"+. c #825877",
"@. c #875779",
"#. c #94537B",
"$. c #FE5875",
"%. c #FE6B7F",
"&. c #FE647B",
"*. c #D51683",
"=. c #E21A8E",
"-. c #EF1792",
";. c #FF179C",
":. c #D93C9C",
">. c #C93890",
",. c #FF269F",
"<. c #F7279D",
"1. c #FE23A5",
"2. c #FF26A9",
"3. c #FF29AA",
"4. c #F631A2",
"5. c #FA33AB",
"6. c #FF38B2",
"7. c #8D5E81",
"8. c #945D83",
"9. c #A75A8A",
"0. c #8D6683",
"q. c #956287",
"w. c #897987",
"e. c #A0648E",
"r. c #AF6E9D",
"t. c #B36D9E",
"y. c #AA739C",
"u. c #AF79A3",
"i. c #B17FA7",
"p. c #C9598F",
"a. c #C65B90",
"s. c #C96495",
"d. c #DB51A5",
"f. c #E947A9",
"g. c #F44CB5",
"h. c #F945B4",
"j. c #E958B3",
"k. c #F457BB",
"l. c #C578AD",
"z. c #C376AC",
"x. c #CC7AB4",
"c. c #EE63BD",
"v. c #EA6DBC",
"b. c #E263B3",
"n. c #E971BA",
"m. c #DF7DC0",
"M. c #EC7CC5",
"N. c #E677C1",
"B. c #858488",
"V. c #A49FA3",
"C. c #A397AC",
"Z. c #BD88B4",
"A. c #AB83A8",
"S. c #BEB3BD",
"D. c #B3A6BD",
"F. c #FE968D",
"G. c #C582A9",
"H. c #C799AF",
"J. c #CA82B6",
"K. c #C785B7",
"L. c #D388B8",
"P. c #CE96B3",
"I. c #CC9CB5",
"U. c #D893B6",
"Y. c #C9A0B3",
"T. c #CBB3BF",
"R. c #FDE7A2",
"E. c #DD8AC6",
"W. c #D989C3",
"Q. c #CA9AC6",
"!. c #DC93C7",
"~. c #DF93CA",
"^. c #D09FCB",
"/. c #D896C5",
"(. c #E288C7",
"). c #E293CC",
"_. c #D8A7C6",
"`. c #CBB4C5",
"'. c #D9B5D4",
"]. c #D6B0CE",
"[. c #E4BDD2",
"{. c #CCC1C6",
"}. c #D6C9DB",
"|. c #D9DADB",
" X c #E3C1D3",
".X c #D2E3E3",
"XX c #E3E3E6",
"oX c None",
/* pixels */
"oXoXoXoXoXoXoXoXoXoXoXoXoXoXoXoXoXoXoXoXoXoXoXoXoXoXoXoXoXoXoXoXoXoXoXoXoXoXoXoXoXoXoXoXoXoXoXoXoXoX",
"oXoXoXoXoXoXoXoXoXoXoXoXoXoXoXoXoXoXoXoXoXoXoXoXoXoXoXoXoXoXoXoXoXoXoXoXoXoXoXoXoXoXoXoXoXoXoXoXoXoX",
"oXoXoXoXoXoXoXoXoXoXoXoXoXoXoXoXoXoXoXoXoXoXoXoXoXoXoXoXoXoXoXoXoXoXoXoXoXoXoXoXoXoXoXoXoXoXoXoXoXoX",
"oXoXoXoXoXoXoXoXoXoXoXoXoXoXoXoXoXoXoXoXoXoXoXoXoXoXoXoXoXoXoXoXoXoXoXoXoXoXoXoXoXoXoXoXoXoXoXoXoXoX",
"oXoXoXoXoXoXoXoXoXoXoXoXoXoXoXoXoXoXoXoXoXoXoXoXoXoXoXoXoXoXoXoXoXoXoXoXoXoXoXoXoXoXoXoXoXoXoXoXoXoX",
"oXoXoXoXoXoXoXoXoXoXoXoXoXoXoXoXoXoXoXoXoXoXoXoXoXoXoXoXoXoXoXoXoXoXoXoXoXoXoXoXoXoXoXoXoXoXoXoXoXoX",
"oXoXoXoXoXoXoXoXoXoXoXoXoXoXoXoXoXoXoXoXoXoXoXoXoXoXoXoXoXoXoXoXoXoXoXoXoXoXoXoXoXoXoXoXoXoXoXoXoXoX",
"oXoXoXoXoXoXoXoXoXoXoXoXoXoXoXoXoXoXoXoXoXoXoXoXoXoXoXoXoXoXoXoXoXoXoXoXoXoXoXoXoXoXoXoXoXoXoXoXoXoX",
"oXoXoXoXoXoXoXoXoXoXoXoXoXoXoXoXoXoXoXoXoXoXoXoXoXoXoXoXoXoXoXoXoXoXoXoXoXoXoXoXoXoXoXoXoXoXoXoXoXoX",
"oXoXoXoXoXoXoXoXoXoXoXoXoXoXoXoXoXoXoXoXoXoXoXoXoXoXoXo       .       .   oXoXoXoXoXoXoXoXoXoXoXoXoX",
"oXoXoXoXoXoXoXoXoXoXoXoXoXoXoXoXoXoXoXoXoXoXoXoXoXoXoX~ *.*.*.*.~ a a s   oXoXoXoXoXoXoXoXoXoXoXoXoX",
"oXoXoXoXoXoXoXoXoXoXoXoXoXoXoXoXoXoXoXoXoXoXoXoXoX& ~ <.1.5.E.`.q.d d a o oXoXoXoXoXoXoXoXoXoXoXoXoX",
"oXoXoXoXoXoXoXoXoXoXoXoXoXoXoXoXoXoXoXoXoXoXoXoXoXh b.).~.W.i.C.m #   o oXoXoXoXoXoXoXoXoXoXoXoXoXoX",
"oXoXoXoXoXoXoXoXoXoXoXoXoXoXoXoXoXoXoXoXoXoXoXoXoXb (.}..XK.3 , % oXoXoXoXoXoXoXoXoXoXoXoXoXoXoXoXoX",
"oXoXoXoXoXoXoXoXoXoXoXoXoXoXoXoXoXoXoXoXoXoXoXoXoXl N.].'.x.3 -   oXoXoXoXoXoXoXoXoXoXoXoXoXoXoXoXoX",
"oXoXoXoXoXoXoXoXoXoXoXoXoXoXoXoXoXoXoXoXoXoXoXoX0 ( g.g.g.x.3 - oXoXoXoXoXoXoXoXoXoXoXoXoXoXoXoXoXoX",
"oXoXoXoXoXoXoXoXoXoXoXoXoXoXoXoXoXoXoXoXoXoXoX< t.g.6.3.1.x.3 ;   oXoXoXoXoXoXoXoXoXoXoXoXoXoXoXoXoX",
"oXoXoXoXoXoXoXoXoXoXoXoXoXoXoXoXoXoXoXoXoXoXoXu /.c.6.3.2.E.Z.:.I oXoXZ K J oXoXoXoXoXoXoXoXoXoXoXoX",
"oXoXoXoXoXoXoXoXoXoXoXoXoXoXoXoXoXoXoXoXoXoXw :.).v.h.5.5.E.^.1.Y % @ 5 8 F &.F.oXoXoXoXoXoXoXoXoXoX",
"oXoXoXoXoXoXoXoXoXoXoXoXoXoXoXoXoXoXoXoXoXk d.k.~.x.r.r.r.u.^.1.[ 9 X 5 C F $.F.R.oXoXoXoXoXoXoXoXoX",
"oXoXoXoXoXoXoXoXoXoXoXoXoXoXoXoXoXoXoX* * r.).)./.#.2 2 1 x Q.4.I @ @ 7 D G %.oXoXoXoXoXoXoXoXoXoXoX",
"oXoXoXoXoXoXoXoXoXoXoXoXoXoXoXoXo o u o.#.@.@.@.+.v m @.w.B.B _ j oXoXoXoXoXoXoXoXoXoXoXoXoXoXoXoXoX",
"oXoXoXoXoXoXoXoXoXoXoXoXoXoXoX$ d y ] v.n.` P L P P ' L./.S.2 * o oXoXoXoXoXoXoXoXoXoXoXoXoXoXoXoXoX",
"oXoXoXoXoXoXoXoXoXoXoXoXoXoX$ T T.P.p. .| E _. X Xs.R U.`.z.u > # oXoXoXoXoXoXoXoXoXoXoXoXoXoXoXoXoX",
"oXoXoXoXoXoXoXoXoXoXoXoXoXo y E XX|.{.T.`.b.N.v.v.O.u V.c u -.` > # oXoXoXoXoXoXoXoXoXoXoXoXoXoXoXoX",
"oXoXoXoXoXoXoXoXoXoXoXoXoXo y R XX|.`.Y.Y.d.M.M.M.9.u V.m z  .` > # oXoXoXoXoXoXoXoXoXoXoXoXoXoXoXoX",
"oXoXoXoXoXoXoXoXoXoXoXoXoXoXO t I.G.p. . .E U._.U.s.E P.].G.u ; # oXoXoXoXoXoXoXoXoXoXoXoXoXoXoXoXoX",
"oXoXoXoXoXoXoXoXoXoXoXoXoXoXoXO r r ' n.n.) f f f f ' U./.T.2 * . oXoXoXoXoXoXoXoXoXoXoXoXoXoXoXoXoX",
"oXoXoXoXoXoXoXoXoXoXoXoXoXoXoXoXoXoXu N X.8.q.q.q.n c M V B w.] s oXoXoXK oXoXoXoXoXoXoXoXoXoXoXoXoX",
"oXoXoXoXoXoXoXoXoXoXoXoXoXoXoXoXoXoXoX# % y.).~.E.7.3 , 2 x Q.4.I @ @ 7 Z G %.oXoXoXoXoXoXoXoXoXoXoX",
"oXoXoXoXoXoXoXoXoXoXoXoXoXoXoXoXoXoXoXoXoXu :.k.).L.i.x.z.G.^.1.} q X 5 C F $.F.R.oXoXoXoXoXoXoXoXoX",
"oXoXoXoXoXoXoXoXoXoXoXoXoXoXoXoXoXoXoXoXoXoX= :.).c.6.3.3.E.Q.4.I @ + 6 A G %.oXoXoXoXoXoXoXoXoXoXoX",
"oXoXoXoXoXoXoXoXoXoXoXoXoXoXoXoXoXoXoXoXoXoXoXu /.c.6.2.1.E.i.>.h oXoXS ..J oXoXoXoXoXoXoXoXoXoXoXoX",
"oXoXoXoXoXoXoXoXoXoXoXoXoXoXoXoXoXoXoXoXoXoXoX< e.f.6.2.1.x.3 - + oXoXoXoXoXoXoXoXoXoXoXoXoXoXoXoXoX",
"oXoXoXoXoXoXoXoXoXoXoXoXoXoXoXoXoXoXoXoXoXoXoXoX9 ^ g.k.j.x.3 -   oXoXoXoXoXoXoXoXoXoXoXoXoXoXoXoXoX",
"oXoXoXoXoXoXoXoXoXoXoXoXoXoXoXoXoXoXoXoXoXoXoXoXoXl N.'.}.J.3 -   oXoXoXoXoXoXoXoXoXoXoXoXoXoXoXoXoX",
"oXoXoXoXoXoXoXoXoXoXoXoXoXoXoXoXoXoXoXoXoXoXoXoXoXb E.}..XK.4 1 % oXoXoXoXoXoXoXoXoXoXoXoXoXoXoXoXoX",
"oXoXoXoXoXoXoXoXoXoXoXoXoXoXoXoXoXoXoXoXoXoXoXoXoXh j.).!.(.Z.D.V - @ X oXoXoXoXoXoXoXoXoXoXoXoXoXoX",
"oXoXoXoXoXoXoXoXoXoXoXoXoXoXoXoXoXoXoXoXoXoXoXoXoXoXU -.;.,.n.^.9.g g d o oXoXoXoXoXoXoXoXoXoXoXoXoX",
"oXoXoXoXoXoXoXoXoXoXoXoXoXoXoXoXoXoXoXoXoXoXoXoXoXoXoXU / / / ( U i a w   oXoXoXoXoXoXoXoXoXoXoXoXoX",
"oXoXoXoXoXoXoXoXoXoXoXoXoXoXoXoXoXoXoXoXoXoXoXoXoXoXoXoX. . . .       .   oXoXoXoXoXoXoXoXoXoXoXoXoX",
"oXoXoXoXoXoXoXoXoXoXoXoXoXoXoXoXoXoXoXoXoXoXoXoXoXoXoXoXoXoXoXoXoXoXoXoXoXoXoXoXoXoXoXoXoXoXoXoXoXoX",
"oXoXoXoXoXoXoXoXoXoXoXoXoXoXoXoXoXoXoXoXoXoXoXoXoXoXoXoXoXoXoXoXoXoXoXoXoXoXoXoXoXoXoXoXoXoXoXoXoXoX",
"oXoXoXoXoXoXoXoXoXoXoXoXoXoXoXoXoXoXoXoXoXoXoXoXoXoXoXoXoXoXoXoXoXoXoXoXoXoXoXoXoXoXoXoXoXoXoXoXoXoX",
"oXoXoXoXoXoXoXoXoXoXoXoXoXoXoXoXoXoXoXoXoXoXoXoXoXoXoXoXoXoXoXoXoXoXoXoXoXoXoXoXoXoXoXoXoXoXoXoXoXoX",
"oXoXoXoXoXoXoXoXoXoXoXoXoXoXoXoXoXoXoXoXoXoXoXoXoXoXoXoXoXoXoXoXoXoXoXoXoXoXoXoXoXoXoXoXoXoXoXoXoXoX",
"oXoXoXoXoXoXoXoXoXoXoXoXoXoXoXoXoXoXoXoXoXoXoXoXoXoXoXoXoXoXoXoXoXoXoXoXoXoXoXoXoXoXoXoXoXoXoXoXoXoX",
"oXoXoXoXoXoXoXoXoXoXoXoXoXoXoXoXoXoXoXoXoXoXoXoXoXoXoXoXoXoXoXoXoXoXoXoXoXoXoXoXoXoXoXoXoXoXoXoXoXoX",
"oXoXoXoXoXoXoXoXoXoXoXoXoXoXoXoXoXoXoXoXoXoXoXoXoXoXoXoXoXoXoXoXoXoXoXoXoXoXoXoXoXoXoXoXoXoXoXoXoXoX",
"oXoXoXoXoXoXoXoXoXoXoXoXoXoXoXoXoXoXoXoXoXoXoXoXoXoXoXoXoXoXoXoXoXoXoXoXoXoXoXoXoXoXoXoXoXoXoXoXoXoX"
};
