/* XPM */
static char *nave2___23[] = {
/* columns rows colors chars-per-pixel */
"50 50 212 2 ",
"   c #010C04",
".  c #0B0C0C",
"X  c #040C09",
"o  c #110C0F",
"O  c #180D18",
"+  c #081417",
"@  c #131414",
"#  c #161B1A",
"$  c #1A191B",
"%  c #161816",
"&  c #0B0616",
"*  c #260E1B",
"=  c #2C0E1B",
"-  c #260716",
";  c #360118",
":  c #2A111F",
">  c #1F201D",
",  c #22201E",
"<  c #220E22",
"1  c #350F24",
"2  c #3B0B29",
"3  c #38192E",
"4  c #281426",
"5  c #1A2725",
"6  c #212424",
"7  c #232628",
"8  c #282A2A",
"9  c #3D2731",
"0  c #362831",
"q  c #2E3235",
"w  c #35363A",
"e  c #550A17",
"r  c #4A0916",
"t  c #670917",
"y  c #730C1C",
"u  c #480928",
"i  c #590A34",
"p  c #491835",
"a  c #55143A",
"s  c #6C0F3C",
"d  c #412533",
"f  c #5C1B41",
"g  c #640F40",
"h  c #6F1E4F",
"j  c #76134B",
"k  c #781349",
"l  c #720D46",
"z  c #5D284A",
"x  c #5F3B53",
"c  c #4B3A45",
"v  c #65304D",
"b  c #7C2D57",
"n  c #7A2151",
"m  c #6A3857",
"M  c #6E2E55",
"N  c #7B3864",
"B  c #3F4243",
"V  c #584756",
"C  c #595458",
"Z  c #49424D",
"A  c #63465B",
"S  c #62505E",
"D  c #5E5461",
"F  c #6A4B63",
"G  c #605E68",
"H  c #794F6C",
"J  c #696869",
"K  c #70636A",
"L  c #7F6C7D",
"P  c #717275",
"I  c #6C6674",
"U  c #91061A",
"Y  c #A30718",
"T  c #AE1C39",
"R  c #DB182A",
"E  c #C21228",
"W  c #E71C29",
"Q  c #F21C29",
"!  c #E52331",
"~  c #9C0046",
"^  c #82124A",
"/  c #821552",
"(  c #801F56",
")  c #971855",
"_  c #8D0C53",
"`  c #B00052",
"'  c #A01D5D",
"]  c #812355",
"[  c #97255B",
"{  c #AA0D62",
"}  c #B60D63",
"|  c #AA1568",
" . c #B71368",
".. c #BC0C70",
"X. c #AC1F70",
"o. c #BC1273",
"O. c #982767",
"+. c #833663",
"@. c #923E67",
"#. c #9C3A6A",
"$. c #BF206F",
"%. c #B8267B",
"&. c #A73273",
"*. c #EF3545",
"=. c #C71D7F",
"-. c #C4196F",
";. c #CB287C",
":. c #F43262",
">. c #83476C",
",. c #984B75",
"<. c #8C537A",
"1. c #845A79",
"2. c #95527B",
"3. c #92597D",
"4. c #8F4879",
"5. c #AA517C",
"6. c #84607C",
"7. c #F84454",
"8. c #FF677E",
"9. c #7C7481",
"0. c #BC3E8A",
"q. c #D41683",
"w. c #E8168A",
"e. c #FD1B9A",
"r. c #F41996",
"t. c #EB1993",
"y. c #C93489",
"u. c #D33291",
"i. c #EB2B99",
"p. c #FF1BA6",
"a. c #FE2BAC",
"s. c #FE26A4",
"d. c #EA3AA2",
"f. c #FA31AC",
"g. c #F83EB1",
"h. c #B6548E",
"j. c #8D6283",
"k. c #976488",
"l. c #9F6892",
"z. c #867C86",
"x. c #AA6896",
"c. c #A67499",
"v. c #B97495",
"b. c #A57FA0",
"n. c #B271A1",
"m. c #C14884",
"M. c #C74184",
"N. c #C15089",
"B. c #D04D96",
"V. c #C25799",
"C. c #C64E92",
"Z. c #CC6E9D",
"A. c #FF6E83",
"S. c #FF7283",
"D. c #D959AA",
"F. c #EA48AB",
"G. c #F540AF",
"H. c #EB4EB1",
"J. c #FD40B4",
"K. c #F54BB4",
"L. c #F746B4",
"P. c #EE5EB9",
"I. c #EA5CB7",
"U. c #F95ABF",
"Y. c #D261AB",
"T. c #CA7CB3",
"R. c #D37EBA",
"E. c #DB72B9",
"W. c #C960A4",
"Q. c #E26BB7",
"!. c #E965BB",
"~. c #E276BA",
"^. c #ED6FC1",
"/. c #EB75C2",
"(. c #EB7DC6",
"). c #E27AC2",
"_. c #F078C2",
"`. c #B488AA",
"'. c #A19FA2",
"]. c #B69EAF",
"[. c #BE84B2",
"{. c #BC8EB6",
"}. c #B093B2",
"|. c #B3A1AC",
" X c #FEA592",
".X c #FEB696",
"XX c #C686AB",
"oX c #C784B4",
"OX c #CC9AB3",
"+X c #CAAABA",
"@X c #CAA7BC",
"#X c #FDF2A6",
"$X c #D788C1",
"%X c #DB92CA",
"&X c #D798C9",
"*X c #C598C2",
"=X c #E483C5",
"-X c #EA86CA",
";X c #E292CC",
":X c #EC98CD",
">X c #E49BD1",
",X c #D8A4C8",
"<X c #D4A9D1",
"1X c #D8B8D6",
"2X c #D0B0C9",
"3X c #E5A7CC",
"4X c #E3ABD3",
"5X c #D9C8D7",
"6X c #D2C9D1",
"7X c #E0D5DD",
"8X c #D7E6E4",
"9X c None",
/* pixels */
"9X9X9X9X9X9X9X9X9X9X9X9X9X9X9X9X9X9X9X9X9X9X9X9X9X9X9X9X9X9X9X9X9X9X9X9X9X9X9X9X9X9X9X9X9X9X9X9X9X9X",
"9X9X9X9X9X9X9X9X9X9X9X9X9X9X9X9X9X9X9X9X9X9X9X9X9X9X9X9X9X9X9X9X9X9X9X9X9X9X9X9X9X9X9X9X9X9X9X9X9X9X",
"9X9X9X9X9X9X9X9X9X9X9X9X9X9X9X9X9X9X9X9X9X9X9X9X9X9X9X9X9X9X9X9X9X9X9X9X9X9X9X9X9X9X9X9X9X9X9X9X9X9X",
"9X9X9X9X9X9X9X9X9X9X9X9X9X9X9X9X9X9X9X9X9X9X9X9X9X9X9X9X9X9X9X9X9X9X9X9X9X9X9X9X9X9X9X9X9X9X9X9X9X9X",
"9X9X9X9X9X9X9X9X9X9X9X9X9X9X9X9X9X9X9X9X9X9X9X9X9X9X9X9X9X9X9X9X9X9X9X9X9X9X9X9X9X9X9X9X9X9X9X9X9X9X",
"9X9X9X9X9X9X9X9X9X9X9X9X9X9X9X9X9X9X9X9X9X9X9X9X9X9X9X9X9X9X9X9X9X9X9X9X9X9X9X9X9X9X9X9X9X9X9X9X9X9X",
"9X9X9X9X9X9X9X9X9X9X9X9X9X9X9X9X9X9X9X9X9X9X9X9X9X9X9X9X9X9X9X9X9X9X9X9X9X9X9X9X9X9X9X9X9X9X9X9X9X9X",
"9X9X9X9X9X9X9X9X9X9X9X9X9X9X9X9X9X9X9X9X9X9X9X9X9X9X9X9X9X9X9X9XX . 9X9X9X9X9X9X9X9X9X9X9X9X9X9X9X9X",
"9X9X9X9X9X9X9X9X9X9X9X9X9X9X9X9X9X9X9X9X9X9X9X9X9X9X9X  o = 1 u a . 9X9X9X9X9X9X9X9X9X9X9X9X9X9X9X9X",
"9X9X9X9X9X9X9X9X9X9X9X9X9X9X9X9X9X9X9X9X9X9X9X9X1 g _ ..q.X.j j j * 9X9X9X9X9X9X9X9X9X9X9X9X9X9X9X9X",
"9X9X9X9X9X9X9X9X9X9X9X9X9X9X9X9X9X9X9X9X9X9X9X9X| w.t.Q.<Xb.v 2 < 9X9X9X9X9X9X9X9X9X9X9X9X9X9X9X9X9X",
"9X9X9X9X9X9X9X9X9X9X9X9X9X9X9X9X9X9X9X9X9X9X9Xj i.G.!.R.}.9.q 9X9X9X9X9X9X9X9X9X9X9X9X9X9X9X9X9X9X9X",
"9X9X9X9X9X9X9X9X9X9X9X9X9X9X9X9X9X9X9X9X9X9Xp 0.;X1X1Xl.q 7 @ 9X9X9X9X9X9X9X9X9X9X9X9X9X9X9X9X9X9X9X",
"9X9X9X9X9X9X9X9X9X9X9X9X9X9X9X9X9X9X9X9X9X9X3 <.>X7X5Xn.q 5 9X9X9X9X9X9X9X9X9X9X9X9X9X9X9X9X9X9X9X9X",
"9X9X9X9X9X9X9X9X9X9X9X9X9X9X9X9X9X9X9X9X9X9X9XN ).%X=XT.w 7 . 9X9X9X9X9X9X9X9X9X9X9X9X9X9X9X9X9X9X9X",
"9X9X9X9X9X9X9X9X9X9X9X9X9X9X9X9X9X9X9X9X9X9X; | g.g.a.E.Z 0 3 9X9X9XR Q 7.9X9X9X9X9X9X9X9X9X9X9X9X9X",
"9X9X9X9X9X9X9X9X9X9X9X9X9X9X9X9X9X9X9X9X9X9X<.D.g.a.p.I.{.Y.0.i + = t Y *.A..X#X9X9X9X9X9X9X9X9X9X9X",
"9X9X9X9X9X9X9X9X9X9X9X9X9X9X9X9X9X9X9X9X9X$ H -XK.a.a.K.&X).w._ < O e Y ! A.9X9X9X9X9X9X9X9X9X9X9X9X",
"9X9X9X9X9X9X9X9X9X9X9X9X9X9X9X9X9X9X9X9X9Xf V.;XU.H.F.D.[.%Xr.{ 4 O y T W 9X9X9X9X9X9X9X9X9X9X9X9X9X",
"9X9X9X9X9X9X9X9X9X9X9X9X9X9X9X9X9X9X9X9X9XO.U.;XT.k.I V V *Xi.n 9X9X9X9X9X9X9X9X9X9X9X9X9X9X9X9X9X9X",
"9X9X9X9X9X9X9X9X9X9X9X9X9X9X9X9X9X9X9X9Xm Q.-X;Xk.w c C P L M p 9X9X9X9X9X9X9X9X9X9X9X9X9X9X9X9X9X9X",
"9X9X9X9X9X9X9X9X9X9X9X9X9X9X9X9X9X9X@ $ k.[.c.k.F S k.XX2XJ > # 9X9X9X9X9X9X9X9X9X9X9X9X9X9X9X9X9X9X",
"9X9X9X9X9X9X9X9X9X9X9X9X9X9X9X9X9X9Xm 2.2.>.n ^ ^ ) h.3X4X3.9 d , % 9X9X9X9X9X9X9X9X9X9X9X9X9X9X9X9X",
"9X9X9X9X9X9X9X9X9X9X9X9X9X9X9X9X; s h._.B.) v.@X,Xm.[ ].K b t.O.8 % 9X9X9X9X9X9X9X9X9X9X9X9X9X9X9X9X",
"9X9X9X9X9X9X9X9X9X9X9X9X9X9X9Xu #.5.;.-.-.y.:X-X~.,.9 '.C v ;.] 6 9X9X9X9X9X9X9X9X9X9X9X9X9X9X9X9X9X",
"9X9X9X9X9X9X9X9X9X9X9X9X9X9X- _ 7X6X+X+X2XQ._.!.(.h.s |.|.XXc , % 9X9X9X9X9X9X9X9X9X9X9X9X9X9X9X9X9X",
"9X9X9X9X9X9X9X9X9X9X9X9X9Xo s ` 7X8X5X+XOXB.R.3X3XZ. .Z.&X2XJ 9 p 9X9X9XE W *.9X9X9X9X9X9X9X9X9X9X9X",
"9X9X9X9X9X9X9X9X9X9X9X9X9X. i T OX5XXX5.;. .&.@.] k b 3.l.'.6.x.%.f + = y Y ! 8. X#X9X9X9X9X9X9X9X9X",
"9X9X9X9X9X9X9X9X9X9X9X9X9X9X9Xu #.,.[ N.^.V.+.>.<.j.V B w w S &Xe.} 2 & r y R 8.9X9X9X9X9X9X9X9X9X9X",
"9X9X9X9X9X9X9X9X9X9X9X9X9X9X9X9X; r r m H F n.oX$X$Xk.F 6.c.[.,Xs.} 4 + e T W 9X9X9X9X9X9X9X9X9X9X9X",
"9X9X9X9X9X9X9X9X9X9X9X9X9X9X9X9X9X9X9X9X$ $ H ^.P.;X$XQ.H.f.~.*Xd.O.3 9X9X:.9X9X9X9X9X9X9X9X9X9X9X9X",
"9X9X9X9X9X9X9X9X9X9X9X9X9X9X9X9X9X9X9X9X9X9X9Xh y.=X/.J.a.s.!.`.4.z 9X9X9X9X9X9X9X9X9X9X9X9X9X9X9X9X",
"9X9X9X9X9X9X9X9X9X9X9X9X9X9X9X9X9X9X9X9X9X9X9X9Xd j.(.K.a.p.K.j.5 # 9X9X9X9X9X9X9X9X9X9X9X9X9X9X9X9X",
"9X9X9X9X9X9X9X9X9X9X9X9X9X9X9X9X9X9X9X9X9X9X9X9X9Xm h.d.g.G.I.n.8 7 9X9X9X9X9X9X9X9X9X9X9X9X9X9X9X9X",
"9X9X9X9X9X9X9X9X9X9X9X9X9X9X9X9X9X9X9X9X9X9X9X9X9X9Xu X.^.%X1XT.q 7 # 9X9X9X9X9X9X9X9X9X9X9X9X9X9X9X",
"9X9X9X9X9X9X9X9X9X9X9X9X9X9X9X9X9X9X9X9X9X9X9X9X9X9X9Xm R.5X8X&XF I D q $ 4 * 9X9X9X9X9X9X9X9X9X9X9X",
"9X9X9X9X9X9X9X9X9X9X9X9X9X9X9X9X9X9X9X9X9X9X9X9X9X9X9Xz W.>X<X=X$X<X`.+.j / u X 9X9X9X9X9X9X9X9X9X9X",
"9X9X9X9X9X9X9X9X9X9X9X9X9X9X9X9X9X9X9X9X9X9X9X9X9X9X9Xa O.u.s.e.d.Y.0./ i a 1 . 9X9X9X9X9X9X9X9X9X9X",
"9X9X9X9X9X9X9X9X9X9X9X9X9X9X9X9X9X9X9X9X9X9X9X9X9X9X9X9X9Xl o.o.| _ g * & 9X9X9X9X9X9X9X9X9X9X9X9X9X",
"9X9X9X9X9X9X9X9X9X9X9X9X9X9X9X9X9X9X9X9X9X9X9X9X9X9X9X9X9X9X1 . 9X9X9X9X9X9X9X9X9X9X9X9X9X9X9X9X9X9X",
"9X9X9X9X9X9X9X9X9X9X9X9X9X9X9X9X9X9X9X9X9X9X9X9X9X9X9X9X9X9X9X9X9X9X9X9X9X9X9X9X9X9X9X9X9X9X9X9X9X9X",
"9X9X9X9X9X9X9X9X9X9X9X9X9X9X9X9X9X9X9X9X9X9X9X9X9X9X9X9X9X9X9X9X9X9X9X9X9X9X9X9X9X9X9X9X9X9X9X9X9X9X",
"9X9X9X9X9X9X9X9X9X9X9X9X9X9X9X9X9X9X9X9X9X9X9X9X9X9X9X9X9X9X9X9X9X9X9X9X9X9X9X9X9X9X9X9X9X9X9X9X9X9X",
"9X9X9X9X9X9X9X9X9X9X9X9X9X9X9X9X9X9X9X9X9X9X9X9X9X9X9X9X9X9X9X9X9X9X9X9X9X9X9X9X9X9X9X9X9X9X9X9X9X9X",
"9X9X9X9X9X9X9X9X9X9X9X9X9X9X9X9X9X9X9X9X9X9X9X9X9X9X9X9X9X9X9X9X9X9X9X9X9X9X9X9X9X9X9X9X9X9X9X9X9X9X",
"9X9X9X9X9X9X9X9X9X9X9X9X9X9X9X9X9X9X9X9X9X9X9X9X9X9X9X9X9X9X9X9X9X9X9X9X9X9X9X9X9X9X9X9X9X9X9X9X9X9X",
"9X9X9X9X9X9X9X9X9X9X9X9X9X9X9X9X9X9X9X9X9X9X9X9X9X9X9X9X9X9X9X9X9X9X9X9X9X9X9X9X9X9X9X9X9X9X9X9X9X9X",
"9X9X9X9X9X9X9X9X9X9X9X9X9X9X9X9X9X9X9X9X9X9X9X9X9X9X9X9X9X9X9X9X9X9X9X9X9X9X9X9X9X9X9X9X9X9X9X9X9X9X",
"9X9X9X9X9X9X9X9X9X9X9X9X9X9X9X9X9X9X9X9X9X9X9X9X9X9X9X9X9X9X9X9X9X9X9X9X9X9X9X9X9X9X9X9X9X9X9X9X9X9X",
"9X9X9X9X9X9X9X9X9X9X9X9X9X9X9X9X9X9X9X9X9X9X9X9X9X9X9X9X9X9X9X9X9X9X9X9X9X9X9X9X9X9X9X9X9X9X9X9X9X9X"
};
