/* XPM */
static char *nave1___14[] = {
/* columns rows colors chars-per-pixel */
"50 50 172 2 ",
"   c #080707",
".  c #0B0A0A",
"X  c #080E1C",
"o  c #120D1A",
"O  c #0D1115",
"+  c #0D131D",
"@  c #131313",
"#  c #11131D",
"$  c #1A1A1A",
"%  c #191319",
"&  c #260816",
"*  c #3E0E18",
"=  c #211C1B",
"-  c #26201F",
";  c #1D1E21",
":  c #1F2023",
">  c #222324",
",  c #25262A",
"<  c #2A2B2D",
"1  c #262829",
"2  c #332E2F",
"3  c #2B2F34",
"4  c #2F3234",
"5  c #323335",
"6  c #33363A",
"7  c #34393D",
"8  c #3A3B3D",
"9  c #3A3435",
"0  c #450B16",
"q  c #5C0F18",
"w  c #4D1019",
"e  c #5E191D",
"r  c #751719",
"t  c #781E20",
"y  c #3C3E42",
"u  c #423F42",
"i  c #3D4144",
"p  c #3E4B4B",
"a  c #444243",
"s  c #434649",
"d  c #45494D",
"f  c #4A4B4D",
"g  c #464847",
"h  c #464E50",
"j  c #4B4E52",
"k  c #4C5254",
"l  c #4F5E5F",
"z  c #4E5359",
"x  c #525355",
"c  c #52565A",
"v  c #51595C",
"b  c #5A5A5D",
"n  c #5A5F65",
"m  c #555A60",
"M  c #556363",
"N  c #5A6166",
"B  c #5C686B",
"V  c #5F656B",
"C  c #5C746F",
"Z  c #626367",
"A  c #62666C",
"S  c #65696D",
"D  c #6B6A6B",
"F  c #706F71",
"G  c #627374",
"H  c #6C7176",
"J  c #6F757B",
"K  c #66797B",
"L  c #6D7B7C",
"P  c #747A7C",
"I  c #797A7D",
"U  c #707275",
"Y  c #8D1E1E",
"T  c #962614",
"R  c #A52E19",
"E  c #B32619",
"W  c #881F23",
"Q  c #972927",
"!  c #F03327",
"~  c #C14E14",
"^  c #D25716",
"/  c #D24A23",
"(  c #E25921",
")  c #F95126",
"_  c #E76729",
"`  c #F15043",
"'  c #F57948",
"]  c #F5804A",
"[  c #F88655",
"{  c #FE915E",
"}  c #FF9461",
"|  c #FDA67B",
" . c #FCAF7F",
".. c #757C83",
"X. c #797E82",
"o. c #817E81",
"O. c #6D8384",
"+. c #738689",
"@. c #7D848B",
"#. c #738A8B",
"$. c #79898E",
"%. c #798D90",
"&. c #7E9B99",
"*. c #7D9897",
"=. c #8B8B8D",
"-. c #848588",
";. c #838A91",
":. c #8E8E91",
">. c #86959A",
",. c #89939B",
"<. c #849C9E",
"1. c #899A9D",
"2. c #859294",
"3. c #94989C",
"4. c #989899",
"5. c #939496",
"6. c #8F97A0",
"7. c #8A9DA1",
"8. c #969DA3",
"9. c #85A3A3",
"0. c #8BA3A5",
"q. c #8EA5A9",
"w. c #8CABAB",
"e. c #93A3AA",
"r. c #91AAAD",
"t. c #9EA7AF",
"y. c #9DA6B1",
"u. c #95ADB1",
"i. c #9FA9B3",
"p. c #94B4B4",
"a. c #9BB3B4",
"s. c #9CBCBC",
"d. c #90BEB6",
"f. c #A3A3A5",
"g. c #ABADAD",
"h. c #A7AAAD",
"j. c #A6ADB2",
"k. c #B0AFB0",
"l. c #A4B1BB",
"z. c #A7B7BB",
"x. c #B2B3B4",
"c. c #B7BABB",
"v. c #FCB786",
"b. c #92C3BB",
"n. c #FDE6A0",
"m. c #9FBEC0",
"M. c #A4BCC3",
"N. c #AABBC5",
"B. c #B7BFC0",
"V. c #B1BDCA",
"C. c #8FC9C0",
"Z. c #9DC0C0",
"A. c #93CAC1",
"S. c #98D0C7",
"D. c #ADC2CA",
"F. c #A6CBCA",
"G. c #AACDCB",
"H. c #A4C6C6",
"J. c #B5C8CE",
"K. c #B3D1CE",
"L. c #B5D4D2",
"P. c #B7D8D6",
"I. c #BEDCDA",
"U. c #BDD7D4",
"Y. c #C3C2C3",
"T. c #CCCDCE",
"R. c #C0D1CF",
"E. c #C7D9D8",
"W. c #D2D3D3",
"Q. c #CDE6E3",
"!. c #E5E9EA",
"~. c None",
/* pixels */
"~.~.~.~.~.~.~.~.~.~.~.~.~.~.~.~.~.~.~.~.~.~.~.~.~.~.~.~.~.~.~.~.~.~.~.~.~.~.~.~.~.~.~.~.~.~.~.~.~.~.",
"~.~.~.~.~.~.~.~.~.~.~.~.~.~.~.~.~.~.~.~.~.~.~.~.~.~.~.~.~.~.~.~.~.~.~.~.~.~.~.~.~.~.~.~.~.~.~.~.~.~.",
"~.~.~.~.~.~.~.~.~.~.~.~.~.~.~.~.~.~.~.~.~.~.~.~.~.~.~.~.~.~.~.~.~.~.~.~.~.~.~.~.~.~.~.~.~.~.~.~.~.~.",
"~.~.~.~.~.~.~.~.~.~.~.~.~.~.~.~.~.~.~.~.~.~.~.~.~.~.~.~.~.~.~.~.~.~.~.~.~.~.~.~.~.~.~.~.~.~.~.~.~.~.",
"~.~.~.~.~.~.~.~.~.~.~.~.~.~.~.~.~.~.~.~.~.~.~.~.~.~.~.~.~.~.~.~.~.~.~.~.~.~.~.~.~.~.~.~.~.~.~.~.~.~.",
"~.~.~.~.~.~.~.~.~.~.~.~.~.~.~.~.~.~.~.~.~.~.~.~.~.~.~.~.~.~.~.~.~.~.~.~.~.~.~.~.~.~.~.~.~.~.~.~.~.~.",
"~.~.~.~.~.~.~.~.~.~.~.~.~.~.~.~.~.~.~.~.~.~.~.~.~.~.~.~.~.~.~.~.~.~.~.~.~.~.~.~.~.~.~.~.~.~.~.~.~.~.",
"~.~.~.~.~.~.~.~.~.~.~.~.~.~.~.~.~.~.~.~.~.~.~.~.~.~.~.~.~.~.~.~.~.~.~.~.~.~.~.~.~.~.~.~.~.~.~.~.~.~.",
"~.~.~.~.~.~.~.~.~.~.~.~.~.~.~.~.~.~.~.~.~.~.~.~.n.~.~.~.~.~.~.~.~.. . ~.~.~.~.~.~.~.~.~.~.~.~.~.~.~.",
"~.~.~.~.~.~.~.~.~.~.~.~.~.~.~.~.~.~.~.~.~.~.~.~.v.| ~.~.~.~.~.~.~.1 3 . ~.~.~.~.~.~.~.~.~.~.~.~.~.~.",
"~.~.~.~.~.~.~.~.~.~.~.~.~.~.~.~.~.~.~.~.~.~.~.~.{ ' _ ~.~.~.~.~.@ s 8 % ~.~.~.~.~.~.~.~.~.~.~.~.~.~.",
"~.~.~.~.~.~.~.~.~.~.~.~.~.~.~.~.~.~.~.~.~.~.~.~.( ~ R ` ~.~.~.~.. 5 i 3 ~.~.~.~.~.~.~.~.~.~.~.~.~.~.",
"~.~.~.~.~.~.~.~.~.~.~.~.~.~.~.~.~.~.~.~.~.~.~.) E r q t ~.~.~.~.~.4 A j @ ~.~.~.~.~.~.~.~.~.~.~.~.~.",
"~.~.~.~.~.~.~.~.~.~.~.~.~.~.v.~.~.~.~.~.~.~.~.~.W w & % ~.~.~.~.% V i.%.y ~.~.~.~.~.~.~.~.~.~.~.~.~.",
"~.~.~.~.~.~.~.~.~.~.~.~.~.| } [ ~.~.~.~.~.~.~.~.~.# + + ~.~.~.@ : N D.a.n . ~.~.~.~.~.~.~.~.~.~.~.~.",
"~.~.~.~.~.~.~.~.~.~.~.~.~.' _ ^ / ~.~.~.~.~.~.~.~.O 6 z c c ; 1 , 6 p.e.H < ~.~.~.~.~.~.~.~.~.~.~.~.",
"~.~.~.~.~.~.~.~.~.~.~.~.~.) T r W Q ~.~.~.~.~.~.~.i S -.,.,.y y K w.F.p...j ~.~.~.~.~.~.~.~.~.~.~.~.",
"~.~.~.~.~.~.~.~.~.~.~.~.~.! r 0 0 ~.~.~.~.= - $ % c ,.l.N.N.w.p.m.I.Q.H.@.d ~.~.~.~.~.~.~.~.~.~.~.~.",
"~.~.~.~.~.~.~.~.~.~.~.~.~.~.e o X O ~.~.% 2 f 8 = g 3.,.m.m.q.>.u.L.I.G.J 1 ~.~.~.~.~.~.~.~.~.~.~.~.",
"~.~.~.~.~.~..   @ ~.~.~.~.~.~.+ 3 i s 3 = u X.Z g =.P 6 &.7.>.>.q.Z.Z.*.k ~.~.~.~.~.~.~.~.~.~.~.~.~.",
"~.~.~.~.~.~.. 3 y @ ~.~.~.~.~.s V ..@.c - 9 D k 0.R.>.a M u.7.0.q.+.v p 1 ~.~.~.~.~.~.~.~.~.~.~.~.~.",
"~.~.~.~.~.~.. 6 s , . ~.~.~.: ..,.y.V.@.o.a.P a =.J.a.M 6 w.u.p.r.N ~.~.~.~.~.~.~.~.~.~.~.~.~.~.~.~.",
"~.~.~.~.~.~.~.$ y j d ; ; ; : ..N.V.$.j 8.K.D.=.f.:.+.b k 9.m.D.e.v ~.~.~.~.~.~.~.~.~.~.~.~.~.~.~.~.",
"~.~.~.~.~.~.~.. h ;.8.m : < y +.F.s.&.4 P z.g.D 9 x S p ..M.N.e.6 ~.~.~.~.~.~.~.~.~.~.~.~.~.~.~.~.~.",
"~.~.~.~.~.~.~.~.7 6.J.%.h #.p.u.7.1.9.k h P Z S C <.k.g O.M.j.S ~.~.~.~.~.~.~.~.~.~.~.~.~.~.~.~.~.~.",
"~.~.~.~.~.~.~.~.@ J u.s.H.L.s.7.>.7.q.O.y v f g.b.b.R.F M w.z.k ~.~.~.~.~.~.~.~.~.~.~.~.~.~.~.~.~.~.",
"~.~.~.~.~.~.~.~.~.z -.u.I.Q.G.q.0.q.r.p.*.L j 4.U.b.K.f.j #.2.1 ~.~.~.~.~.~.~.~.~.~.~.~.~.~.~.~.~.~.",
"~.~.~.~.~.~.~.~.~., J 1.F.P.F.w.0.p.H.N.H.a.B c E.b.b.O.Z ..7 ~.~.~.~.~.~.~.~.~.~.~.~.~.~.~.~.~.~.~.",
"~.~.~.~.~.~.~.~.~.~.d N &.&.G m A u.8.i.i.D.O.j I <.b.=.;.t.k ~.~.~.~.~.~.~.~.~.~.~.~.~.~.~.~.~.~.~.",
"~.~.~.~.~.~.~.~.~.~.~.~.6 i 7 ~.~.i , j H t.>.G I I Y.k.P 3.j ~.~.~.~.~.~.~.~.~.~.~.~.~.~.~.~.~.~.~.",
"~.~.~.~.~.~.~.~.~.~.~.~.~.~.~.~.~.~.~.~.~.i j U z.H k.Y.f.H 4 ~.~.~.~.~.~.~.~.~.~.~.~.~.~.~.~.~.~.~.",
"~.~.~.~.~.~.~.~.~.~.~.~.~.~.~.~.~.~.~.~.~.~.. k ;.-.g.W.T.4.5 ~.~.~.~.~.~.~.~.~.~.~.~.~.~.~.~.~.~.~.",
"~.~.~.~.~.~.~.~.~.~.~.~.~.~.~.~.~.~.~.~.~.~.~.~.8 c x.!.!.c.8 ~.~.~.~.~.~.~.~.~.~.~.~.~.~.~.~.~.~.~.",
"~.~.~.~.~.~.~.~.~.~.~.~.~.~.~.~.~.~.~.~.~.~.~.~.~.< 5.c.-.f > ~.~.~.~.~.~.~.~.~.~.~.~.~.~.~.~.~.~.~.",
"~.~.~.~.~.~.~.~.~.~.~.~.~.~.~.~.~.~.~.~.~.~.~.~.~.~.1 8 f 8 ~.~.~.~.~.~.~.~.~.~.~.~.~.~.~.~.~.~.~.~.",
"~.~.~.~.~.~.~.~.~.~.~.~.~.~.~.~.~.~.~.~.~.~.~.~.~.~.~.~.> @ ~.~.~.~.~.~.~.~.~.~.~.~.~.~.~.~.~.~.~.~.",
"~.~.~.~.~.~.~.~.~.~.~.~.~.~.~.~.~.~.~.~.~.~.~.~.~.~.~.~.~.. ~.~.~.~.~.~.~.~.~.~.~.~.~.~.~.~.~.~.~.~.",
"~.~.~.~.~.~.~.~.~.~.~.~.~.~.~.~.~.~.~.~.~.~.~.~.~.~.~.~.~.~.~.~.~.~.~.~.~.~.~.~.~.~.~.~.~.~.~.~.~.~.",
"~.~.~.~.~.~.~.~.~.~.~.~.~.~.~.~.~.~.~.~.~.~.~.~.~.~.~.~.~.~.~.~.~.~.~.~.~.~.~.~.~.~.~.~.~.~.~.~.~.~.",
"~.~.~.~.~.~.~.~.~.~.~.~.~.~.~.~.~.~.~.~.~.~.~.~.~.~.~.~.~.~.~.~.~.~.~.~.~.~.~.~.~.~.~.~.~.~.~.~.~.~.",
"~.~.~.~.~.~.~.~.~.~.~.~.~.~.~.~.~.~.~.~.~.~.~.~.~.~.~.~.~.~.~.~.~.~.~.~.~.~.~.~.~.~.~.~.~.~.~.~.~.~.",
"~.~.~.~.~.~.~.~.~.~.~.~.~.~.~.~.~.~.~.~.~.~.~.~.~.~.~.~.~.~.~.~.~.~.~.~.~.~.~.~.~.~.~.~.~.~.~.~.~.~.",
"~.~.~.~.~.~.~.~.~.~.~.~.~.~.~.~.~.~.~.~.~.~.~.~.~.~.~.~.~.~.~.~.~.~.~.~.~.~.~.~.~.~.~.~.~.~.~.~.~.~.",
"~.~.~.~.~.~.~.~.~.~.~.~.~.~.~.~.~.~.~.~.~.~.~.~.~.~.~.~.~.~.~.~.~.~.~.~.~.~.~.~.~.~.~.~.~.~.~.~.~.~.",
"~.~.~.~.~.~.~.~.~.~.~.~.~.~.~.~.~.~.~.~.~.~.~.~.~.~.~.~.~.~.~.~.~.~.~.~.~.~.~.~.~.~.~.~.~.~.~.~.~.~.",
"~.~.~.~.~.~.~.~.~.~.~.~.~.~.~.~.~.~.~.~.~.~.~.~.~.~.~.~.~.~.~.~.~.~.~.~.~.~.~.~.~.~.~.~.~.~.~.~.~.~.",
"~.~.~.~.~.~.~.~.~.~.~.~.~.~.~.~.~.~.~.~.~.~.~.~.~.~.~.~.~.~.~.~.~.~.~.~.~.~.~.~.~.~.~.~.~.~.~.~.~.~.",
"~.~.~.~.~.~.~.~.~.~.~.~.~.~.~.~.~.~.~.~.~.~.~.~.~.~.~.~.~.~.~.~.~.~.~.~.~.~.~.~.~.~.~.~.~.~.~.~.~.~.",
"~.~.~.~.~.~.~.~.~.~.~.~.~.~.~.~.~.~.~.~.~.~.~.~.~.~.~.~.~.~.~.~.~.~.~.~.~.~.~.~.~.~.~.~.~.~.~.~.~.~.",
"~.~.~.~.~.~.~.~.~.~.~.~.~.~.~.~.~.~.~.~.~.~.~.~.~.~.~.~.~.~.~.~.~.~.~.~.~.~.~.~.~.~.~.~.~.~.~.~.~.~."
};
