/* XPM */
static char *projetil1___9[] = {
/* columns rows colors chars-per-pixel */
"50 50 66 1 ",
"  c #009EE4",
". c #009DE7",
"X c #009FE7",
"o c #009EE8",
"O c #009FE8",
"+ c #05A0E3",
"@ c #00A0E8",
"# c #00A1E8",
"$ c #00A2E8",
"% c #01A2E8",
"& c #03A3E8",
"* c #06A4E8",
"= c #07A4E8",
"- c #07A5E8",
"; c #08A5E8",
": c #09A5E8",
"> c #0FA7E8",
", c #1EADE7",
"< c #1FADE7",
"1 c #10A8E8",
"2 c #11A8E8",
"3 c #10A8E9",
"4 c #12A8E9",
"5 c #13A9E9",
"6 c #1EADE8",
"7 c #30B3E7",
"8 c #36B5E8",
"9 c #36B6EB",
"0 c #3AB7E9",
"q c #39B7EB",
"w c #41BAE9",
"e c #45BBE8",
"r c #44BAE9",
"t c #45BBE9",
"y c #47BBE8",
"u c #46BBE9",
"i c #5FC4EB",
"p c #60C5EB",
"a c #61C5EB",
"s c #65C7EE",
"d c #67C7EE",
"f c #6BC9EC",
"g c #7FD0E9",
"h c #83D1ED",
"j c #98D9EB",
"k c #85D2F0",
"l c #87D3F0",
"z c #95D8F1",
"x c #A1DCEF",
"c c #B0E2F5",
"v c #B1E2F5",
"b c #BEE7F3",
"n c #D0EDF4",
"m c #D9F1F6",
"M c #DAF1F6",
"N c #DBF2F6",
"B c #D8F1FA",
"V c #EBF7F9",
"C c #EBF8F9",
"Z c #F5FBFE",
"A c #F6FCFE",
"S c #F7FCFE",
"D c #F8FCFB",
"F c #FFFFFE",
"G c white",
"H c None",
/* pixels */
"HHHHHHHHHHHHHHHHHHHHHHHHHHHHHHHHHHHHHHHHHHHHHHHHHH",
"HHHHHHHHHHHHHHHHHHHHHHHHHHHHHHHHHHHHHHHHHHHHHHHHHH",
"HHHHHHHHHHHHHHHHHHHHHHHHHHHHHHHHHHHHHHHHHHHHHHHHHH",
"HHHHHHHHHHHHHHHHHHHHHHHHHHHHHHHHHHHHHHHHHHHHHHHHHH",
"HHHHHHHHHHHHHHHHHHHHHHHHHHHHHHHHHHHHHHHHHHHHHHHHHH",
"HHHHHHHHHHHHHHHHHHHHHHHHHHHHHHHHHHHHHHHHHHHHHHHHHH",
"HHHHHHHHHHHHHHHHHHHHHHHHHHHHHHHHHHHHHHHHHHHHHHHHHH",
"HHHHHHHHHHHHHHHHHHHHHHHHHHHHHHHHHHHHHHHHHHHHHHHHHH",
"HHHHHHHHHHHHHHHHHHHHHHHHHHHHHHHHHHHHHHHHHHHHHHHHHH",
"HHHHHHHHHHHHHHHHHHHHHHHHHHHHHHHHHHHHHHHHHHHHHHHHHH",
"HHHHHHHHHHHHHHHHHHHHHHHHHHHHHHHHHHHHHHHHHHHHHHHHHH",
"HHHHHHHHHHHHHHHHHHHHHHHHHHHHHHHHHHHHHHHHHHHHHHHHHH",
"HHHHHHHHHHHHHHHHHHHHHHHHHHHHHHHHHHHHHHHHHHHHHHHHHH",
"HHHHHHHHHHHHHHHHHHHHHHHHHHHHHHHHHHHHHHHHHHHHHHHHHH",
"HHHHHHHHHHHHHHHHHHHHHHHHHHHHHHHHHHHHHHHHHHHHHHHHHH",
"HHHHHHHHHHHHHHHHHHHHHHHHHHHHHHHHHHHHHHHHHHHHHHHHHH",
"HHHHHHHHHHHHHHHHHHHHHHHHHHHHHHHHHHHHHHHHHHHHHHHHHH",
"HHHHHHHHHHHHHHHHHHHHHHHHHHHHHHHHHHHHHHHHHHHHHHHHHH",
"HHHHHHHHHHHHHHHHHHHHHHHHHHHHHHHHHHHHHHHHHHHHHHHHHH",
"HHHHHHHHHHHHHHHHHHHHHHHHHHHHHHHHHHHHHHHHHHHHHHHHHH",
"HHHHHHHHHHHHHHHHHHHHHHHHHHHHHHHHHHHHHHHHHHHHHHHHHH",
"HHHHHHHHHHHHHHHHH*>-$@OHHHHHHHHHHHHHHHHHHHHHHHHHHH",
"HHHHHHHHHHHHHHH#1yfit7,1=$@OHHHHHHHHHHHHHHHHHHHHHH",
"HHHHHHHHHHHHHHH#;gNFABckpe7<2-$@HHHHHHHHHHHHHHHHHH",
"HHHHHHHHHHHHHHHH$0hbMCDFGSBvlau8&HHHHHHHHHHHHHHHHH",
"HHHHHHHHHHHHHHHHHo.@5qdzbmVDFGZxw%HHHHHHHHHHHHHHHH",
"HHHHHHHHHHHHHHHHHHHH#X..@49szbnjr$HHHHHHHHHHHHHHHH",
"HHHHHHHHHHHHHHHHHHHHHHHHH#+ .@36:#HHHHHHHHHHHHHHHH",
"HHHHHHHHHHHHHHHHHHHHHHHHHHHHHHHHHHHHHHHHHHHHHHHHHH",
"HHHHHHHHHHHHHHHHHHHHHHHHHHHHHHHHHHHHHHHHHHHHHHHHHH",
"HHHHHHHHHHHHHHHHHHHHHHHHHHHHHHHHHHHHHHHHHHHHHHHHHH",
"HHHHHHHHHHHHHHHHHHHHHHHHHHHHHHHHHHHHHHHHHHHHHHHHHH",
"HHHHHHHHHHHHHHHHHHHHHHHHHHHHHHHHHHHHHHHHHHHHHHHHHH",
"HHHHHHHHHHHHHHHHHHHHHHHHHHHHHHHHHHHHHHHHHHHHHHHHHH",
"HHHHHHHHHHHHHHHHHHHHHHHHHHHHHHHHHHHHHHHHHHHHHHHHHH",
"HHHHHHHHHHHHHHHHHHHHHHHHHHHHHHHHHHHHHHHHHHHHHHHHHH",
"HHHHHHHHHHHHHHHHHHHHHHHHHHHHHHHHHHHHHHHHHHHHHHHHHH",
"HHHHHHHHHHHHHHHHHHHHHHHHHHHHHHHHHHHHHHHHHHHHHHHHHH",
"HHHHHHHHHHHHHHHHHHHHHHHHHHHHHHHHHHHHHHHHHHHHHHHHHH",
"HHHHHHHHHHHHHHHHHHHHHHHHHHHHHHHHHHHHHHHHHHHHHHHHHH",
"HHHHHHHHHHHHHHHHHHHHHHHHHHHHHHHHHHHHHHHHHHHHHHHHHH",
"HHHHHHHHHHHHHHHHHHHHHHHHHHHHHHHHHHHHHHHHHHHHHHHHHH",
"HHHHHHHHHHHHHHHHHHHHHHHHHHHHHHHHHHHHHHHHHHHHHHHHHH",
"HHHHHHHHHHHHHHHHHHHHHHHHHHHHHHHHHHHHHHHHHHHHHHHHHH",
"HHHHHHHHHHHHHHHHHHHHHHHHHHHHHHHHHHHHHHHHHHHHHHHHHH",
"HHHHHHHHHHHHHHHHHHHHHHHHHHHHHHHHHHHHHHHHHHHHHHHHHH",
"HHHHHHHHHHHHHHHHHHHHHHHHHHHHHHHHHHHHHHHHHHHHHHHHHH",
"HHHHHHHHHHHHHHHHHHHHHHHHHHHHHHHHHHHHHHHHHHHHHHHHHH",
"HHHHHHHHHHHHHHHHHHHHHHHHHHHHHHHHHHHHHHHHHHHHHHHHHH",
"HHHHHHHHHHHHHHHHHHHHHHHHHHHHHHHHHHHHHHHHHHHHHHHHHH"
};
