/* XPM */
static char *projetil1___27[] = {
/* columns rows colors chars-per-pixel */
"50 50 65 1 ",
"  c #27A4DB",
". c #009EE5",
"X c #009DE6",
"o c #009CE7",
"O c #009DE7",
"+ c #009EE7",
"@ c #009FE8",
"# c #00A1E8",
"$ c #00A2E8",
"% c #04A3E8",
"& c #05A4E8",
"* c #06A4E8",
"= c #07A4E8",
"- c #0BA6E8",
"; c #15AAE7",
": c #16AAE8",
"> c #17AAE8",
", c #19ABE8",
"< c #21AEE8",
"1 c #24AFE8",
"2 c #24AFE9",
"3 c #2CB2E7",
"4 c #2DB2E7",
"5 c #26B0EA",
"6 c #28B1EA",
"7 c #29B1EB",
"8 c #2CB2E8",
"9 c #34B5E8",
"0 c #49BCE9",
"q c #4ABDE9",
"w c #4BBDE9",
"e c #64C6E9",
"r c #65C6EA",
"t c #62C6ED",
"y c #6AC8EA",
"u c #68C8EE",
"i c #69C8EE",
"p c #6BC9EE",
"a c #76CDED",
"s c #74CCEE",
"d c #77CDEE",
"f c #79CEEE",
"g c #A2DDF2",
"h c #A9DFF2",
"j c #B5E3EE",
"k c #AAE0F2",
"l c #ABE0F2",
"z c #AEE1F0",
"x c #B2E3F5",
"c c #B3E3F5",
"v c #B5E4F6",
"b c #CFEDF4",
"n c #D1EEF3",
"m c #D4EFF5",
"M c #D5EFF6",
"N c #D6F0F6",
"B c #E7F6FC",
"V c #E8F7FC",
"C c #E9F7FC",
"Z c #EFF9F9",
"A c #F0F9F9",
"S c #FFFFFD",
"D c #FFFFFE",
"F c #FFFFFF",
"G c None",
/* pixels */
"GGGGGGGGGGGGGGGGGGGGGGGGGGGGGGGGGGGGGGGGGGGGGGGGGG",
"GGGGGGGGGGGGGGGGGGGGGGGGGGGGGGGGGGGGGGGGGGGGGGGGGG",
"GGGGGGGGGGGGGGGGGGGGGGGGGGGGGGGGGGGGGGGGGGGGGGGGGG",
"GGGGGGGGGGGGGGGGGGGGGGGGGGGGGGGGGGGGGGGGGGGGGGGGGG",
"GGGGGGGGGGGGGGGGGGGGGGGGGGGGGGGGGGGGGGGGGGGGGGGGGG",
"GGGGGGGGGGGGGGGGGGGGGGGGGGGGGGGGGGGGGGGGGGGGGGGGGG",
"GGGGGGGGGGGGGGGGGGGGGGGGGGGGGGGGGGGGGGGGGGGGGGGGGG",
"GGGGGGGGGGGGGGGGGGGGGGGGGGGGGGGGGGGGGGGGGGGGGGGGGG",
"GGGGGGGGGGGGGGGGGGGGGGGGGGGGGGGGGGGGGGGGGGGGGGGGGG",
"GGGGGGGGGGGGGGGGGGGGGGGGGGGGGGGGGGGGGGGGGGGGGGGGGG",
"GGGGGGGGGGGGGGGGGGGGGGGGGGGGGGGGGGGGGGGGGGGGGGGGGG",
"GGGGGGGGGGGGGGGGGGGGGGGGGGGGGGGGGGGGGGGGGGGGGGGGGG",
"GGGGGGGGGGGGGGGGGGGGGGGGGGGGGGGGGGGGGGGGGGGGGGGGGG",
"GGGGGGGGGGGGGGGGGGGGGGGGGGGGGGGGGGGGGGGGGGGGGGGGGG",
"GGGGGGGGGGGGGGGGGGGGGGGGGGGGGGGGGGGGGGGGGGGGGGGGGG",
"GGGGGGGGGGGGGGGGGGGGGGGGGGGGGGGGGGGGGGGGGGGGGGGGGG",
"GGGGGGGGGGGGGGGGGGGGGGGGGGGGGGGGGGGGGGGGGGGGGGGGGG",
"GGGGGGGGGGGGGGGGGGGGGGGGGGGGGGGGGGGGGGGGGGGGGGGGGG",
"GGGGGGGGGGGGGGGGGGGGGGGGGGGGGGGGGGGGGGGGGGGGGGGGGG",
"GGGGGGGGGGGGGGGGGG$#GGGGGGGGGGGGGGGGGGGGGGGGGGGGGG",
"GGGGGGGGGGGGGGGGG#102O#GGGGGGGGGGGGGGGGGGGGGGGGGGG",
"GGGGGGGGGGGGGGGGG%yjbp$. GGGGGGGGGGGGGGGGGGGGGGGGG",
"GGGGGGGGGGGGGGGGG@9gFAk7X$GGGGGGGGGGGGGGGGGGGGGGGG",
"GGGGGGGGGGGGGGGGGG-8dBSmi#+GGGGGGGGGGGGGGGGGGGGGGG",
"GGGGGGGGGGGGGGGGGGG#;qxFZl5O$GGGGGGGGGGGGGGGGGGGGG",
"GGGGGGGGGGGGGGGGGGGG@*3sCSNu$+GGGGGGGGGGGGGGGGGGGG",
"GGGGGGGGGGGGGGGGGGGGGG#>0cFZh6o$GGGGGGGGGGGGGGGGGG",
"GGGGGGGGGGGGGGGGGGGGGGG@=4fVSMt$GGGGGGGGGGGGGGGGGG",
"GGGGGGGGGGGGGGGGGGGGGGGGG#:wvDnr&GGGGGGGGGGGGGGGGG",
"GGGGGGGGGGGGGGGGGGGGGGGGGG@=3aze#GGGGGGGGGGGGGGGGG",
"GGGGGGGGGGGGGGGGGGGGGGGGGGGG#><,*GGGGGGGGGGGGGGGGG",
"GGGGGGGGGGGGGGGGGGGGGGGGGGGGGGGGGGGGGGGGGGGGGGGGGG",
"GGGGGGGGGGGGGGGGGGGGGGGGGGGGGGGGGGGGGGGGGGGGGGGGGG",
"GGGGGGGGGGGGGGGGGGGGGGGGGGGGGGGGGGGGGGGGGGGGGGGGGG",
"GGGGGGGGGGGGGGGGGGGGGGGGGGGGGGGGGGGGGGGGGGGGGGGGGG",
"GGGGGGGGGGGGGGGGGGGGGGGGGGGGGGGGGGGGGGGGGGGGGGGGGG",
"GGGGGGGGGGGGGGGGGGGGGGGGGGGGGGGGGGGGGGGGGGGGGGGGGG",
"GGGGGGGGGGGGGGGGGGGGGGGGGGGGGGGGGGGGGGGGGGGGGGGGGG",
"GGGGGGGGGGGGGGGGGGGGGGGGGGGGGGGGGGGGGGGGGGGGGGGGGG",
"GGGGGGGGGGGGGGGGGGGGGGGGGGGGGGGGGGGGGGGGGGGGGGGGGG",
"GGGGGGGGGGGGGGGGGGGGGGGGGGGGGGGGGGGGGGGGGGGGGGGGGG",
"GGGGGGGGGGGGGGGGGGGGGGGGGGGGGGGGGGGGGGGGGGGGGGGGGG",
"GGGGGGGGGGGGGGGGGGGGGGGGGGGGGGGGGGGGGGGGGGGGGGGGGG",
"GGGGGGGGGGGGGGGGGGGGGGGGGGGGGGGGGGGGGGGGGGGGGGGGGG",
"GGGGGGGGGGGGGGGGGGGGGGGGGGGGGGGGGGGGGGGGGGGGGGGGGG",
"GGGGGGGGGGGGGGGGGGGGGGGGGGGGGGGGGGGGGGGGGGGGGGGGGG",
"GGGGGGGGGGGGGGGGGGGGGGGGGGGGGGGGGGGGGGGGGGGGGGGGGG",
"GGGGGGGGGGGGGGGGGGGGGGGGGGGGGGGGGGGGGGGGGGGGGGGGGG",
"GGGGGGGGGGGGGGGGGGGGGGGGGGGGGGGGGGGGGGGGGGGGGGGGGG",
"GGGGGGGGGGGGGGGGGGGGGGGGGGGGGGGGGGGGGGGGGGGGGGGGGG"
};
