/* XPM */
static char *projetil1___20[] = {
/* columns rows colors chars-per-pixel */
"50 50 52 1 ",
"  c #009EE7",
". c #009FE7",
"X c #009EE8",
"o c #009FE8",
"O c #09A0E1",
"+ c #00A0E8",
"@ c #00A1E8",
"# c #00A2E8",
"$ c #02A3E8",
"% c #03A3E8",
"& c #04A3E8",
"* c #06A4E8",
"= c #0AA5E8",
"- c #0BA6E8",
"; c #0AA6E9",
": c #0BA6E9",
"> c #0CA6E9",
", c #0DA7E9",
"< c #11A8E8",
"1 c #13A9E8",
"2 c #15A9E8",
"3 c #15AAE8",
"4 c #20AEE8",
"5 c #22AEE8",
"6 c #38B6E9",
"7 c #47BCE9",
"8 c #54C0E9",
"9 c #58C2EA",
"0 c #59C2EA",
"q c #5AC2EA",
"w c #6FCAE9",
"e c #77CDEB",
"r c #80D0EB",
"t c #A2DDF1",
"y c #A4DDF1",
"u c #A6DEF2",
"i c #A7DFF2",
"p c #A8DFF2",
"a c #A9DFF2",
"s c #BDE6EF",
"d c #ACE0F0",
"f c #DCF2FA",
"g c #E2F4F7",
"h c #E3F5FC",
"j c #E5F6FC",
"k c #E6F6FC",
"l c #E7F6FC",
"z c #F8FCFB",
"x c #FAFDFC",
"c c #FBFDFC",
"v c #FDFEFC",
"b c None",
/* pixels */
"bbbbbbbbbbbbbbbbbbbbbbbbbbbbbbbbbbbbbbbbbbbbbbbbbb",
"bbbbbbbbbbbbbbbbbbbbbbbbbbbbbbbbbbbbbbbbbbbbbbbbbb",
"bbbbbbbbbbbbbbbbbbbbbbbbbbbbbbbbbbbbbbbbbbbbbbbbbb",
"bbbbbbbbbbbbbbbbbbbbbbbbbbbbbbbbbbbbbbbbbbbbbbbbbb",
"bbbbbbbbbbbbbbbbbbbbbbbbbbbbbbbbbbbbbbbbbbbbbbbbbb",
"bbbbbbbbbbbbbbbbbbbbbbbbbbbbbbbbbbbbbbbbbbbbbbbbbb",
"bbbbbbbbbbbbbbbbbbbbbbbbbbbbbbbbbbbbbbbbbbbbbbbbbb",
"bbbbbbbbbbbbbbbbbbbbbbbbbbbbbbbbbbbbbbbbbbbbbbbbbb",
"bbbbbbbbbbbbbbbbbbbbbbbbbbbbbbbbbbbbbbbbbbbbbbbbbb",
"bbbbbbbbbbbbbbbbbbbbbbbbbbbbbbbbbbbbbbbbbbbbbbbbbb",
"bbbbbbbbbbbbbbbbbbbbbbbbbbbbbbbbbbbbbbbbbbbbbbbbbb",
"bbbbbbbbbbbbbbbbbbbbbbbbbbbbbbbbbbbbbbbbbbbbbbbbbb",
"bbbbbbbbbbbbbbbbbbbbbbbbbbbbbbbbbbbbbbbbbbbbbbbbbb",
"bbbbbbbbbbbbbbbbbbbbbbbbbbbbbbbbbbbbbbbbbbbbbbbbbb",
"bbbbbbbbbbbbbbbbbbbbbbbbbbbbbbbbbbbbbbbbbbbbbbbbbb",
"bbbbbbbbbbbbbbbbbbbbbbbbbbbbbbbbbbbbbbbbbbbbbbbbbb",
"bbbbbbbbbbbbbbbbbbbbbbbbbbbbbbbbbbbbbbbbbbbbbbbbbb",
"bbbbbbbbbbbbbbbbbbbbbbbbbbbbbbbbbbbbbbbbbbbbbbbbbb",
"bbbbbbbbbbbbbbbbbbbbbbbbbbbbX*$%@bbbbbbbbbbbbbbbbb",
"bbbbbbbbbbbbbbbbbbbbbbbbbbbo:ew5#bbbbbbbbbbbbbbbbb",
"bbbbbbbbbbbbbbbbbbbbbbbbbb ,ygd4bbbbbbbbbbbbbbbbbb",
"bbbbbbbbbbbbbbbbbbbbbbbbb :ich9<bbbbbbbbbbbbbbbbbb",
"bbbbbbbbbbbbbbbbbbbbbbbb.>pzk02+bbbbbbbbbbbbbbbbbb",
"bbbbbbbbbbbbbbbbbbbbbbb >uxk01+bbbbbbbbbbbbbbbbbbb",
"bbbbbbbbbbbbbbbbbbbbbb.>azj01obbbbbbbbbbbbbbbbbbbb",
"bbbbbbbbbbbbbbbbbbbbbO>uzl02+bbbbbbbbbbbbbbbbbbbbb",
"bbbbbbbbbbbbbbbbbbbbX;pxj01obbbbbbbbbbbbbbbbbbbbbb",
"bbbbbbbbbbbbbbbbbbbo,izk02obbbbbbbbbbbbbbbbbbbbbbb",
"bbbbbbbbbbbbbbbbbbb-tvk01+bbbbbbbbbbbbbbbbbbbbbbbb",
"bbbbbbbbbbbbbbbbbb#7sfq1obbbbbbbbbbbbbbbbbbbbbbbbb",
"bbbbbbbbbbbbbbbbbb#6r83+bbbbbbbbbbbbbbbbbbbbbbbbbb",
"bbbbbbbbbbbbbbbbbb@*&=obbbbbbbbbbbbbbbbbbbbbbbbbbb",
"bbbbbbbbbbbbbbbbbbbbbbbbbbbbbbbbbbbbbbbbbbbbbbbbbb",
"bbbbbbbbbbbbbbbbbbbbbbbbbbbbbbbbbbbbbbbbbbbbbbbbbb",
"bbbbbbbbbbbbbbbbbbbbbbbbbbbbbbbbbbbbbbbbbbbbbbbbbb",
"bbbbbbbbbbbbbbbbbbbbbbbbbbbbbbbbbbbbbbbbbbbbbbbbbb",
"bbbbbbbbbbbbbbbbbbbbbbbbbbbbbbbbbbbbbbbbbbbbbbbbbb",
"bbbbbbbbbbbbbbbbbbbbbbbbbbbbbbbbbbbbbbbbbbbbbbbbbb",
"bbbbbbbbbbbbbbbbbbbbbbbbbbbbbbbbbbbbbbbbbbbbbbbbbb",
"bbbbbbbbbbbbbbbbbbbbbbbbbbbbbbbbbbbbbbbbbbbbbbbbbb",
"bbbbbbbbbbbbbbbbbbbbbbbbbbbbbbbbbbbbbbbbbbbbbbbbbb",
"bbbbbbbbbbbbbbbbbbbbbbbbbbbbbbbbbbbbbbbbbbbbbbbbbb",
"bbbbbbbbbbbbbbbbbbbbbbbbbbbbbbbbbbbbbbbbbbbbbbbbbb",
"bbbbbbbbbbbbbbbbbbbbbbbbbbbbbbbbbbbbbbbbbbbbbbbbbb",
"bbbbbbbbbbbbbbbbbbbbbbbbbbbbbbbbbbbbbbbbbbbbbbbbbb",
"bbbbbbbbbbbbbbbbbbbbbbbbbbbbbbbbbbbbbbbbbbbbbbbbbb",
"bbbbbbbbbbbbbbbbbbbbbbbbbbbbbbbbbbbbbbbbbbbbbbbbbb",
"bbbbbbbbbbbbbbbbbbbbbbbbbbbbbbbbbbbbbbbbbbbbbbbbbb",
"bbbbbbbbbbbbbbbbbbbbbbbbbbbbbbbbbbbbbbbbbbbbbbbbbb",
"bbbbbbbbbbbbbbbbbbbbbbbbbbbbbbbbbbbbbbbbbbbbbbbbbb"
};
