/* XPM */
static char *nave1___10[] = {
/* columns rows colors chars-per-pixel */
"50 50 169 2 ",
"   c #090706",
".  c #0B0B0B",
"X  c #050404",
"o  c #080D1C",
"O  c #180F1B",
"+  c #140E1A",
"@  c #0B121A",
"#  c #131314",
"$  c #13151B",
"%  c #1B1A1B",
"&  c #181615",
"*  c #260816",
"=  c #3A0D18",
"-  c #231D1C",
";  c #1E1F21",
":  c #1F2124",
">  c #222223",
",  c #25262A",
"<  c #282A2C",
"1  c #26282A",
"2  c #302C2C",
"3  c #2C2E31",
"4  c #2E3033",
"5  c #2E333A",
"6  c #313334",
"7  c #343739",
"8  c #35393C",
"9  c #3B3B3D",
"0  c #393333",
"q  c #480D17",
"w  c #540C16",
"e  c #59151B",
"r  c #771A1A",
"t  c #78191B",
"y  c #7C1418",
"u  c #7A1C21",
"i  c #403D3F",
"p  c #3A3D41",
"a  c #413E40",
"s  c #3D4144",
"d  c #3E4B4B",
"f  c #414346",
"g  c #424548",
"h  c #46494C",
"j  c #4A4B4E",
"k  c #464545",
"l  c #4B4E51",
"z  c #444D51",
"x  c #4C5255",
"c  c #4F5B5C",
"v  c #515253",
"b  c #52565A",
"n  c #54595E",
"m  c #575C62",
"M  c #595E61",
"N  c #5C646A",
"B  c #5A6467",
"V  c #626465",
"C  c #61656B",
"Z  c #64696D",
"A  c #6E6B6D",
"S  c #666B71",
"D  c #6C6E76",
"F  c #637575",
"G  c #6D7175",
"H  c #67787A",
"J  c #767B7C",
"K  c #76777B",
"L  c #9F2B18",
"P  c #9D2814",
"I  c #8F2526",
"U  c #992421",
"Y  c #BE3828",
"T  c #CA3619",
"R  c #EE3426",
"E  c #C04B13",
"W  c #D05416",
"Q  c #E66327",
"!  c #F56F29",
"~  c #F54F46",
"^  c #F57F48",
"/  c #F78556",
"(  c #FE915F",
")  c #FF9461",
"_  c #FDA67B",
"`  c #757A80",
"'  c #797E83",
"]  c #817E81",
"[  c #6F8386",
"{  c #748485",
"}  c #7A8086",
"|  c #7D848B",
" . c #75898C",
".. c #7D8E92",
"X. c #779090",
"o. c #7A9593",
"O. c #7E9899",
"+. c #818284",
"@. c #848688",
"#. c #8A898B",
"$. c #848C94",
"%. c #8E8E91",
"&. c #8C9293",
"*. c #86959B",
"=. c #8A939B",
"-. c #829D9E",
";. c #899A9F",
":. c #949294",
">. c #84A29E",
",. c #859EA0",
"<. c #8A9DA2",
"1. c #939FA8",
"2. c #9199A0",
"3. c #A09FA2",
"4. c #8CA2A6",
"5. c #8EA5A9",
"6. c #8BAAAA",
"7. c #92A7AB",
"8. c #9BA5AF",
"9. c #92AAAD",
"0. c #99A3A3",
"q. c #9CA6B0",
"w. c #92AEB1",
"e. c #99A9B2",
"r. c #94B3B4",
"t. c #9CB3B4",
"y. c #9BBDBD",
"u. c #9EB5BB",
"i. c #A5A5A6",
"p. c #A6A9AB",
"a. c #A9A9AA",
"s. c #A2ADB6",
"d. c #A1B8B6",
"f. c #A5B3BD",
"g. c #A9B4BE",
"h. c #A1B9BF",
"j. c #B2B4B5",
"k. c #BABBBB",
"l. c #FCB383",
"z. c #8FC4BC",
"x. c #9CC0BB",
"c. c #FDE6A0",
"v. c #9DBFC0",
"b. c #A4BDC1",
"n. c #AABDC6",
"m. c #B4BFC0",
"M. c #B0BCC9",
"N. c #91CBC2",
"B. c #9BCDC5",
"V. c #A3C5C5",
"C. c #ACC1CA",
"Z. c #A5CCC8",
"A. c #A9CDCC",
"S. c #BFC4C4",
"D. c #B1CFCE",
"F. c #B8C8CD",
"G. c #B1D0CE",
"H. c #B8D1CE",
"J. c #B3C8D0",
"K. c #B7D5D3",
"L. c #BCDBD9",
"P. c #BBD7D5",
"I. c #C6C5C5",
"U. c #CADDDB",
"Y. c #D0D2D2",
"T. c #CFE7E4",
"R. c #DEE1E2",
"E. c #EBEFEF",
"W. c None",
/* pixels */
"W.W.W.W.W.W.W.W.W.W.W.W.W.W.W.W.W.W.W.W.W.W.W.W.W.W.W.W.W.W.W.W.W.W.W.W.W.W.W.W.W.W.W.W.W.W.W.W.W.W.",
"W.W.W.W.W.W.W.W.W.W.W.W.W.W.W.W.W.W.W.W.W.W.W.W.W.W.W.W.W.W.W.W.W.W.W.W.W.W.W.W.W.W.W.W.W.W.W.W.W.W.",
"W.W.W.W.W.W.W.W.W.W.W.W.W.W.W.W.W.W.W.W.W.W.W.W.W.W.W.W.W.W.W.W.W.W.W.W.W.W.W.W.W.W.W.W.W.W.W.W.W.W.",
"W.W.W.W.W.W.W.W.W.W.W.W.W.W.W.W.W.W.W.W.W.W.W.W.W.W.W.W.W.W.W.W.W.W.W.W.W.W.W.W.W.W.W.W.W.W.W.W.W.W.",
"W.W.W.W.W.W.W.W.W.W.W.W.W.W.W.W.W.W.W.W.W.W.W.W.W.W.W.W.W.W.W.W.W.W.W.W.W.W.W.W.W.W.W.W.W.W.W.W.W.W.",
"W.W.W.W.W.W.W.W.W.W.W.W.W.W.W.W.W.W.W.W.W.W.W.W.W.W.W.W.W.W.W.W.W.W.W.W.W.W.W.W.W.W.W.W.W.W.W.W.W.W.",
"W.W.W.W.W.W.W.W.W.W.W.W.W.W.W.W.W.W.W.W.. W.W.W.W.W.W.W.W.W.W.W.W.W.W.W.W.W.W.W.W.W.W.W.W.W.W.W.W.W.",
"W.W.W.W.W.W.W.W.W.W.W.W.W.W.W.W.W.W.W.  < 4 %   W.W.W.W.W.W.W.W.W.W.W.W.W.W.W.W.W.W.W.W.W.W.W.W.W.W.",
"W.W.W.W.W.W.W.W.W.W.W.W.W.W.W.W.W.W.W.# h p p s 8 # W.W.W.W.W.W.W.W.W.W.W.W.W.W.W.W.W.W.W.W.W.W.W.W.",
"W.W.W.W.W.W.W.W.W.W.W.W.W.W.W.W.W.W.W.W.$ 5 x | $.Z h > W.W.W.W.W.W.W.W.W.W.W.W.W.W.W.W.W.W.W.W.W.W.",
"W.W.W.W.W.W.W.W.W.W.W.W.W.W.W.W.W.W.W.W.W.# x q.J.7.` S g W.W.W.W.W.W.W.W.W.W.W.W.W.W.W.W.W.W.W.W.W.",
"W.W.W.W.W.W.W.W.W.W.W.W.W.W.W.W.W.W.W.W.W.W.: M -.y.7.$.m W.W.W.W.W.W.W.W.W.W.W.W.W.W.W.W.W.W.W.W.W.",
"W.W.W.W.W.W.W.W.W.W.W.W.W.W.W.W.W.W.W.W.W.W.% , z B.L.Z...3 W.W.W.W.W.W.W.W.W.W.W.W.W.W.W.W.W.W.W.W.",
"W.W.W.W.W.W.W.W.W.W.W.W.W.W._ / ! ~ W.W.W.W.: <  .K.T.K.-.p W.W.W.W.W.W.W.W.W.W.W.W.W.W.W.W.W.W.W.W.",
"W.W.W.W.W.W.W.W.W.W.W.W.W.l.) Q L u e W.W.; : 8 r.b.G.A.F 8 W.W.W.W.W.W.W.W.W.W.W.W.W.W.W.W.W.W.W.W.",
"W.W.W.W.W.W.W.W.W.W.W.W.W.W./ W r q + $ d D D [ r.<.9.6.c W.W.W.W.W.W.W.W.W.W.W.W.W.W.W.W.W.W.W.W.W.",
"W.W.W.W.W.W.W.W.W.W.W.W.W.W.W.T y = o 5 N =.n.V.<.*.<.<.N W.W.W.W.W.W.W.W.W.W.W.W.W.W.W.W.W.W.W.W.W.",
"W.W.W.W.W.W.W.W.W.W.W.W.W.W.W.W.U W.@ s ' q.M.y.=.<.5.w.<.p W.W.W.W.W.W.W.W.W.W.W.W.W.W.W.W.W.W.W.W.",
"W.W.W.W.W.W.W.W.W.W.W.W.W.W.W.W.W.W.W.h @.M.o.6.9.6.w.v.1., W.W.W.W.W.W.W.W.W.W.W.W.W.W.W.W.W.W.W.W.",
"W.W.W.W.W.W.W.W.W.W.W.W.W.W.W.W.W.W.W.4 C $.h 4 c o.y.n.8.g W.W.W.W.W.W.W.W.W.W.W.W.W.W.W.W.W.W.W.W.",
"W.W.W.W.W.W.W.W.W.W.W.W.W.W.W.W.W.W.& - - ] &.Z s p O.C.8.S W.W.W.W.W.W.W.W.W.W.W.W.W.W.W.W.W.W.W.W.",
"W.W.W.W.W.W.W.W.W.W.W.W.W.W.W.W.W.% 2 i 0 d.K.d.G n [ u.n.1.6 W.W.W.W.W.W.W.W.W.W.W.W.W.W.W.W.W.W.W.",
"W.W.W.W.W.W.W.W.W.W.W.W.W.W.W.W.& > j K C { k.p.Z j x H X.<.h   W.W.W.W.W.W.W.W.W.W.W.W.W.W.W.W.W.W.",
"W.W.W.W.W.W.W.W.W.W.W.W.W.W.W.W.W.% i D l k :.A V 3.#.v x H Z h W.W.W.W.W.W.W.W.W.W.W.W.W.W.W.W.W.W.",
"W.W.W.W.W.W.W.W.c.l.( Q Y I W.W.W.& - k >.} 3.0 F x.P.S.J J d.@.7 W.W.W.W.W.W.W.W.W.W.W.W.W.W.W.W.W.",
"W.W.W.W.W.W.W.W.W._ ^ E t w ; W.p j 9 #.P.I.%.v o.z.N.x.o.J ' @.l > W.W.W.W.W.W.W.W.W.W.W.W.W.W.W.W.",
"W.W.W.W.W.W.W.W.W.W.Q P w * @ 5 Z =.&.@.0.t.K G m.U.Z.z.x.k.p.p.3.+.1 W.W.W.W.W.W.W.W.W.W.W.W.W.W.W.",
"W.W.W.W.W.W.W.W.W.W.W.R t O ; z | f.*.7 j F B h v J j.{ &.k.I.Y.E.j.7 W.W.W.W.W.W.W.W.W.W.W.W.W.W.W.",
"W.W.W.W.W.W.W.W.W.W.W.W.W.W.: n $.M.r.X.c 4 x F F n x V @.G i.Y.E.} k - W.W.W.W.W.W.W.W.W.W.W.W.W.W.",
"W.W.W.W.W.W.W.W.W.W.W.W.W.W.W.m 0.C.v.<.5.-.>.b.h.;.H { s.;.J i.I.v f # . W.W.W.W.W.W.W.W.W.W.W.W.W.",
"W.W.W.W.W.W.W.W.W.W.W.W.W.W.W.; p w.7.*.4.w.y.n.s.h.*.f n n 0 9 f > W.W.W.W.W.W.W.W.W.W.W.W.W.W.W.W.",
"W.W.W.W.W.W.W.W.W.W.W.W.W.W.$ , p r.*.*.4.r.C.q.G n 6   # W.W.. W.W.W.W.W.W.W.W.W.W.W.W.W.W.W.W.W.W.",
"W.W.W.W.W.W.W.W.W.W.# W.W.# ; , H y.5.4.5.w.e.8 W.W.W.W.W.W.W.W.W.W.W.W.W.W.W.W.W.W.W.W.W.W.W.W.W.W.",
"W.W.W.W.W.W.W.W.W., p < 3 m m 7 6.L.K.y. .N m > W.W.W.W.W.W.W.W.W.W.W.W.W.W.W.W.W.W.W.W.W.W.W.W.W.W.",
"W.W.W.W.W.W.W.W.  4 s s C q.b.5.A.T.L.v.m : W.W.W.W.W.W.W.W.W.W.W.W.W.W.W.W.W.W.W.W.W.W.W.W.W.W.W.W.",
"W.W.W.W.W.W.W.W.W.. % 3 m =.v.5.r.A.A.O.d W.W.W.W.W.W.W.W.W.W.W.W.W.W.W.W.W.W.W.W.W.W.W.W.W.W.W.W.W.",
"W.W.W.W.W.W.W.W.W.W.W.X + s S ' | $.{ x < W.W.W.W.W.W.W.W.W.W.W.W.W.W.W.W.W.W.W.W.W.W.W.W.W.W.W.W.W.",
"W.W.W.W.W.W.W.W.W.W.W.W.W.W.  3 n l 4 W.W.W.W.W.W.W.W.W.W.W.W.W.W.W.W.W.W.W.W.W.W.W.W.W.W.W.W.W.W.W.",
"W.W.W.W.W.W.W.W.W.W.W.W.W.W.W.W.W.W.W.W.W.W.W.W.W.W.W.W.W.W.W.W.W.W.W.W.W.W.W.W.W.W.W.W.W.W.W.W.W.W.",
"W.W.W.W.W.W.W.W.W.W.W.W.W.W.W.W.W.W.W.W.W.W.W.W.W.W.W.W.W.W.W.W.W.W.W.W.W.W.W.W.W.W.W.W.W.W.W.W.W.W.",
"W.W.W.W.W.W.W.W.W.W.W.W.W.W.W.W.W.W.W.W.W.W.W.W.W.W.W.W.W.W.W.W.W.W.W.W.W.W.W.W.W.W.W.W.W.W.W.W.W.W.",
"W.W.W.W.W.W.W.W.W.W.W.W.W.W.W.W.W.W.W.W.W.W.W.W.W.W.W.W.W.W.W.W.W.W.W.W.W.W.W.W.W.W.W.W.W.W.W.W.W.W.",
"W.W.W.W.W.W.W.W.W.W.W.W.W.W.W.W.W.W.W.W.W.W.W.W.W.W.W.W.W.W.W.W.W.W.W.W.W.W.W.W.W.W.W.W.W.W.W.W.W.W.",
"W.W.W.W.W.W.W.W.W.W.W.W.W.W.W.W.W.W.W.W.W.W.W.W.W.W.W.W.W.W.W.W.W.W.W.W.W.W.W.W.W.W.W.W.W.W.W.W.W.W.",
"W.W.W.W.W.W.W.W.W.W.W.W.W.W.W.W.W.W.W.W.W.W.W.W.W.W.W.W.W.W.W.W.W.W.W.W.W.W.W.W.W.W.W.W.W.W.W.W.W.W.",
"W.W.W.W.W.W.W.W.W.W.W.W.W.W.W.W.W.W.W.W.W.W.W.W.W.W.W.W.W.W.W.W.W.W.W.W.W.W.W.W.W.W.W.W.W.W.W.W.W.W.",
"W.W.W.W.W.W.W.W.W.W.W.W.W.W.W.W.W.W.W.W.W.W.W.W.W.W.W.W.W.W.W.W.W.W.W.W.W.W.W.W.W.W.W.W.W.W.W.W.W.W.",
"W.W.W.W.W.W.W.W.W.W.W.W.W.W.W.W.W.W.W.W.W.W.W.W.W.W.W.W.W.W.W.W.W.W.W.W.W.W.W.W.W.W.W.W.W.W.W.W.W.W.",
"W.W.W.W.W.W.W.W.W.W.W.W.W.W.W.W.W.W.W.W.W.W.W.W.W.W.W.W.W.W.W.W.W.W.W.W.W.W.W.W.W.W.W.W.W.W.W.W.W.W.",
"W.W.W.W.W.W.W.W.W.W.W.W.W.W.W.W.W.W.W.W.W.W.W.W.W.W.W.W.W.W.W.W.W.W.W.W.W.W.W.W.W.W.W.W.W.W.W.W.W.W."
};
