/* XPM */
static char *nave1___2[] = {
/* columns rows colors chars-per-pixel */
"50 50 169 2 ",
"   c #090706",
".  c #0B0B0B",
"X  c #050404",
"o  c #080D1C",
"O  c #180F1B",
"+  c #140E1A",
"@  c #0B121A",
"#  c #131314",
"$  c #13151B",
"%  c #1B1A1B",
"&  c #181615",
"*  c #260816",
"=  c #3A0D18",
"-  c #231D1C",
";  c #1E1F21",
":  c #1F2124",
">  c #222223",
",  c #25262A",
"<  c #282A2C",
"1  c #26282A",
"2  c #302C2C",
"3  c #2C2E31",
"4  c #2E3033",
"5  c #2E333A",
"6  c #313334",
"7  c #343739",
"8  c #35393C",
"9  c #3B3B3D",
"0  c #393333",
"q  c #480D17",
"w  c #540C16",
"e  c #59151B",
"r  c #771A1A",
"t  c #78191B",
"y  c #7C1418",
"u  c #7A1C21",
"i  c #403D3F",
"p  c #3A3D41",
"a  c #413E40",
"s  c #3D4144",
"d  c #3E4B4B",
"f  c #414346",
"g  c #424548",
"h  c #46494C",
"j  c #4A4B4E",
"k  c #464545",
"l  c #4B4E51",
"z  c #444D51",
"x  c #4C5255",
"c  c #4F5B5C",
"v  c #515253",
"b  c #52565A",
"n  c #54595E",
"m  c #575C62",
"M  c #595E61",
"N  c #5C646A",
"B  c #5A6467",
"V  c #626465",
"C  c #61656B",
"Z  c #64696D",
"A  c #6E6B6D",
"S  c #666B71",
"D  c #6C6E76",
"F  c #637575",
"G  c #6D7175",
"H  c #67787A",
"J  c #767B7C",
"K  c #76777B",
"L  c #9F2B18",
"P  c #9D2814",
"I  c #8F2526",
"U  c #992421",
"Y  c #BE3828",
"T  c #CA3619",
"R  c #EE3426",
"E  c #C04B13",
"W  c #D05416",
"Q  c #E66327",
"!  c #F56F29",
"~  c #F54F46",
"^  c #F57F48",
"/  c #F78556",
"(  c #FE915F",
")  c #FF9461",
"_  c #FDA67B",
"`  c #757A80",
"'  c #797E83",
"]  c #817E81",
"[  c #6F8386",
"{  c #748485",
"}  c #7A8086",
"|  c #7D848B",
" . c #75898C",
".. c #7D8E92",
"X. c #779090",
"o. c #7A9593",
"O. c #7E9899",
"+. c #818284",
"@. c #848688",
"#. c #8A898B",
"$. c #848C94",
"%. c #8E8E91",
"&. c #8C9293",
"*. c #86959B",
"=. c #8A939B",
"-. c #829D9E",
";. c #899A9F",
":. c #949294",
">. c #84A29E",
",. c #859EA0",
"<. c #8A9DA2",
"1. c #939FA8",
"2. c #9199A0",
"3. c #A09FA2",
"4. c #8CA2A6",
"5. c #8EA5A9",
"6. c #8BAAAA",
"7. c #92A7AB",
"8. c #9BA5AF",
"9. c #92AAAD",
"0. c #99A3A3",
"q. c #9CA6B0",
"w. c #92AEB1",
"e. c #99A9B2",
"r. c #94B3B4",
"t. c #9CB3B4",
"y. c #9BBDBD",
"u. c #9EB5BB",
"i. c #A5A5A6",
"p. c #A6A9AB",
"a. c #A9A9AA",
"s. c #A2ADB6",
"d. c #A1B8B6",
"f. c #A5B3BD",
"g. c #A9B4BE",
"h. c #A1B9BF",
"j. c #B2B4B5",
"k. c #BABBBB",
"l. c #FCB383",
"z. c #8FC4BC",
"x. c #9CC0BB",
"c. c #FDE6A0",
"v. c #9DBFC0",
"b. c #A4BDC1",
"n. c #AABDC6",
"m. c #B4BFC0",
"M. c #B0BCC9",
"N. c #91CBC2",
"B. c #9BCDC5",
"V. c #A3C5C5",
"C. c #ACC1CA",
"Z. c #A5CCC8",
"A. c #A9CDCC",
"S. c #BFC4C4",
"D. c #B1CFCE",
"F. c #B8C8CD",
"G. c #B1D0CE",
"H. c #B8D1CE",
"J. c #B3C8D0",
"K. c #B7D5D3",
"L. c #BCDBD9",
"P. c #BBD7D5",
"I. c #C6C5C5",
"U. c #CADDDB",
"Y. c #D0D2D2",
"T. c #CFE7E4",
"R. c #DEE1E2",
"E. c #EBEFEF",
"W. c None",
/* pixels */
"W.W.W.W.W.W.W.W.W.W.W.W.W.W.W.W.W.W.W.W.W.W.W.W.W.W.W.W.W.W.W.W.W.W.W.W.W.W.W.W.W.W.W.W.W.W.W.W.W.W.",
"W.W.W.W.W.W.W.W.W.W.W.W.W.W.W.W.W.W.W.W.W.W.W.W.W.W.W.W.W.W.W.W.W.W.W.W.W.W.W.W.W.W.W.W.W.W.W.W.W.W.",
"W.W.W.W.W.W.W.W.W.W.W.W.W.W.W.W.W.W.W.W.W.W.W.W.W.W.W.W.W.W.W.W.W.W.W.W.W.W.W.W.W.W.W.W.W.W.W.W.W.W.",
"W.W.W.W.W.W.W.W.W.W.W.W.W.W.W.W.W.W.W.W.W.W.W.W.W.W.W.W.W.W.W.W.W.W.W.W.W.W.W.W.W.W.W.W.W.W.W.W.W.W.",
"W.W.W.W.W.W.W.W.W.W.W.W.W.W.W.W.W.W.W.W.W.W.W.W.W.W.W.W.W.W.W.W.W.W.W.W.W.W.W.W.W.W.W.W.W.W.W.W.W.W.",
"W.W.W.W.W.W.W.W.W.W.W.W.W.W.W.W.W.W.W.W.W.W.W.W.W.W.W.W.W.W.W.W.W.W.W.W.W.W.W.W.W.W.W.W.W.W.W.W.W.W.",
"W.W.W.W.W.W.W.W.W.W.W.W.W.W.W.W.W.W.W.W.W.W.W.W.W.W.W.W.W.W.W.W.W.W.W.W.W.W.W.W.W.W.W.W.W.W.W.W.W.W.",
"W.W.W.W.W.W.W.W.W.W.W.W.W.W.W.W.W.W.W.W.W.W.W.W.W.W.W.W.W.W.W.W.W.W.W.W.W.W.W.W.W.W.W.W.W.W.W.W.W.W.",
"W.W.W.W.W.W.W.W.W.W.W.W.W.W.W.W.W.W.W.W.W.W.W.W.W.W.W.W.W.W.W.W.W.W.W.W.W.W.W.W.W.W.W.W.W.W.W.W.W.W.",
"W.W.W.W.W.W.W.W.W.W.W.W.W.W.W.W.W.W.W.W.W.W.W.W.W.W.W.W.W.W.W.W.W.W.W.W.W.W.W.W.W.W.W.W.W.W.W.W.W.W.",
"W.W.W.W.W.W.W.W.W.W.W.W.W.W.W.W.W.W.W.W.W.W.W.W.W.W.W.W.W.W.W.W.W.W.W.W.W.W.W.W.W.W.W.W.W.W.W.W.W.W.",
"W.W.W.W.W.W.W.W.W.W.W.W.W.W.W.W.W.W.W.W.W.W.W.W.W.W.W.W.W.W.W.W.W.W.W.W.W.W.W.W.W.W.W.W.W.W.W.W.W.W.",
"W.W.W.W.W.W.W.W.W.W.W.W.W.W.W.W.W.W.W.W.W.W.W.W.W.W.W.W.W.W.W.W.W.W.W.W.W.W.W.W.W.W.W.W.W.W.W.W.W.W.",
"W.W.W.W.W.W.W.W.W.W.W.W.W.W.W.W.W.W.W.W.W.W.W.W.W.W.W.W.W.. W.W.W.W.W.W.W.W.W.W.W.W.W.W.W.W.W.W.W.W.",
"W.W.W.W.W.W.W.W.W.W.W.W.W.W.W.W.W.W.W.W.W.W.W.W.W.W.W.W.> . W.W.W.W.W.W.W.W.W.W.W.W.W.W.W.W.W.W.W.W.",
"W.W.W.W.W.W.W.W.W.W.W.W.W.W.W.W.W.W.W.W.W.W.W.W.W.W.1 7 h f W.W.W.W.W.W.W.W.W.W.W.W.W.W.W.W.W.W.W.W.",
"W.W.W.W.W.W.W.W.W.W.W.W.W.W.W.W.W.W.W.W.W.W.W.W.W.1 @.j.@.l > W.W.W.W.W.W.W.W.W.W.W.W.W.W.W.W.W.W.W.",
"W.W.W.W.W.W.W.W.W.W.W.W.W.W.W.W.W.W.W.W.W.W.W.W.7 l i.R.E.S.f W.W.W.W.W.W.W.W.W.W.W.W.W.W.W.W.W.W.W.",
"W.W.W.W.W.W.W.W.W.W.W.W.W.W.W.W.W.W.W.W.W.W.. k | @.i.Y.Y.i.9 . W.W.W.W.W.W.W.W.W.W.W.W.W.W.W.W.W.W.",
"W.W.W.W.W.W.W.W.W.W.W.W.W.W.W.W.W.W.W.W.W.6 h Z g.J p.I.i.K 7 W.W.W.W.W.W.W.W.W.W.W.W.W.W.W.W.W.W.W.",
"W.W.W.W.W.W.W.W.W.W.W.W.5 p 5 W.W.p , f S 1.4.F J J k.k.G ;.b W.W.W.W.W.W.W.W.W.W.W.W.W.W.W.W.W.W.W.",
"W.W.W.W.W.W.W.W.W.W.s m ..O.F c N 2.<.8.q.n.X.x K *.x.&.@.s.n # W.W.W.W.W.W.W.W.W.W.W.W.W.W.W.W.W.W.",
"W.W.W.W.W.W.W.W.W.> S $.V.L.A.6.4.r.b.V.M.u.F b S.B.z.J C } k   W.W.W.W.W.W.W.W.W.W.W.W.W.W.W.W.W.W.",
"W.W.W.W.W.W.W.W.W.z ` 9.L.T.G.w.4.4.9.y.O.[ x #.K.z.Z.j.x H *.6 W.W.W.W.W.W.W.W.W.W.W.W.W.W.W.W.W.W.",
"W.W.W.W.W.W.W.W.# C 7.v.V.K.v.<.*.;.5.o.i n h i.x.z.U.J c ;.h.n W.W.W.W.W.W.W.W.W.W.W.W.W.W.W.W.W.W.",
"W.W.W.W.W.W.W.W.7 $.J.,.z  .r.r.;.*.w.b d G V V H o.k.v F d.s.G W.W.W.W.W.W.W.W.W.W.W.W.W.W.W.W.W.W.",
"W.W.W.W.W.W.W.. s | q.N : < p ` V.y.6.4 Z d.a.A 0 v G k F b.n.q.8 > W.W.W.W.W.W.W.W.W.W.W.W.W.W.W.W.",
"W.W.W.W.W.W.W.% p x l : ; ; ; H g.C.o.j &.H.m.:.0.&.J V x >.y.C.e.m W.W.W.W.W.W.W.W.W.W.W.W.W.W.W.W.",
"W.W.W.W.W.W.W.3 g 4 # W.W.W.: G *.q.M.$.] d.{ k | I.t.N 6 O.r.r.e.N : W.W.W.W.W.W.W.W.W.W.W.W.W.W.W.",
"W.W.W.W.W.W.. < g & W.W.W.W.W.g C } @.C - 0 Z l >.P.7.l c 6.4.4.7. .c d 1 W.W.W.W.W.W.W.W.W.W.W.W.W.",
"W.W.W.W.W.W.W.. # W.W.W.W.W.W.@ 5 s h 4 - 9 J G k #.@.9 X.<.*.*.<.v.B.O.x W.W.W.W.W.W.W.W.W.W.W.W.W.",
"W.W.W.W.W.W.W.W.W.W.W.W.W.W.e + o @ W.W.& < j a - i $.=.r.v.9.*.7.D.P.A.{ 4 W.W.W.W.W.W.W.W.W.W.W.W.",
"W.W.W.W.W.W.W.W.W.W.W.W.W.~ u q = W.W.W.W.% > % & j =.g.n.M.w.r.y.L.T.A.$.l W.W.W.W.W.W.W.W.W.W.W.W.",
"W.W.W.W.W.W.W.W.W.W.W.W.W.! L r y U W.W.W.W.& W.W.9 C | =.1.p p H 6.A.r.| n W.W.W.W.W.W.W.W.W.W.W.W.",
"W.W.W.W.W.W.W.W.W.W.W.W.W./ Q W T W.W.W.W.W.W.W.W.W.5 x m m ; , , 6 6.7.' 3 W.W.W.W.W.W.W.W.W.W.W.W.",
"W.W.W.W.W.W.W.W.W.W.W.W.W._ ) / W.W.W.W.W.W.W.W.W.+ o ; : W.W.# ; n b.b.S . W.W.W.W.W.W.W.W.W.W.W.W.",
"W.W.W.W.W.W.W.W.W.W.W.W.W.W.l.W.W.W.W.W.W.W.W.W.I e * O W.W.W.W.$ m q.2.p W.W.W.W.W.W.W.W.W.W.W.W.W.",
"W.W.W.W.W.W.W.W.W.W.W.W.W.W.W.W.W.W.W.W.W.W.W.W.Y t w t W.W.W.W.W.3 C m $ W.W.W.W.W.W.W.W.W.W.W.W.W.",
"W.W.W.W.W.W.W.W.W.W.W.W.W.W.W.W.W.W.W.W.W.W.W.W.Q E P R W.W.W.W.W.3 s 3 X W.W.W.W.W.W.W.W.W.W.W.W.W.",
"W.W.W.W.W.W.W.W.W.W.W.W.W.W.W.W.W.W.W.W.W.W.W.W.( ^ Q W.W.W.W.W.. p p % W.W.W.W.W.W.W.W.W.W.W.W.W.W.",
"W.W.W.W.W.W.W.W.W.W.W.W.W.W.W.W.W.W.W.W.W.W.W.W.l._ W.W.W.W.W.W.W., 3 . W.W.W.W.W.W.W.W.W.W.W.W.W.W.",
"W.W.W.W.W.W.W.W.W.W.W.W.W.W.W.W.W.W.W.W.W.W.W.W.c.W.W.W.W.W.W.W.W.W.. W.W.W.W.W.W.W.W.W.W.W.W.W.W.W.",
"W.W.W.W.W.W.W.W.W.W.W.W.W.W.W.W.W.W.W.W.W.W.W.W.W.W.W.W.W.W.W.W.W.W.W.W.W.W.W.W.W.W.W.W.W.W.W.W.W.W.",
"W.W.W.W.W.W.W.W.W.W.W.W.W.W.W.W.W.W.W.W.W.W.W.W.W.W.W.W.W.W.W.W.W.W.W.W.W.W.W.W.W.W.W.W.W.W.W.W.W.W.",
"W.W.W.W.W.W.W.W.W.W.W.W.W.W.W.W.W.W.W.W.W.W.W.W.W.W.W.W.W.W.W.W.W.W.W.W.W.W.W.W.W.W.W.W.W.W.W.W.W.W.",
"W.W.W.W.W.W.W.W.W.W.W.W.W.W.W.W.W.W.W.W.W.W.W.W.W.W.W.W.W.W.W.W.W.W.W.W.W.W.W.W.W.W.W.W.W.W.W.W.W.W.",
"W.W.W.W.W.W.W.W.W.W.W.W.W.W.W.W.W.W.W.W.W.W.W.W.W.W.W.W.W.W.W.W.W.W.W.W.W.W.W.W.W.W.W.W.W.W.W.W.W.W.",
"W.W.W.W.W.W.W.W.W.W.W.W.W.W.W.W.W.W.W.W.W.W.W.W.W.W.W.W.W.W.W.W.W.W.W.W.W.W.W.W.W.W.W.W.W.W.W.W.W.W.",
"W.W.W.W.W.W.W.W.W.W.W.W.W.W.W.W.W.W.W.W.W.W.W.W.W.W.W.W.W.W.W.W.W.W.W.W.W.W.W.W.W.W.W.W.W.W.W.W.W.W.",
"W.W.W.W.W.W.W.W.W.W.W.W.W.W.W.W.W.W.W.W.W.W.W.W.W.W.W.W.W.W.W.W.W.W.W.W.W.W.W.W.W.W.W.W.W.W.W.W.W.W."
};
