/* XPM */
static char *nave1___28[] = {
/* columns rows colors chars-per-pixel */
"50 50 162 2 ",
"   c #0B0A0A",
".  c #0A0F1D",
"X  c #07111A",
"o  c #141414",
"O  c #191616",
"+  c #161718",
"@  c #171819",
"#  c #191A1A",
"$  c #240D19",
"%  c #271F1E",
"&  c #171D23",
"*  c #1E2229",
"=  c #1F2124",
"-  c #232425",
";  c #24262A",
":  c #27282C",
">  c #292A2D",
",  c #292323",
"<  c #322D2D",
"1  c #2B2C30",
"2  c #2F3133",
"3  c #323335",
"4  c #343538",
"5  c #383638",
"6  c #353B3D",
"7  c #3C3B3C",
"8  c #480C16",
"9  c #681319",
"0  c #741B1E",
"q  c #761518",
"w  c #771D20",
"e  c #403D3F",
"r  c #3B3D41",
"t  c #3E4146",
"y  c #424447",
"u  c #43464A",
"i  c #464A4C",
"p  c #484B4F",
"a  c #534D4E",
"s  c #4A4E50",
"d  c #4B5154",
"f  c #4E5558",
"g  c #4E5B5C",
"h  c #515756",
"j  c #515559",
"k  c #55595E",
"l  c #555E61",
"z  c #5A5E63",
"x  c #546364",
"c  c #596466",
"v  c #586768",
"b  c #5B696B",
"n  c #5C716D",
"m  c #5C7271",
"M  c #636466",
"N  c #64676A",
"B  c #636A6D",
"V  c #6D6D6F",
"C  c #6C6E73",
"Z  c #706F71",
"A  c #637474",
"S  c #6D7379",
"D  c #65797A",
"F  c #697278",
"G  c #717274",
"H  c #73787E",
"J  c #76797D",
"K  c #A63A14",
"L  c #851E20",
"P  c #C83518",
"I  c #D73D1D",
"U  c #E23329",
"Y  c #F03327",
"T  c #D04923",
"R  c #D95128",
"E  c #E15D26",
"W  c #E36423",
"Q  c #807D7F",
"!  c #F54E46",
"~  c #FB8A54",
"^  c #FA8C63",
"/  c #FDA57A",
"(  c #FDA477",
")  c #697E80",
"_  c #737B82",
"`  c #827F82",
"'  c #6A8082",
"]  c #708281",
"[  c #7B8087",
"{  c #7A838A",
"}  c #728889",
"|  c #7F8A90",
" . c #828486",
".. c #898C8D",
"X. c #838A92",
"o. c #8C8E92",
"O. c #839395",
"+. c #8A9295",
"@. c #86959A",
"#. c #8B949C",
"$. c #899A9F",
"%. c #959597",
"&. c #8B9DA2",
"*. c #929BA3",
"=. c #9F9EA1",
"-. c #959FA8",
";. c #86A3A3",
":. c #87ADA6",
">. c #8EA5AA",
",. c #8EAFAA",
"<. c #8CA2A5",
"1. c #9FA7A7",
"2. c #9BA4AD",
"3. c #90A9AC",
"4. c #96A5AD",
"5. c #9EAEB8",
"6. c #9EAEB7",
"7. c #95B3B4",
"8. c #9BB4B4",
"9. c #97B7B8",
"0. c #9DB5BB",
"q. c #97BBB9",
"w. c #9ABBBB",
"e. c #92BEB7",
"r. c #A9AAAB",
"t. c #A2ACB4",
"y. c #A1B6BD",
"u. c #A8B4BE",
"i. c #A0BBBE",
"p. c #A9B1B1",
"a. c #B2B3B3",
"s. c #94C2BB",
"d. c #FCC38D",
"f. c #A7B6C0",
"g. c #A4BDC3",
"h. c #ABBAC4",
"j. c #BEBFC0",
"k. c #B2BFCB",
"l. c #92CCC3",
"z. c #9BCBC4",
"x. c #A5C1C3",
"c. c #A4CBC7",
"v. c #AAC6CA",
"b. c #A6CBC9",
"n. c #B5C5C5",
"m. c #BFC6C6",
"M. c #B3C1CC",
"N. c #B6C9C8",
"B. c #BAD0CF",
"V. c #B9D9D7",
"C. c #BDDCD9",
"Z. c #BDD1D0",
"A. c #C6C4C5",
"S. c #C5CACA",
"D. c #CCCDCD",
"F. c #CED6D6",
"G. c #DBDEDF",
"H. c #D2DBDB",
"J. c #CEE5E2",
"K. c #DEE2E3",
"L. c #E3E6E7",
"P. c None",
/* pixels */
"P.P.P.P.P.P.P.P.P.P.P.P.P.P.P.P.P.P.P.P.P.P.P.P.P.P.P.P.P.P.P.P.P.P.P.P.P.P.P.P.P.P.P.P.P.P.P.P.P.P.",
"P.P.P.P.P.P.P.P.P.P.P.P.P.P.P.P.P.P.P.P.P.P.P.P.P.P.P.P.P.P.P.P.P.P.P.P.P.P.P.P.P.P.P.P.P.P.P.P.P.P.",
"P.P.P.P.P.P.P.P.P.P.P.P.P.P.P.P.P.P.P.P.P.P.P.P.P.P.P.P.P.P.P.P.P.P.P.P.P.P.P.P.P.P.P.P.P.P.P.P.P.P.",
"P.P.P.P.P.P.P.P.P.P.P.P.P.P.P.P.P.P.P.P.P.P.P.P.P.P.P.P.P.P.P.P.P.P.P.P.P.P.P.P.P.P.P.P.P.P.P.P.P.P.",
"P.P.P.P.P.P.P.P.P.P.P.P.P.P.P.P.P.P.P.P.P.P.P.P.P.P.P.P.P.P.P.P.P.P.P.P.P.P.P.P.P.P.P.P.P.P.P.P.P.P.",
"P.P.P.P.P.P.P.P.P.P.P.P.P.P.P.P.P.P.P.P.P.P.P.P.P.P.P.P.P.P.P.P.P.P.P.P.P.P.P.P.P.P.P.P.P.P.P.P.P.P.",
"P.P.P.P.P.P.P.P.P.P.P.P.P.P.P.P.P.P.P.P.P.P.P.P.P.P.P.P.P.P.P.P.P.P.P.P.P.P.P.P.P.P.P.P.P.P.P.P.P.P.",
"P.P.P.P.P.P.P.P.P.P.P.P.P.P.P.P.P.P.P.P.P.P.P.P.P.P.P.P.P.P.P.P.P.P.P.P.P.P.P.P.P.P.P.P.P.P.P.P.P.P.",
"P.P.P.P.P.P.P.P.P.P.P.P.P.P.P.P.P.P.P.P.P.P.P.P.P.P.P.P.P.P.P.P.P.P.P.P.P.P.P.P.P.P.P.P.P.P.P.P.P.P.",
"P.P.P.P.P.P.P.P.P.P.P.P.P.P.P.P.P.P.P.P.P.P.P.P.P.P.P.P.P.P.P.P.P.P.P.P.P.P.P.P.P.P.P.P.P.P.P.P.P.P.",
"P.P.P.P.P.P.P.P.P.P.P.P.P.P.P.P.P.P.P.P.P.P.P.P.P.P.P.P.P.P.P.P.P.P.P.P.P.P.P.P.P.P.P.P.P.P.P.P.P.P.",
"P.P.P.P.P.P.P.P.P.P.P.P.P.P.P.P.P.P.P.P.P.P.P.P.P.P.P.P.P.P.P.P.P.P.P.P.P.P.P.P.P.P.P.P.P.P.P.P.P.P.",
"P.P.P.P.P.P.P.P.P.P.P.P.P.P.P.P.P.P.P.P.P.P.P.P.P.P.P.P.P.P.P.P.P.P.P.P.P.P.P.P.P.P.P.P.P.P.P.P.P.P.",
"P.P.P.P.P.P.P.P.P.P.P.P.P.P.P.P.P.P.P.P.P.P.P.P.P.P.P.P.P.P.P.P.P.P.P.P.P.P.P.P.P.P.P.P.P.P.P.P.P.P.",
"P.P.P.P.P.P.P.P.P.P.P.P.P.P.P.P.P.P.P.P.P.P.P.P.P.P.P.P.P.P.P.P.P.P.P.P.P.P.P.P.P.P.P.P.P.P.P.P.P.P.",
"P.P.P.P.P.P.P.P.P.P.P.P.P.P.P.P.P.P.P.P.P.P.P.P.P.P.P.P.P.P.P.P.P.P.P.P.P.P.P.P.P.P.P.P.P.P.P.P.P.P.",
"P.P.P.P.P.P.P.P.P.P.P.P.P.P.P.P.  + + @ O P.P.P.P.P.P.P.P.P.P.P.P.6 f c k s   P.P.P.P.P.P.P.P.P.P.P.",
"P.P.P.P.P.P.P.P.P.P.P.P.P.P.P.P.o 7 i V V > - P.P.P.P.P.P.P.P.P.6 m 9.w.#.{ k   P.P.P.P.P.P.P.P.P.P.",
"P.P.P.P.P.P.P.P.P.P.P.P.P.P.P.P.P.y  .K.j.V B B > > 6 1 5 3 { b D 9.V.C.x.$.| j   P.P.P.P.P.P.P.P.P.",
"P.P.P.P.P.P.P.P.P.P.P.P.P.P.P.P.P.M G.L.D.%.#.t.S O.4.#.-.y.g.3.>.0.V.J.b.9.v.#.p   P.P.P.P.P.P.P.P.",
"P.P.P.P.P.P.P.P.P.P.P.P.P.P.P.P.P.M a.S.A.a.Z X.N D 0.f.h.g.9.>.&.>.0.c.D B f.-.z 2   P.P.P.P.P.P.P.",
"P.P.P.P.P.P.P.P.P.P.P.P.P.P.P.P.P., M +.r.A.p.c V p D 0.7.7.3.&.@.@.9.) : ; k l y t 2   P.P.P.P.P.P.",
"P.P.P.P.P.P.P.P.P.P.P.P.P.P.P.P.P.P.N *.J r.e.s.F.J p b v x ;.&.&.w.) > ; & o o + t r o   P.P.P.P.P.",
"P.P.P.P.P.P.P.P.P.P.P.P.P.P.P.P.P.P.k 2.o.M e.l.z.H.Z p z 4 g ;.w.v.X.: + P.P.P.P.# + P.P.P.P.P.P.P.",
"P.P.P.P.P.P.P.P.P.P.P.P.P.P.P.P.P.P.- B b M S.c.l.:...M +.] e l 0.h.*.z P.P.P.P.P.P.P.P.P.P.P.P.P.P.",
"P.P.P.P.P.P.P.P.P.P.P.P.P.P.P.P.P.P.> O.} s Z S.,.n 5 %.N.8. .J k.*.S u P.P.P.P.P.P.P.P.P.P.P.P.P.P.",
"P.P.P.P.P.P.P.P.P.P.P.P.P.P.P.P.P.P.> >.y.} d N  .e Q %.n.B.` G +._ z & P.P.P.P.P.P.P.P.P.P.P.P.P.P.",
"P.P.P.P.P.P.P.P.P.P.P.P.P.P.P.P.P.P.; +.u.y.A p N o.=.a h A % 3 s t & . $ w Y P.P.P.P.P.P.P.P.P.P.P.",
"P.P.P.P.P.P.P.P.P.P.P.P.P.P.P.P.P.P.3 #.f.9.b h O.N.n.c l Z < O P.P.P.$ 8 9 I P.P.P.P.P.P.P.P.P.P.P.",
"P.P.P.P.P.P.P.P.P.P.P.P.P.P.P.P.P.P.3 6.g.q.b 2 n 8.S.F B V e @ P.P.P.0 L K E P.P.P.P.P.P.P.P.P.P.P.",
"P.P.P.P.P.P.P.P.P.P.P.P.P.P.P.P.P.P._ 0.7.,.7.x 5 G  .% < e , @ P.P.P.P.T W ~ / P.P.P.P.P.P.P.P.P.P.",
"P.P.P.P.P.P.P.P.P.P.P.P.P.P.P.P.P.P.c >.>.$.$.7.b J _ 5 O O O P.P.P.P.P.P.P./ d.P.P.P.P.P.P.P.P.P.P.",
"P.P.P.P.P.P.P.P.P.P.P.P.P.P.P.P.P.r m >.&.@.@.w.g.k.#.k P.P.P.P.P.P.P.P.P.P.P.P.P.P.P.P.P.P.P.P.P.P.",
"P.P.P.P.P.P.P.P.P.P.P.P.P.P.P.P.6 m w.i.>.@.w.v.h.*._ r P.P.P.P.P.P.P.P.P.P.P.P.P.P.P.P.P.P.P.P.P.P.",
"P.P.P.P.P.P.P.P.P.P.P.P.P.P.P.P.f 9.V.C.x.w.' _ #.F z * . P.P.P.P.P.P.P.P.P.P.P.P.P.P.P.P.P.P.P.P.P.",
"P.P.P.P.P.P.P.P.P.P.P.P.P.P.P.P.f 7.C.J.c.) : : j t & . $ 9 U P.P.P.P.P.P.P.P.P.P.P.P.P.P.P.P.P.P.P.",
"P.P.P.P.P.P.P.P.P.P.P.P.P.P.P.P.f X.i.b.D 1 ; + P.P.P.$ 8 q P P.P.P.P.P.P.P.P.P.P.P.P.P.P.P.P.P.P.P.",
"P.P.P.P.P.P.P.P.P.P.P.P.P.P.P.P.p S @.i.D : # P.P.P.P.w 0 K W ^ P.P.P.P.P.P.P.P.P.P.P.P.P.P.P.P.P.P.",
"P.P.P.P.P.P.P.P.P.P.P.P.P.P.P.P.  d _ g.k.z + P.P.P.P.! R E ~ / P.P.P.P.P.P.P.P.P.P.P.P.P.P.P.P.P.P.",
"P.P.P.P.P.P.P.P.P.P.P.P.P.P.P.P.P.  s X.-.z # P.P.P.P.P.P.P./ d.P.P.P.P.P.P.P.P.P.P.P.P.P.P.P.P.P.P.",
"P.P.P.P.P.P.P.P.P.P.P.P.P.P.P.P.P.P.  u k u = P.P.P.P.P.P.P.P.P.P.P.P.P.P.P.P.P.P.P.P.P.P.P.P.P.P.P.",
"P.P.P.P.P.P.P.P.P.P.P.P.P.P.P.P.P.P.P.  1 r i # P.P.P.P.P.P.P.P.P.P.P.P.P.P.P.P.P.P.P.P.P.P.P.P.P.P.",
"P.P.P.P.P.P.P.P.P.P.P.P.P.P.P.P.P.P.P.P.  1 7 @ P.P.P.P.P.P.P.P.P.P.P.P.P.P.P.P.P.P.P.P.P.P.P.P.P.P.",
"P.P.P.P.P.P.P.P.P.P.P.P.P.P.P.P.P.P.P.P.P.  o P.P.P.P.P.P.P.P.P.P.P.P.P.P.P.P.P.P.P.P.P.P.P.P.P.P.P.",
"P.P.P.P.P.P.P.P.P.P.P.P.P.P.P.P.P.P.P.P.P.P.  P.P.P.P.P.P.P.P.P.P.P.P.P.P.P.P.P.P.P.P.P.P.P.P.P.P.P.",
"P.P.P.P.P.P.P.P.P.P.P.P.P.P.P.P.P.P.P.P.P.P.P.P.P.P.P.P.P.P.P.P.P.P.P.P.P.P.P.P.P.P.P.P.P.P.P.P.P.P.",
"P.P.P.P.P.P.P.P.P.P.P.P.P.P.P.P.P.P.P.P.P.P.P.P.P.P.P.P.P.P.P.P.P.P.P.P.P.P.P.P.P.P.P.P.P.P.P.P.P.P.",
"P.P.P.P.P.P.P.P.P.P.P.P.P.P.P.P.P.P.P.P.P.P.P.P.P.P.P.P.P.P.P.P.P.P.P.P.P.P.P.P.P.P.P.P.P.P.P.P.P.P.",
"P.P.P.P.P.P.P.P.P.P.P.P.P.P.P.P.P.P.P.P.P.P.P.P.P.P.P.P.P.P.P.P.P.P.P.P.P.P.P.P.P.P.P.P.P.P.P.P.P.P.",
"P.P.P.P.P.P.P.P.P.P.P.P.P.P.P.P.P.P.P.P.P.P.P.P.P.P.P.P.P.P.P.P.P.P.P.P.P.P.P.P.P.P.P.P.P.P.P.P.P.P."
};
