/* XPM */
static char *nave1___17[] = {
/* columns rows colors chars-per-pixel */
"50 50 168 2 ",
"   c #050404",
".  c #0C0C0C",
"X  c #060F18",
"o  c #0C0B19",
"O  c #150A18",
"+  c #0C1013",
"@  c #151515",
"#  c #181615",
"$  c #1A1A1B",
"%  c #221D1D",
"&  c #2E121C",
"*  c #33111B",
"=  c #1C1E22",
"-  c #141923",
";  c #1B2028",
":  c #222325",
">  c #2A2525",
",  c #232529",
"<  c #26292B",
"1  c #292A2C",
"2  c #312C2D",
"3  c #2C2E30",
"4  c #322F30",
"5  c #2D3133",
"6  c #333639",
"7  c #36393B",
"8  c #3A3A3D",
"9  c #363434",
"0  c #470B16",
"q  c #520D16",
"w  c #481019",
"e  c #62131A",
"r  c #73191A",
"t  c #3A3E42",
"y  c #3E4245",
"u  c #424444",
"i  c #424549",
"p  c #444A4D",
"a  c #4A4B4D",
"s  c #524B4C",
"d  c #474C51",
"f  c #4B4E52",
"g  c #4B5456",
"h  c #4D5759",
"j  c #53565A",
"k  c #545B5E",
"l  c #59595C",
"z  c #545456",
"x  c #545C60",
"c  c #5B5E61",
"v  c #605E60",
"b  c #546163",
"n  c #5D6166",
"m  c #5D6569",
"M  c #5D6D6E",
"N  c #5E6F70",
"B  c #5F7171",
"V  c #62656A",
"C  c #6A696B",
"Z  c #676567",
"A  c #646C71",
"S  c #6B6F73",
"D  c #647677",
"F  c #6D757B",
"G  c #6B7C7D",
"H  c #677F7B",
"J  c #727375",
"K  c #757679",
"L  c #74787D",
"P  c #971C1B",
"I  c #A81F19",
"U  c #912917",
"Y  c #A22E15",
"T  c #A7301F",
"R  c #B13231",
"E  c #D33F3B",
"W  c #E43126",
"Q  c #F4392D",
"!  c #D5551A",
"~  c #E14D1C",
"^  c #E5511E",
"/  c #E1552E",
"(  c #E76626",
")  c #EB6F35",
"_  c #F07533",
"`  c #F57F41",
"'  c #6F817E",
"]  c #FC8E5F",
"[  c #FF9668",
"{  c #FF9867",
"}  c #747B82",
"|  c #7B7F83",
" . c #6C8384",
".. c #6F8C87",
"X. c #738181",
"o. c #7C8285",
"O. c #7D848C",
"+. c #72898A",
"@. c #7A9193",
"#. c #7E9899",
"$. c #80868B",
"%. c #868687",
"&. c #858D94",
"*. c #898F93",
"=. c #859499",
"-. c #8A929A",
";. c #879799",
":. c #989C9F",
">. c #87A39F",
",. c #8A9DA2",
"<. c #959EA8",
"1. c #A19FA2",
"2. c #85A1A2",
"3. c #8DA2A6",
"4. c #8EA6A9",
"5. c #8CA9AB",
"6. c #91A6AB",
"7. c #99A4AD",
"8. c #91A9AD",
"9. c #90A7A5",
"0. c #90B1AC",
"q. c #93ADB0",
"w. c #9AABB3",
"e. c #95B4B5",
"r. c #99B7B9",
"t. c #97BBBA",
"y. c #9CBCBD",
"u. c #95B5B5",
"i. c #A6AAAC",
"p. c #AAAAAD",
"a. c #A2ADB7",
"s. c #A3B3BC",
"d. c #AAB4BD",
"f. c #AFB2B3",
"g. c #B1B2B3",
"h. c #B4BBBC",
"j. c #BBBABB",
"k. c #FCB889",
"l. c #8EC9BF",
"z. c #A4C2BE",
"x. c #FCC68F",
"c. c #FDF1A7",
"v. c #9FBCC0",
"b. c #A9B6C2",
"n. c #A4BCC2",
"m. c #AABBC5",
"M. c #ADBDC8",
"N. c #B1BFCA",
"B. c #91CAC1",
"V. c #9DC5C2",
"C. c #A3C5C5",
"Z. c #A9C8C7",
"A. c #ABC3CA",
"S. c #A9CAC8",
"D. c #B2C1CC",
"F. c #B3CECB",
"G. c #BBCDCD",
"H. c #AFD3D1",
"J. c #B4D4D3",
"K. c #B9D8D6",
"L. c #C3C4C4",
"P. c #CACCCD",
"I. c #C5DCDA",
"U. c #D4DADA",
"Y. c #D8DCDD",
"T. c #C8E2E0",
"R. c #D8E5E4",
"E. c None",
/* pixels */
"E.E.E.E.E.E.E.E.E.E.E.E.E.E.E.E.E.E.E.E.E.E.E.E.E.E.E.E.E.E.E.E.E.E.E.E.E.E.E.E.E.E.E.E.E.E.E.E.E.E.",
"E.E.E.E.E.E.E.E.E.E.E.E.E.E.E.E.E.E.E.E.E.E.E.E.E.E.E.E.E.E.E.E.E.E.E.E.E.E.E.E.E.E.E.E.E.E.E.E.E.E.",
"E.E.E.E.E.E.E.E.E.E.E.E.E.E.E.E.E.E.E.E.E.E.E.E.E.E.E.E.E.E.E.E.E.E.E.E.E.E.E.E.E.E.E.E.E.E.E.E.E.E.",
"E.E.E.E.E.E.E.E.E.E.E.E.E.E.E.E.E.E.E.E.E.E.E.E.E.E.E.E.E.E.E.E.E.E.E.E.E.E.E.E.E.E.E.E.E.E.E.E.E.E.",
"E.E.E.E.E.E.E.E.E.E.E.E.E.E.E.E.E.E.E.E.E.E.E.E.E.E.E.E.E.E.E.E.E.E.E.E.E.E.E.E.E.E.E.E.E.E.E.E.E.E.",
"E.E.E.E.E.E.E.E.E.E.E.E.E.E.E.E.E.E.E.E.E.E.E.E.E.E.E.E.E.E.E.E.E.E.E.E.E.E.E.E.E.E.E.E.E.E.E.E.E.E.",
"E.E.E.E.E.E.E.E.E.E.E.E.E.E.E.E.E.E.E.E.E.E.E.E.E.E.E.E.E.E.E.E.E.E.E.E.E.E.E.E.E.E.E.E.E.E.E.E.E.E.",
"E.E.E.E.E.E.E.E.E.E.E.E.E.E.E.E.E.E.E.E.E.E.E.E.E.E.E.E.E.E.E.E.E.E.E.E.E.E.E.E.E.E.E.E.E.E.E.E.E.E.",
"E.E.E.E.E.E.E.E.E.E.E.E.E.E.E.E.E.E.E.E.E.E.c.E.E.E.E.E.E.E.E.E.E.E.E.E.E.E.E.E.E.E.E.E.E.E.E.E.E.E.",
"E.E.E.E.E.E.E.E.E.E.E.E.E.E.E.E.E.E.E.E.E.k.k.E.E.E.E.E.E.E.E.E.E.E.E.E.E.E.E.E.E.E.E.E.E.E.E.E.E.E.",
"E.E.E.E.E.E.E.E.E.E.E.E.. E.E.E.E.E.E.E.E.] [ E.E.E.E.E.E.E.E.E.E.c.E.E.E.E.E.E.E.E.E.E.E.E.E.E.E.E.",
"E.E.E.E.E.E.E.E.E.E.E.E., 1 E.E.E.E.E.E.~ ! ( _ E.E.E.E.E.E.E.E.E.x.E.E.E.E.E.E.E.E.E.E.E.E.E.E.E.E.",
"E.E.E.E.E.E.E.E.E.E.E.  8 i $ E.E.E.E.W P r T / E.E.E.E.E.E.E.E.[ { E.E.E.E.E.E.E.E.E.E.E.E.E.E.E.E.",
"E.E.E.E.E.E.E.E.E.E.E.. t y + E.E.E.E.E.w 0 r R E.E.E.E.E.E.E.^ ( ) ` E.E.E.E.E.E.E.E.E.E.E.E.E.E.E.",
"E.E.E.E.E.E.E.E.E.E.E.$ h x , E.E.E.E.E.o o & E.E.E.E.E.E.E.Q I U T ( E.E.E.E.E.E.E.E.E.E.E.E.E.E.E.",
"E.E.E.E.E.E.E.E.E.E.E.6 &.<.j @ E.E.E.1 ; ; + E.E.E.E.E.E.E.E.e q e E E.E.E.E.E.E.E.E.E.E.E.E.E.E.E.",
"E.E.E.E.E.E.E.E.E.E.E.f w.A.m , : $ i m V c t E.E.@ # # E.E.E.O O & E.E.E.E.E.E.@ . . E.E.E.E.E.E.E.",
"E.E.E.E.E.E.E.E.E.E.  V 3.t.x 5 3 = } <.-.*.V 1 # > > % E.E.E.= - X E.E.E.E.E.= p 3 E.E.E.E.E.E.E.E.",
"E.E.E.E.E.E.E.E.E.E.+ F &.C.C.e.,. .w.A.D.D.| 4 > j c 2 @ t h c d 6 E.E.E.E.E.3 u < E.E.E.E.E.E.E.E.",
"E.E.E.E.E.E.E.E.E.E.: S ,.J.R.J.5.4.r.v.2.c L C u } } 2 % m -.&.| A < . E.@ 7 d y = E.E.E.E.E.E.E.E.",
"E.E.E.E.E.E.E.E.E.E.E.i @.J.K.S.4.=.=.,.+.7 *.G.0.u k ' C | b.N.s.-.3 , , , O.-.x $ E.E.E.E.E.E.E.E.",
"E.E.E.E.E.E.E.E.E.E.E.E.M 2.t.r.4.,.,.3.B y >.F.i.s K J.h.Z h v.A.8.p 6 1 6 m.D.V . E.E.E.E.E.E.E.E.",
"E.E.E.E.E.E.E.E.E.E.E.E.5 p g A ,.q.q.5.g p O.:.1.1.p.G.5.d x q.8.u.e.e.2.@.v.4.x E.E.E.E.E.E.E.E.E.",
"E.E.E.E.E.E.E.E.E.E.E.E.E.E.E.3 ,.v.v.t. .k j Z 8 9 v *.' 6 } 3.=.=.2.C.T.J.w.} a E.E.E.E.E.E.E.E.E.",
"E.E.E.E.E.E.E.E.E.E.E.E.E.E.E.E.g } b.m.s.N a p...' ' v l 9 #.9.3.,.4.S.T.K.3.F 7 E.E.E.E.E.E.E.E.E.",
"E.E.E.E.E.E.E.E.E.E.E.E.E.E.E.E.E.7 $.a.s.M l U.l.z.f.p M ..t.u.q.4.4.V.H.C.} k : E.E.E.E.E.E.E.E.E.",
"E.E.E.E.E.E.E.E.E.E.E.E.E.E.E.E.E.E.f w.0.b J I.l.S.i.p #.A.A.A.n.=.b b B D y E.E.E.E.E.E.E.E.E.E.E.",
"E.E.E.E.E.E.E.E.E.E.E.E.E.E.E.E.E.E.E.G @.x K z.l.F.%.h 3.d.7.O.A n E.E.5 3 E.E.E.E.E.E.E.E.E.E.E.E.",
"E.E.E.E.E.E.E.E.E.E.E.E.E.E.E.E.E.E.E.$ m *.n >.u.X.l M q.7.x 3 E.E.E.E.E.E.E.E.E.E.E.E.E.E.E.E.E.E.",
"E.E.E.E.E.E.E.E.E.E.E.E.E.E.E.E.E.E.E.$ S d.S j.j.L *.F } p E.E.E.E.E.E.E.E.E.E.E.E.E.E.E.E.E.E.E.E.",
"E.E.E.E.E.E.E.E.E.E.E.E.E.E.E.E.E.E.E.E.z &.%.L.f.L d.m @ E.E.E.E.E.E.E.E.E.E.E.E.E.E.E.E.E.E.E.E.E.",
"E.E.E.E.E.E.E.E.E.E.E.E.E.E.E.E.E.E.E.E.< C f.P.g.o.| p E.E.E.E.E.E.E.E.E.E.E.E.E.E.E.E.E.E.E.E.E.E.",
"E.E.E.E.E.E.E.E.E.E.E.E.E.E.E.E.E.E.E.E., %.U.R.L.J 7 E.E.E.E.E.E.E.E.E.E.E.E.E.E.E.E.E.E.E.E.E.E.E.",
"E.E.E.E.E.E.E.E.E.E.E.E.E.E.E.E.E.E.E.E.@ J j.Y.P.v $ E.E.E.E.E.E.E.E.E.E.E.E.E.E.E.E.E.E.E.E.E.E.E.",
"E.E.E.E.E.E.E.E.E.E.E.E.E.E.E.E.E.E.E.E.E.< a z s 1 E.E.E.E.E.E.E.E.E.E.E.E.E.E.E.E.E.E.E.E.E.E.E.E.",
"E.E.E.E.E.E.E.E.E.E.E.E.E.E.E.E.E.E.E.E.E.E.9 6 # E.E.E.E.E.E.E.E.E.E.E.E.E.E.E.E.E.E.E.E.E.E.E.E.E.",
"E.E.E.E.E.E.E.E.E.E.E.E.E.E.E.E.E.E.E.E.E.E.. . E.E.E.E.E.E.E.E.E.E.E.E.E.E.E.E.E.E.E.E.E.E.E.E.E.E.",
"E.E.E.E.E.E.E.E.E.E.E.E.E.E.E.E.E.E.E.E.E.E.E.E.E.E.E.E.E.E.E.E.E.E.E.E.E.E.E.E.E.E.E.E.E.E.E.E.E.E.",
"E.E.E.E.E.E.E.E.E.E.E.E.E.E.E.E.E.E.E.E.E.E.E.E.E.E.E.E.E.E.E.E.E.E.E.E.E.E.E.E.E.E.E.E.E.E.E.E.E.E.",
"E.E.E.E.E.E.E.E.E.E.E.E.E.E.E.E.E.E.E.E.E.E.E.E.E.E.E.E.E.E.E.E.E.E.E.E.E.E.E.E.E.E.E.E.E.E.E.E.E.E.",
"E.E.E.E.E.E.E.E.E.E.E.E.E.E.E.E.E.E.E.E.E.E.E.E.E.E.E.E.E.E.E.E.E.E.E.E.E.E.E.E.E.E.E.E.E.E.E.E.E.E.",
"E.E.E.E.E.E.E.E.E.E.E.E.E.E.E.E.E.E.E.E.E.E.E.E.E.E.E.E.E.E.E.E.E.E.E.E.E.E.E.E.E.E.E.E.E.E.E.E.E.E.",
"E.E.E.E.E.E.E.E.E.E.E.E.E.E.E.E.E.E.E.E.E.E.E.E.E.E.E.E.E.E.E.E.E.E.E.E.E.E.E.E.E.E.E.E.E.E.E.E.E.E.",
"E.E.E.E.E.E.E.E.E.E.E.E.E.E.E.E.E.E.E.E.E.E.E.E.E.E.E.E.E.E.E.E.E.E.E.E.E.E.E.E.E.E.E.E.E.E.E.E.E.E.",
"E.E.E.E.E.E.E.E.E.E.E.E.E.E.E.E.E.E.E.E.E.E.E.E.E.E.E.E.E.E.E.E.E.E.E.E.E.E.E.E.E.E.E.E.E.E.E.E.E.E.",
"E.E.E.E.E.E.E.E.E.E.E.E.E.E.E.E.E.E.E.E.E.E.E.E.E.E.E.E.E.E.E.E.E.E.E.E.E.E.E.E.E.E.E.E.E.E.E.E.E.E.",
"E.E.E.E.E.E.E.E.E.E.E.E.E.E.E.E.E.E.E.E.E.E.E.E.E.E.E.E.E.E.E.E.E.E.E.E.E.E.E.E.E.E.E.E.E.E.E.E.E.E.",
"E.E.E.E.E.E.E.E.E.E.E.E.E.E.E.E.E.E.E.E.E.E.E.E.E.E.E.E.E.E.E.E.E.E.E.E.E.E.E.E.E.E.E.E.E.E.E.E.E.E.",
"E.E.E.E.E.E.E.E.E.E.E.E.E.E.E.E.E.E.E.E.E.E.E.E.E.E.E.E.E.E.E.E.E.E.E.E.E.E.E.E.E.E.E.E.E.E.E.E.E.E.",
"E.E.E.E.E.E.E.E.E.E.E.E.E.E.E.E.E.E.E.E.E.E.E.E.E.E.E.E.E.E.E.E.E.E.E.E.E.E.E.E.E.E.E.E.E.E.E.E.E.E."
};
